<svg width="13" height="16" viewBox="0 0 13 16" fill="none" xmlns="http://www.w3.org/2000/svg">
<g clip-path="url(#clip0_480_761)">
<path d="M6.5537 16C6.44919 15.9906 6.35089 15.945 6.27501 15.8706C6.19912 15.7963 6.15013 15.6975 6.13616 15.5908C4.96584 11.1279 4.61161 9.23104 0.392149 8.37355C0.281417 8.37355 0.17519 8.32839 0.0968906 8.24798C0.0185907 8.16757 -0.0253906 8.05849 -0.0253906 7.94478C-0.0253906 7.83107 0.0185907 7.72203 0.0968906 7.64162C0.17519 7.56122 0.281417 7.51605 0.392149 7.51605C5.40237 7.38613 5.11134 5.43728 6.13616 0.402769C6.14514 0.296838 6.19106 0.197782 6.26543 0.123797C6.3398 0.0498114 6.43765 0.00586564 6.54104 1.1396e-05C6.64797 -0.00179456 6.7514 0.0392453 6.82934 0.114439C6.90729 0.189633 6.95365 0.293061 6.95858 0.402769C7.04714 6.57411 7.67973 7.37313 12.6014 7.50955C12.6537 7.5104 12.7054 7.52182 12.7534 7.54317C12.8015 7.56453 12.8449 7.5954 12.8814 7.63401C12.9178 7.67262 12.9464 7.7182 12.9657 7.76818C12.9849 7.81817 12.9944 7.87157 12.9936 7.92531V7.96429C12.9936 8.19165 12.8038 8.28911 12.6014 8.38005C8.30601 10.2509 7.04081 9.32847 6.95858 15.5908C6.95691 15.6999 6.91351 15.804 6.83776 15.8806C6.76201 15.9571 6.65999 16 6.5537 16Z" fill="#E6E23B"/>
<path d="M6.5537 16C6.44919 15.9906 6.35089 15.945 6.27501 15.8706C6.19912 15.7963 6.15013 15.6975 6.13616 15.5908C4.96584 11.1279 4.61161 9.23104 0.392149 8.37355C0.281417 8.37355 0.17519 8.32839 0.0968906 8.24798C0.0185907 8.16757 -0.0253906 8.05849 -0.0253906 7.94478C-0.0253906 7.83107 0.0185907 7.72203 0.0968906 7.64162C0.17519 7.56122 0.281417 7.51605 0.392149 7.51605C5.40237 7.38613 5.11134 5.43728 6.13616 0.402769C6.14514 0.296838 6.19106 0.197782 6.26543 0.123797C6.3398 0.0498114 6.43765 0.00586564 6.54104 1.1396e-05C6.64797 -0.00179456 6.7514 0.0392453 6.82934 0.114439C6.90729 0.189633 6.95365 0.293061 6.95858 0.402769C7.04714 6.57411 7.67973 7.37313 12.6014 7.50955C12.6537 7.5104 12.7054 7.52182 12.7534 7.54317C12.8015 7.56453 12.8449 7.5954 12.8814 7.63401C12.9178 7.67262 12.9464 7.7182 12.9657 7.76818C12.9849 7.81817 12.9944 7.87157 12.9936 7.92531V7.96429C12.9936 8.19165 12.8038 8.28911 12.6014 8.38005C8.30601 10.2509 7.04081 9.32847 6.95858 15.5908C6.95691 15.6999 6.91351 15.804 6.83776 15.8806C6.76201 15.9571 6.65999 16 6.5537 16ZM2.41016 7.99026C3.9031 8.41901 5.84516 11.4722 6.25002 13.1872C6.3892 10.998 8.43252 8.58141 9.93811 8.15266C8.4515 7.71742 6.96489 6.65207 6.5537 4.96307C6.15516 6.65207 3.91575 7.55502 2.41016 7.99026Z" fill="#009347"/>
</g>
<defs>
<clipPath id="clip0_480_761">
<rect width="13" height="16" fill="white"/>
</clipPath>
</defs>
</svg>