<svg width="63" height="24" fill="none" xmlns="http://www.w3.org/2000/svg"><g clip-path="url(#a)"><path d="M55.89 2.351c-1.11.024-2.218.036-3.326.035-.276 0-.376.122-.432.383-.353 1.644-.803 3.262-1.26 4.879-.384 1.362-1.028 2.627-1.455 3.974-.062.241-.189.46-.367.629-.025-.797 0-1.525-.06-2.25-.084-.964-.062-1.933-.163-2.9-.167-1.644-.334-3.294-.267-4.952.009-.21-.012-.269-.224-.262-.837.029-1.667.04-2.5.06-.138 0-.268.015-.315.198-.195.773-.401 1.545-.6 2.318-.368 1.428-.43 2.912-.74 4.351l-.539 2.517-.134-.007c0-.37.023-.741-.005-1.109-.194-2.641-.535-5.27-.67-7.916-.01-.227-.07-.35-.339-.343-1.11.016-2.215.048-3.315.218-.251.039-.368.111-.327.391.223 1.486.208 2.995.399 4.484.186 1.346.294 2.703.322 4.062.012 1.01.019 2.022.021 3.032.005 2.022.121 4.035.222 6.055.02.406-.02.813.032 1.22.04.32.162.445.497.451 1.558.036 3.117.059 4.672.2.267.025.377-.081.418-.328.112-.664.219-1.328.343-1.99.267-1.415.622-2.812.826-4.24.112-.786.179-1.581.418-2.422.048.206.084.343.109.476.147.786.145 1.596.27 2.378.282 1.766.262 3.551.448 5.322.029.265.084.36.353.368.958.03 1.914.097 2.871.128.695.023.957.106.988-.815.01-.07.027-.137.05-.203.301-1.278.61-2.555.94-3.827.398-1.528.763-3.068 1.106-4.61.404-1.816.882-3.616 1.16-5.46.209-1.386.58-2.738.883-4.102.083-.369-.011-.399-.31-.393Zm-.124.756c-.739 2.358-.994 4.827-1.568 7.225-.335 1.404-.68 2.805-1.005 4.206-.481 2.076-1.055 4.126-1.564 6.193-.07.286-.19.382-.483.351-.366-.04-.74-.01-1.108-.01v-.028c-.438 0-.877-.008-1.314 0-.323.007-.43-.116-.443-.465-.05-1.276-.024-2.56-.24-3.82-.198-1.165-.286-2.34-.435-3.507-.052-.399-.2-.785-.312-1.175-.04-.138-.11-.267-.278-.268-.2 0-.175.172-.211.303-.586 2.055-.71 4.199-1.159 6.282-.198.916-.455 1.822-.553 2.761-.027.252-.21.324-.411.322a39.18 39.18 0 0 1-4.101-.21c-.242-.027-.19-.193-.2-.334-.097-1.429-.18-2.858-.287-4.285-.188-2.494-.084-4.997-.222-7.491-.084-1.525-.261-3.045-.413-4.565-.063-.628-.045-1.265-.2-1.881-.047-.192.075-.213.204-.222.341-.022.683-.031 1.023-.06a40.874 40.874 0 0 0 1.511-.146c.26-.03.37.062.385.337.154 2.62.56 5.217.67 7.84.024.574.115 1.145.178 1.718.015.14.024.298.207.31.162.012.252-.112.3-.246.193-.51.342-1.038.444-1.575.46-2.338.92-4.677 1.384-7.014.072-.357.187-.704.285-1.055.032-.119.05-.24.221-.253a60.61 60.61 0 0 0 1.758-.142c.208-.018.27.046.277.279.093 2.875.238 5.751.491 8.613.054.615 0 1.237.105 1.85.018.11.037.22.064.328.02.08.043.179.131.2.119.031.157-.085.213-.161.341-.457.431-1.03.65-1.538.907-2.111 1.578-4.308 2.202-6.524.205-.726.374-1.464.557-2.197.033-.135.029-.29.229-.282.904.037 1.796-.172 2.703-.115.338.032.422.108.315.45Z" fill="#00934A"/><path d="M55.456 2.665c-.908-.06-1.8.152-2.704.115-.2-.007-.196.147-.23.282-.182.733-.35 1.471-.556 2.198-.624 2.212-1.295 4.409-2.201 6.524-.22.51-.31 1.08-.651 1.537-.056.075-.094.192-.213.162-.084-.022-.11-.12-.13-.2-.028-.109-.047-.22-.065-.33-.102-.611-.05-1.234-.105-1.848a156.541 156.541 0 0 1-.49-8.614c-.008-.232-.07-.297-.278-.279a80.81 80.81 0 0 1-1.758.143c-.167.012-.189.134-.221.252-.098.351-.213.699-.285 1.055-.467 2.337-.928 4.675-1.383 7.014a9.469 9.469 0 0 1-.446 1.575c-.05.134-.137.258-.299.247-.183-.013-.192-.172-.207-.31-.063-.573-.154-1.143-.178-1.718-.113-2.624-.52-5.22-.67-7.84-.016-.275-.125-.368-.385-.338-.502.058-1.004.105-1.51.147-.341.028-.683.038-1.024.06-.13.008-.251.03-.204.221.155.617.138 1.254.2 1.881.152 1.52.327 3.04.413 4.565.142 2.494.034 4.997.222 7.491.107 1.428.19 2.857.287 4.285.01.141-.042.308.2.335 1.363.142 2.731.211 4.101.21.201 0 .384-.07.411-.322.098-.94.355-1.845.553-2.762.449-2.082.573-4.227 1.159-6.282.037-.129.01-.303.212-.302.167 0 .238.13.277.268.112.39.26.772.312 1.175.15 1.167.237 2.342.436 3.506.215 1.26.189 2.545.24 3.82.012.35.119.473.442.465.438-.01.876 0 1.314 0v.03c.37 0 .742-.03 1.108.009.294.03.413-.066.483-.351.509-2.068 1.083-4.12 1.564-6.193.325-1.405.67-2.807 1.005-4.207.574-2.397.83-4.867 1.568-7.225.103-.352.019-.428-.315-.45Z" fill="#FFF100"/><path d="M17.367 1.626c-.964.189-1.933.109-2.902.067-.23-.01-.34.06-.385.31-.118.633-.274 1.257-.405 1.89-.418 2.018-1.073 3.972-1.576 5.968-.06.238-.098.492-.28.704-.148-.503-.068-1.03-.222-1.505-.346-1.074-.432-2.196-.623-3.298-.21-1.202-.329-2.417-.426-3.633-.024-.287-.118-.43-.45-.452-1.067-.086-2.134-.04-3.2-.072-.389-.012-.54.13-.586.5-.258 2.03-.622 4.043-.77 6.089-.056.772-.28 1.536-.443 2.391-.068-.13-.1-.164-.102-.199-.073-1.19-.306-2.356-.48-3.531-.218-1.47-.518-2.927-.622-4.411-.014-.198-.104-.165-.198-.154-1.114.13-2.237.196-3.338.43-.187.039-.405.113-.348.416.139.743.237 1.496.404 2.232.483 2.118.958 4.241 1.187 6.4.298 2.817.731 5.618.957 8.441.092 1.145.326 2.279.27 3.434-.017.315.187.385.43.36.898-.095 1.796-.192 2.692-.31.394-.05.692-.232.7-.716.015-.21.05-.418.1-.622.562-2.872 1.044-5.762 1.815-8.638.282 1.703.56 3.36.73 5.035.146 1.451.442 2.882.585 4.332.054.53.26.657.71.656 1.08 0 2.161.026 3.242.028.601 0 .58-.016.729-.623.618-2.54.989-5.127 1.33-7.717.167-1.26.303-2.523.46-3.783.12-.96.262-1.917.377-2.877.146-1.225.26-2.453.339-3.684.073-1.09.224-2.173.45-3.24.035-.18.037-.257-.15-.218Zm-.238.746c-.307 1.603-.368 3.233-.51 4.853-.167 1.932-.538 3.835-.726 5.762-.193 1.984-.518 3.949-.803 5.92a42.05 42.05 0 0 1-.837 4.162c-.055.22-.146.311-.363.293-.15-.012-.3 0-.452 0-.944-.111-1.887.008-2.83.016-.289 0-.419-.054-.468-.392-.29-1.86-.395-3.74-.642-5.604-.206-1.556-.449-3.108-.685-4.66-.018-.121.03-.33-.15-.343-.18-.014-.177.185-.203.312-.509 2.502-1.188 4.963-1.681 7.468-.168.852-.398 1.692-.565 2.544-.084.407-.297.56-.67.585-.614.042-1.232.07-1.841.16-.419.06-.52-.131-.55-.491-.065-.826-.167-1.648-.212-2.474-.109-1.838-.434-3.648-.617-5.476-.083-.823-.104-1.652-.186-2.476-.163-1.65-.517-3.267-.803-4.893-.243-1.38-.586-2.74-.79-4.13-.05-.344.033-.446.335-.495.798-.13 1.59-.27 2.386-.43.243-.047.233.087.251.25.12.975.2 1.958.38 2.92.363 1.916.526 3.862.838 5.785.032.204-.019.552.214.567.214.013.251-.337.297-.538.278-1.201.556-2.403.643-3.64.089-1.246.266-2.484.53-3.704.145-.673.167-1.362.273-2.04.032-.208.104-.282.311-.29.972-.028 1.943-.06 2.914.028.182.016.257.059.277.258.255 2.641.728 5.249 1.134 7.867.058.374.095.75.161 1.122.021.123.008.317.197.319.167 0 .217-.162.26-.292a21.9 21.9 0 0 0 .346-1.168c.53-2.032 1.188-4.034 1.612-6.095.104-.507.237-1.008.345-1.515.04-.18.084-.3.31-.295.767.018 1.534.01 2.301.014.152-.002.318-.024.269.233v.003Z" fill="#00934A"/><path d="M16.857 2.133c-.767 0-1.534.005-2.301-.014-.229-.005-.27.115-.31.296-.109.506-.24 1.008-.346 1.515-.423 2.06-1.082 4.06-1.611 6.095-.103.393-.224.78-.347 1.167-.042.13-.095.293-.26.292-.189 0-.175-.196-.196-.318-.066-.372-.103-.749-.16-1.122-.407-2.619-.88-5.226-1.136-7.868-.02-.202-.094-.245-.276-.257-.97-.086-1.943-.056-2.914-.028-.207.007-.28.082-.31.289-.106.679-.129 1.367-.275 2.04a26.345 26.345 0 0 0-.53 3.704c-.083 1.234-.364 2.44-.642 3.64-.046.202-.084.552-.297.538-.233-.014-.182-.363-.215-.566-.307-1.924-.47-3.87-.837-5.786-.181-.963-.26-1.946-.38-2.919-.02-.164-.01-.298-.251-.25a84.2 84.2 0 0 1-2.386.43c-.301.048-.384.151-.335.494.204 1.39.547 2.747.79 4.13.286 1.632.64 3.247.803 4.894.084.823.103 1.652.186 2.476.182 1.827.508 3.637.617 5.475.048.826.147 1.649.212 2.474.029.36.132.552.55.49.608-.085 1.226-.117 1.84-.16.375-.024.593-.177.67-.584.168-.852.397-1.692.565-2.543.494-2.505 1.172-4.966 1.682-7.469.026-.127.018-.33.203-.312.185.017.132.225.15.343.236 1.552.479 3.104.685 4.66.25 1.864.351 3.745.642 5.605.052.338.179.393.467.391.944-.008 1.887-.127 2.831-.015.15 0 .302-.01.452 0 .217.018.308-.074.362-.294.35-1.372.629-2.761.837-4.162.286-1.97.61-3.935.804-5.92.188-1.927.558-3.83.726-5.761.142-1.62.203-3.251.51-4.854.052-.257-.114-.235-.27-.236Z" fill="#FFF100"/><path d="M38.1 8.504c-.355-1.5-.813-2.942-1.795-4.15-.586-.723-1.172-1.455-1.858-2.075-.602-.543-1.24-1.068-2.013-1.354-1.75-.647-3.521-1.088-5.416-.867-1.284.149-2.484.369-3.634 1.097-2.635 1.67-4.24 4.15-5.407 6.96a11.336 11.336 0 0 0-.837 5.258c.183 2.305.636 4.508 2.015 6.43 1.74 2.422 3.963 3.937 6.947 4.12.74.034 1.482-.03 2.206-.19 1.616-.343 3.125-.926 4.52-1.88 1.25-.853 2.225-1.929 3.068-3.165.96-1.41 1.534-3 1.93-4.65.439-1.82.72-3.656.274-5.534Zm-.51 4.264a16.189 16.189 0 0 1-1.154 3.894c-.608 1.35-1.4 2.598-2.477 3.636-1.888 1.82-4.16 2.796-6.688 3.09-1.527.178-3.013-.198-4.407-.914-1.359-.696-2.42-1.737-3.348-2.927-.502-.64-.933-1.353-1.157-2.166-.251-.917-.536-1.827-.753-2.754-.389-1.68-.251-3.36.2-4.996.79-2.851 2.15-5.36 4.41-7.286C23.09 1.6 24.032.972 25.154.731A15.347 15.347 0 0 1 28.26.387c2.511.302 4.812 1.071 6.564 3.105.717.833 1.46 1.655 1.909 2.668.94 2.104 1.257 4.297.855 6.608Z" fill="#00934A"/><path d="M34.83 3.491C33.08 1.458 30.78.688 28.268.386A15.347 15.347 0 0 0 25.16.73c-1.122.237-2.064.87-2.938 1.614-2.26 1.927-3.62 4.435-4.41 7.286-.452 1.636-.585 3.317-.2 4.996.215.927.497 1.837.753 2.755.224.812.658 1.524 1.157 2.166.925 1.19 1.986 2.231 3.348 2.926 1.397.716 2.88 1.092 4.407.914 2.528-.294 4.8-1.27 6.688-3.09 1.077-1.038 1.87-2.285 2.477-3.636.545-1.242.933-2.55 1.153-3.894.402-2.311.084-4.504-.85-6.61-.455-1.012-1.197-1.833-1.914-2.666Z" fill="#FFF100"/><path d="M62.99 9.472c.055-1.603-.172-3.198-.083-4.799v-1.98c0-.475-.091-.566-.538-.501-1.21.171-2.422.156-3.636.057-.256-.02-.376.078-.318.33.101.433-.008.862.005 1.292.05 1.651-.07 3.302.056 4.957.121 1.593.126 3.198.1 4.799-.007.365.011.73.056 1.092.121.917.25 1.84.218 2.765-.024.716-.045.74.656.76.123 0 .247-.005.369.008.83.086 1.66-.086 2.493.024.296.039.526-.143.516-.508-.01-.351-.03-.702-.025-1.053.035-2.414.05-4.83.132-7.243Zm-.723 8.315c-.916-.039-1.832-.067-2.749-.091-.176 0-.233-.074-.24-.251-.101-2.295-.372-4.58-.322-6.886.028-1.3-.07-2.607-.168-3.91-.078-1.019.039-2.046.103-3.068.009-.14.047-.296 0-.419-.176-.486.09-.475.434-.468.887.017 1.778.104 2.662-.07.304-.06.431.035.434.386.012 2.441.154 4.882.057 6.971.014 1.968.055 3.582-.019 5.197-.035.772.031 1.545.066 2.313.01.213-.027.306-.258.296ZM62.32 19.598c-.492.007-.969-.183-1.464-.099a4.936 4.936 0 0 1-1.345.063c-.214-.022-.452.046-.372.343.192.72.075 1.448.1 2.172.028.82.039.82.83.818.858.022 1.68-.2 2.51-.383.18-.04.283-.105.281-.33a14.344 14.344 0 0 0-.192-2.175c-.036-.202-.125-.412-.348-.409Zm-.111 2.366c-.706.199-1.439.166-2.153.287-.186.032-.2-.11-.212-.232-.05-.515-.092-1.03-.14-1.545-.017-.172.074-.21.22-.218.558-.034 1.117-.076 1.594-.11.205 0 .329.01.45 0 .245-.022.36.086.345.337-.024.383.1.749.129 1.125.014.185-.021.296-.233.356Z" fill="#00934A"/><path d="M62.46 15.178c.073-1.615.032-3.229.018-5.197.097-2.089-.045-4.53-.057-6.971 0-.351-.13-.446-.434-.386-.884.172-1.775.086-2.662.07-.343-.007-.61-.018-.435.468.045.123.006.279 0 .419-.063 1.022-.18 2.05-.102 3.068.1 1.303.2 2.61.168 3.91-.05 2.306.22 4.59.321 6.886.008.177.065.246.241.25.917.025 1.833.053 2.749.092.23.01.268-.086.258-.296-.035-.77-.1-1.545-.066-2.313ZM62.313 20.478c.016-.258-.1-.359-.344-.337-.122.012-.246 0-.451 0-.477.034-1.036.076-1.595.11-.145.008-.236.043-.22.217.05.515.09 1.03.142 1.546.011.122.025.264.211.232.714-.122 1.447-.086 2.153-.287.212-.06.251-.172.233-.36-.03-.373-.153-.738-.13-1.121Z" fill="#FFF100"/><path d="M24.163 7.24a.764.764 0 0 1 .305-.39l-1.484.22-1.155.222s-.418.13-.418-.39c0 0-.077-.404.66-.495l3.222-.494.12-.04s-.729-.507-.628-1.223c0 0 0-1.509.711-1.561 0 0 .12.065.159-.137 0 0 .335-.93 1.649-1.138 0 0 2.052-.352 2.633 1.658 0 0 .171.889-.143 1.572l.761-.117.084-.02s-.084-.986 1.288-1.454c0 0 1.395-.39 2.208.39 0 0 .634.743.025 1.575 0 0-.714.807-1.846.807 0 0-1.046.048-1.608-.83l-1.263.231a.102.102 0 0 0-.055.086s-.02.071.119.071c0 0 1.722.595 2.61 1.91 0 0 2.093 2.55 1.396 5.065 0 0 .863-.13 1.088 1.041 0 0 .115 2.356-2.105 2.954 0 0-.889 2.697-1.535 3.488 0 0-1.79 2.404-3.92 2.404-2.132 0-3.224-1.47-3.224-1.47s-1.066-1.041-1.459-2.057c0 0-.597-1.6-.57-2.654 0 0-.99-.416-1.18-1.42 0 0-.153-1.365.95-1.3 0 0 .064-.286-.151-.794 0 0-1.066.182-1.066-.338.004.002-.18-4.24 3.822-5.372Z" fill="#00934A"/><path d="M21.703 16.01s.063-1.888-.153-2.068c0 0-.533.117-.533.872 0 0-.05.804.686 1.197ZM21.779 12.992s.361.702.38 3.63c0 0 .095 3.005 2.436 4.722 0 0 2.344 1.952 4.625 0a9.78 9.78 0 0 0 2.112-2.693s.933-2.304.971-3.533c0 0 .007-.274.197-.274 0 0 .234-.019.209.209 0 0-.038.84-.101.995 0 0-.089.344.278.066 0 0 .768-.362 1.216-1.546 0 0 .352-1.327-.448-1.327a.866.866 0 0 0-.562.137.902.902 0 0 0-.359.464.248.248 0 0 1-.142.16.234.234 0 0 1-.21-.017s-.21-.091-.013-.56c0 0-.406-.715-.843-.744 0 0-1.228-.351-2.332-.078 0 0-.742.478-.713-.059l-.267-.196s-.01.42-.238.42c0 0-2.693.351-3.766.205a.454.454 0 0 1-.378-.216.186.186 0 0 0-.122-.086.117.117 0 0 0-.119.048.191.191 0 0 0-.035.098c-.004.046-.077.144-.612.144l-1.164.03Z" fill="#fff"/><path d="M23.406 14.114c.264-.222.591-.349.932-.361 0 0 .419-.056.863.35a.62.62 0 0 0 .05.043c.053.041.206.178.083.349 0 0-.163.185-.408-.121a.354.354 0 0 0-.05-.051c-.12-.096-.586-.419-1.005-.092l-.25.172a.203.203 0 0 1-.245-.005.155.155 0 0 1-.051-.19.312.312 0 0 1 .081-.094ZM28.145 14.25c.11-.15.252-.271.415-.356.164-.084.344-.13.527-.132 0 0 .485-.058.951.42 0 0 .195.2.039.361 0 0-.168.113-.387-.15a.42.42 0 0 0-.12-.102c-.147-.081-.478-.226-.805-.102a.55.55 0 0 0-.237.18c-.077.1-.228.25-.393.155 0 0-.105-.059.01-.273ZM26.027 16.432c.154-.073.288-.184.39-.323.102-.139.17-.301.196-.473 0 0 .01-.214.186-.214 0 0 .41-.039.014.732 0 0-.167.421-.572.567a.235.235 0 0 0-.084.051c-.056.054-.125.161.02.282.013.01.025.022.037.033.14.14.308.248.492.316 0 0 .096.02.096.176 0 0 .019.15-.184.15 0 0-.444.045-.825-.592-.005 0-.256-.403.234-.705ZM23.62 15.076a.87.87 0 0 1 .297-.293.64.64 0 0 1 .614-.01.503.503 0 0 1 .167.132l.419.504c.04.054.072.113.096.176a.287.287 0 0 1-.11.343.182.182 0 0 1-.09.028s-.168.015-.203-.21a.352.352 0 0 0-.02-.072c-.061-.152-.277-.639-.555-.639 0 0-.4.007-.494.547 0 0-.044.417-.223.417 0 0-.145.039-.209-.258 0 0-.387-.013-.45-.11a.173.173 0 0 1-.038-.196s.044-.117.215-.032c0 0 .241.162.374.071l.07-.195s-.374-.228-.374-.37a.125.125 0 0 1-.004-.089.12.12 0 0 1 .055-.068s.07-.078.178.065a1 1 0 0 0 .285.259ZM29.662 15.332a.914.914 0 0 0-.313-.31.68.68 0 0 0-.652-.01.56.56 0 0 0-.175.14l-.444.534a.815.815 0 0 0-.101.185.303.303 0 0 0 .115.364c.03.018.062.029.097.03 0 0 .18.016.215-.224a.295.295 0 0 1 .021-.075c.065-.161.293-.676.586-.676 0 0 .424.006.525.578 0 0 .047.441.235.441 0 0 .154.042.222-.275 0 0 .41-.014.477-.117a.182.182 0 0 0 .04-.207s-.047-.124-.228-.034c0 0-.256.171-.397.075l-.074-.207s.397-.24.397-.393a.132.132 0 0 0 .005-.093.128.128 0 0 0-.058-.072s-.075-.086-.189.07a1.072 1.072 0 0 1-.304.276Z" fill="#00934A"/><path d="M32.686 18.438c.347-.739.043-1.626-.678-1.982a1.432 1.432 0 0 0-1.932.696c-.346.739-.043 1.626.678 1.982.72.355 1.586.044 1.932-.696Z" fill="#F5CCCC"/><path d="M29.882 17.527v-.009l-.06.123a.143.143 0 0 0-.004.106.14.14 0 0 0 .071.077l.021.006a1.64 1.64 0 0 1-.028-.303Z" fill="#00934A"/><path d="m30.068 17.754.155-.317a.14.14 0 0 0-.068-.183.136.136 0 0 0-.102-.001.14.14 0 0 0-.076.071l-.095.194v.01c0 .101.01.203.03.303.03.007.063.003.091-.01a.14.14 0 0 0 .065-.067ZM30.853 17.267a.135.135 0 0 0-.1.026.142.142 0 0 0-.055.088c-.03.134-.046.27-.05.407a.158.158 0 0 0 .025.104c.02.029.05.048.083.054a.136.136 0 0 0 .155-.11 2.2 2.2 0 0 1 .05-.406.143.143 0 0 0-.02-.105.136.136 0 0 0-.088-.058ZM31.839 17.485a1.163 1.163 0 0 1-.058-.056l.012.014-.023-.025.01.01a1.035 1.035 0 0 1-.094-.122.138.138 0 0 0-.083-.054.134.134 0 0 0-.102.025.141.141 0 0 0-.053.086.152.152 0 0 0 .025.104c.056.085.123.162.2.23a.134.134 0 0 0 .214-.07.14.14 0 0 0 .004-.053.144.144 0 0 0-.052-.09Z" fill="#00934A"/><path d="M23.676 19.08c.565-.58.565-1.52 0-2.1a1.423 1.423 0 0 0-2.048 0 1.512 1.512 0 0 0 0 2.1c.566.58 1.482.58 2.048 0Z" fill="#F5CCCC"/><path d="M22.213 17.835c.1-.162.218-.312.352-.445a.132.132 0 0 0 .028-.098.134.134 0 0 0-.047-.089.128.128 0 0 0-.096-.028.15.15 0 0 0-.084.049 2.41 2.41 0 0 0-.351.443.147.147 0 0 0-.028.098c.004.035.02.067.048.09.026.022.06.032.095.029a.124.124 0 0 0 .083-.05ZM23.002 18.055a.13.13 0 0 0 .131-.061.131.131 0 0 0 .017-.049c.007-.154.026-.307.055-.458a.136.136 0 0 0-.023-.1.127.127 0 0 0-.181-.03.134.134 0 0 0-.052.087c-.03.151-.048.305-.054.459a.146.146 0 0 0 .023.1.13.13 0 0 0 .084.052ZM25.28 19.556c0-.249.058-1.411 1.17-1.411 0 0 1.232-.195 1.384 1.21 0 0 .14 2.056-1.142 2.277 0 0-.758.067-1.265-.989a1.53 1.53 0 0 1-.15-.609v-.374l.002-.104ZM33.094 14.636a.29.29 0 0 1 .091-.104c.05-.036.135-.127.135-.336 0 0-.013-.229.19-.229a.204.204 0 0 1 .154.057.215.215 0 0 1 .068.152.747.747 0 0 1-.222.687s-.228.208-.374.064a.25.25 0 0 1-.042-.291Z" fill="#00934A"/><path d="M23.593 12.276s-.419-1.926.28-2.928l-.144 2.97s-.025.14-.136-.042ZM22.806 8.281s-1.548 1.067-2.093 3.487c0 0-.167.515.039.658 0 0 .018.058.342.058l1.409-2.654.303-1.549Z" fill="#fff"/><path d="M30.571 6.94s-1.04-.87-3.097-.87c0 0-1.637-.092-2.664.961 0 0-.14.144.06.144 0 0 .168-.01.124.205 0 0 .01.234-.485.224 0 0-1.418.283-1.79.781 0 0-1.417 1.474-1.626 4.1h2.055a12.01 12.01 0 0 1-.171-1.803s-.029-1.182 1.16-1.975c0 0 .238-.224.238.537 0 0-.047 1.562-.152 2.391 0 0-.257.869.362.869 0 0 2.826-.03 3.074-.185l.094-.043s.363-2.075-.047-3.159c0 0-.167-.368-.32-.51a.167.167 0 0 1-.039-.131.168.168 0 0 1 .07-.117.198.198 0 0 1 .151-.043.197.197 0 0 1 .135.082s.742.878.774 1.738c0 0 .095.676-.267 2.221a.225.225 0 0 0-.012.077.18.18 0 0 0 .04.127c.028.035.07.058.114.062a.146.146 0 0 0 .122-.073.82.82 0 0 1 .308-.342.792.792 0 0 1 .44-.117l.927-.058s.209-1.217-.026-1.75a4.61 4.61 0 0 0-.343-.73s-.108-.188 0-.28c0 0 .168-.201.406.258 0 0 .483.748.54 1.314 0 0 .102.82-.095 1.217 0 0 .729-.091 1.065.13 0 0 .308-1.773-1.947-3.92 0 0-.376-.23-.229-.425 0 0 .19-.21.61.172 0 0 1.303.84 1.95 2.86 0 0 .231.627.238 1.866a.174.174 0 0 1-.047.12.165.165 0 0 1-.115.052l-.18.01s.24.557.19.674c0 0 .038.137.152-.019 0 0 .456-.677.825-.773.004.007.029-4.098-2.572-5.869Z" fill="#F5CCCC"/><path d="M25.918 4.54s-.447-.344-.041-1.243c.154-.286.364-.536.618-.734.253-.198.544-.34.853-.418 0 0 .527-.09.72.287" fill="#fff"/><path d="M25.262 4.169s-.229 1.116.694 1.64a4.265 4.265 0 0 1 1.551-.294s.714-.712.856-1.658c0 0 .124-1.054-.294-1.425 0 0-1.161-.107-1.733.898 0 0-.494.79-.418 1.21 0 0 .324.146.143.36 0 0-.19.186-.41-.038 0 0-.352-.42-.39-.693ZM28.82 2.887s.286.865-.12 1.545c0 0-.514.95-.723 1.08 0 0 .67-.013 1.004.15 0 0 1.022-1.347.115-2.68-.003.003-.346-.4-.276-.095Z" fill="#F5CCCC"/></g><defs><clipPath id="a"><path fill="#fff" d="M0 0h63v24H0z"/></clipPath></defs></svg>