<svg xmlns="http://www.w3.org/2000/svg" width="77" height="21" viewBox="0 0 77 21" fill="none">
    <style type="text/css">
        .st0{fill:url(#SVGID_1_);}
    </style>
    <linearGradient id="SVGID_1_" gradientUnits="userSpaceOnUse" x1="76.1376" y1="10.067" x2="7.970528e-02" y2="9.0251">
        <stop offset="8.192332e-02" style="stop-color:#0228A0"></stop>
        <stop offset="0.4299" style="stop-color:#0095D6"></stop>
        <stop offset="0.6106" style="stop-color:#00C6C1"></stop>
        <stop offset="1" style="stop-color:#A1E2B7"></stop>
    </linearGradient>
    <path class="st0" d="M15.6,10.6c0-4.2-3.3-7.4-7.6-7.4c-2,0-3.7,0.6-5.1,1.8c-1.7,1.5-2.7,3.6-2.7,5.8c0,4.1,3.5,7.5,7.7,7.5  c1.3,0,2.2-0.2,3.4-0.7l1.3,1.5l2.5-2.1l-1.2-1.4C15,14.2,15.6,12.4,15.6,10.6 M11.5,12.8l-1.7-2l-2.6,2l1.7,2  c-0.3,0.1-0.5,0.1-1,0.1c-2.3,0-4.1-1.8-4.1-4.2c0-2.4,1.8-4.3,4.1-4.3c2.3,0,4.1,1.9,4.1,4.2C12,11.3,11.8,12.1,11.5,12.8 M46.6,0  h3.8v17.7h-3.8V0z M53.1,0h3.8v17.7h-3.8V0z M65.5,9.3c3.1,1,4.3,2.2,4.3,4.4c0,2.7-2.1,4.5-5.4,4.5c-3.3,0-5.3-1.7-5.4-4.5h3.6  c0.2,1.2,0.7,1.7,1.8,1.7c0.9,0,1.5-0.5,1.5-1.3c0-0.8-0.5-1.2-2.6-1.9c-3-0.9-4.3-2.2-4.3-4.4c0-2.6,2.1-4.4,5.3-4.4  c3.2,0,5.1,1.7,5.2,4.5H66V7.7c0-0.8-0.7-1.4-1.8-1.4c-0.9,0-1.5,0.5-1.5,1.3c0,0.4,0.1,0.7,0.4,0.9C63.6,8.7,63.6,8.7,65.5,9.3   M44.7,11c0-4.5-3-7.6-7.4-7.6C33,3.4,30,6.4,30,10.8c0,4.3,3.1,7.4,7.6,7.4c2.9,0,5.4-1.5,6.7-4.2l-3.5-1c-0.6,1.1-1.8,1.8-3.2,1.8  c-1.9,0-3.8-1.2-3.8-3.1h10.9L44.7,11z M33.9,8.9c0.1-1.2,1.5-2.2,3.6-2.2c2.2,0,3.4,1.1,3.6,2.2H33.9z M24.5,14.9  c1,0,1.9-0.3,2.9-1.2l2.1,2.5c-1.6,1.4-3.3,2.1-5.4,2.1c-4.3,0-7.4-3.1-7.4-7.4c0-4.4,3.1-7.5,7.4-7.5c1.9,0,3.6,0.6,5.2,2L27.2,8  c-0.8-0.8-1.7-1.2-2.9-1.2c-2.1,0-3.7,1.7-3.7,4C20.6,13.2,22.2,14.9,24.5,14.9"></path>
</svg>