<?xml version="1.0" ?><svg viewBox="0 0 64 64" xmlns="http://www.w3.org/2000/svg" style="fill : rgb(255, 200, 17)"><title/><g data-name="Layer 13" id="Layer_13"><rect height="8" width="4" x="10" y="3"/><rect height="20" width="10" x="7" y="35"/><rect height="8" width="4" x="22" y="3"/><path d="M15.46,21.88A5,5,0,0,1,14,18.34V13H10v5.34a5,5,0,0,1-1.46,3.54L7.1,23.31A13.94,13.94,0,0,0,3,33.21V60a1,1,0,0,0,1,1H20a1,1,0,0,0,1-1V33.21a13.94,13.94,0,0,0-4.1-9.9ZM19,34V56a1,1,0,0,1-1,1H6a1,1,0,0,1-1-1V34a1,1,0,0,1,1-1H18A1,1,0,0,1,19,34Z"/><path d="M27.46,21.88A5,5,0,0,1,26,18.34V13H22v5.34a5,5,0,0,1-1.46,3.54l-1.18,1.17A15.9,15.9,0,0,1,23,33h7a1,1,0,0,1,1,1V56a1,1,0,0,1-1,1H23v3a3,3,0,0,1-.18,1H32a1,1,0,0,0,1-1V33.21a13.94,13.94,0,0,0-4.1-9.9Z"/><rect height="20" width="6" x="23" y="35"/><rect height="6" width="14" x="39" y="27"/><path d="M39,40a7,7,0,0,0,6,6.92V61H41v2H51V61H47V46.92A7,7,0,0,0,53,40V35H39Z"/><path d="M54,18h0a6.32,6.32,0,0,0,4-4h0a6.32,6.32,0,0,0,4,4h0a6.32,6.32,0,0,0-4,4h0a6.32,6.32,0,0,0-4-4Z"/><path d="M33,10h0a6.32,6.32,0,0,0,4-4h0a6.32,6.32,0,0,0,4,4h0a6.32,6.32,0,0,0-4,4h0a6.32,6.32,0,0,0-4-4Z"/></g></svg>