<svg xmlns="http://www.w3.org/2000/svg" viewBox="0 0 882.04 74"><defs><style>.cls-1,.cls-2{fill:#e9d5da;}.cls-1{fill-rule:evenodd;}</style></defs><g id="Layer_2" data-name="Layer 2"><g id="Layer_1-2" data-name="Layer 1"><path class="cls-1" d="M577.84,50c-1.88,1.66-5.45.89-7.31-1.92A6.72,6.72,0,0,1,572.58,39c6.66-4.57,14.87,0,16.64,7.25,2.14,8.86-4.57,15.68-12.36,18.34-9,3.05-18.8,2.3-27.78-.2C531.45,59.52,516.61,48,500.92,39.11c-11.39-6.46-22.48-11.23-35.54-11.9,13.28-2.11,30.16,5.33,37.2,8.71,14.43,6.95,27.8,16.21,42.91,21.74,7.55,2.77,15.69,4.42,23.75,3.69,6.65-.61,15.28-3.21,16.59-10.85,1.18-6.86-5-13.36-11.86-10.11a5.39,5.39,0,0,0-2.64,7.24C572.7,50.33,576.25,51,577.84,50Z"/><path class="cls-2" d="M623.1,22.05C620.87,7.72,607.8-3.11,593.3,3.1c-11.4,4.89-10.71,22.13-1,27.66,9.27,5.26,21.23-5.48,14.84-14.62a7.88,7.88,0,0,0-6.67-3.43,5.71,5.71,0,0,0-5,8.2c1.49-8.25,13.68-5.71,11.67,3-1.6,6.91-16.9,7.76-20.37-2.24C584,13.56,588.91,5.47,601.56,4.5c14.69-1.11,22.57,14.7,21,27.32-4.13,32.08-48.73,58.48-109.9,19-16.67-10.76-36-25-57-20.68-11.19,2.29-18.07,16.57-11.48,26.52s23.42,8.68,22.85-4.83c-.12-3-1.27-5.38-4.07-6.43a6.43,6.43,0,0,0-8.38,3.49,4.49,4.49,0,0,0,.59,5c2.69,2.77,7.23-.8,4.81-4a3,3,0,0,0-3.89-.59c2-2.58,7.06-2.22,9.28.46C470,55.49,456,67.51,445,55.06c-8.3-9.46,3-32.12,39.24-17.58,12.26,4.92,22.89,13.18,34.07,20.08C546.55,75,588,84.12,612.88,56.12A42.1,42.1,0,0,0,623.1,22.05Z"/><path class="cls-1" d="M305.18,50c1.87,1.66,5.44.89,7.3-1.92A6.73,6.73,0,0,0,310.43,39c-6.67-4.57-14.88,0-16.65,7.25-2.14,8.86,4.57,15.68,12.37,18.34,8.94,3.05,18.8,2.3,27.77-.2,17.64-4.88,32.47-16.39,48.17-25.29,11.39-6.46,22.47-11.23,35.54-11.9-13.29-2.11-30.16,5.33-37.2,8.71C366,42.87,352.62,52.13,337.52,57.66c-7.55,2.77-15.69,4.42-23.75,3.69-6.66-.61-15.28-3.21-16.6-10.85C296,43.64,302.12,37.14,309,40.39a5.39,5.39,0,0,1,2.63,7.24C310.3,50.33,306.76,51,305.18,50Z"/><path class="cls-2" d="M259.9,22.05C262.13,7.72,275.21-3.11,289.71,3.1c11.39,4.89,10.71,22.13,1,27.66-9.27,5.26-21.23-5.48-14.84-14.62a7.88,7.88,0,0,1,6.67-3.43,5.71,5.71,0,0,1,5,8.2c-1.49-8.25-13.68-5.71-11.67,3,1.6,6.91,16.9,7.76,20.38-2.24,2.83-8.11-2.12-16.2-14.78-17.17-14.68-1.11-22.57,14.7-20.95,27.32,4.14,32.08,48.73,58.48,109.91,19,16.66-10.76,36-25,57-20.68,11.19,2.29,18.08,16.57,11.49,26.52s-23.42,8.68-22.86-4.83c.13-3,1.27-5.38,4.06-6.43a6.45,6.45,0,0,1,8.4,3.49,4.48,4.48,0,0,1-.6,5c-2.69,2.77-7.22-.8-4.81-4a3,3,0,0,1,3.9-.59c-2-2.58-7.06-2.22-9.28.46C413,55.49,427.06,67.51,438,55.06c8.31-9.46-3-32.12-39.23-17.58-12.26,4.92-22.9,13.18-34.06,20.08C336.45,75,295,84.12,270.12,56.12A42.17,42.17,0,0,1,259.9,22.05Z"/><path class="cls-1" d="M444.88,48a3.37,3.37,0,1,1-3.37-3.36A3.37,3.37,0,0,1,444.88,48Z"/><path class="cls-2" d="M466.2,36.38c11.13,1.61,22.37,6.06,30,14.51,5.55,6.17.64,12.56-5.74,5s-5.13-19.07-1.78-27.4S505,11.41,513.24,15.05c11.46,5,6.18,20.11-.85,20.33-6.51.2-8.36-8.28-1-9.4-1.92-1.34-6.08-2-7.82,2-1.16,2.68.65,5.54,4.16,7.41,5.4,2.88,13.08,1.74,15.13-5.65,2.32-8.36-4.65-13.63-11.1-15.75-8.08-2.66-16.35.6-22.06,6.43-9.64,9.83-11.32,38.74,7,40.63C508,62.25,498,49.43,494,46.39c-8.28-6.3-19.31-9.57-29.45-11C462.31,35,465.51,36.27,466.2,36.38Z"/><path class="cls-2" d="M416.81,36.38c-11.13,1.61-22.37,6.06-30,14.51-5.55,6.17-.64,12.56,5.73,5s5.13-19.07,1.78-27.4S378,11.41,369.77,15.05c-11.47,5-6.18,20.11.85,20.33,6.51.2,8.36-8.28,1-9.4,1.92-1.34,6.08-2,7.82,2,1.16,2.68-.66,5.54-4.16,7.41-5.4,2.88-13.09,1.74-15.13-5.65-2.33-8.36,4.65-13.63,11.1-15.75,8.08-2.66,16.35.6,22.07,6.43,9.63,9.83,11.31,38.74-7,40.63C375,62.25,385,49.43,389,46.39c8.28-6.3,19.3-9.57,29.45-11C420.7,35,417.49,36.27,416.81,36.38Z"/><path class="cls-1" d="M573.77,45.74a3,3,0,1,0,4.17.11A3,3,0,0,0,573.77,45.74Z"/><path class="cls-1" d="M309.24,45.74a2.95,2.95,0,1,1-4.18.11A3,3,0,0,1,309.24,45.74Z"/><path class="cls-2" d="M654.65,36.72c-2-1.14-5.1-.37-6.92,2.56-2.35,3.77-1.48,8.6,3.08,11.34,5.26,3.16,11.75-1.27,13.68-6.18,2-5.21,2.71-10.7-1.32-14.85-9.9-10.21-21.68-2.46-29.13,7.52-10.45,14-22.6,23.26-39.2,29.71-.69.26-.54,2.48-1,2.64,10.92-4.23,20.88-9.87,29.27-18.1,5.68-5.59,10.29-12.12,15.82-17.86,6.39-6.64,16.44-8.34,23.24-1.26S662.5,51,653.47,49c-4.4-1-7.85-5.1-5.46-9.06s8.09-.87,7.49,3.2C657.46,41.65,657.43,38.33,654.65,36.72Z"/><path class="cls-2" d="M653,38.89a2.47,2.47,0,1,0,3.38.83A2.46,2.46,0,0,0,653,38.89Z"/><path class="cls-2" d="M228.36,36.72c1.95-1.14,5.1-.37,6.92,2.56,2.34,3.77,1.47,8.6-3.08,11.34-5.26,3.16-11.75-1.27-13.68-6.18-2-5.21-2.72-10.7,1.32-14.85,9.9-10.21,21.68-2.46,29.13,7.52,10.45,14,22.59,23.26,39.19,29.71.69.26.55,2.48,1,2.64-10.92-4.23-20.88-9.87-29.27-18.1C254.17,45.77,249.57,39.24,244,33.5c-6.38-6.64-16.44-8.34-23.23-1.26S220.5,51,229.53,49c4.41-1,7.86-5.1,5.46-9.06s-8.08-.87-7.49,3.2C225.55,41.65,225.58,38.33,228.36,36.72Z"/><path class="cls-2" d="M230.06,38.89a2.47,2.47,0,1,1-3.39.83A2.48,2.48,0,0,1,230.06,38.89Z"/><path class="cls-2" d="M600.64,17.78a3,3,0,1,0-1,4.12A3,3,0,0,0,600.64,17.78Z"/><path class="cls-2" d="M282.36,17.78a3,3,0,1,1,1,4.12A3,3,0,0,1,282.36,17.78Z"/><path class="cls-1" d="M445.91,18.78s3.12-4,.53-8.1A34.6,34.6,0,0,1,441.5,0a34.84,34.84,0,0,1-4.94,10.68c-2.59,4.12.53,8.1.53,8.1-4.66-3.61-9.86-.91-9.95,3.31-.1,5.36,5.61,5.46,5.61,5.46-3.43-2-1.71-8.54,2.77-4.95,4.31,3.46,5.75,20.76,6,23.66v.46s0-.08,0-.24c0,.16,0,.24,0,.24v-.46c.22-2.9,1.66-20.2,6-23.66,4.48-3.59,6.2,2.93,2.77,4.95,0,0,5.71-.1,5.6-5.46C455.77,17.87,450.57,15.17,445.91,18.78Zm-4.4,10.42s-1-5.64-4.77-8.57a5.86,5.86,0,0,1,4,2.1,22.43,22.43,0,0,1-.54-7.16,37.09,37.09,0,0,1,1.27-6.26,36,36,0,0,1,1.27,6.26,22.42,22.42,0,0,1-.52,7.16,5.84,5.84,0,0,1,4-2.1C442.48,23.56,441.51,29.2,441.51,29.2Z"/><path class="cls-2" d="M70.77,32.16c-13.82,0-20.22-1.34-19.56,4.33.35,2.93,3.56,3.9,6.15,3.55A8.46,8.46,0,0,0,64,34.66c2.2-5.42-.06-11.91-5.56-14.2-5.25-2.18-11.61-.41-16.21,2.47-5.17,3.24-8.83,8.36-14,11.64-4.8,3.06-11.58,4.16-16.85,1.57a14.08,14.08,0,0,1-7.66-11.8,10.32,10.32,0,0,1,7.42-10.75c4.7-1.33,11.7.07,13,5.58a6,6,0,0,1-3.1,6.7,5.57,5.57,0,0,1-7.19-2.94c-.12-.33-.58-3.15-.75-1.43a5.43,5.43,0,0,0,.77,3.4,7.09,7.09,0,0,0,7.43,2.93c6.08-1.52,7.12-9.2,3.65-13.61C21.25,9.46,14.26,8.34,8.75,10.36-3.15,14.72-2.19,31,7.28,37.45c7.91,5.36,18.06,2.14,24.56-3.83S45.42,19.13,55.53,22.18A8.43,8.43,0,0,1,61.43,32a6.31,6.31,0,0,1-3.6,4.78c-1.91.77-5.11.44-3.75-1.91.8-1.34,4.27-1.1,16.69-1.1C71.68,33.77,70.9,32.78,70.77,32.16Z"/><rect class="cls-2" x="70.77" y="32.16" width="291.73" height="1.61"/><path class="cls-2" d="M75.56,33a3.21,3.21,0,1,0,3.21-3.21A3.21,3.21,0,0,0,75.56,33Z"/><path class="cls-2" d="M811.28,32.16c13.81,0,20.22-1.34,19.55,4.33-.35,2.93-3.56,3.9-6.15,3.55A8.47,8.47,0,0,1,818,34.66c-2.2-5.42.06-11.91,5.57-14.2,5.24-2.18,11.6-.41,16.2,2.47,5.17,3.24,8.83,8.36,14,11.64,4.8,3.06,11.58,4.16,16.86,1.57a14.07,14.07,0,0,0,7.65-11.8,10.32,10.32,0,0,0-7.41-10.75c-4.71-1.33-11.71.07-13,5.58a6,6,0,0,0,3.11,6.7,5.56,5.56,0,0,0,7.18-2.94c.12-.33.58-3.15.75-1.43a5.43,5.43,0,0,1-.77,3.4,7.08,7.08,0,0,1-7.43,2.93c-6.07-1.52-7.12-9.2-3.65-13.61,3.76-4.76,10.75-5.88,16.26-3.86,11.91,4.36,10.94,20.67,1.47,27.09-7.91,5.36-18.06,2.14-24.56-3.83s-13.57-14.49-23.69-11.44a8.43,8.43,0,0,0-5.9,9.82,6.31,6.31,0,0,0,3.6,4.78c1.91.77,5.12.44,3.75-1.91-.79-1.34-4.26-1.1-16.68-1.1C810.36,33.77,811.14,32.78,811.28,32.16Z"/><rect class="cls-2" x="519.54" y="32.16" width="291.73" height="1.61"/><path class="cls-2" d="M819.48,33a3.2,3.2,0,1,1-3.2-3.21A3.2,3.2,0,0,1,819.48,33Z"/></g></g></svg>