<svg xmlns="http://www.w3.org/2000/svg" viewBox="0 0 100.94 371.31"><defs><style>.cls-1{fill:#e9d5da;}</style></defs><g id="Layer_2" data-name="Layer 2"><g id="Layer_1-2" data-name="Layer 1"><path class="cls-1" d="M90.12,197a.91.91,0,0,0,.63.5,1.92,1.92,0,0,0,1.24-.16A3.19,3.19,0,0,0,93.38,196a4,4,0,0,0,.51-2.28,5,5,0,0,0-.35-1.47,5.94,5.94,0,0,0-1-1.6A6.78,6.78,0,0,0,91,189.36a7.19,7.19,0,0,0-1.8-.8,8,8,0,0,0-1.73-.29,6.5,6.5,0,0,0-.76,0c-.23,0-.45,0-.65.06s-.38.06-.54.1a4,4,0,0,0-.39.11c-.22.08-.34.15-.34.21s.12.13.32.21l.84.33.54.23c.19.09.39.18.59.29a9,9,0,0,1,1.17.76,5.93,5.93,0,0,1,1,1,4.89,4.89,0,0,1,.62,1,3.74,3.74,0,0,1,.25.88,1.11,1.11,0,0,1,0,.17,1,1,0,0,1,0,.15.61.61,0,0,0,0,.14V194c0,.27,0,.49,0,.71a4.27,4.27,0,0,1,0,.71A3.23,3.23,0,0,0,90.12,197Z"/><path class="cls-1" d="M94.47,188.88A30.25,30.25,0,0,0,85.92,187a.07.07,0,0,1-.07-.05l-1.6-1.42a.46.46,0,0,1,0-.71l1.6-1.42s0,0,.07-.06a30.07,30.07,0,0,0,8.55-1.89s5.29,2.93,6.38,3.59a.14.14,0,0,1,0,.26C99.76,186,94.5,188.89,94.47,188.88Z"/><path class="cls-1" d="M90.12,173.12a.92.92,0,0,1,.63-.51,1.93,1.93,0,0,1,1.24.17,3.16,3.16,0,0,1,1.39,1.32,4,4,0,0,1,.51,2.29,4.93,4.93,0,0,1-.35,1.46,6,6,0,0,1-1,1.61A6.5,6.5,0,0,1,91,180.77a7.23,7.23,0,0,1-1.8.81,8,8,0,0,1-1.73.29h-.76l-.65-.05-.54-.1-.39-.12c-.22-.08-.34-.15-.34-.21s.12-.12.32-.21l.84-.32c.17-.07.35-.16.54-.23l.59-.29a10.12,10.12,0,0,0,1.17-.76,6.84,6.84,0,0,0,1-1,4.94,4.94,0,0,0,.62-1,3.68,3.68,0,0,0,.25-.87,1.1,1.1,0,0,0,0-.18.77.77,0,0,0,0-.15.53.53,0,0,1,0-.13v-.11c0-.27,0-.49,0-.71a4.38,4.38,0,0,0,0-.72A3.19,3.19,0,0,1,90.12,173.12Z"/><path class="cls-1" d="M85,173.14a.79.79,0,0,1-.73.05,6.8,6.8,0,0,1-1.23-.56l-.79-.46-.44-.26-.47-.28c-.32-.2-.67-.38-1-.59s-.73-.4-1.13-.59a15.5,15.5,0,0,0-2.55-1,10.34,10.34,0,0,0-1.37-.25c-.23,0-.47,0-.7-.05s-.47,0-.71,0a9.1,9.1,0,0,0-3,.74,17,17,0,0,0-3.17,1.85,36.8,36.8,0,0,0-4.07,3.42c-1.59,1.5-3.35,3.36-5.25,5.43s-3.94,4.31-6.24,6.51c-.58.54-1.17,1.09-1.79,1.61-.31.27-.62.53-1,.78l-.25.19-.26.2-.53.38a17.62,17.62,0,0,1-4.58,2.18,18.5,18.5,0,0,1-2.36.59,21.19,21.19,0,0,1-2.35.28,20.38,20.38,0,0,1-4.45-.19,17.84,17.84,0,0,1-7.06-2.66,12.64,12.64,0,0,1-1.25-.92c-.37-.32-.72-.62-1-.93s-.57-.61-.81-.89-.42-.56-.6-.8a8.32,8.32,0,0,1-.7-1.21c-.13-.29-.18-.45-.14-.47s.16.09.38.31.53.55.94,1c.22.18.45.41.72.63s.55.46.88.68.69.46,1.07.7.8.45,1.25.66a16.87,16.87,0,0,0,6.58,1.53,18.44,18.44,0,0,0,3.88-.28,19.2,19.2,0,0,0,2-.46,18.15,18.15,0,0,0,1.91-.7,14.34,14.34,0,0,0,3.45-2.1l.38-.33.18-.17.19-.18c.26-.24.51-.5.77-.76.5-.52,1-1.06,1.47-1.61,1.93-2.21,3.74-4.59,5.5-6.81S58,173,59.68,171.29a32.25,32.25,0,0,1,4.66-4.17,18.61,18.61,0,0,1,4.5-2.43,13.06,13.06,0,0,1,5-.79,12.18,12.18,0,0,1,1.23.13,10.65,10.65,0,0,1,1.15.24,12.23,12.23,0,0,1,2.09.76,13.84,13.84,0,0,1,3.13,2.08,14.86,14.86,0,0,1,1.13,1.09c.32.37.63.71.88,1.06l.37.5.31.47a8,8,0,0,1,.49.87,4.45,4.45,0,0,1,.47,1.33C85.18,172.78,85.13,173,85,173.14Z"/><path class="cls-1" d="M67.09,185.44c.24,0,.42.47.49,1.25a9.12,9.12,0,0,1-.47,3.3l-.18.53c-.07.18-.16.35-.24.54a9.37,9.37,0,0,1-5.29,4.87,11.41,11.41,0,0,1-3.29.68,15.7,15.7,0,0,1-4.21-.36,22,22,0,0,1-5.15-1.82,46.55,46.55,0,0,1-5.11-3.13,40,40,0,0,0-5-3,16.19,16.19,0,0,0-2.54-1,13.62,13.62,0,0,0-2.52-.48,28.46,28.46,0,0,0-4.58.09c-.68.05-1.31.07-1.86.08s-1,0-1.42-.07c-.78-.11-1.2-.2-1.19-.26a3.87,3.87,0,0,1,1.19-.14l1.37-.19c.53-.1,1.12-.2,1.78-.35a26,26,0,0,1,4.76-.69,16.05,16.05,0,0,1,5.83,1A38.56,38.56,0,0,1,45.05,189a48.43,48.43,0,0,0,5,2.54,20.91,20.91,0,0,0,4.48,1.27,15.15,15.15,0,0,0,3.33.18,8.07,8.07,0,0,0,5.79-2.6,8.19,8.19,0,0,0,.59-.73c.09-.12.19-.23.27-.36l.24-.37c.63-1,1-1.89,1.42-2.51S66.84,185.4,67.09,185.44Z"/><path class="cls-1" d="M35.5,197.05c0,.17-.18.31-.48.42a3.73,3.73,0,0,1-.55.16,7,7,0,0,1-.73.07,10.3,10.3,0,0,1-4.12-.73,15,15,0,0,1-3.22-1.84A17.43,17.43,0,0,1,23,191.68c-.25-.31-.46-.64-.68-1-.11-.16-.21-.34-.31-.5s-.18-.33-.26-.49c-.31-.65-.54-1.23-.74-1.72s-.37-.87-.5-1.14-.2-.43-.17-.46.16.08.39.3a8.39,8.39,0,0,1,.82,1c.32.44.67,1,1.07,1.49l.31.39c.12.12.23.25.34.37s.52.52.79.77a19.18,19.18,0,0,0,3.53,2.62,23.67,23.67,0,0,0,2.92,1.36c1.34.52,2.58.93,3.51,1.3a6.27,6.27,0,0,1,.63.27,4,4,0,0,1,.47.25C35.37,196.71,35.52,196.88,35.5,197.05Z"/><path class="cls-1" d="M85,197.32a.75.75,0,0,1,.14.72,4.45,4.45,0,0,1-.47,1.33,8,8,0,0,1-.49.87l-.31.47-.37.5c-.25.34-.56.69-.88,1.06a14.86,14.86,0,0,1-1.13,1.09,14.18,14.18,0,0,1-3.13,2.08,12.23,12.23,0,0,1-2.09.76c-.37.1-.76.17-1.15.24a9.85,9.85,0,0,1-1.23.12,12.86,12.86,0,0,1-5-.78,18.61,18.61,0,0,1-4.5-2.43,32.72,32.72,0,0,1-4.66-4.16c-1.67-1.76-3.39-3.85-5.15-6.07s-3.57-4.6-5.5-6.81c-.49-.55-1-1.09-1.48-1.6-.25-.26-.51-.52-.76-.76l-.2-.18-.18-.17-.37-.33a14.7,14.7,0,0,0-3.45-2.09,16.11,16.11,0,0,0-1.91-.69,16.87,16.87,0,0,0-2-.46,18.3,18.3,0,0,0-3.87-.28,16.81,16.81,0,0,0-6.56,1.53c-.45.2-.86.43-1.25.65s-.75.45-1.06.69-.62.47-.89.68-.5.44-.72.63c-.41.4-.74.72-.95.95s-.35.33-.39.3,0-.18.15-.47a9.21,9.21,0,0,1,.71-1.2c.18-.23.37-.51.6-.79s.5-.59.81-.89.65-.61,1-.93.79-.61,1.24-.91a18.06,18.06,0,0,1,7.05-2.65,20.37,20.37,0,0,1,4.45-.2,21.3,21.3,0,0,1,2.34.28,20.35,20.35,0,0,1,2.36.59,17.52,17.52,0,0,1,4.57,2.17l.53.38.27.2.24.19c.33.25.64.51,1,.77.62.53,1.21,1.07,1.79,1.62,2.3,2.19,4.34,4.45,6.25,6.5s3.67,3.92,5.26,5.43a37.67,37.67,0,0,0,4.07,3.41,16.37,16.37,0,0,0,3.17,1.84,9.13,9.13,0,0,0,3,.75,5.61,5.61,0,0,0,.71,0,5.49,5.49,0,0,0,.7,0,8.94,8.94,0,0,0,1.37-.25,13.89,13.89,0,0,0,2.55-1c.4-.18.77-.39,1.13-.58s.7-.4,1-.6l.47-.27.44-.26.79-.46a6.8,6.8,0,0,1,1.23-.56A.83.83,0,0,1,85,197.32Z"/><path class="cls-1" d="M67.09,185c-.25,0-.55-.32-.9-1s-.79-1.54-1.42-2.51l-.24-.37c-.08-.13-.18-.24-.27-.37s-.39-.48-.59-.72a8.17,8.17,0,0,0-1.51-1.28,8.53,8.53,0,0,0-4.28-1.32,15.15,15.15,0,0,0-3.33.18A21,21,0,0,0,50.07,179a47.55,47.55,0,0,0-5,2.55,39.65,39.65,0,0,1-5.57,2.66,16.34,16.34,0,0,1-5.84,1,26.69,26.69,0,0,1-4.76-.7c-.66-.15-1.26-.25-1.78-.35l-1.37-.19a3.47,3.47,0,0,1-1.19-.16,3.67,3.67,0,0,1,1.19-.25c.39,0,.87-.05,1.42-.06s1.18,0,1.85.08a28.58,28.58,0,0,0,4.59.09,12.84,12.84,0,0,0,2.52-.48,15,15,0,0,0,2.55-1,38.85,38.85,0,0,0,5-3,45.38,45.38,0,0,1,5.11-3.13,22,22,0,0,1,5.15-1.83,15.7,15.7,0,0,1,4.21-.36,11.41,11.41,0,0,1,3.29.68,9.48,9.48,0,0,1,4.69,3.75,10.3,10.3,0,0,1,.6,1.12c.08.19.17.36.24.54l.18.53a9.12,9.12,0,0,1,.47,3.3C67.51,184.56,67.33,185,67.09,185Z"/><path class="cls-1" d="M76.11,188.91a3.69,3.69,0,1,1,3.69-3.69A3.69,3.69,0,0,1,76.11,188.91Z"/><path class="cls-1" d="M16.12,188.72a3.31,3.31,0,1,1,3.31-3.31A3.31,3.31,0,0,1,16.12,188.72Z"/><path class="cls-1" d="M35.5,173.67c0,.17-.13.34-.39.52a4,4,0,0,1-.47.25c-.19.09-.4.19-.63.28-.93.36-2.17.77-3.51,1.29a23.67,23.67,0,0,0-2.92,1.36A19.25,19.25,0,0,0,24.07,180c-.28.25-.53.52-.79.77s-.23.25-.34.37l-.31.39c-.4.52-.75,1.05-1.07,1.48a8.71,8.71,0,0,1-.83,1c-.24.21-.38.31-.4.29s0-.19.18-.45.3-.66.5-1.14.43-1.07.75-1.72l.25-.49c.1-.16.2-.34.31-.5.22-.31.44-.64.68-.95a17.66,17.66,0,0,1,3.4-3.45,14.66,14.66,0,0,1,3.22-1.85,10.3,10.3,0,0,1,4.12-.73,7,7,0,0,1,.73.07,3.73,3.73,0,0,1,.55.16C35.32,173.36,35.49,173.5,35.5,173.67Z"/><path class="cls-1" d="M28,111.83c-.47.13-.66,1-.51,2.26a16,16,0,0,0,1.35,4.48,76.51,76.51,0,0,0,4.68,8.26c1,1.52,1.94,2.92,2.73,3.91s1.39,1.54,1.48,1.47a9.3,9.3,0,0,0-.68-1.93c-.44-1.14-1-2.72-1.62-4.4-1.23-3.36-2.57-7.15-3.3-8.78a20.31,20.31,0,0,0-2.27-4C29.13,112.19,28.5,111.69,28,111.83Z"/><path class="cls-1" d="M34.63,4.33a11.76,11.76,0,0,0-2.75-.6,13.85,13.85,0,0,0-3.39.06A16.1,16.1,0,0,0,21,7.08a31.94,31.94,0,0,0-6.81,7.44,58.38,58.38,0,0,0-5.36,9.89A70.76,70.76,0,0,0,5.2,35.46,82.11,82.11,0,0,0,3.36,46.73a101.74,101.74,0,0,0,.3,19.78c.44,2.72,1,5.77,1.8,9s1.75,6.7,2.89,10.24a156.6,156.6,0,0,0,8.79,21.53c1.74,3.5,3.58,6.89,5.45,10.08.48.79.95,1.57,1.41,2.35s.95,1.49,1.43,2.24l2.86,4.31C32,131.86,35,136.72,37,140.13a123.93,123.93,0,0,1,6.83,13.47,49.65,49.65,0,0,1,3.63,12,19,19,0,0,1,.11,5,11.93,11.93,0,0,1-.44,2.05,8.4,8.4,0,0,1-.73,1.62A5.51,5.51,0,0,1,44.71,176c-.47.29-.77.35-.84.26s.64-1,1.19-2.66.58-4.31-.21-7.54A59.69,59.69,0,0,0,40.69,155c-1.92-4.08-4.3-8.47-6.92-13-1.93-3.35-4.82-8.19-8.37-13.83l-2.75-4.4c-.47-.77-.95-1.55-1.42-2.37l-1.37-2.44c-1.82-3.31-3.58-6.82-5.23-10.43A152.74,152.74,0,0,1,6.51,86.32C5.5,82.69,4.69,79.15,4,75.83S3,69.41,2.66,66.64a97.51,97.51,0,0,1-1.21-20A80.91,80.91,0,0,1,2.89,35,70.46,70.46,0,0,1,6.27,23.36a59.81,59.81,0,0,1,5.31-10.58A41.42,41.42,0,0,1,15,8.2,29.54,29.54,0,0,1,18.9,4.37,19.4,19.4,0,0,1,28,.21,16.86,16.86,0,0,1,32.23.08a14.89,14.89,0,0,1,3.58.75,16.18,16.18,0,0,1,7.1,4.82A16.64,16.64,0,0,1,45.2,9a18.27,18.27,0,0,1,1.38,3.63,14.94,14.94,0,0,1,.5,3.73A12.2,12.2,0,0,1,46.52,20a9.76,9.76,0,0,1-3.89,5.2,7.89,7.89,0,0,1-2.69,1.13,5.32,5.32,0,0,1-2.75-.12,3.68,3.68,0,0,1-2-1.56,4.13,4.13,0,0,1-.43-1l-.09-.47a2.18,2.18,0,0,1-.05-.43,5.7,5.7,0,0,1,.1-1.44,6.82,6.82,0,0,1,.29-1c.23-.49.4-.73.53-.7s.19.33.21.83c0,.25,0,.56.06.91a7.47,7.47,0,0,0,.22,1.13,1.08,1.08,0,0,0,.11.3l.12.29a3.11,3.11,0,0,0,.36.51,1.85,1.85,0,0,0,1.11.59,4.42,4.42,0,0,0,3.35-1.14,7.29,7.29,0,0,0,2.48-3.95,9.62,9.62,0,0,0,.25-2.66,12.45,12.45,0,0,0-.53-2.87,15.53,15.53,0,0,0-1.22-2.9A14.58,14.58,0,0,0,40.2,8,13.17,13.17,0,0,0,34.63,4.33Z"/><path class="cls-1" d="M3,68.49S2.6,70.08,1.94,73c-.14.73-.29,1.55-.45,2.43S1.13,77.29,1,78.34.72,80.52.57,81.71s-.2,2.48-.31,3.81c0,.17,0,.34,0,.5s0,.34,0,.52l0,1c0,.7,0,1.42-.05,2.15s0,1.48,0,2.25,0,1.54.07,2.33c0,.4.05.8.08,1.2s.07.81.1,1.22c.08.81.14,1.65.23,2.49s.25,1.69.37,2.55l.2,1.3c.06.44.17.87.25,1.31.19.88.37,1.77.56,2.67.09.45.22.9.34,1.34s.25.9.37,1.36.25.91.38,1.36l.19.69.23.68c.32.91.63,1.83,1,2.75l.24.7.28.68c.19.46.38.91.58,1.37l.58,1.39.29.69.33.68,1.36,2.74c.11.23.22.46.34.69l.39.67.77,1.34.78,1.34c.13.23.25.45.39.67l.42.64,1.69,2.54.42.63.45.6.9,1.19c.6.79,1.18,1.59,1.78,2.34,2.43,3,4.85,5.76,7.08,8.43s4.29,5.21,6.08,7.7a63.91,63.91,0,0,1,4.56,7.16A37.83,37.83,0,0,1,38.32,171a33,33,0,0,1,.38,3.37c0,.78.06,1.19.06,1.19l.12-1.19a29.46,29.46,0,0,0,.1-3.44,33,33,0,0,0-.69-5.44c-.22-1.05-.52-2.16-.88-3.33s-.8-2.38-1.33-3.62A57.86,57.86,0,0,0,32,150.66c-1.64-2.72-3.58-5.49-5.69-8.32s-4.41-5.71-6.69-8.7c-.56-.75-1.09-1.52-1.65-2.29l-.83-1.15-.42-.58-.38-.61-1.58-2.43-.39-.61c-.14-.21-.25-.42-.37-.63l-.73-1.28-.74-1.27-.37-.63-.33-.65-1.31-2.57-.33-.64-.29-.65-.57-1.3-.58-1.29-.28-.63-.25-.65-1-2.58L7,110.57l-.21-.65-.41-1.28c-.14-.42-.27-.84-.41-1.26s-.28-.84-.38-1.27c-.23-.84-.45-1.68-.67-2.5A86,86,0,0,1,2.38,85.54c0-1.31-.07-2.56-.09-3.74s0-2.3,0-3.35.08-2,.12-2.91.1-1.72.13-2.46C2.85,70.14,3,68.49,3,68.49Z"/><path class="cls-1" d="M11.68,139.8c-.93.07-1.7,1.28-2.09,3.24a18.13,18.13,0,0,0,.32,7.61,25.28,25.28,0,0,0,.88,2.77A30.18,30.18,0,0,0,12.42,157a28.06,28.06,0,0,0,2.46,3.83,22.79,22.79,0,0,0,3.21,3.44A18.46,18.46,0,0,0,25,168.14c2,.56,3.26.57,3.31.38s-1-.81-2.53-1.94a20.15,20.15,0,0,1-4.73-5,26.13,26.13,0,0,1-3.16-6.93c-.35-1.14-.62-2.23-.84-3.2s-.4-1.79-.56-2.43a35.2,35.2,0,0,0-2.14-6.55C13.54,140.79,12.62,139.73,11.68,139.8Z"/><path class="cls-1" d="M16.93,21.37A1.73,1.73,0,0,0,15.52,21a2,2,0,0,0-1.28.86A2,2,0,0,0,14,23.39a1.82,1.82,0,0,0,.91,1.14,2,2,0,0,0,1.42.18,1.79,1.79,0,0,0,1.12-.77,1.84,1.84,0,0,0,.26-1.33A2,2,0,0,0,16.93,21.37Z"/><path class="cls-1" d="M19.75,18.37a1.54,1.54,0,0,0-1.11-.51,1.7,1.7,0,0,0-1.17.49A1.68,1.68,0,0,0,17,19.53a1.54,1.54,0,0,0,.54,1.1,1.68,1.68,0,0,0,1.13.39,1.51,1.51,0,0,0,1.06-.45,1.49,1.49,0,0,0,.43-1.07A1.7,1.7,0,0,0,19.75,18.37Z"/><path class="cls-1" d="M22.59,16.18a1.29,1.29,0,0,0-.86-.56,1.42,1.42,0,0,0-1,.25,1.37,1.37,0,0,0-.54.92,1.29,1.29,0,0,0,.28,1,1.37,1.37,0,0,0,1.86.25,1.27,1.27,0,0,0,.51-.85A1.36,1.36,0,0,0,22.59,16.18Z"/><path class="cls-1" d="M25.12,14.7a1,1,0,1,0-1.79,1,1,1,0,0,0,1.79-1Z"/><path class="cls-1" d="M27.39,13.65a.79.79,0,1,0-1.45.65.79.79,0,0,0,1.45-.65Z"/><path class="cls-1" d="M13.13,28.28a1.59,1.59,0,0,1-.79-2.09,1.46,1.46,0,0,1,.35-.49,1.66,1.66,0,0,1,.53-.34,1.46,1.46,0,0,1,1.21,0,1.63,1.63,0,0,1,.82.88,1.21,1.21,0,0,1,.11.57,1.56,1.56,0,0,1-.14.63A1.58,1.58,0,0,1,13.13,28.28Z"/><path class="cls-1" d="M11.78,31.61a1.34,1.34,0,1,1,1-2.5,1.34,1.34,0,0,1-1,2.5Z"/><path class="cls-1" d="M11,34.44a.93.93,0,0,1-.67-.42,1.05,1.05,0,0,1-.14-.82,1,1,0,0,1,1.28-.76,1.07,1.07,0,0,1,.73,1.23,1,1,0,0,1-.43.6A1.13,1.13,0,0,1,11,34.44Z"/><path class="cls-1" d="M11.14,36.92a.71.71,0,0,1-.6-.09.82.82,0,0,1-.34-.6.76.76,0,0,1,.76-.88.86.86,0,0,1,.81.7.73.73,0,0,1-.14.5A1.07,1.07,0,0,1,11.14,36.92Z"/><path class="cls-1" d="M27.91,259.49c-.48-.14-.67-1-.52-2.27a16.75,16.75,0,0,1,1.35-4.48,77.76,77.76,0,0,1,4.69-8.25c1-1.53,1.94-2.93,2.72-3.92s1.4-1.54,1.48-1.47A8.87,8.87,0,0,1,37,241c-.44,1.14-1,2.73-1.63,4.4-1.23,3.36-2.57,7.15-3.29,8.78a19.52,19.52,0,0,1-2.28,4C29,259.12,28.39,259.62,27.91,259.49Z"/><path class="cls-1" d="M34.52,367a11.66,11.66,0,0,1-2.75.59,13.78,13.78,0,0,1-3.38-.06,16.1,16.1,0,0,1-7.48-3.29,31.53,31.53,0,0,1-6.81-7.44,58.38,58.38,0,0,1-5.36-9.89,68.4,68.4,0,0,1-3.64-11,79.17,79.17,0,0,1-1.84-11.27,102.61,102.61,0,0,1,.29-19.78c.45-2.72,1-5.76,1.81-9s1.74-6.7,2.88-10.24A157.94,157.94,0,0,1,17,264c1.73-3.5,3.57-6.88,5.45-10.07.47-.8.94-1.58,1.41-2.36s1-1.49,1.43-2.23L28.18,245c3.7-5.58,6.72-10.44,8.68-13.85a123,123,0,0,0,6.83-13.47,49.59,49.59,0,0,0,3.62-12,19,19,0,0,0,.12-5,11.61,11.61,0,0,0-.44-2,8.23,8.23,0,0,0-.74-1.63,5.34,5.34,0,0,0-1.64-1.78c-.48-.3-.77-.36-.85-.26s.64,1,1.19,2.65.59,4.32-.2,7.54a60.13,60.13,0,0,1-4.17,11.07c-1.92,4.07-4.29,8.46-6.92,13-1.92,3.35-4.82,8.2-8.36,13.84q-1.34,2.12-2.75,4.4c-.47.76-1,1.54-1.42,2.36s-.92,1.62-1.38,2.44c-1.81,3.31-3.58,6.82-5.22,10.43A151.57,151.57,0,0,0,6.41,285c-1,3.64-1.83,7.17-2.47,10.49s-1.08,6.42-1.39,9.19a97.58,97.58,0,0,0-1.2,20,79.52,79.52,0,0,0,1.44,11.65A69.9,69.9,0,0,0,6.17,348a59.47,59.47,0,0,0,5.31,10.58,39,39,0,0,0,3.39,4.58,28.39,28.39,0,0,0,3.93,3.83,19.36,19.36,0,0,0,9.05,4.16,16.79,16.79,0,0,0,4.27.14,15.35,15.35,0,0,0,3.59-.76,16.37,16.37,0,0,0,7.1-4.81,17.81,17.81,0,0,0,2.29-3.38,18.59,18.59,0,0,0,1.38-3.64,14.82,14.82,0,0,0,.5-3.73,12.2,12.2,0,0,0-.56-3.59,9.8,9.8,0,0,0-3.89-5.2A7.89,7.89,0,0,0,39.84,345a5.32,5.32,0,0,0-2.75.12,3.65,3.65,0,0,0-2,1.56,4.18,4.18,0,0,0-.44,1l-.09.47a2.27,2.27,0,0,0-.05.43,6.2,6.2,0,0,0,.1,1.44,6.7,6.7,0,0,0,.3,1c.22.5.4.73.52.7s.19-.33.21-.83c0-.25,0-.56.07-.9A6.51,6.51,0,0,1,36,348.8a1.42,1.42,0,0,1,.1-.29c0-.1.08-.2.13-.3a2.24,2.24,0,0,1,.36-.51,1.91,1.91,0,0,1,1.11-.59A4.43,4.43,0,0,1,41,348.25a7.35,7.35,0,0,1,2.47,3.95,9.26,9.26,0,0,1,.25,2.66,11.91,11.91,0,0,1-.52,2.87,15.53,15.53,0,0,1-1.22,2.9,14.58,14.58,0,0,1-1.89,2.65A13.25,13.25,0,0,1,34.52,367Z"/><path class="cls-1" d="M2.89,302.82s-.4-1.59-1-4.5q-.21-1.1-.45-2.43C1.23,295,1,294,.91,293L.46,289.6c-.09-1.2-.2-2.48-.31-3.81l0-.5c0-.17,0-.34,0-.51l0-1c0-.7,0-1.42-.06-2.15s0-1.48,0-2.25,0-1.54.07-2.33c0-.4,0-.8.08-1.2s.06-.81.1-1.21c.07-.82.13-1.65.23-2.5s.24-1.69.37-2.55c.06-.43.13-.86.19-1.3s.17-.87.26-1.31c.18-.88.37-1.77.56-2.67.08-.45.21-.89.33-1.34s.25-.9.38-1.36.25-.9.37-1.36l.2-.69.23-.68c.31-.91.63-1.83,1-2.75l.24-.7.28-.68.57-1.37L6,252l.29-.7.34-.68L8,247.83c.12-.23.23-.46.35-.68l.38-.67.78-1.35c.26-.45.51-.9.77-1.34.13-.22.26-.45.4-.67l.42-.64,1.68-2.54.42-.63.45-.6.9-1.19c.6-.79,1.19-1.59,1.79-2.34,2.43-3,4.84-5.76,7.08-8.43s4.29-5.21,6.08-7.69a63.31,63.31,0,0,0,4.55-7.17,37.29,37.29,0,0,0,4.15-11.55A33.25,33.25,0,0,0,38.6,197c0-.77.06-1.19.06-1.19l.12,1.19a29.93,29.93,0,0,1,.09,3.44,32,32,0,0,1-.69,5.44c-.22,1.05-.52,2.16-.87,3.33s-.81,2.38-1.34,3.62a56.71,56.71,0,0,1-4,7.86c-1.65,2.71-3.58,5.48-5.69,8.31s-4.41,5.71-6.69,8.71c-.56.75-1.09,1.51-1.65,2.28l-.83,1.15-.42.59-.39.6c-.52.8-1,1.62-1.57,2.43l-.4.61c-.13.21-.24.42-.37.63l-.73,1.28-.73,1.27-.37.63c-.12.22-.22.44-.33.65-.44.87-.88,1.72-1.31,2.58l-.33.63-.29.66c-.19.43-.38.86-.58,1.29l-.57,1.29-.28.64-.25.65-1,2.57-.24.63-.21.65c-.14.43-.28.85-.41,1.28s-.28.85-.41,1.27-.28.83-.39,1.26c-.22.84-.44,1.68-.66,2.5a86.68,86.68,0,0,0-2.56,18.07c0,1.31-.06,2.56-.09,3.74s0,2.3.06,3.35.08,2,.12,2.91.09,1.72.13,2.46C2.74,301.17,2.89,302.82,2.89,302.82Z"/><path class="cls-1" d="M11.58,231.51c-.93-.07-1.7-1.27-2.1-3.24a18.32,18.32,0,0,1,.33-7.61,23.27,23.27,0,0,1,.88-2.77,30.91,30.91,0,0,1,1.63-3.59,29,29,0,0,1,2.45-3.83A23.38,23.38,0,0,1,18,207a18.39,18.39,0,0,1,6.91-3.86c2-.56,3.25-.57,3.31-.38s-1,.81-2.54,1.94a20.31,20.31,0,0,0-4.72,5,26.13,26.13,0,0,0-3.16,6.93c-.35,1.14-.62,2.23-.84,3.2s-.4,1.8-.56,2.43a35.16,35.16,0,0,1-2.15,6.55C13.43,230.52,12.52,231.58,11.58,231.51Z"/><path class="cls-1" d="M16.83,349.94a1.73,1.73,0,0,1-1.41.36,1.92,1.92,0,0,1-1.28-.86,2,2,0,0,1-.28-1.51,1.76,1.76,0,0,1,.9-1.15,2,2,0,0,1,1.43-.17,1.74,1.74,0,0,1,1.12.76,1.79,1.79,0,0,1,.25,1.33A2,2,0,0,1,16.83,349.94Z"/><path class="cls-1" d="M19.64,352.94a1.54,1.54,0,0,1-1.1.51,1.7,1.7,0,0,1-1.17-.49,1.68,1.68,0,0,1-.47-1.18,1.54,1.54,0,0,1,.53-1.1,1.72,1.72,0,0,1,1.14-.39,1.44,1.44,0,0,1,1.05.46,1.5,1.5,0,0,1,.44,1.06A1.71,1.71,0,0,1,19.64,352.94Z"/><path class="cls-1" d="M22.49,355.13a1.33,1.33,0,0,1-.86.57,1.42,1.42,0,0,1-1-.26,1.38,1.38,0,0,1-.55-.92,1.3,1.3,0,0,1,.29-1,1.38,1.38,0,0,1,1.86-.25,1.31,1.31,0,0,1,.51.85A1.39,1.39,0,0,1,22.49,355.13Z"/><path class="cls-1" d="M25,356.61a1,1,0,1,1-1.79-1,1,1,0,0,1,1.79,1Z"/><path class="cls-1" d="M27.28,357.66a.79.79,0,1,1-1.44-.65.81.81,0,0,1,1-.39A.79.79,0,0,1,27.28,357.66Z"/><path class="cls-1" d="M13,343a1.59,1.59,0,0,0-.8,2.09,1.39,1.39,0,0,0,.36.49,1.51,1.51,0,0,0,.52.34,1.49,1.49,0,0,0,1.22,0,1.67,1.67,0,0,0,.82-.88,1.52,1.52,0,0,0,.11-.57,1.74,1.74,0,0,0-.14-.63A1.58,1.58,0,0,0,13,343Z"/><path class="cls-1" d="M11.67,339.7a1.34,1.34,0,1,0,1,2.5,1.36,1.36,0,0,0,.73-1.73A1.38,1.38,0,0,0,11.67,339.7Z"/><path class="cls-1" d="M10.93,336.87a.91.91,0,0,0-.66.42,1,1,0,0,0-.14.82,1,1,0,0,0,1.27.76,1,1,0,0,0,.73-1.23,1,1,0,0,0-.43-.6A1.13,1.13,0,0,0,10.93,336.87Z"/><path class="cls-1" d="M11,334.39a.69.69,0,0,0-.59.09.84.84,0,0,0-.34.6.75.75,0,0,0,.76.88.85.85,0,0,0,.81-.7.74.74,0,0,0-.15-.5A1,1,0,0,0,11,334.39Z"/></g></g></svg>