<svg xmlns="http://www.w3.org/2000/svg" viewBox="0 0 750.82 120.88"><defs><style>.cls-1{fill:#e9d5da;}</style></defs><g id="Layer_2" data-name="Layer 2"><g id="Layer_1-2" data-name="Layer 1"><path class="cls-1" d="M519.28,110.2s-.19.2-.57.57a19.37,19.37,0,0,1-1.72,1.57,30.8,30.8,0,0,1-7.32,4.51l-1.29.57-1.37.51-.72.27-.73.23c-.5.15-1,.32-1.52.46a54.26,54.26,0,0,1-6.73,1.4,69.25,69.25,0,0,1-7.56.58,74.52,74.52,0,0,1-8.11-.31,91.7,91.7,0,0,1-20.13-4.21c-2.85-.94-5.42-1.93-7.64-2.9s-4.09-1.93-5.59-2.72c-3.2-1.13-7.82-2.9-13.36-5-2.77-1-5.77-2.16-9-3.24s-6.59-2.12-10.13-3A89.43,89.43,0,0,0,400.93,97a36.48,36.48,0,0,0-12.12,1.18c-1.72.41-3.28.85-4.64,1.24s-2.55.74-3.53,1-1.73.45-2.25.56l-.79.16.75-.29c.5-.19,1.21-.49,2.13-.89l3.36-1.46c1.31-.57,2.82-1.2,4.53-1.81A43.92,43.92,0,0,1,394.11,95c.53-.11,1.07-.22,1.63-.3s1.13-.18,1.71-.22l.88-.08.9,0,.92,0,.9,0a67.7,67.7,0,0,1,15.53,2.12,92.23,92.23,0,0,1,10.34,3.34c3.22,1.24,6.18,2.58,8.89,3.84,5.4,2.55,9.76,4.86,12.77,6.41,1.6.58,3.55,1.29,5.82,2s4.87,1.44,7.74,2.13a138.2,138.2,0,0,0,19.77,3.31c2.68.23,5.3.39,7.83.42s5,0,7.28-.21,4.5-.48,6.53-.85l1.49-.32.72-.15.7-.19,1.36-.36,1.29-.41a33.75,33.75,0,0,0,7.6-3.46c.86-.5,1.48-1,1.91-1.27Z"/><path class="cls-1" d="M518.44,112.13l-.73.33c-.48.21-1.19.55-2.11.93a47.44,47.44,0,0,1-8.16,2.42,49.45,49.45,0,0,1-12.7.73,63.87,63.87,0,0,1-7.46-1,79.44,79.44,0,0,1-7.8-2c-3.57-1.13-6.93-2.44-10.06-3.77s-6.05-2.69-8.71-4C455.38,103.19,451,101,448,99.59c-1.6-.52-3.57-1.12-5.84-1.79s-4.85-1.34-7.72-2.08-5.94-1.58-9.19-2.39-6.69-1.56-10.25-2.09a44.47,44.47,0,0,0-14.69-.07l-.83.16-.8.19c-.54.11-1.05.28-1.57.42s-1,.33-1.48.51a11.29,11.29,0,0,0-1.33.6,39.63,39.63,0,0,0-4.7,3.15,38.54,38.54,0,0,1-4,2.74,12.92,12.92,0,0,1-3.42,1.42,8.24,8.24,0,0,1-2.32.26,5.93,5.93,0,0,1-.6-.05l-.2,0h.2c.14,0,.34,0,.59-.06A8.26,8.26,0,0,0,382,99.9a13.25,13.25,0,0,0,3-1.79c1.1-.83,2.27-1.89,3.57-3.1a35.68,35.68,0,0,1,4.62-3.8,13.48,13.48,0,0,1,1.51-.84c.53-.25,1-.46,1.58-.68s1.1-.42,1.67-.59l.87-.26.88-.23c.59-.17,1.2-.28,1.82-.41s1.24-.22,1.88-.29a33.11,33.11,0,0,1,3.89-.29,47.94,47.94,0,0,1,8.13.54A79.55,79.55,0,0,1,426,90.56c3.28,1,6.32,2,9.1,3,1.39.48,2.72,1,4,1.43l.94.34.91.36,1.72.69c2.21.93,4.1,1.79,5.62,2.52,3.22,1,7.85,2.65,13.36,4.76s11.89,4.65,18.82,6.85c2.55.81,5.06,1.5,7.49,2.09s4.82,1,7.09,1.34a57.83,57.83,0,0,0,12.22.34,57.12,57.12,0,0,0,8.23-1.34Z"/><path class="cls-1" d="M519.28,110.2l-.66.46c-.21.16-.48.34-.81.55s-.71.45-1.15.69a23.29,23.29,0,0,1-3.35,1.57,22.76,22.76,0,0,1-4.81,1.22,26.71,26.71,0,0,1-6,.11,40.63,40.63,0,0,1-6.78-1.28c-2.33-.63-4.72-1.43-7.15-2.32l-3.68-1.36-3.76-1.51q-2.59-1-5.08-2.09c-1.64-.71-3.28-1.36-4.81-2.1-3.09-1.44-6-2.84-8.67-4.14-1.34-.65-2.61-1.29-3.81-1.91l-3.4-1.75c-2.13-1.11-4-2.09-5.45-2.89-3.18-1.17-7.79-2.89-13.3-5.08a76,76,0,0,0-8.95-2.86A50.74,50.74,0,0,0,417.39,84a35.76,35.76,0,0,0-7.59.45l-.46.06-.44.1-.89.19-.88.19c-.29.07-.57.17-.86.25-.56.17-1.13.31-1.68.51l-1.61.6-.4.15-.38.18-.76.35c-.49.23-1,.45-1.44.69a19.12,19.12,0,0,0-2.48,1.78c-1.57,1.3-3,2.66-4.37,3.84a30.66,30.66,0,0,1-3.94,3,13.57,13.57,0,0,1-1.81.93,8.94,8.94,0,0,1-1.65.5,5.78,5.78,0,0,1-2.35,0,4.84,4.84,0,0,1-.59-.15l-.2-.06.21,0a5.44,5.44,0,0,0,.59.05,5.84,5.84,0,0,0,2.21-.36,9.45,9.45,0,0,0,1.46-.69,14.49,14.49,0,0,0,1.57-1.09,32.85,32.85,0,0,0,3.42-3.28c1.21-1.29,2.49-2.77,4-4.29a19.23,19.23,0,0,1,2.64-2.23c.54-.36,1-.6,1.57-.9.26-.15.53-.29.8-.43l.4-.22.42-.19,1.71-.76c.58-.25,1.19-.43,1.8-.65.31-.1.61-.22.92-.31l1-.25,1-.25.48-.12.5-.09a33.6,33.6,0,0,1,8.26-.62,44.5,44.5,0,0,1,10.86,1.85,61.88,61.88,0,0,1,9.1,3.54c5.33,2.63,9.71,4.89,12.7,6.49,1.58.59,3.53,1.32,5.76,2.19l7.51,3c2.76,1.08,5.74,2.28,8.88,3.58,1.56.67,3.2,1.26,4.85,1.92s3.34,1.33,5.05,2L486,107l3.64,1.45c2.38,1,4.66,1.85,6.85,2.59a44.55,44.55,0,0,0,6.3,1.68,26.8,26.8,0,0,0,5.63.45,24.18,24.18,0,0,0,8.08-1.68c.47-.17.87-.35,1.22-.51s.65-.28.89-.4Z"/><path class="cls-1" d="M513.06,112.76s.33-.11.9-.27c.29-.08.62-.23,1-.36a9.1,9.1,0,0,0,1.19-.62,5.17,5.17,0,0,0,2-2.23,5.84,5.84,0,0,0,.29-.77c0-.14.06-.28.1-.42s0-.29.07-.43a7.92,7.92,0,0,0,0-1.89,12.2,12.2,0,0,0-1.58-4.9,11.06,11.06,0,0,0-1.26-1.79,10.78,10.78,0,0,0-1.24-1.22,10.11,10.11,0,0,0-3.87-.09,18.9,18.9,0,0,0-2.5.6,7.92,7.92,0,0,0-1.15.48c-.18.08-.32.2-.49.29l-.21.17-.11.08-.08.09a2.17,2.17,0,0,0-.65,1.13,3.36,3.36,0,0,0,.05,1.47,4.59,4.59,0,0,0,1.53,2.45,2,2,0,0,0,1,.44l.13,0h.36a4.26,4.26,0,0,0,.42-.11l.35-.15.24-.16.21-.13s0,.07-.11.22-.08.17-.14.27l-.26.35a3.39,3.39,0,0,1-.43.37l-.29.17-.16.08-.18.06a3,3,0,0,1-1.77,0,5.56,5.56,0,0,1-3.34-2.91,5.29,5.29,0,0,1-.58-2.82,4.9,4.9,0,0,1,.44-1.6l.2-.38.24-.36a4.28,4.28,0,0,1,.56-.64l.2-.2.22-.17.44-.32a9.84,9.84,0,0,1,.91-.47,7.8,7.8,0,0,1,1.77-.51l.84-.12.79,0a6.26,6.26,0,0,1,.76,0l.72,0,.72.11.34,0,.33.09.62.19c.2.07.39.15.57.23a7.42,7.42,0,0,1,1.68,1,7.85,7.85,0,0,1,1.84.7,8.87,8.87,0,0,1,2.11,1.56,9.82,9.82,0,0,1,2.9,6,7.85,7.85,0,0,1-.22,2.78,4.6,4.6,0,0,1-.2.66l-.26.63a7.14,7.14,0,0,1-.7,1.13,6.28,6.28,0,0,1-.86.92,3.25,3.25,0,0,1-.47.36,3.56,3.56,0,0,1-.48.31,6.26,6.26,0,0,1-1,.44l-.47.15a3.63,3.63,0,0,1-.45.1,7.5,7.5,0,0,1-1.56.13c-.45,0-.83-.06-1.14-.12C513.38,112.85,513.06,112.76,513.06,112.76Z"/><path class="cls-1" d="M390.61,108.19l-.4.16a8.49,8.49,0,0,1-1.2.37,5.93,5.93,0,0,1-.94.11,2.79,2.79,0,0,1-1.2-.23,2.06,2.06,0,0,1-1.09-1.15,3.3,3.3,0,0,1-.15-1.7,6.88,6.88,0,0,1,1.53-3.2,6.68,6.68,0,0,1,1.51-1.37,5,5,0,0,1,2.24-.83,4.06,4.06,0,0,1,1.38.08,4.39,4.39,0,0,1,1.3.55,4.82,4.82,0,0,1,1,.85,6.74,6.74,0,0,1,.79,1,10,10,0,0,1,1,2.19c.07.2.13.39.19.59l.14.63.06.32,0,.33c0,.22,0,.44,0,.67a6.74,6.74,0,0,1-.88,3.53,7.64,7.64,0,0,1-2.26,2.48,11.16,11.16,0,0,1-5.29,2,12.69,12.69,0,0,1-4.57-.29,9.75,9.75,0,0,1-3.15-1.4,7.31,7.31,0,0,1-1.42-.72l-.37-.25c-.13-.09-.25-.2-.37-.3s-.48-.45-.72-.68a10.93,10.93,0,0,1-1.35-1.74,7.42,7.42,0,0,1-.95-2.42,6.88,6.88,0,0,1,.11-3A9.16,9.16,0,0,1,377,102a19.19,19.19,0,0,1,4.26-4.32,61.31,61.31,0,0,1,7-4.44C390.4,92,392.35,91,393.92,90a22.4,22.4,0,0,0,3.52-2.63,11.2,11.2,0,0,0,.83-.88l.27-.33s-.06.13-.16.4a8.79,8.79,0,0,1-.56,1.11,17.47,17.47,0,0,1-2.94,3.55,52.24,52.24,0,0,1-5.23,4.27c-2,1.49-4.29,3-6.49,4.7a22.44,22.44,0,0,0-3.84,3.53,5.67,5.67,0,0,0-1.46,3.75,7.26,7.26,0,0,0,1.23,3.5,6.75,6.75,0,0,0,.48.71,3.81,3.81,0,0,0,.24.32l.26.28a6.68,6.68,0,0,0,1.06.91,10,10,0,0,0,3,.57,12.94,12.94,0,0,0,3.93-.45,11.65,11.65,0,0,0,2.06-.76,9,9,0,0,0,1.88-1.21,5.58,5.58,0,0,0,1.34-1.67,4.31,4.31,0,0,0,.46-2c0-.14,0-.27,0-.41V107l0-.21-.08-.42-.12-.41a6.28,6.28,0,0,0-.29-.83,7.66,7.66,0,0,0-.37-.76,3.38,3.38,0,0,0-.85-1.06,1.56,1.56,0,0,0-1-.36,3.74,3.74,0,0,0-2.38,1,5.5,5.5,0,0,0-1.54,2.09,2,2,0,0,0-.16,1,1,1,0,0,0,.37.67,2.19,2.19,0,0,0,.79.36,5.08,5.08,0,0,0,.82.12,7.71,7.71,0,0,0,1.21,0Z"/><path class="cls-1" d="M228.68,110.2l.57.57a19.37,19.37,0,0,0,1.72,1.57,30.8,30.8,0,0,0,7.32,4.51l1.29.57,1.38.51.71.27.73.23c.5.15,1,.32,1.52.46a54.64,54.64,0,0,0,6.73,1.4,69.44,69.44,0,0,0,7.56.58,74.79,74.79,0,0,0,8.12-.31,91.48,91.48,0,0,0,20.12-4.21c2.86-.94,5.42-1.93,7.64-2.9s4.09-1.93,5.59-2.72c3.2-1.13,7.82-2.9,13.36-5,2.78-1,5.78-2.16,9-3.24s6.59-2.12,10.12-3A89.37,89.37,0,0,1,347,97a36.45,36.45,0,0,1,12.11,1.18c1.72.41,3.28.85,4.65,1.24s2.55.74,3.52,1,1.73.45,2.25.56l.79.16-.75-.29c-.49-.19-1.21-.49-2.13-.89l-3.35-1.46c-1.32-.57-2.82-1.2-4.53-1.81A44.09,44.09,0,0,0,353.85,95c-.53-.11-1.07-.22-1.63-.3s-1.13-.18-1.71-.22l-.88-.08-.9,0-.92,0-.89,0a67.85,67.85,0,0,0-15.54,2.12A92.9,92.9,0,0,0,321,99.79c-3.22,1.24-6.18,2.58-8.89,3.84-5.39,2.55-9.76,4.86-12.77,6.41-1.6.58-3.55,1.29-5.82,2s-4.87,1.44-7.73,2.13a138.35,138.35,0,0,1-19.78,3.31c-2.68.23-5.3.39-7.83.42s-5,0-7.28-.21-4.5-.48-6.53-.85l-1.48-.32-.73-.15-.7-.19-1.36-.36-1.29-.41a33.75,33.75,0,0,1-7.6-3.46c-.86-.5-1.48-1-1.91-1.27Z"/><path class="cls-1" d="M229.53,112.13l.72.33c.49.21,1.19.55,2.11.93a47.6,47.6,0,0,0,8.17,2.42,49.39,49.39,0,0,0,12.7.73,64,64,0,0,0,7.45-1,79.44,79.44,0,0,0,7.8-2c3.57-1.13,6.93-2.44,10.06-3.77s6-2.69,8.72-4c5.32-2.55,9.7-4.72,12.74-6.15,1.6-.52,3.57-1.12,5.84-1.79s4.85-1.34,7.73-2.08,5.93-1.58,9.18-2.39,6.69-1.56,10.25-2.09a44.53,44.53,0,0,1,14.7-.07l.82.16.8.19c.54.11,1.05.28,1.57.42s1,.33,1.48.51a10.6,10.6,0,0,1,1.33.6,38.83,38.83,0,0,1,4.7,3.15,40.76,40.76,0,0,0,4,2.74,12.84,12.84,0,0,0,3.43,1.42,8.14,8.14,0,0,0,2.31.26,5.43,5.43,0,0,0,.6-.05l.2,0h-.2c-.14,0-.33,0-.59-.06A8.35,8.35,0,0,1,366,99.9a13.21,13.21,0,0,1-3-1.79,45.75,45.75,0,0,1-3.58-3.1,34.37,34.37,0,0,0-4.62-3.8,14.27,14.27,0,0,0-1.5-.84c-.54-.25-1-.46-1.59-.68s-1.1-.42-1.67-.59l-.86-.26-.89-.23c-.59-.17-1.2-.28-1.82-.41s-1.24-.22-1.87-.29a33.28,33.28,0,0,0-3.9-.29,47.94,47.94,0,0,0-8.13.54A79.55,79.55,0,0,0,322,90.56c-3.28,1-6.32,2-9.1,3-1.39.48-2.72,1-4,1.43l-.94.34-.9.36-1.73.69c-2.21.93-4.1,1.79-5.62,2.52-3.21,1-7.85,2.65-13.36,4.76s-11.89,4.65-18.82,6.85c-2.55.81-5.05,1.5-7.49,2.09s-4.82,1-7.09,1.34a54.43,54.43,0,0,1-20.45-1Z"/><path class="cls-1" d="M228.68,110.2l.66.46c.21.16.48.34.81.55s.71.45,1.15.69a23,23,0,0,0,8.16,2.79,26.72,26.72,0,0,0,6,.11,40.44,40.44,0,0,0,6.78-1.28c2.33-.63,4.72-1.43,7.15-2.32l3.68-1.36,3.77-1.51,5.07-2.09c1.65-.71,3.28-1.36,4.81-2.1,3.1-1.44,6-2.84,8.67-4.14,1.34-.65,2.61-1.29,3.81-1.91l3.4-1.75c2.13-1.11,4-2.09,5.46-2.89,3.17-1.17,7.79-2.89,13.29-5.08a76,76,0,0,1,8.95-2.86A50.85,50.85,0,0,1,330.57,84a35.72,35.72,0,0,1,7.59.45l.46.06.45.1.88.19.88.19c.29.07.58.17.86.25.56.17,1.14.31,1.68.51l1.61.6.4.15.38.18.76.35c.49.23,1,.45,1.44.69a17.85,17.85,0,0,1,2.48,1.78c1.57,1.3,3,2.66,4.38,3.84a29.93,29.93,0,0,0,3.93,3,13.66,13.66,0,0,0,1.82.93,8.72,8.72,0,0,0,1.65.5,5.78,5.78,0,0,0,2.35,0,5.1,5.1,0,0,0,.58-.15l.2-.06-.21,0a5.44,5.44,0,0,1-.59.05,5.86,5.86,0,0,1-2.21-.36,9,9,0,0,1-1.45-.69,13.65,13.65,0,0,1-1.58-1.09,33.88,33.88,0,0,1-3.42-3.28c-1.21-1.29-2.49-2.77-4-4.29a19.35,19.35,0,0,0-2.65-2.23c-.54-.36-1-.6-1.57-.9l-.79-.43-.41-.22-.41-.19-1.72-.76c-.58-.25-1.19-.43-1.8-.65-.3-.1-.61-.22-.92-.31l-1-.25-1-.25c-.16,0-.32-.09-.48-.12l-.5-.09a33.56,33.56,0,0,0-8.25-.62,44.34,44.34,0,0,0-10.86,1.85,61,61,0,0,0-9.1,3.54c-5.34,2.63-9.72,4.89-12.7,6.49-1.59.59-3.53,1.32-5.77,2.19l-7.51,3c-2.76,1.08-5.74,2.28-8.88,3.58-1.56.67-3.2,1.26-4.85,1.92s-3.34,1.33-5,2L262,107l-3.64,1.45c-2.38,1-4.66,1.85-6.85,2.59a44.55,44.55,0,0,1-6.3,1.68,26.75,26.75,0,0,1-5.63.45,24.24,24.24,0,0,1-8.08-1.68c-.47-.17-.87-.35-1.22-.51s-.65-.28-.89-.4Z"/><path class="cls-1" d="M234.9,112.76s-.33-.11-.9-.27c-.29-.08-.62-.23-1-.36a8.42,8.42,0,0,1-1.18-.62,5.13,5.13,0,0,1-2-2.23,5.84,5.84,0,0,1-.29-.77c0-.14-.06-.28-.1-.42s0-.29-.07-.43a7.92,7.92,0,0,1,0-1.89,12.2,12.2,0,0,1,1.58-4.9,10.92,10.92,0,0,1,2.5-3,10.11,10.11,0,0,1,3.87-.09,18.9,18.9,0,0,1,2.5.6,7.92,7.92,0,0,1,1.15.48c.19.08.33.2.5.29l.2.17.11.08.08.09a2.26,2.26,0,0,1,.66,1.13,3.22,3.22,0,0,1-.06,1.47,4.59,4.59,0,0,1-1.53,2.45,2,2,0,0,1-1,.44l-.13,0h-.36a4.26,4.26,0,0,1-.42-.11l-.35-.15-.24-.16-.21-.13s0,.07.11.22.08.17.14.27.16.22.27.35a2.68,2.68,0,0,0,.42.37l.29.17.17.08.18.06a3,3,0,0,0,1.76,0,5.61,5.61,0,0,0,3.35-2.91,5.39,5.39,0,0,0,.57-2.82,4.67,4.67,0,0,0-.44-1.6l-.2-.38-.24-.36a4.28,4.28,0,0,0-.56-.64l-.2-.2-.22-.17-.44-.32a8.72,8.72,0,0,0-.91-.47,7.8,7.8,0,0,0-1.77-.51l-.84-.12-.79,0a6.32,6.32,0,0,0-.76,0l-.72,0-.72.11-.34,0-.33.09-.62.19c-.2.07-.38.15-.56.23a7.51,7.51,0,0,0-1.69,1,8,8,0,0,0-1.84.7,8.87,8.87,0,0,0-2.11,1.56,9.82,9.82,0,0,0-2.9,6,7.85,7.85,0,0,0,.22,2.78,6.36,6.36,0,0,0,.2.66c.09.21.18.42.26.63a7.14,7.14,0,0,0,.7,1.13,6.28,6.28,0,0,0,.86.92,4.91,4.91,0,0,0,.47.36,3.56,3.56,0,0,0,.48.31,5.94,5.94,0,0,0,1,.44l.46.15a4.08,4.08,0,0,0,.45.1,7.5,7.5,0,0,0,1.56.13c.45,0,.83-.06,1.14-.12C234.58,112.85,234.9,112.76,234.9,112.76Z"/><path class="cls-1" d="M357.36,108.19l.39.16a8.49,8.49,0,0,0,1.2.37,5.93,5.93,0,0,0,.94.11,2.79,2.79,0,0,0,1.2-.23,2,2,0,0,0,1.09-1.15,3.3,3.3,0,0,0,.15-1.7,7.25,7.25,0,0,0-3-4.57,5,5,0,0,0-2.24-.83,4,4,0,0,0-1.37.08,4.34,4.34,0,0,0-1.31.55,5.08,5.08,0,0,0-1,.85,6.74,6.74,0,0,0-.79,1,10,10,0,0,0-1,2.19c-.06.2-.13.39-.19.59l-.14.63-.06.32,0,.33c0,.22-.05.44-.05.67a6.93,6.93,0,0,0,.88,3.53,7.76,7.76,0,0,0,2.26,2.48,11.16,11.16,0,0,0,5.29,2,12.69,12.69,0,0,0,4.57-.29,9.75,9.75,0,0,0,3.15-1.4,7.31,7.31,0,0,0,1.42-.72l.38-.25.37-.3c.26-.22.47-.45.71-.68a9.88,9.88,0,0,0,1.35-1.74,7.2,7.2,0,0,0,.95-2.42,6.58,6.58,0,0,0-.11-3A9.16,9.16,0,0,0,371,102a19.19,19.19,0,0,0-4.26-4.32,62.13,62.13,0,0,0-7-4.44C357.57,92,355.62,91,354,90a22.4,22.4,0,0,1-3.52-2.63,11.2,11.2,0,0,1-.83-.88l-.27-.33s.06.13.16.4a8.79,8.79,0,0,0,.56,1.11,17.47,17.47,0,0,0,2.94,3.55,52.24,52.24,0,0,0,5.23,4.27c2,1.49,4.29,3,6.5,4.7a22.36,22.36,0,0,1,3.83,3.53,5.67,5.67,0,0,1,1.46,3.75,7.25,7.25,0,0,1-1.22,3.5c-.17.25-.32.51-.49.71a3.81,3.81,0,0,1-.24.32l-.26.28a6.68,6.68,0,0,1-1.06.91,10,10,0,0,1-3,.57,12.85,12.85,0,0,1-3.92-.45,11.46,11.46,0,0,1-2.07-.76,9,9,0,0,1-1.88-1.21,5.58,5.58,0,0,1-1.34-1.67,4.19,4.19,0,0,1-.45-2c0-.14,0-.27,0-.41V107l0-.21.08-.42.12-.41a8.22,8.22,0,0,1,.3-.83,7.63,7.63,0,0,1,.36-.76,3.38,3.38,0,0,1,.85-1.06,1.56,1.56,0,0,1,1-.36,3.74,3.74,0,0,1,2.38,1,5.64,5.64,0,0,1,1.55,2.09,2.08,2.08,0,0,1,.15,1,.93.93,0,0,1-.37.67,2.11,2.11,0,0,1-.79.36,4.92,4.92,0,0,1-.82.12,7.74,7.74,0,0,1-1.21,0Z"/><path class="cls-1" d="M1.16,2.4h748.5a1.2,1.2,0,0,0,0-2.4H1.16a1.2,1.2,0,0,0,0,2.4Z"/><path class="cls-1" d="M386.51,6.64H747.74a1.83,1.83,0,0,1,1.84,1.83v0a1.82,1.82,0,0,1-1.84,1.83c-26.21-.06-325-.62-360.86,7.13a1.82,1.82,0,0,1-2.21-1.79V8.47A1.83,1.83,0,0,1,386.51,6.64Z"/><path class="cls-1" d="M379.56,10.5a3.87,3.87,0,1,0-3.86,3.87A3.86,3.86,0,0,0,379.56,10.5Z"/><path class="cls-1" d="M364.32,6.64H3.08A1.83,1.83,0,0,0,1.25,8.47v0a1.82,1.82,0,0,0,1.83,1.83c26.21-.06,325.05-.62,360.86,7.13a1.82,1.82,0,0,0,2.21-1.79V8.47A1.83,1.83,0,0,0,364.32,6.64Z"/><path class="cls-1" d="M637.85,53.2l2.88,1.43h0a16.09,16.09,0,0,1,2.83-1.26l.18,0-.18,0a16.59,16.59,0,0,1-2.77-1.37h0Z"/><path class="cls-1" d="M629.3,54.09A6.09,6.09,0,0,0,627,58a7.56,7.56,0,0,0,.89,4.47c.76,1.59,1.76,3,2.64,4.54a10,10,0,0,1,1.63,4.74c0,.2.1.38.24.39s.3,0,.42-.14a5.27,5.27,0,0,0,.53-4.3c-.38-1.46-1.65-2.29-2.79-3a2.34,2.34,0,0,0,1.79-.82c.21-.26.58-1.1-.33-.53s-2.17-.29-3-1.05a5.75,5.75,0,0,1-1.48-3.65l0-.1c0-.13,0-.26,0-.39a5,5,0,0,1,4.4-4.29c1.66-.22,4,.11,4.93,1.87a3.29,3.29,0,0,1,.06,2.56,1.92,1.92,0,0,1-.14.33c-.12,0-.2,0-.32.16a1.6,1.6,0,0,1-1.53.3,3.17,3.17,0,0,0-.14-2.3c-.37-.91-1.38-1.57-2.11-1.14a.27.27,0,0,0-.14.07.3.3,0,0,0-.23.18,3.06,3.06,0,0,0,2,4.4c2,.59,3.42-1.21,3.47-3.31s-1.61-3.17-3.17-3.61A6.62,6.62,0,0,0,629.3,54.09Zm4.36,2.46v0l0,0Z"/><path class="cls-1" d="M634.62,52.92c1.57-.37,3.27-1.48,3.31-3.47s-1.28-4-3.33-3.45a3.06,3.06,0,0,0-2.14,4.31.34.34,0,0,0,.21.2l.15.07c.71.46,1.74-.16,2.15-1.06a3.19,3.19,0,0,0,.23-2.28,1.6,1.6,0,0,1,1.52.35c.12.14.2.2.32.18a3.4,3.4,0,0,1,.12.34,3.32,3.32,0,0,1-.16,2.55c-1,1.72-3.36,2-5,1.67a5,5,0,0,1-4.22-4.47c0-.13,0-.26,0-.39l0-.1a5.84,5.84,0,0,1,1.63-3.59c.82-.72,2.07-1.57,3-.93s.55-.25.36-.51a2.32,2.32,0,0,0-1.76-.89c1.17-.7,2.47-1.47,2.91-2.92a5.25,5.25,0,0,0-.35-4.31c-.11-.16-.3-.24-.42-.16s-.24.18-.25.38a9.85,9.85,0,0,1-1.83,4.67c-.94,1.47-2,2.87-2.82,4.43A7.54,7.54,0,0,0,627.18,48a6.06,6.06,0,0,0,2.17,4A6.56,6.56,0,0,0,634.62,52.92Zm-.79-3.25,0,0v0Z"/><path class="cls-1" d="M626.9,53.1A1.93,1.93,0,0,1,625,55c-1.07,0-9.54-1.93-9.54-1.93s8.47-1.94,9.54-1.94A1.93,1.93,0,0,1,626.9,53.1Z"/><path class="cls-1" d="M124.37,53.2l-2.88,1.43h0a16.09,16.09,0,0,0-2.83-1.26l-.18,0,.18,0a16.59,16.59,0,0,0,2.77-1.37h0Z"/><path class="cls-1" d="M127.61,53.34c-1.56.44-3.21,1.61-3.16,3.61s1.44,3.9,3.46,3.31a3.06,3.06,0,0,0,2-4.4.3.3,0,0,0-.22-.18.34.34,0,0,0-.15-.07c-.73-.43-1.74.23-2.11,1.14a3.22,3.22,0,0,0-.14,2.3,1.61,1.61,0,0,1-1.53-.3c-.12-.13-.2-.18-.32-.16a3.27,3.27,0,0,1-.14-.33,3.34,3.34,0,0,1,.06-2.56c1-1.76,3.27-2.09,4.93-1.87a5,5,0,0,1,4.4,4.29c0,.13,0,.26,0,.39a.3.3,0,0,0,0,.1,5.82,5.82,0,0,1-1.49,3.65c-.79.76-2,1.65-3,1.05s-.54.27-.33.53a2.34,2.34,0,0,0,1.79.82c-1.14.74-2.41,1.57-2.78,3a5.2,5.2,0,0,0,.53,4.3c.11.15.3.23.42.14s.23-.19.23-.39A10,10,0,0,1,131.72,67c.88-1.52,1.88-3,2.64-4.54a7.56,7.56,0,0,0,.89-4.47,6.09,6.09,0,0,0-2.33-3.9A6.62,6.62,0,0,0,127.61,53.34Zm.92,3.22,0,0v0Z"/><path class="cls-1" d="M132.88,52A6.1,6.1,0,0,0,135,48,7.54,7.54,0,0,0,134,43.54c-.83-1.56-1.88-3-2.82-4.43a10,10,0,0,1-1.83-4.67c0-.2-.11-.38-.25-.38s-.31,0-.41.16a5.21,5.21,0,0,0-.36,4.31c.44,1.45,1.74,2.22,2.91,2.92a2.32,2.32,0,0,0-1.76.89c-.19.26-.52,1.12.36.51s2.18.21,3,.93a5.84,5.84,0,0,1,1.63,3.59l0,.1c0,.13,0,.26,0,.39a5,5,0,0,1-4.22,4.47c-1.65.29-4,.05-5-1.67a3.27,3.27,0,0,1-.17-2.55,2,2,0,0,1,.13-.34c.12,0,.19,0,.31-.18a1.61,1.61,0,0,1,1.52-.35,3.19,3.19,0,0,0,.23,2.28c.41.9,1.44,1.52,2.15,1.06a.52.52,0,0,0,.15-.07.39.39,0,0,0,.22-.2A3.07,3.07,0,0,0,127.62,46c-2.05-.51-3.37,1.35-3.33,3.45s1.74,3.1,3.31,3.47A6.59,6.59,0,0,0,132.88,52Zm-4.47-2.28v0l0,0Z"/><path class="cls-1" d="M135.32,53.1A1.94,1.94,0,0,0,137.25,55c1.07,0,9.54-1.93,9.54-1.93s-8.47-1.94-9.54-1.94A1.94,1.94,0,0,0,135.32,53.1Z"/></g></g></svg>