<svg xmlns="http://www.w3.org/2000/svg" viewBox="0 0 200.28 200.01"><defs><style>.cls-1{fill:#e9d5da;}</style></defs><g id="Layer_2" data-name="Layer 2"><g id="Layer_1-2" data-name="Layer 1"><path class="cls-1" d="M81.35,103.84l-6.43-11,0-.05c2.62-2.83,6.15-10.55,6.15-10.55l.24-.69.24.69S85.11,90,87.73,92.82l0,.05Z"/><path class="cls-1" d="M81.59,12.66,76.3,6.42l0,0c2.16-1.62,5.06-6,5.06-6l.2-.39.2.39s2.89,4.39,5,6l0,0Z"/><path class="cls-1" d="M82.17,77.15c1.26,4.93,4.87,10.2,11.15,10.2,6.64,0,12.4-4.3,10.66-10.72-1.56-5.75-7.64-9.47-13.73-6.48a1.09,1.09,0,0,0-.6.7,1.4,1.4,0,0,0-.22.46C88,73.58,90,76.79,92.9,78c2.15.94,5.1,1.44,7.22.57a5,5,0,0,1-1,4.81c-.43.39-.6.63-.53,1a7.18,7.18,0,0,1-1.07.41c-2.54.78-5.64,1-8.06-.35C84,81.33,83.07,74,83.87,68.82a15.72,15.72,0,0,1,13.8-13.59c.42,0,.82-.08,1.23-.09a2.49,2.49,0,0,0,.32.08c4.12.48,8.67,1.87,11.43,4.9,2.31,2.55,5.06,6.44,3.11,9.4s.82,1.72,1.65,1.1c1.9-1.42,2.47-3.49,2.68-5.61,2.27,3.64,4.8,7.69,9.39,9,4.44,1.25,9.82,1.25,13.57-1.39.5-.35.74-.95.46-1.32,0-.42-.58-.73-1.19-.75-5.46-.21-10.38-2.74-14.85-5.47-4.71-2.87-9.18-6.09-14.15-8.61-4.22-2.15-9.15-3.81-14-3.08s-9.86,3.36-12.45,7.09A20.82,20.82,0,0,0,82.17,77.15Zm10.2-2.7a.94.94,0,0,1-.1-.1l.07,0Z"/><path class="cls-1" d="M78.15,60.46c-2.59-3.73-7.69-6.38-12.45-7.09s-9.79.93-14,3.08c-5,2.52-9.43,5.74-14.14,8.61-4.47,2.73-9.39,5.26-14.85,5.47-.61,0-1.18.33-1.19.75-.28.37,0,1,.46,1.32,3.75,2.64,9.13,2.64,13.57,1.39s7.12-5.34,9.39-9c.21,2.12.78,4.19,2.68,5.61.83.62,3.51,1.73,1.65-1.1s.8-6.85,3.11-9.4c2.76-3,7.31-4.42,11.43-4.9a2.49,2.49,0,0,0,.32-.08c.4,0,.81,0,1.22.09A15.72,15.72,0,0,1,79.14,68.82c.8,5.22-.09,12.51-5.57,15.66-2.42,1.39-5.52,1.13-8.06.35a7.18,7.18,0,0,1-1.07-.41c.07-.38-.1-.62-.53-1a5,5,0,0,1-1-4.81C65,79.47,68,79,70.11,78,73,76.79,75,73.58,73.58,71.31a1.25,1.25,0,0,0-.23-.46,1,1,0,0,0-.59-.7c-6.09-3-12.17.73-13.73,6.48-1.74,6.42,4,10.72,10.66,10.72,6.28,0,9.89-5.27,11.15-10.2A20.82,20.82,0,0,0,78.15,60.46ZM70.67,74.37l.07,0-.1.1Z"/><path class="cls-1" d="M102.3,6.22c0-.23-.26-.43-.7-.58a6.14,6.14,0,0,0-1.83-.31,15.44,15.44,0,0,0-6,.93,18.91,18.91,0,0,0-4.75,2.61,18.51,18.51,0,0,0-4.74,5.32,21.53,21.53,0,0,0-2.26,5.63,8.52,8.52,0,0,0-.34,2.54,11,11,0,0,0,1.15-2.25,25.46,25.46,0,0,1,3.06-4.8,18.34,18.34,0,0,1,4.77-4A25,25,0,0,1,94.92,9.4c2-.71,3.82-1.24,5.18-1.74a10.48,10.48,0,0,0,1.63-.73C102.11,6.69,102.32,6.45,102.3,6.22Z"/><path class="cls-1" d="M121.83,45.77l.24-.18a7.42,7.42,0,0,0,.69-.56,9.11,9.11,0,0,0,2.07-2.63,9.58,9.58,0,0,0,.82-2.25,9.47,9.47,0,0,0,.18-2.8A9,9,0,0,0,125,34.3a10.85,10.85,0,0,0-9.35-5.9,10.24,10.24,0,0,0-4.29.77,10.84,10.84,0,0,0-2,1.08c-.32.24-.65.45-1,.7l-.9.79a13.38,13.38,0,0,0-3.32,14.06c.16.42.35.82.51,1.24s.43.79.64,1.19a18.72,18.72,0,0,0,1.63,2.23,16.61,16.61,0,0,0,5.91,4.46,17.48,17.48,0,0,0,7,1.52,17.23,17.23,0,0,0,6.66-1.31,14.48,14.48,0,0,0,1.49-.71,11.79,11.79,0,0,0,1.4-.84,22.59,22.59,0,0,0,2.58-1.9,22.35,22.35,0,0,0,6.37-9.44,22.84,22.84,0,0,0,1.23-8.8,22.64,22.64,0,0,0-3-8.35,27.49,27.49,0,0,0-7.87-8.42,27.89,27.89,0,0,0-12.61-4.82,27.44,27.44,0,0,0-14.74,2.25c-.44.18-.87.41-1.29.62s-.84.46-1.25.69-.82.5-1.23.75l-.61.38-.58.41A31.18,31.18,0,0,0,92,20.46a26.31,26.31,0,0,0-5.86,8.62,41.21,41.21,0,0,0-2.59,9.32c-.51,3-.78,5.92-1,8.55-.39,5.28-.56,9.59-.72,12.56s-.26,4.62-.26,4.62-.08-1.65-.21-4.62-.31-7.27-.29-12.62c0-2.67.12-5.61.46-8.77a41,41,0,0,1,2.28-10A27.89,27.89,0,0,1,90,18.46a32.58,32.58,0,0,1,4.65-3.92l.63-.44.65-.42c.44-.28.86-.57,1.32-.82s.91-.54,1.39-.77.94-.49,1.43-.7A29.15,29.15,0,0,1,130,14.92a28.15,28.15,0,0,1,7.84,9.47,22.57,22.57,0,0,1,2.44,9,22.73,22.73,0,0,1-.57,9.29,23.27,23.27,0,0,1-6.27,10.62,25.18,25.18,0,0,1-2.74,2.24,14.92,14.92,0,0,1-1.53,1,14.76,14.76,0,0,1-1.67.88,18.87,18.87,0,0,1-7.64,1.77,19.66,19.66,0,0,1-8.16-1.59,19,19,0,0,1-7-5.19,21.51,21.51,0,0,1-1.92-2.65c-.26-.48-.53-1-.77-1.45s-.42-1-.61-1.52a15.82,15.82,0,0,1,4.39-16.87l1.11-.89c.37-.28.78-.52,1.16-.78a13.3,13.3,0,0,1,2.5-1.19,12.24,12.24,0,0,1,5.21-.67,12.48,12.48,0,0,1,8.19,4.05c.25.26.44.55.66.81a9,9,0,0,1,.58.84,8.34,8.34,0,0,1,.5.86,8.56,8.56,0,0,1,.4.88,9.52,9.52,0,0,1,.7,3.49,9.79,9.79,0,0,1-1.53,5.33,9.14,9.14,0,0,1-2.39,2.5c-.31.25-.59.37-.75.49Z"/><path class="cls-1" d="M60.4,6.22c0,.23.18.47.57.71a9.9,9.9,0,0,0,1.62.73c1.37.5,3.23,1,5.18,1.74A24.88,24.88,0,0,1,72,11.3a18.14,18.14,0,0,1,4.76,4,26.83,26.83,0,0,1,3.06,4.79A9.85,9.85,0,0,0,81,22.36a8.62,8.62,0,0,0-.36-2.54,21.9,21.9,0,0,0-2.25-5.62,18.5,18.5,0,0,0-4.73-5.33A19,19,0,0,0,68.9,6.26a15.44,15.44,0,0,0-6-.93,6.14,6.14,0,0,0-1.83.31C60.66,5.79,60.42,6,60.4,6.22Z"/><path class="cls-1" d="M40.87,45.77l-.26-.15a8.09,8.09,0,0,1-.75-.49,9.15,9.15,0,0,1-2.4-2.5,9.64,9.64,0,0,1-.83-8.82,8.67,8.67,0,0,1,.41-.88,6.84,6.84,0,0,1,.5-.86,7.32,7.32,0,0,1,.57-.84c.22-.26.42-.55.66-.81A12.5,12.5,0,0,1,47,26.37a12.31,12.31,0,0,1,5.22.67,13.6,13.6,0,0,1,2.5,1.19c.38.26.78.5,1.16.78L57,29.9a15.85,15.85,0,0,1,4.38,16.87c-.18.51-.4,1-.61,1.52s-.51,1-.77,1.45A21.43,21.43,0,0,1,58,52.39a19.21,19.21,0,0,1-7,5.19,19.69,19.69,0,0,1-8.16,1.59,18.87,18.87,0,0,1-7.64-1.77,13.23,13.23,0,0,1-1.67-.88,13.91,13.91,0,0,1-1.53-1,22.81,22.81,0,0,1-9-12.86,22.9,22.9,0,0,1-.57-9.29,22.77,22.77,0,0,1,2.45-9,28.15,28.15,0,0,1,7.84-9.47,29.14,29.14,0,0,1,29.86-3.53c.49.21,1,.46,1.43.7s.93.51,1.39.77.88.54,1.32.82l.65.42.63.44a33.14,33.14,0,0,1,4.65,3.92,27.89,27.89,0,0,1,6.17,9.68,40.51,40.51,0,0,1,2.27,10,84.5,84.5,0,0,1,.46,8.77c0,5.35-.18,9.64-.29,12.62s-.2,4.62-.2,4.62-.09-1.65-.26-4.62S80.5,52.23,80.1,47c-.21-2.63-.48-5.51-1-8.55a40.7,40.7,0,0,0-2.59-9.32,26.43,26.43,0,0,0-5.85-8.62A32.41,32.41,0,0,0,66.35,17l-.59-.41-.6-.38c-.41-.25-.81-.53-1.23-.75s-.82-.48-1.25-.69-.85-.44-1.3-.62a27.42,27.42,0,0,0-14.73-2.25A27.85,27.85,0,0,0,34,16.67a27.37,27.37,0,0,0-7.87,8.42,22.46,22.46,0,0,0-3,8.35,22.65,22.65,0,0,0,1.23,8.8,22.32,22.32,0,0,0,6.36,9.44,23.51,23.51,0,0,0,2.58,1.9,11.15,11.15,0,0,0,1.41.84,12.74,12.74,0,0,0,1.49.71,17.2,17.2,0,0,0,6.66,1.31,17.43,17.43,0,0,0,7-1.52,16.53,16.53,0,0,0,5.91-4.46,17.76,17.76,0,0,0,1.64-2.23c.21-.4.43-.79.63-1.19s.36-.82.51-1.24a13.07,13.07,0,0,0,.74-5.16,13.52,13.52,0,0,0-4-8.9l-.9-.79c-.31-.25-.65-.46-1-.7a11.52,11.52,0,0,0-2-1.08,10.26,10.26,0,0,0-4.3-.77,10.8,10.8,0,0,0-9.34,5.9,8.57,8.57,0,0,0-.87,3.05,9.47,9.47,0,0,0,.18,2.8,10,10,0,0,0,.81,2.25A9.11,9.11,0,0,0,39.94,45a6.29,6.29,0,0,0,.69.56Z"/><path class="cls-1" d="M152.81,16.73l-.52.19a6,6,0,0,1-1.55.34,4.88,4.88,0,0,1-2.53-.47,4.78,4.78,0,0,1-1.34-1,5.12,5.12,0,0,1-1-1.63,5.46,5.46,0,0,1,.29-4.36,7.22,7.22,0,0,1,3.77-3.32,13.53,13.53,0,0,1,5.28-1,13.21,13.21,0,0,1,2.88.29A10,10,0,0,1,161,7a8.3,8.3,0,0,1,2.86,3.09,9.2,9.2,0,0,1,1.05,3.82,11.7,11.7,0,0,1-1.74,6.7,13.17,13.17,0,0,1-4,4.11,14.09,14.09,0,0,1-3.89,1.77,16.1,16.1,0,0,1-4.11,1.18,9.74,9.74,0,0,1-5.7-1,17.43,17.43,0,0,1-5.14-4.42c-1.52-1.8-2.94-3.76-4.51-5.65A28.09,28.09,0,0,0,128.39,10a24.28,24.28,0,0,0-7.68-2.8L119.85,7,119,6.89c-.53-.06-1-.15-1.51-.19-1,0-1.77-.15-2.44-.15l-2.11,0,2.09-.31c.68-.1,1.51-.13,2.48-.21.49,0,1,0,1.56,0H120l.9.06a21.61,21.61,0,0,1,12.79,5.14,30.4,30.4,0,0,1,3.88,4c1.63,2,3,4,4.39,5.77A26,26,0,0,0,144,23.38a11.94,11.94,0,0,0,2.25,1.85,8.79,8.79,0,0,0,4.81,1.32,17.16,17.16,0,0,0,4-.6,14.77,14.77,0,0,0,3.43-2.14,12.54,12.54,0,0,0,3.18-4A10.66,10.66,0,0,0,162.8,14a6.88,6.88,0,0,0-3.05-5.17A8.38,8.38,0,0,0,157.57,8a11,11,0,0,0-2.38-.3,12.4,12.4,0,0,0-4.56.57,5.76,5.76,0,0,0-3.12,2.3,4.3,4.3,0,0,0-.56,3.29,4.45,4.45,0,0,0,.62,1.38,4.37,4.37,0,0,0,1,1,4.69,4.69,0,0,0,2.18.73,6.62,6.62,0,0,0,1.53-.08Z"/><path class="cls-1" d="M154.25,15.37a2.53,2.53,0,1,0-2.53,2.53A2.54,2.54,0,0,0,154.25,15.37Z"/><path class="cls-1" d="M15.77,13.83a2.53,2.53,0,1,0-2.52,2.53A2.52,2.52,0,0,0,15.77,13.83Z"/><path class="cls-1" d="M147.05,48a2.31,2.31,0,0,0-2.3,4,2.31,2.31,0,1,0,2.3-4Z"/><path class="cls-1" d="M148.66,43.3a2.13,2.13,0,0,0-1.46.22,2,2,0,0,0-.88,1.06A2,2,0,0,0,147.51,47,1.86,1.86,0,0,0,150,45.73a2,2,0,0,0-.15-1.56A1.78,1.78,0,0,0,148.66,43.3Z"/><path class="cls-1" d="M149.09,39a1.63,1.63,0,0,0-.23,3.25,1.63,1.63,0,1,0,.23-3.25Z"/><path class="cls-1" d="M148.53,35.44a1.33,1.33,0,0,0-.92,1.46,1.12,1.12,0,0,0,.5.74,1.29,1.29,0,0,0,.91.25,1.18,1.18,0,0,0,.84-.47,1.38,1.38,0,0,0,.21-1A1.21,1.21,0,0,0,148.53,35.44Z"/><path class="cls-1" d="M147.23,32.71a1,1,0,0,0,.92,1.69,1,1,0,0,0,.42-1.33A.93.93,0,0,0,147.23,32.71Z"/><path class="cls-1" d="M141.45,55.78a2,2,0,0,1-.53-1.37,1.89,1.89,0,0,1,.47-1.29,2,2,0,0,1,1.26-.58,2.07,2.07,0,0,1,1.4.42,1.79,1.79,0,0,1,.7,1.3,2,2,0,0,1-2,2.12A1.73,1.73,0,0,1,141.45,55.78Z"/><path class="cls-1" d="M137.88,58.29a1.81,1.81,0,0,1-.15-1.24,1.6,1.6,0,0,1,.24-.53,1.3,1.3,0,0,1,.41-.43,1.62,1.62,0,0,1,1.14-.22,1.78,1.78,0,0,1,1.08.63,1.49,1.49,0,0,1,.32,1.21,1.63,1.63,0,0,1-.74,1.11,1.94,1.94,0,0,1-.65.28,1.87,1.87,0,0,1-.67,0A1.45,1.45,0,0,1,137.88,58.29Z"/><path class="cls-1" d="M134.53,59.49a1.25,1.25,0,0,1,2.38-.74,1.22,1.22,0,0,1-.8,1.63A1.2,1.2,0,0,1,134.53,59.49Z"/><path class="cls-1" d="M131.5,59.67a1,1,0,0,1,1.93,0,1,1,0,1,1-1.93,0Z"/><path class="cls-1" d="M12.07,15.71l.54.1a7.13,7.13,0,0,0,1.52.08,4.73,4.73,0,0,0,2.19-.73,4.37,4.37,0,0,0,1-1,4.4,4.4,0,0,0,.62-1.39,4.28,4.28,0,0,0-.56-3.28,5.8,5.8,0,0,0-3.12-2.3,12.64,12.64,0,0,0-4.56-.58,11.84,11.84,0,0,0-2.39.3,8.49,8.49,0,0,0-2.17.92,6.81,6.81,0,0,0-3,5.17,10.6,10.6,0,0,0,1.11,5.74,12.64,12.64,0,0,0,3.19,4,14.37,14.37,0,0,0,3.43,2.13,17.11,17.11,0,0,0,4,.61,8.81,8.81,0,0,0,4.81-1.32,11.94,11.94,0,0,0,2.25-1.85A27.3,27.3,0,0,0,23,19.91c1.37-1.78,2.75-3.79,4.39-5.77a30.4,30.4,0,0,1,3.88-4,22.27,22.27,0,0,1,4.36-2.89A22.67,22.67,0,0,1,44,5l.9-.07h.86c.55,0,1.07,0,1.56,0,1,.08,1.8.11,2.48.21l2.09.3-2.11,0c-.67,0-1.49.1-2.44.15-.48,0-1,.13-1.51.19L45,6l-.86.17a24.44,24.44,0,0,0-7.68,2.8,28.33,28.33,0,0,0-7.42,6.63c-1.56,1.89-3,3.85-4.5,5.65a17.49,17.49,0,0,1-5.15,4.42,9.71,9.71,0,0,1-5.69,1,16,16,0,0,1-4.11-1.17,14.46,14.46,0,0,1-3.89-1.78,13,13,0,0,1-4-4.1A11.64,11.64,0,0,1,0,12.85,9.2,9.2,0,0,1,1.07,9,8.3,8.3,0,0,1,3.93,6,9.87,9.87,0,0,1,6.78,4.78a12.51,12.51,0,0,1,2.88-.29,13.39,13.39,0,0,1,5.28,1,7.24,7.24,0,0,1,3.77,3.31A5.52,5.52,0,0,1,19,13.13a5.31,5.31,0,0,1-1,1.63,5,5,0,0,1-1.34,1,5,5,0,0,1-2.54.47,6.64,6.64,0,0,1-1.55-.34Z"/><path class="cls-1" d="M17.83,47a2.3,2.3,0,1,0,2.29,4,2.3,2.3,0,0,0-2.29-4Z"/><path class="cls-1" d="M16.22,42.28a1.76,1.76,0,0,0-1.18.87,2,2,0,0,0-.15,1.56,1.86,1.86,0,0,0,2.48,1.23,2,2,0,0,0,1.19-2.38,1.87,1.87,0,0,0-.89-1.06A2.1,2.1,0,0,0,16.22,42.28Z"/><path class="cls-1" d="M15.79,37.93A1.64,1.64,0,1,0,16,41.19a1.64,1.64,0,0,0-.23-3.26Z"/><path class="cls-1" d="M16.35,34.42a1.21,1.21,0,0,0-1.54,1,1.35,1.35,0,0,0,.21,1,1.16,1.16,0,0,0,.84.48,1.3,1.3,0,0,0,.91-.25,1.12,1.12,0,0,0,.5-.74A1.33,1.33,0,0,0,16.35,34.42Z"/><path class="cls-1" d="M17.65,31.69a1,1,0,1,0-.92,1.69,1,1,0,0,0,.92-1.69Z"/><path class="cls-1" d="M23.43,54.76a1.76,1.76,0,0,1-1.34.6,2,2,0,0,1-2-2.12,1.79,1.79,0,0,1,.7-1.3,2.07,2.07,0,0,1,1.4-.42,1.86,1.86,0,0,1,1.25.58A1.82,1.82,0,0,1,24,53.39,2.07,2.07,0,0,1,23.43,54.76Z"/><path class="cls-1" d="M27,57.27a1.51,1.51,0,0,1-1,.78,1.67,1.67,0,0,1-.67,0,1.73,1.73,0,0,1-.65-.27A1.63,1.63,0,0,1,24,56.69a1.48,1.48,0,0,1,.31-1.21,1.83,1.83,0,0,1,1.09-.63,1.63,1.63,0,0,1,1.14.22,1.3,1.3,0,0,1,.41.43,1.51,1.51,0,0,1,.24.53A1.81,1.81,0,0,1,27,57.27Z"/><path class="cls-1" d="M30.35,58.47A1.25,1.25,0,1,1,28,57.72a1.25,1.25,0,0,1,2.38.75Z"/><path class="cls-1" d="M33.37,58.64a1,1,0,1,1-1.92,0,1,1,0,0,1,1.92,0Z"/><path class="cls-1" d="M96.46,118.28l10.84-6.64,0,0c2.88,2.56,10.67,5.93,10.67,5.93l.7.23-.69.25s-7.65,3.68-10.43,6.35l0,0Z"/><path class="cls-1" d="M187.62,116.7l6.14-5.42,0,0c1.66,2.12,6.1,4.93,6.1,4.93l.4.19-.39.21s-4.33,3-5.9,5.17l0,0Z"/><path class="cls-1" d="M123.16,118.56c-4.9,1.37-10.1,5.08-10,11.36.13,6.64,4.54,12.31,10.93,10.44,5.71-1.67,9.31-7.82,6.2-13.86a1,1,0,0,0-.71-.57,1.62,1.62,0,0,0-.46-.22c-2.31-1.35-5.47.72-6.66,3.61-.89,2.16-1.33,5.12-.42,7.23a5,5,0,0,1-4.82-.93c-.4-.42-.65-.59-1-.51a8.41,8.41,0,0,1-.44-1.06c-.82-2.53-1.14-5.62.2-8.06,3-5.55,10.31-6.58,15.54-5.89a15.72,15.72,0,0,1,13.86,13.53c.06.41.1.82.13,1.23a.94.94,0,0,0-.08.31c-.4,4.14-1.7,8.71-4.68,11.53-2.49,2.36-6.33,5.19-9.33,3.3s-1.7.85-1.06,1.67c1.46,1.87,3.53,2.4,5.66,2.57-3.6,2.34-7.6,4.95-8.79,9.56s-1.06,9.85,1.66,13.55c.35.49,1,.72,1.32.43.43,0,.73-.6.74-1.21.1-5.46,2.53-10.43,5.16-14.95,2.78-4.77,5.91-9.31,8.33-14.32,2.06-4.26,3.62-9.22,2.8-14.07s-3.56-9.79-7.34-12.31A20.88,20.88,0,0,0,123.16,118.56Zm2.91,10.15.09-.1s0,0,0,.07Z"/><path class="cls-1" d="M139.77,114.21c3.67-2.66,6.23-7.81,6.84-12.59s-1.13-9.76-3.36-13.94c-2.62-4.92-5.93-9.32-8.9-14-2.81-4.41-5.44-9.27-5.76-14.73,0-.61-.35-1.17-.78-1.17-.37-.28-1,0-1.31.48-2.56,3.8-2.45,9.18-1.11,13.6s5.47,7,9.17,9.2c-2.13.25-4.18.87-5.56,2.8-.6.84-1.67,3.54,1.13,1.62s6.87.66,9.46,2.92c3.08,2.7,4.56,7.22,5.13,11.34a1.4,1.4,0,0,0,.09.31c0,.41,0,.82-.08,1.23a15.69,15.69,0,0,1-13.3,14.07c-5.2.91-12.52.16-15.77-5.26-1.44-2.38-1.24-5.49-.52-8a7.28,7.28,0,0,1,.4-1.08c.38.06.62-.11,1-.55a5,5,0,0,1,4.78-1.12c-.82,2.14-.26,5.08.72,7.21,1.29,2.83,4.54,4.78,6.79,3.34a1.61,1.61,0,0,0,.45-.24A1,1,0,0,0,130,109c2.87-6.15-1-12.15-6.75-13.6-6.46-1.61-10.64,4.24-10.51,10.88.13,6.27,5.47,9.77,10.43,10.94A20.81,20.81,0,0,0,139.77,114.21ZM125.71,107a.24.24,0,0,1,0,.08.94.94,0,0,0-.1-.1Z"/><path class="cls-1" d="M194.48,137.27c.23,0,.42-.27.57-.71a6.33,6.33,0,0,0,.27-1.83,15.72,15.72,0,0,0-1-5.95,18.78,18.78,0,0,0-2.7-4.69,18.43,18.43,0,0,0-5.42-4.64,21.79,21.79,0,0,0-5.67-2.15,8.55,8.55,0,0,0-2.55-.29,10.65,10.65,0,0,0,2.28,1.1,26.79,26.79,0,0,1,4.85,3,18.09,18.09,0,0,1,4.11,4.69,24.08,24.08,0,0,1,2,4.2c.75,1.94,1.32,3.78,1.85,5.14a9.89,9.89,0,0,0,.76,1.61C194,137.1,194.25,137.3,194.48,137.27Z"/><path class="cls-1" d="M155.33,157.59l.18.24c.14.15.3.4.57.68a9.45,9.45,0,0,0,2.68,2,9.59,9.59,0,0,0,2.27.76,9.18,9.18,0,0,0,2.8.13,8.55,8.55,0,0,0,3-.93,10.64,10.64,0,0,0,2.8-2.16,10.89,10.89,0,0,0,2.91-7.3,10.39,10.39,0,0,0-.85-4.28,11.28,11.28,0,0,0-1.13-2c-.24-.31-.46-.64-.71-.94l-.81-.89a13.51,13.51,0,0,0-9-3.87,13.24,13.24,0,0,0-5.15.84c-.41.16-.81.36-1.22.53s-.78.45-1.18.66a18.81,18.81,0,0,0-2.2,1.68,16.56,16.56,0,0,0-4.34,6,17.33,17.33,0,0,0-1.38,7,17.15,17.15,0,0,0,1.44,6.64,15.54,15.54,0,0,0,.74,1.47,12.45,12.45,0,0,0,.87,1.39,22.73,22.73,0,0,0,2,2.54,22.38,22.38,0,0,0,9.57,6.18A22.68,22.68,0,0,0,168,175a22.48,22.48,0,0,0,8.29-3.16,27.49,27.49,0,0,0,8.26-8,28.08,28.08,0,0,0,4.57-12.7,27.61,27.61,0,0,0-2.54-14.69c-.2-.44-.43-.86-.66-1.29s-.47-.83-.71-1.23-.51-.81-.77-1.21l-.4-.6-.41-.58a32.42,32.42,0,0,0-3.6-4.25,26.52,26.52,0,0,0-8.74-5.68,41.07,41.07,0,0,0-9.37-2.41c-3.05-.44-5.93-.66-8.57-.81-5.29-.29-9.6-.37-12.57-.48l-4.62-.17,4.61-.29c3-.17,7.27-.46,12.61-.55,2.67,0,5.61,0,8.78.29a40.64,40.64,0,0,1,10,2.08,27.91,27.91,0,0,1,9.81,6,33.82,33.82,0,0,1,4,4.57l.45.62.43.64c.29.44.59.85.85,1.31s.56.9.8,1.37.5.93.72,1.42a29.12,29.12,0,0,1-2.93,29.92,28.06,28.06,0,0,1-9.31,8,22.61,22.61,0,0,1-8.93,2.62,22.71,22.71,0,0,1-9.3-.38,23.28,23.28,0,0,1-10.74-6.06,25.12,25.12,0,0,1-2.29-2.69,12.71,12.71,0,0,1-1-1.52,15.45,15.45,0,0,1-.91-1.65,19,19,0,0,1-1.92-7.6,19.54,19.54,0,0,1,1.43-8.19,18.84,18.84,0,0,1,5.05-7.09,20.43,20.43,0,0,1,2.6-2c.48-.27,1-.55,1.44-.8s1-.45,1.51-.64a15.85,15.85,0,0,1,17,4c.31.36.61.73.91,1.09s.54.77.8,1.14a13.41,13.41,0,0,1,1.25,2.48,12.25,12.25,0,0,1,.77,5.2,12.47,12.47,0,0,1-3.89,8.27,10,10,0,0,1-.79.67,6.7,6.7,0,0,1-.83.6,7.35,7.35,0,0,1-.85.51,7.8,7.8,0,0,1-.87.43,10,10,0,0,1-3.47.77,9.89,9.89,0,0,1-5.37-1.43,9.1,9.1,0,0,1-2.54-2.34,8.07,8.07,0,0,1-.5-.74Z"/><path class="cls-1" d="M193.64,95.38c-.23,0-.47.2-.7.59a9.58,9.58,0,0,0-.69,1.63c-.48,1.38-1,3.25-1.64,5.22a26.13,26.13,0,0,1-1.82,4.27,18,18,0,0,1-3.93,4.83,26.18,26.18,0,0,1-4.72,3.16,9.21,9.21,0,0,0-2.22,1.21,9.58,9.58,0,0,0,2.53-.41,22.28,22.28,0,0,0,5.57-2.37,18.5,18.5,0,0,0,5.23-4.84,19,19,0,0,0,2.52-4.79,15.76,15.76,0,0,0,.82-6,6.57,6.57,0,0,0-.35-1.82C194.07,95.64,193.87,95.39,193.64,95.38Z"/><path class="cls-1" d="M153.71,76.65l.15-.26c.11-.17.23-.45.46-.77a9.49,9.49,0,0,1,2.46-2.44,9.85,9.85,0,0,1,5.3-1.64,9.68,9.68,0,0,1,3.5.63c.31.1.59.26.89.39a7.37,7.37,0,0,1,.87.48,7.66,7.66,0,0,1,.84.56c.27.22.57.4.83.65a12.42,12.42,0,0,1,4.21,8.1,12.27,12.27,0,0,1-.56,5.23,13.55,13.55,0,0,1-1.14,2.52c-.25.39-.48.8-.76,1.18l-.87,1.12a15.83,15.83,0,0,1-16.77,4.73c-.52-.17-1-.39-1.53-.58s-1-.49-1.47-.74A22.22,22.22,0,0,1,147.43,94a19,19,0,0,1-5.32-6.89,19.5,19.5,0,0,1-1.76-8.13A19,19,0,0,1,142,71.26a16.61,16.61,0,0,1,.84-1.69,13.56,13.56,0,0,1,1-1.55A25.23,25.23,0,0,1,146,65.24a23.31,23.31,0,0,1,10.49-6.49,22.72,22.72,0,0,1,9.28-.75,22.62,22.62,0,0,1,9,2.26,28.18,28.18,0,0,1,9.63,7.65,29.18,29.18,0,0,1,4.12,29.78c-.2.5-.43,1-.67,1.45s-.48.94-.73,1.4-.53.9-.8,1.34l-.4.66-.44.63a32.52,32.52,0,0,1-3.82,4.73,27.84,27.84,0,0,1-9.56,6.36,40.78,40.78,0,0,1-9.93,2.48,87.32,87.32,0,0,1-8.76.64c-5.34.13-9.64,0-12.62,0l-4.62-.11,4.61-.35c3-.23,7.27-.48,12.54-1,2.63-.26,5.51-.59,8.53-1.16a40.76,40.76,0,0,0,9.27-2.78,26.35,26.35,0,0,0,8.5-6,32.39,32.39,0,0,0,3.42-4.39l.4-.6.37-.61c.24-.41.51-.82.73-1.24s.46-.83.66-1.27.42-.86.6-1.31a27.62,27.62,0,0,0,2-14.78,28,28,0,0,0-5.07-12.5,27.56,27.56,0,0,0-8.58-7.7,22.49,22.49,0,0,0-8.41-2.83,22.74,22.74,0,0,0-8.77,1.41,22.27,22.27,0,0,0-9.31,6.55,22.75,22.75,0,0,0-1.85,2.62,10,10,0,0,0-.81,1.42,12,12,0,0,0-.68,1.51,17.11,17.11,0,0,0-1.18,6.68,17.4,17.4,0,0,0,1.66,6.93,16.5,16.5,0,0,0,4.57,5.82,17.49,17.49,0,0,0,2.27,1.59c.41.2.8.42,1.2.61s.83.35,1.25.49a13.08,13.08,0,0,0,5.18.63A13.49,13.49,0,0,0,168,90.74l.77-.91c.25-.32.46-.66.68-1a10.58,10.58,0,0,0,1.05-2,10.4,10.4,0,0,0,.68-4.31,10.88,10.88,0,0,0-6.08-9.22,8.87,8.87,0,0,0-3.07-.81,9.23,9.23,0,0,0-5,1.1,9.15,9.15,0,0,0-2.59,2.12c-.27.29-.42.55-.55.7Z"/><path class="cls-1" d="M185,188l-.2-.51a6,6,0,0,1-.37-1.54,5,5,0,0,1,.42-2.55,4.86,4.86,0,0,1,1-1.36,5.15,5.15,0,0,1,1.61-1,5.54,5.54,0,0,1,4.37.2,7.25,7.25,0,0,1,3.39,3.71,13.47,13.47,0,0,1,1.07,5.26,13,13,0,0,1-.23,2.88,10.3,10.3,0,0,1-1.12,2.88,8.23,8.23,0,0,1-3,2.92,9.2,9.2,0,0,1-3.79,1.13,11.73,11.73,0,0,1-6.74-1.61,13.09,13.09,0,0,1-4.19-3.89,14.23,14.23,0,0,1-1.84-3.85,15.61,15.61,0,0,1-1.26-4.09,9.74,9.74,0,0,1,.85-5.71,17.27,17.27,0,0,1,4.33-5.23c1.76-1.56,3.69-3,5.55-4.62a28.15,28.15,0,0,0,6.47-7.55,24.25,24.25,0,0,0,2.65-7.73l.15-.86c0-.28.06-.56.09-.82.06-.54.14-1,.16-1.52,0-.95.11-1.77.1-2.45,0-1.35,0-2.1,0-2.1s.12.75.34,2.08c.12.68.16,1.51.26,2.48,0,.48,0,1,.05,1.56,0,.27,0,.56,0,.85s0,.6,0,.9a22.64,22.64,0,0,1-2.08,8.48,22.35,22.35,0,0,1-2.8,4.41,30.42,30.42,0,0,1-3.9,4c-1.94,1.67-3.93,3.09-5.68,4.5a28.58,28.58,0,0,0-2.41,2.14,12.5,12.5,0,0,0-1.8,2.28,8.92,8.92,0,0,0-1.22,4.84,17.26,17.26,0,0,0,.68,4,14.35,14.35,0,0,0,2.21,3.38,12.63,12.63,0,0,0,4.08,3.11,10.65,10.65,0,0,0,5.77,1,6.87,6.87,0,0,0,5.11-3.15,8.21,8.21,0,0,0,.87-2.2,11.08,11.08,0,0,0,.25-2.39,12.76,12.76,0,0,0-.66-4.55,5.83,5.83,0,0,0-2.37-3.07,4.31,4.31,0,0,0-3.29-.49,4,4,0,0,0-1.38.65,4.12,4.12,0,0,0-1,1,4.64,4.64,0,0,0-.69,2.19,6.87,6.87,0,0,0,.11,1.53C184.94,187.8,185,188,185,188Z"/><path class="cls-1" d="M186.37,189.39a2.53,2.53,0,1,0-2.58-2.47A2.52,2.52,0,0,0,186.37,189.39Z"/><path class="cls-1" d="M185.13,50.92a2.53,2.53,0,1,0-2.57-2.48A2.53,2.53,0,0,0,185.13,50.92Z"/><path class="cls-1" d="M153.57,182.85a2.3,2.3,0,0,0-4-2.21,2.3,2.3,0,1,0,4,2.21Z"/><path class="cls-1" d="M158.33,184.36a2,2,0,0,0-.25-1.44,1.83,1.83,0,0,0-1.07-.86,2,2,0,0,0-2.36,1.23,1.87,1.87,0,0,0,1.28,2.46,2,2,0,0,0,1.55-.18A1.76,1.76,0,0,0,158.33,184.36Z"/><path class="cls-1" d="M162.69,184.71a1.73,1.73,0,0,0-1.55-1.64,1.71,1.71,0,0,0-1.71,1.48,1.63,1.63,0,1,0,3.26.16Z"/><path class="cls-1" d="M166.19,184.08a1.31,1.31,0,0,0-1.48-.89,1.13,1.13,0,0,0-.73.51,1.28,1.28,0,0,0-.23.92,1.16,1.16,0,0,0,.49.83,1.38,1.38,0,0,0,1,.19A1.22,1.22,0,0,0,166.19,184.08Z"/><path class="cls-1" d="M168.89,182.72a1,1,0,0,0-1.67,1,1,1,0,0,0,1.34.39A.93.93,0,0,0,168.89,182.72Z"/><path class="cls-1" d="M145.71,177.4a2.17,2.17,0,0,1,1.36-.55,1.93,1.93,0,0,1,1.3.45,1.9,1.9,0,0,1,.6,1.24,2.08,2.08,0,0,1-.39,1.41,1.77,1.77,0,0,1-1.28.73,2,2,0,0,1-2.16-1.92A1.77,1.77,0,0,1,145.71,177.4Z"/><path class="cls-1" d="M143.13,173.89a1.83,1.83,0,0,1,1.24-.18,1.58,1.58,0,0,1,.53.23,1.33,1.33,0,0,1,.44.41,1.61,1.61,0,0,1,.24,1.13,1.77,1.77,0,0,1-.61,1.1,1.5,1.5,0,0,1-1.2.34,1.65,1.65,0,0,1-1.13-.72,1.86,1.86,0,0,1-.28-.65,1.88,1.88,0,0,1,0-.67A1.49,1.49,0,0,1,143.13,173.89Z"/><path class="cls-1" d="M141.86,170.56a1.31,1.31,0,0,1,1.52.81,1.29,1.29,0,0,1-.72,1.56,1.25,1.25,0,1,1-.8-2.37Z"/><path class="cls-1" d="M141.63,167.54a1,1,0,0,1,.05,1.92.93.93,0,0,1-1-.93A1,1,0,0,1,141.63,167.54Z"/><path class="cls-1" d="M183.19,47.26l-.09.53a6.41,6.41,0,0,0,0,1.53,4.61,4.61,0,0,0,.77,2.17,4.4,4.4,0,0,0,1,1,4.08,4.08,0,0,0,1.4.59,4.31,4.31,0,0,0,3.27-.62,5.8,5.8,0,0,0,2.24-3.16,12.6,12.6,0,0,0,.48-4.58,11.67,11.67,0,0,0-.34-2.38,8.67,8.67,0,0,0-1-2.15,6.84,6.84,0,0,0-5.24-2.95A10.68,10.68,0,0,0,180,38.44a12.75,12.75,0,0,0-4,3.27,14.36,14.36,0,0,0-2.06,3.47,16.56,16.56,0,0,0-.52,4A8.8,8.8,0,0,0,174.82,54a11.69,11.69,0,0,0,1.89,2.21,24.67,24.67,0,0,0,2.49,2c1.81,1.34,3.85,2.68,5.86,4.28a29.92,29.92,0,0,1,4.05,3.8,22.44,22.44,0,0,1,3,4.3A22.66,22.66,0,0,1,194.5,79l.09.89c0,.3,0,.58,0,.86,0,.55,0,1.07,0,1.56-.06,1-.07,1.81-.16,2.48-.17,1.35-.26,2.1-.26,2.1s0-.75-.09-2.1c0-.68-.13-1.5-.2-2.45,0-.47-.15-1-.22-1.5l-.12-.82c-.06-.28-.12-.56-.19-.85a24.38,24.38,0,0,0-2.95-7.63,28.12,28.12,0,0,0-6.78-7.28c-1.92-1.52-3.9-2.9-5.73-4.39a17.42,17.42,0,0,1-4.53-5,9.78,9.78,0,0,1-1.08-5.68A15.73,15.73,0,0,1,173.41,45a14,14,0,0,1,1.7-3.93,13,13,0,0,1,4-4,11.67,11.67,0,0,1,6.67-1.87,9.28,9.28,0,0,1,3.84,1,8.18,8.18,0,0,1,3.14,2.8A9.81,9.81,0,0,1,194,41.75a13.16,13.16,0,0,1,.35,2.87,13.63,13.63,0,0,1-.85,5.3,7.37,7.37,0,0,1-3.25,3.84,5.51,5.51,0,0,1-4.35.37,4.65,4.65,0,0,1-2.69-2.27,5,5,0,0,1-.52-2.53,6,6,0,0,1,.31-1.56Z"/><path class="cls-1" d="M152,53.64A2.3,2.3,0,1,0,148.07,56,2.3,2.3,0,0,0,152,53.64Z"/><path class="cls-1" d="M156.71,51.94a1.79,1.79,0,0,0-.9-1.17,2,2,0,0,0-1.56-.12,1.86,1.86,0,0,0-1.18,2.51,2,2,0,0,0,2.4,1.14,1.9,1.9,0,0,0,1-.91A2.06,2.06,0,0,0,156.71,51.94Z"/><path class="cls-1" d="M161,51.42a1.63,1.63,0,1,0-3.25.29,1.63,1.63,0,0,0,3.25-.29Z"/><path class="cls-1" d="M164.56,51.9a1.2,1.2,0,0,0-1-1.51,1.38,1.38,0,0,0-1,.22,1.21,1.21,0,0,0-.46.85,1.4,1.4,0,0,0,.27.91,1.13,1.13,0,0,0,.75.48A1.3,1.3,0,0,0,164.56,51.9Z"/><path class="cls-1" d="M167.32,53.15a.93.93,0,0,0-.39-1.33.94.94,0,0,0-1.32.45,1,1,0,0,0,1.71.88Z"/><path class="cls-1" d="M144.37,59.4a1.77,1.77,0,0,1-.62-1.34,1.91,1.91,0,0,1,.62-1.44,1.94,1.94,0,0,1,1.45-.56,1.8,1.8,0,0,1,1.32.67,2.1,2.1,0,0,1,.45,1.4,1.88,1.88,0,0,1-.56,1.26,1.92,1.92,0,0,1-1.28.51A2.13,2.13,0,0,1,144.37,59.4Z"/><path class="cls-1" d="M141.93,63a1.5,1.5,0,0,1-.79-1,1.67,1.67,0,0,1,0-.67,1.75,1.75,0,0,1,.26-.66,1.6,1.6,0,0,1,1.09-.76,1.54,1.54,0,0,1,1.22.29,1.79,1.79,0,0,1,.65,1.07,1.6,1.6,0,0,1-.2,1.15,1.4,1.4,0,0,1-.42.42,1.57,1.57,0,0,1-.52.25A1.89,1.89,0,0,1,141.93,63Z"/><path class="cls-1" d="M140.8,66.39a1.25,1.25,0,1,1,.7-2.4,1.25,1.25,0,0,1-.7,2.4Z"/><path class="cls-1" d="M140.69,69.41a1,1,0,1,1,0-1.92,1,1,0,0,1,0,1.92Z"/></g></g></svg>