<?xml version="1.0" encoding="utf-8"?>
<!-- Generator: Adobe Illustrator 25.3.1, SVG Export Plug-In . SVG Version: 6.00 Build 0)  -->
<svg version="1.1" id="Layer_1" xmlns="http://www.w3.org/2000/svg" xmlns:xlink="http://www.w3.org/1999/xlink" x="0px" y="0px"
	 viewBox="0 0 272 62.4" style="enable-background:new 0 0 272 62.4;" xml:space="preserve">
<style type="text/css">
	.st0{fill:#FFFFFF;}
</style>
<path class="st0" d="M136,26.7l-10.9-6.3v-6.9L136,7.1l7.6,4.4l-2.9,1.7l-4.3-2.4c-0.2-0.1-0.6-0.1-0.8,0l-9.2,5.3
	c-0.2,0.1-0.4,0.4-0.4,0.7l0,0c0,0.3,0.2,0.5,0.4,0.7l9.2,5.3c0.1,0.1,0.3,0.1,0.4,0.1s0.3,0,0.4-0.1l10.5-6.1v3.7L136,26.7z
	 M132.9,14.3l3.1-1.8l3.1,1.7L136,16L132.9,14.3z M136,1.7L146.9,8v6.9L136,21.3l-7.6-4.4l2.9-1.7l4.3,2.4c0.2,0.1,0.6,0.1,0.8,0
	l9.2-5.3c0.2-0.1,0.4-0.4,0.4-0.7l0,0l0,0c0-0.3-0.1-0.5-0.4-0.7l-9.2-5.3c-0.2-0.1-0.6-0.1-0.8,0l-10.5,6.1V7.9L136,1.7z
	 M148.1,6.9l-11.7-6.8c-0.2-0.1-0.6-0.1-0.8,0l-11.7,6.7c-0.2,0.1-0.4,0.4-0.4,0.7V13l0,0v7.8c0,0.3,0.2,0.5,0.4,0.7l11.7,6.8
	c0.1,0.1,0.3,0.1,0.4,0.1s0.3,0,0.4-0.1l11.7-6.7c0.2-0.1,0.4-0.4,0.4-0.7v-5.6l0,0V7.5C148.5,7.3,148.4,7,148.1,6.9"/>
<path class="st0" d="M10.7,55.1v-9.4h1.7v10c0,4.5-2.3,6.6-6.2,6.6c-3.9,0-6.2-2.1-6.2-6.6v-10h1.7v9.4c0,4.1,1.5,5.8,4.5,5.8
	C9.2,60.9,10.7,59.2,10.7,55.1 M23.8,47.2c2.7,0,4,1.2,4,3.1v0.2c0,2-1.2,3.2-4.3,3.2h-3.8v-6.5H23.8z M28,62.1h1.8l-3.5-7.4
	c1.9-0.7,3.1-2.2,3.1-4.2v-0.3c0-2.6-2-4.5-5.5-4.5h-6v16.4h1.7v-7.1h4.3c0.2,0,0.4,0,0.6,0L28,62.1z M36.7,54.2h3.9
	c3.5,0,4.5,1,4.5,3v0.5c0,1.9-1.3,2.9-4,2.9h-4.5C36.6,60.7,36.6,54.2,36.7,54.2z M40.4,47.1c2.7,0,3.9,0.7,3.9,2.6v0.4
	c0,2-1.4,2.7-3.8,2.7h-3.9v-5.8L40.4,47.1L40.4,47.1z M35,62.1h6.3c3.8,0,5.6-1.6,5.6-4.3v-0.6c0-2.3-1.5-3.5-3.6-3.8
	c2.1-0.5,2.8-1.8,2.8-3.3v-0.5c0-2.7-1.8-4-5.5-4H35L35,62.1L35,62.1z M56.1,51.2c0.4-1.1,0.8-1.9,1.4-4.1c0.7,2.1,1,3,1.4,4.1
	l1.7,4.4h-6.3L56.1,51.2z M58.5,45.7h-1.9l-6.5,16.4h1.7l2-5.1h7.3l1.9,5.1h1.8L58.5,45.7z M69.2,62.1h1.6V47.8
	c0.3,0.7,0.5,1,0.8,1.5l8,12.9h2V45.7H80v14.3c-0.3-0.7-0.5-1.1-0.8-1.5l-8-12.8h-2V62.1z M95.2,45.7v16.4h10.4v-1.4h-8.7v-15H95.2z
	 M114.3,51.2c0.4-1.1,0.8-1.9,1.4-4.1c0.7,2.1,1,3,1.4,4.1l1.7,4.4h-6.3L114.3,51.2z M116.7,45.7h-1.9l-6.4,16.4h1.7l2-5.1h7.3
	l1.9,5.1h1.8L116.7,45.7z M138.1,55.1c0,4.1-1.5,5.8-4.5,5.8s-4.5-1.7-4.5-5.8v-9.4h-1.7v10c0,4.5,2.3,6.6,6.2,6.6
	c3.9,0,6.2-2.1,6.2-6.6v-10h-1.7V55.1 M145.4,62.1h1.6V47.8c0.3,0.7,0.5,1,0.8,1.5l8,12.9h2V45.7h-1.6v14.3
	c-0.3-0.7-0.5-1.1-0.8-1.5l-8-12.8h-2L145.4,62.1L145.4,62.1z M165.3,47.2h3.8c3.1,0,5.3,1.8,5.3,5.7V55c0,3.9-2.2,5.7-5.3,5.7h-3.8
	V47.2z M163.6,45.7v16.4h5.4c4.4,0,7-2.5,7-7v-2.3c0-4.5-2.6-7-7-7L163.6,45.7L163.6,45.7z M181.5,45.7v16.4h10.6v-1.4h-8.9v-6.3
	h8.2V53h-8.2v-5.9h8.8v-1.4L181.5,45.7L181.5,45.7z M203.2,47.2c2.7,0,4,1.2,4,3.1v0.2c0,2-1.2,3.2-4.3,3.2h-3.8v-6.5H203.2z
	 M207.4,62.1h1.8l-3.5-7.4c1.9-0.7,3.1-2.2,3.1-4.2v-0.3c0-2.6-2-4.5-5.5-4.5h-6v16.4h1.7v-7.1h4.3c0.2,0,0.4,0,0.6,0L207.4,62.1z
	 M214.4,45.7v16.4H225v-1.4h-8.9v-6.3h8.2V53h-8.2v-5.9h8.8v-1.4L214.4,45.7L214.4,45.7z M228.8,45.7v1.4h5.5v15h1.7v-15h5.6v-1.4
	H228.8z M244.4,45.7v1.4h5.5v15h1.7v-15h5.6v-1.4H244.4z M261.4,45.7v16.4H272v-1.4h-8.9v-6.3h8.2V53h-8.2v-5.9h8.8v-1.4L261.4,45.7
	L261.4,45.7z"/>
</svg>
