<svg xmlns="http://www.w3.org/2000/svg" width="86" height="20" viewBox="0 0 86 20"><g transform="translate(-7584 -1664)"><path d="M1.86-1.9c-.06.28-.1.72.06.84a2.207,2.207,0,0,0,1.16.58c1.48,0,2.42-2.5,2.64-3.66.1-.64.34-.96.82-.96a18.215,18.215,0,0,1,2.72.4,1.058,1.058,0,0,1,.54.56c.38.94.7,1.92,1.08,2.88a1.335,1.335,0,0,0,1.2.58A1.186,1.186,0,0,0,12.8-.9c.06-.06.86-.18.86-.28a19.461,19.461,0,0,0-.78-4.6c-.14-.64-.36-1.9-.72-3.12-.5-1.76-1.08-3.5-1.64-5.24a2.7,2.7,0,0,0-1.86-2.1,2.453,2.453,0,0,0-.64-.12c-.32,0-.48.16-.76.6a32.072,32.072,0,0,0-1.74,3.14c-.64,1.4-1.2,2.84-1.76,4.28-.24.64-.5.88-1.16.9a5.024,5.024,0,0,0-.54.08A1.158,1.158,0,0,0,1.04-5.82c.1.44.24.74.72.74A.39.39,0,0,0,1.9-5.1h.18c.38,0,.42.16.32.62C2.24-3.62,2.02-2.76,1.86-1.9ZM6.9-8.76a12.422,12.422,0,0,1,.8-2.12h.2c.22.92.42,1.84.7,2.74.12.44-.06.54-.42.58H7.84c-.3,0-.54.02-.7.02C6.48-7.54,6.66-7.68,6.9-8.76Zm8.68-6.16c-.12,1.24-.28,2.48-.38,3.72-.12,1.8-.22,3.62-.3,5.42-.02.44.12.9.06,1.32a6.239,6.239,0,0,0,.66,3.84,1.054,1.054,0,0,0,.96.54.8.8,0,0,0,.48-.14,3.108,3.108,0,0,0,1.26-2.54c.02-2.14.02-4.28.04-6.42a2.82,2.82,0,0,1,.18-.64,1.818,1.818,0,0,1,.54.36c.66.78,1.3,1.58,1.96,2.34a1.644,1.644,0,0,0,1.24.52,1.487,1.487,0,0,0,1.16-.5c.44-.52.78-1.12,1.18-1.7.08-.08.2-.22.28-.2.1.02.2.16.26.26a2.653,2.653,0,0,1,.06.42c.18,1.96.34,3.92.52,5.88a3.845,3.845,0,0,0,.16,1.1c.2.54.34,1.16,1.06,1.24a1.32,1.32,0,0,0,.28.02c.8,0,1.26-.5,1.28-1.4,0-2.06-.04-4.14-.16-6.2-.08-1.56-.28-3.12-.42-4.7h.16c-.1-.88-.14-1.76-.28-2.62a1.852,1.852,0,0,0-1.68-1.3.862.862,0,0,0-.7.32c-.32.48-.62.96-.9,1.48-.7,1.26-1.4,2.52-2.08,3.8-.1.16-.18.24-.26.24s-.16-.08-.26-.2c-.08-.12-.14-.24-.22-.36-1.08-1.36-2.12-2.74-3.22-4.08a2.331,2.331,0,0,0-1.74-.92A1.137,1.137,0,0,0,15.58-14.92ZM37.4.86A5.206,5.206,0,0,0,40.62-.22,7.25,7.25,0,0,0,43.8-5.4a18.286,18.286,0,0,0-.06-4.9,8.374,8.374,0,0,0-1.24-3.42c-1.36-1.96-2.66-2.48-4.98-2.48a7.591,7.591,0,0,0-3.14.62c-.52.28-.86.82-1.34,1.16-2.06,1.5-2.36,5.4-2.5,7.7.1.96.22,2.06.34,3.16.02.1.02.2.08.26.6.94.92,2.08,2.04,2.62A14.86,14.86,0,0,0,35.58.62,8.119,8.119,0,0,0,37.4.86Zm-.74-3.64c-2.08,0-2.56-3.04-2.56-4.6a9.9,9.9,0,0,1,.96-4.3A2.843,2.843,0,0,1,37.8-13.2a1.939,1.939,0,0,1,2.1,1.72,4.185,4.185,0,0,0,.16.68,5.338,5.338,0,0,1,.38,3c-.2,1.5-.62,4.34-2.44,4.68a.71.71,0,0,0-.18.08A3.07,3.07,0,0,1,36.66-2.78ZM47.88-14.12c-.46.76-.66,1.68-1.1,2.46a6.577,6.577,0,0,0-.8,4.06c.12,1.14.48,3.6,1.18,4.5A6.724,6.724,0,0,0,49.7-.86a6.785,6.785,0,0,0,2.66.62A5.152,5.152,0,0,0,54.6-.76c.52-.24.98-.58,1.48-.86a4.244,4.244,0,0,0,1.64-1.82,8.624,8.624,0,0,0,.72-4,.789.789,0,0,0-.2-.5,2.022,2.022,0,0,0-1.6-.88.554.554,0,0,0-.18.02h-.18c-.34,0-.66-.06-1-.06a3.869,3.869,0,0,0-2.46.54c-.38.28-.54.82-.82,1.24a.692.692,0,0,0,.04.84.523.523,0,0,0,.48.26,1.2,1.2,0,0,0,.24-.04,8.938,8.938,0,0,1,1.64-.16c.38,0,.56.2.54.64-.04.82-.9,2.78-1.92,2.78a1.569,1.569,0,0,1-.76-.26c-1.4-.92-2.58-2-2.44-3.92a12.221,12.221,0,0,1,1.78-6.48c.3-.46.46-.64.72-.64a3.215,3.215,0,0,1,.7.18,4.814,4.814,0,0,0,1.62.4,2.36,2.36,0,0,0,1-.24.958.958,0,0,0,.34-1.58,5.642,5.642,0,0,0-3.52-1.48A5.58,5.58,0,0,0,47.88-14.12ZM61.28-1.9c-.06.28-.1.72.06.84a2.207,2.207,0,0,0,1.16.58c1.48,0,2.42-2.5,2.64-3.66.1-.64.34-.96.82-.96a18.215,18.215,0,0,1,2.72.4,1.058,1.058,0,0,1,.54.56c.38.94.7,1.92,1.08,2.88a1.335,1.335,0,0,0,1.2.58,1.186,1.186,0,0,0,.72-.22c.06-.06.86-.18.86-.28a19.461,19.461,0,0,0-.78-4.6c-.14-.64-.36-1.9-.72-3.12-.5-1.76-1.08-3.5-1.64-5.24a2.7,2.7,0,0,0-1.86-2.1,2.453,2.453,0,0,0-.64-.12c-.32,0-.48.16-.76.6a32.073,32.073,0,0,0-1.74,3.14c-.64,1.4-1.2,2.84-1.76,4.28-.24.64-.5.88-1.16.9a5.025,5.025,0,0,0-.54.08,1.158,1.158,0,0,0-1.02,1.54c.1.44.24.74.72.74a.39.39,0,0,0,.14-.02h.18c.38,0,.42.16.32.62C61.66-3.62,61.44-2.76,61.28-1.9Zm5.04-6.86a12.423,12.423,0,0,1,.8-2.12h.2c.22.92.42,1.84.7,2.74.12.44-.06.54-.42.58h-.34c-.3,0-.54.02-.7.02C65.9-7.54,66.08-7.68,66.32-8.76Zm8.74-4.84c-.16,1.56-.38,3.12-.54,4.7a24.145,24.145,0,0,0-.2,3.6A6.271,6.271,0,0,0,75.4-1.34a1.84,1.84,0,0,0,1.42.88.75.75,0,0,0,.2-.02c.28,0,.56.02.84.04a11.585,11.585,0,0,0,1.44.08c1.46,0,4.72-.4,5.04-2.22.08-.48-.14-.86-.62-.88-.4,0-.82-.02-1.22-.02a4.134,4.134,0,0,0-1.54.24,6.279,6.279,0,0,1-2.02.32c-.44,0-.6-.18-.64-.7-.08-1.04-.1-2.08-.16-3.12-.02-.4.16-.56.52-.56h.08a17.089,17.089,0,0,0,4.28-.42,1.242,1.242,0,0,0,1.06-1.2c-.06-.46-.62-.8-1.36-.84-1.04-.04-2.1-.06-3.14-.14-1.08-.08-1.12-.42-.98-1.14.1-.56.16-1.1.28-1.66.18-.78.2-.78.98-.86,1.22-.14,2.42-.28,3.62-.4a2.335,2.335,0,0,0,1.6-.9.717.717,0,0,0-.22-1.24,1.72,1.72,0,0,0-.54-.18c-.72-.1-1.46-.16-2.2-.24v.2c-.72,0-1.42-.02-2.12-.02a18.971,18.971,0,0,0-4.12.44,1.1,1.1,0,0,0-.92,1.54A2.566,2.566,0,0,1,75.06-13.6Z" transform="translate(7584 1681)" fill="#fff"/><rect width="86" height="20" transform="translate(7584 1664)" fill="none"/></g></svg>