<svg xmlns="http://www.w3.org/2000/svg" width="64" height="64" viewBox="0 0 64 64"><defs><style>.a{fill:none;}.b{isolation:isolate;}.c{fill:#fff;}</style></defs><g transform="translate(-8019 -817)"><path class="a" d="M32,0A32,32,0,1,1,0,32,32,32,0,0,1,32,0Z" transform="translate(8019 817)"/><g class="b" transform="translate(8137.977 396.083)"><g class="b"><path class="c" d="M-98.977,446.2h2.961v5.822h5.6V446.2h2.941V461h-2.941v-6.4h-5.6V461h-2.961Z"/><path class="c" d="M-84.577,453.658c0-4.881,3.14-7.741,6.882-7.741a6.041,6.041,0,0,1,4.341,1.9l-1.561,1.88a3.821,3.821,0,0,0-2.721-1.24c-2.24,0-3.92,1.921-3.92,5.1,0,3.22,1.52,5.161,3.861,5.161a4.116,4.116,0,0,0,3.06-1.461l1.56,1.841a5.99,5.99,0,0,1-4.72,2.18C-81.536,461.28-84.577,458.6-84.577,453.658Z"/></g></g></g></svg>