<svg id="그룹_3527" data-name="그룹 3527" xmlns="http://www.w3.org/2000/svg" width="32" height="32" viewBox="0 0 32 32">
  <rect id="Color" width="32" height="32" rx="5" transform="translate(0)" fill="#ff5353"/>
  <g id="그룹_3525" data-name="그룹 3525" transform="translate(5.818 8.727)">
    <path id="패스_21257" data-name="패스 21257" d="M4638.506,20.695q3.7-.093,7.4.066c.8.04,1.6.082,2.4.178a3.919,3.919,0,0,1,1.272.311,2.541,2.541,0,0,1,1.36,1.7,16.715,16.715,0,0,1,.344,2.831,34.218,34.218,0,0,1-.028,4.379,14.668,14.668,0,0,1-.324,2.415,2.541,2.541,0,0,1-1.369,1.673,4.413,4.413,0,0,1-1.4.32c-1.229.131-2.465.174-3.7.213q-3.951.118-7.9-.051a24.963,24.963,0,0,1-3-.267,2.553,2.553,0,0,1-1.815-1.3,4.393,4.393,0,0,1-.388-1.416,31.209,31.209,0,0,1-.249-3.938,32.62,32.62,0,0,1,.221-3.85,4.721,4.721,0,0,1,.447-1.677,2.537,2.537,0,0,1,1.116-1.035,4.47,4.47,0,0,1,1.416-.321c1.394-.146,2.8-.185,4.2-.225m.695,4.023q0,3.027,0,6.053l5.239-3.026q-2.619-1.515-5.24-3.027Z" transform="translate(-4631.11 -20.661)" fill="#fff"/>
    <path id="패스_21258" data-name="패스 21258" d="M4692.091,51.232q2.621,1.512,5.24,3.027l-5.239,3.026q0-3.026,0-6.053Z" transform="translate(-4684 -47.176)" fill="#fd5353"/>
  </g>
</svg>