<svg xmlns="http://www.w3.org/2000/svg" width="147.126" height="20" viewBox="0 0 147.126 20"><g transform="translate(-7424 -1664)"><path d="M1.7-14.92c-.12,1.24-.28,2.48-.38,3.72-.12,1.8-.22,3.62-.3,5.42-.02.44.12.9.06,1.32A6.239,6.239,0,0,0,1.74-.62a1.054,1.054,0,0,0,.96.54.8.8,0,0,0,.48-.14A3.108,3.108,0,0,0,4.44-2.76c.02-2.14.02-4.28.04-6.42a2.82,2.82,0,0,1,.18-.64,1.818,1.818,0,0,1,.54.36c.66.78,1.3,1.58,1.96,2.34A1.644,1.644,0,0,0,8.4-6.6a1.487,1.487,0,0,0,1.16-.5c.44-.52.78-1.12,1.18-1.7.08-.08.2-.22.28-.2.1.02.2.16.26.26a2.653,2.653,0,0,1,.06.42c.18,1.96.34,3.92.52,5.88a3.845,3.845,0,0,0,.16,1.1c.2.54.34,1.16,1.06,1.24a1.32,1.32,0,0,0,.28.02c.8,0,1.26-.5,1.28-1.4,0-2.06-.04-4.14-.16-6.2-.08-1.56-.28-3.12-.42-4.7h.16c-.1-.88-.14-1.76-.28-2.62a1.852,1.852,0,0,0-1.68-1.3.862.862,0,0,0-.7.32c-.32.48-.62.96-.9,1.48-.7,1.26-1.4,2.52-2.08,3.8-.1.16-.18.24-.26.24s-.16-.08-.26-.2c-.08-.12-.14-.24-.22-.36-1.08-1.36-2.12-2.74-3.22-4.08a2.331,2.331,0,0,0-1.74-.92A1.137,1.137,0,0,0,1.7-14.92ZM17.52-1.9c-.06.28-.1.72.06.84a2.207,2.207,0,0,0,1.16.58c1.48,0,2.42-2.5,2.64-3.66.1-.64.34-.96.82-.96a18.215,18.215,0,0,1,2.72.4,1.058,1.058,0,0,1,.54.56c.38.94.7,1.92,1.08,2.88a1.335,1.335,0,0,0,1.2.58,1.186,1.186,0,0,0,.72-.22c.06-.06.86-.18.86-.28a19.461,19.461,0,0,0-.78-4.6c-.14-.64-.36-1.9-.72-3.12-.5-1.76-1.08-3.5-1.64-5.24a2.7,2.7,0,0,0-1.86-2.1,2.453,2.453,0,0,0-.64-.12c-.32,0-.48.16-.76.6a32.072,32.072,0,0,0-1.74,3.14c-.64,1.4-1.2,2.84-1.76,4.28-.24.64-.5.88-1.16.9a5.025,5.025,0,0,0-.54.08A1.158,1.158,0,0,0,16.7-5.82c.1.44.24.74.72.74a.39.39,0,0,0,.14-.02h.18c.38,0,.42.16.32.62C17.9-3.62,17.68-2.76,17.52-1.9Zm5.04-6.86a12.422,12.422,0,0,1,.8-2.12h.2c.22.92.42,1.84.7,2.74.12.44-.06.54-.42.58H23.5c-.3,0-.54.02-.7.02C22.14-7.54,22.32-7.68,22.56-8.76Zm8.68-6.16c-.12,1.24-.28,2.48-.38,3.72-.12,1.8-.22,3.62-.3,5.42-.02.44.12.9.06,1.32a6.239,6.239,0,0,0,.66,3.84,1.054,1.054,0,0,0,.96.54.8.8,0,0,0,.48-.14,3.108,3.108,0,0,0,1.26-2.54c.02-2.14.02-4.28.04-6.42a2.82,2.82,0,0,1,.18-.64,1.818,1.818,0,0,1,.54.36c.66.78,1.3,1.58,1.96,2.34a1.644,1.644,0,0,0,1.24.52,1.487,1.487,0,0,0,1.16-.5c.44-.52.78-1.12,1.18-1.7.08-.08.2-.22.28-.2.1.02.2.16.26.26a2.653,2.653,0,0,1,.06.42c.18,1.96.34,3.92.52,5.88a3.845,3.845,0,0,0,.16,1.1c.2.54.34,1.16,1.06,1.24a1.32,1.32,0,0,0,.28.02c.8,0,1.26-.5,1.28-1.4,0-2.06-.04-4.14-.16-6.2-.08-1.56-.28-3.12-.42-4.7h.16c-.1-.88-.14-1.76-.28-2.62a1.852,1.852,0,0,0-1.68-1.3.862.862,0,0,0-.7.32c-.32.48-.62.96-.9,1.48-.7,1.26-1.4,2.52-2.08,3.8-.1.16-.18.24-.26.24s-.16-.08-.26-.2c-.08-.12-.14-.24-.22-.36-1.08-1.36-2.12-2.74-3.22-4.08a2.331,2.331,0,0,0-1.74-.92A1.137,1.137,0,0,0,31.24-14.92ZM47.06-1.9c-.06.28-.1.72.06.84a2.207,2.207,0,0,0,1.16.58c1.48,0,2.42-2.5,2.64-3.66.1-.64.34-.96.82-.96a18.215,18.215,0,0,1,2.72.4,1.058,1.058,0,0,1,.54.56c.38.94.7,1.92,1.08,2.88a1.335,1.335,0,0,0,1.2.58A1.186,1.186,0,0,0,58-.9c.06-.06.86-.18.86-.28a19.461,19.461,0,0,0-.78-4.6c-.14-.64-.36-1.9-.72-3.12-.5-1.76-1.08-3.5-1.64-5.24a2.7,2.7,0,0,0-1.86-2.1,2.453,2.453,0,0,0-.64-.12c-.32,0-.48.16-.76.6a32.073,32.073,0,0,0-1.74,3.14c-.64,1.4-1.2,2.84-1.76,4.28-.24.64-.5.88-1.16.9a5.025,5.025,0,0,0-.54.08,1.158,1.158,0,0,0-1.02,1.54c.1.44.24.74.72.74a.39.39,0,0,0,.14-.02h.18c.38,0,.42.16.32.62C47.44-3.62,47.22-2.76,47.06-1.9ZM52.1-8.76a12.423,12.423,0,0,1,.8-2.12h.2c.22.92.42,1.84.7,2.74.12.44-.06.54-.42.58h-.34c-.3,0-.54.02-.7.02C51.68-7.54,51.86-7.68,52.1-8.76Zm8.06-.28a32.954,32.954,0,0,0,.34,7.56,1.7,1.7,0,0,0,1.12,1.3,1.341,1.341,0,0,0,.54.14c.68,0,1.22-2.18,1.26-2.7a30.955,30.955,0,0,0,.04-3.34V-9.3a1.482,1.482,0,0,1,.02-.42,1.34,1.34,0,0,1,.14-.36c.1.08.24.12.3.22a28.771,28.771,0,0,1,3.44,6.54,5.318,5.318,0,0,1,.46,1.52A1.655,1.655,0,0,0,69.56-.24a1.953,1.953,0,0,0,1.38-.84,3.734,3.734,0,0,0,.48-1.42,17,17,0,0,0,.24-4.16c-.06-1.46,0-2.92-.02-4.38,0-1.38,0-2.74-.1-4.1a1.171,1.171,0,0,0-1.26-1.16c-.9,0-1.58.42-1.6,1.4,0,2.08,0,4.16-.02,6.24a1.617,1.617,0,0,1-.14.44,1.518,1.518,0,0,1-.76-.88,18.638,18.638,0,0,0-3.22-4.82,2.9,2.9,0,0,0-2.36-1.1,1.543,1.543,0,0,0-1.72,1.26c-.08.64-.12,1.3-.14,1.94C60.26-10.88,60.22-9.96,60.16-9.04ZM93.671.225A2.919,2.919,0,0,1,92.69.073a2.847,2.847,0,0,1-.786-.43,4.542,4.542,0,0,1-.7-.679q-.337-.4-.708-.908a7.134,7.134,0,0,1-.9.811,6.663,6.663,0,0,1-1.138.693,6.836,6.836,0,0,1-1.367.483,6.8,6.8,0,0,1-1.611.181,6.708,6.708,0,0,1-1.934-.264,4.278,4.278,0,0,1-1.5-.776,3.516,3.516,0,0,1-.972-1.265,4.087,4.087,0,0,1-.347-1.729,3.954,3.954,0,0,1,.85-2.554,6.129,6.129,0,0,1,2.4-1.733,5.366,5.366,0,0,1-.586-.5,3.576,3.576,0,0,1-.522-.654,3.547,3.547,0,0,1-.371-.811,3.186,3.186,0,0,1-.142-.972,3.2,3.2,0,0,1,.278-1.367,2.9,2.9,0,0,1,.767-1.006,3.329,3.329,0,0,1,1.152-.62,4.738,4.738,0,0,1,1.436-.21,4.38,4.38,0,0,1,1.392.21,3.185,3.185,0,0,1,1.084.6,2.75,2.75,0,0,1,.708.938,2.864,2.864,0,0,1,.254,1.221,2.879,2.879,0,0,1-.669,1.948A5.19,5.19,0,0,1,86.748-8a5.867,5.867,0,0,1,1.221.645,7.237,7.237,0,0,1,1.011.85A9.5,9.5,0,0,1,89.843-5.5q.4.537.791,1.113a8.21,8.21,0,0,0,1.191-2.432,9.59,9.59,0,0,0,.4-2.783,5.251,5.251,0,0,0-.044-.7,6.333,6.333,0,0,0-.122-.649h1.553a3.31,3.31,0,0,1,.093.61q.015.288.034.688a8.816,8.816,0,0,1-.186,1.787,12.027,12.027,0,0,1-.5,1.743,12.2,12.2,0,0,1-.728,1.606,12.978,12.978,0,0,1-.874,1.4q.342.469.625.815a4.04,4.04,0,0,0,.571.581,2.072,2.072,0,0,0,.6.347,2.027,2.027,0,0,0,.7.112,2.378,2.378,0,0,0,.6-.078q.3-.078.625-.2V-.049a3.913,3.913,0,0,1-.737.205A4.332,4.332,0,0,1,93.671.225ZM85.478-1.162a5.469,5.469,0,0,0,1.367-.161A5.626,5.626,0,0,0,88-1.753a5.159,5.159,0,0,0,.957-.625,7.432,7.432,0,0,0,.781-.747q-.6-.928-1.1-1.587A9.114,9.114,0,0,0,87.622-5.85a6.233,6.233,0,0,0-1.094-.82A9.083,9.083,0,0,0,85.185-7.3a8.709,8.709,0,0,0-1.133.542,3.779,3.779,0,0,0-.894.7,3.02,3.02,0,0,0-.591.942,3.38,3.38,0,0,0-.215,1.26A2.674,2.674,0,0,0,82.6-2.686a2.374,2.374,0,0,0,.669.845,2.946,2.946,0,0,0,.991.508A4.207,4.207,0,0,0,85.478-1.162Zm2.441-9.971a1.757,1.757,0,0,0-.181-.83,1.794,1.794,0,0,0-.459-.566,1.8,1.8,0,0,0-.62-.327,2.337,2.337,0,0,0-.674-.1,2.19,2.19,0,0,0-1.528.518,1.832,1.832,0,0,0-.581,1.406,2.277,2.277,0,0,0,.122.752,2.51,2.51,0,0,0,.342.654,2.764,2.764,0,0,0,.513.537,3.513,3.513,0,0,0,.625.4,5.149,5.149,0,0,0,1.836-1A1.9,1.9,0,0,0,87.919-11.133Zm16.206-3.787c-.12,1.24-.28,2.48-.38,3.72-.12,1.8-.22,3.62-.3,5.42-.02.44.12.9.06,1.32a6.239,6.239,0,0,0,.66,3.84,1.054,1.054,0,0,0,.96.54.8.8,0,0,0,.48-.14,3.108,3.108,0,0,0,1.26-2.54c.02-2.14.02-4.28.04-6.42a2.82,2.82,0,0,1,.18-.64,1.818,1.818,0,0,1,.54.36c.66.78,1.3,1.58,1.96,2.34a1.644,1.644,0,0,0,1.24.52,1.487,1.487,0,0,0,1.16-.5c.44-.52.78-1.12,1.18-1.7.08-.08.2-.22.28-.2.1.02.2.16.26.26a2.654,2.654,0,0,1,.06.42c.18,1.96.34,3.92.52,5.88a3.845,3.845,0,0,0,.16,1.1c.2.54.34,1.16,1.06,1.24a1.32,1.32,0,0,0,.28.02c.8,0,1.26-.5,1.28-1.4,0-2.06-.04-4.14-.16-6.2-.08-1.56-.28-3.12-.42-4.7h.16c-.1-.88-.14-1.76-.28-2.62a1.852,1.852,0,0,0-1.68-1.3.862.862,0,0,0-.7.32c-.32.48-.62.96-.9,1.48-.7,1.26-1.4,2.52-2.08,3.8-.1.16-.18.24-.26.24s-.16-.08-.26-.2c-.08-.12-.14-.24-.22-.36-1.08-1.36-2.12-2.74-3.22-4.08a2.331,2.331,0,0,0-1.74-.92A1.137,1.137,0,0,0,104.126-14.92ZM125.946.86a5.206,5.206,0,0,0,3.22-1.08,7.25,7.25,0,0,0,3.18-5.18,18.286,18.286,0,0,0-.06-4.9,8.374,8.374,0,0,0-1.24-3.42c-1.36-1.96-2.66-2.48-4.98-2.48a7.591,7.591,0,0,0-3.14.62c-.52.28-.86.82-1.34,1.16-2.06,1.5-2.36,5.4-2.5,7.7.1.96.22,2.06.34,3.16.02.1.02.2.08.26.6.94.92,2.08,2.04,2.62a14.859,14.859,0,0,0,2.58,1.3A8.119,8.119,0,0,0,125.946.86Zm-.74-3.64c-2.08,0-2.56-3.04-2.56-4.6a9.9,9.9,0,0,1,.96-4.3,2.843,2.843,0,0,1,2.74-1.52,1.939,1.939,0,0,1,2.1,1.72,4.184,4.184,0,0,0,.16.68,5.338,5.338,0,0,1,.38,3c-.2,1.5-.62,4.34-2.44,4.68a.71.71,0,0,0-.18.08A3.07,3.07,0,0,1,125.206-2.78Zm10.12.88c-.06.28-.1.72.06.84a2.207,2.207,0,0,0,1.16.58c1.48,0,2.42-2.5,2.64-3.66.1-.64.34-.96.82-.96a18.215,18.215,0,0,1,2.72.4,1.058,1.058,0,0,1,.54.56c.38.94.7,1.92,1.08,2.88a1.335,1.335,0,0,0,1.2.58,1.186,1.186,0,0,0,.72-.22c.06-.06.86-.18.86-.28a19.461,19.461,0,0,0-.78-4.6c-.14-.64-.36-1.9-.72-3.12-.5-1.76-1.08-3.5-1.64-5.24a2.7,2.7,0,0,0-1.86-2.1,2.453,2.453,0,0,0-.64-.12c-.32,0-.48.16-.76.6a32.073,32.073,0,0,0-1.74,3.14c-.64,1.4-1.2,2.84-1.76,4.28-.24.64-.5.88-1.16.9a5.025,5.025,0,0,0-.54.08,1.158,1.158,0,0,0-1.02,1.54c.1.44.24.74.72.74a.39.39,0,0,0,.14-.02h.18c.38,0,.42.16.32.62C135.706-3.62,135.486-2.76,135.326-1.9Zm5.04-6.86a12.423,12.423,0,0,1,.8-2.12h.2c.22.92.42,1.84.7,2.74.12.44-.06.54-.42.58h-.34c-.3,0-.54.02-.7.02C139.946-7.54,140.126-7.68,140.366-8.76Z" transform="translate(7424 1681)" fill="#fff"/><rect width="147" height="20" transform="translate(7424 1664)" fill="none" opacity="0.54"/></g></svg>