<svg xmlns="http://www.w3.org/2000/svg" width="25.868" height="25.868" viewBox="0 0 25.868 25.868">
  <g id="Icon_feather-instagram" data-name="Icon feather-instagram" transform="translate(1.5 1.5)">
    <path id="패스_1" data-name="패스 1" d="M8.717,3H20.151a5.717,5.717,0,0,1,5.717,5.717V20.151a5.717,5.717,0,0,1-5.717,5.717H8.717A5.717,5.717,0,0,1,3,20.151V8.717A5.717,5.717,0,0,1,8.717,3Z" transform="translate(-3 -3)" fill="none" stroke="gray" stroke-linecap="round" stroke-linejoin="round" stroke-width="3"/>
    <path id="패스_2" data-name="패스 2" d="M21.163,15.838a4.574,4.574,0,1,1-3.853-3.853,4.574,4.574,0,0,1,3.853,3.853Z" transform="translate(-5.155 -5.124)" fill="none" stroke="gray" stroke-linecap="round" stroke-linejoin="round" stroke-width="3"/>
    <path id="패스_3" data-name="패스 3" d="M26.25,9.75h0" transform="translate(-8.527 -4.605)" fill="none" stroke="gray" stroke-linecap="round" stroke-linejoin="round" stroke-width="3"/>
  </g>
</svg>
