<svg xmlns="http://www.w3.org/2000/svg" viewBox="0 0 536.5 45.31"><defs><style>.cls-1{fill:#e9d5da;}</style></defs><g id="Layer_2" data-name="Layer 2"><g id="Layer_1-2" data-name="Layer 1"><path class="cls-1" d="M272.47,31.22l.65.47c.43.32,1.08.78,1.93,1.38a85.9,85.9,0,0,0,7.7,4.82,60.53,60.53,0,0,0,5.9,2.86c1.1.45,2.27.89,3.5,1.3s2.53.78,3.88,1.09a41.66,41.66,0,0,0,4.25.77,42,42,0,0,0,4.57.34c.39,0,.79,0,1.19,0l1.2,0,1.22-.07c.41,0,.82-.06,1.24-.09,1.65-.16,3.34-.4,5.05-.73a36.41,36.41,0,0,0,5.14-1.41,28.28,28.28,0,0,0,5-2.33,24.2,24.2,0,0,0,2.34-1.6,21.34,21.34,0,0,0,2.13-1.92,17.44,17.44,0,0,0,3.31-4.79,16.77,16.77,0,0,0,1.49-5.8c0-.26,0-.52,0-.77s0-.52,0-.77v-.39c0-.13,0-.26,0-.39s0-.51-.05-.77a17.82,17.82,0,0,0-.62-3,15.8,15.8,0,0,0-3.06-5.5,19.38,19.38,0,0,0-2.31-2.31,25.58,25.58,0,0,0-2.71-2,30.58,30.58,0,0,0-13-4.33,35.11,35.11,0,0,0-7.17.08,40.21,40.21,0,0,0-7.16,1.56,69.78,69.78,0,0,0-13.82,6.37c-4.52,2.59-9,5.49-13.68,8.23l-3.5,2-3.44,2c-2.28,1.36-4.56,2.72-6.84,4.05A153.74,153.74,0,0,1,243,36.89c-2.35,1.06-4.72,2-7.13,2.84a52.72,52.72,0,0,1-7.32,2,37.45,37.45,0,0,1-7.45.65l-.92,0-.93-.07-.46,0-.23,0-.23,0-.92-.13-.45-.06-.45-.08-.9-.18c-.6-.11-1.19-.29-1.77-.44a16.81,16.81,0,0,1-1.74-.56l-.43-.14-.42-.18-.84-.36a8.69,8.69,0,0,1-.81-.4l-.8-.42c-.27-.15-.52-.31-.78-.47l-.38-.24-.19-.12-.18-.14-.73-.54c-.11-.09-.24-.17-.35-.27l-.34-.3-.67-.6c-.21-.21-.42-.43-.62-.65l-.31-.32c-.1-.11-.19-.23-.28-.35l-.56-.69c-.18-.24-.34-.49-.5-.73l-.25-.37c-.08-.12-.15-.25-.22-.38l-.43-.77c-.14-.26-.25-.53-.38-.79l-.18-.4c-.06-.13-.1-.27-.15-.4-.11-.28-.21-.55-.31-.82l-.24-.82-.12-.42-.09-.42c-.06-.27-.11-.55-.17-.83s-.08-.56-.12-.84l-.06-.42c0-.14,0-.28,0-.42s0-.56-.05-.84,0-.55,0-.83a7.66,7.66,0,0,1,0-.83c0-.27,0-.55.05-.82s0-.55.08-.82l.05-.41,0-.2,0-.2.14-.8A21.38,21.38,0,0,1,206.13,9a32.69,32.69,0,0,1,4.49-3.66c.39-.26.78-.53,1.18-.77l1.2-.7c.82-.43,1.63-.86,2.46-1.21a30.26,30.26,0,0,1,5-1.71c.42-.12.84-.2,1.25-.28s.82-.18,1.23-.23l1.23-.19,1.22-.12c.4,0,.8-.06,1.2-.08l.59,0h2.05l.29,0,.57,0,.57,0h.28l.28,0,1.11.13c.36,0,.72.1,1.08.16s.71.1,1.06.17A37.86,37.86,0,0,1,242,2.93,42.2,42.2,0,0,1,247.83,6,46.52,46.52,0,0,1,255,11.7c.76.71,1.3,1.3,1.67,1.69s.55.58.55.58l-.57-.56c-.39-.37-.94-.94-1.72-1.63a47.5,47.5,0,0,0-7.27-5.42,41.57,41.57,0,0,0-5.86-2.89,36.68,36.68,0,0,0-7.45-2.09c-.34-.06-.69-.1-1-.15s-.7-.11-1.06-.13L231.13,1l-.27,0h-.28L230,1l-.56,0h-.56l-1.13,0-.58,0-.57,0c-.39,0-.78.05-1.16.11l-1.18.14-1.18.21c-.4.06-.79.16-1.19.25s-.8.18-1.19.3A28.09,28.09,0,0,0,216,3.78a30.15,30.15,0,0,0-8.8,6.25c-.31.35-.64.67-.92,1l-.44.55-.41.58-.21.29-.18.3c-.13.2-.26.4-.38.6s-.23.42-.35.63-.24.42-.34.64c-.2.44-.42.87-.59,1.33-.09.22-.19.45-.27.68l-.24.69-.12.35-.1.36c-.06.24-.13.47-.2.71s-.11.49-.16.73-.11.48-.15.73-.08.49-.11.74l0,.19,0,.18,0,.38c0,.25-.06.5-.07.75l0,.76c0,.25,0,.5,0,.75s0,.51,0,.76l.06.76c0,.13,0,.26,0,.38l.06.38c0,.25.07.51.12.76s.11.5.17.75,0,.25.09.37l.11.37c.08.24.14.49.23.73s.18.48.28.72a3.84,3.84,0,0,0,.14.36l.17.35c.11.23.22.47.34.7l.39.67c.07.11.12.23.2.34l.22.31.45.64.5.61.26.3.27.28.56.56.6.52.3.26c.1.09.22.16.32.24l.65.47.16.12.18.1.34.21c.23.14.46.29.7.42l.73.37c.24.12.48.25.74.35l.76.31.38.16.4.13c.52.17,1,.36,1.59.49s1.09.29,1.65.38l.83.16.42.07.43,0,.84.11.21,0,.22,0,.43,0,.85.05h.87a35.45,35.45,0,0,0,7-.68,50.68,50.68,0,0,0,7-1.93c2.32-.8,4.62-1.75,6.9-2.8a153.8,153.8,0,0,0,13.58-7.24c2.26-1.32,4.52-2.68,6.81-4l3.46-2.05,3.49-2c4.63-2.7,9.11-5.6,13.72-8.22a71.36,71.36,0,0,1,14.34-6.51A42.45,42.45,0,0,1,305,3.05a37.52,37.52,0,0,1,7.64,0A32,32,0,0,1,320,4.67a30.94,30.94,0,0,1,6.61,3.17A25.48,25.48,0,0,1,329.47,10,21.17,21.17,0,0,1,332,12.58a17.36,17.36,0,0,1,2,3,18.18,18.18,0,0,1,1.35,3.27,19.42,19.42,0,0,1,.64,3.42c0,.29,0,.57,0,.86,0,.14,0,.29,0,.43V24c0,.29,0,.57,0,.85s0,.57-.06.85A18.51,18.51,0,0,1,334.21,32a19.24,19.24,0,0,1-3.71,5.18,24.71,24.71,0,0,1-2.34,2,25.35,25.35,0,0,1-2.52,1.65,29.26,29.26,0,0,1-5.31,2.35A36.72,36.72,0,0,1,315,44.57a50.44,50.44,0,0,1-5.2.63c-.42,0-.84.06-1.26.07l-1.25,0H306c-.41,0-.81,0-1.21,0a43.2,43.2,0,0,1-4.67-.46c-1.5-.23-2.94-.54-4.31-.89s-2.67-.78-3.91-1.22-2.41-.92-3.51-1.41a60.58,60.58,0,0,1-5.86-3.05A82.62,82.62,0,0,1,275,33.15c-.84-.62-1.47-1.11-1.88-1.44Z"/><path class="cls-1" d="M298.41,14.77l-.6.09-.72.11-1,.18a40.06,40.06,0,0,0-6,1.74,59.9,59.9,0,0,0-8.37,4c-3.06,1.71-6.32,3.78-9.8,5.93-1.74,1.08-3.46,2.11-5.15,3.07q-1.28.72-2.52,1.38l-2.38,1.27c-3.09,1.68-5.86,3.29-8.26,4.53l-.87.46-.84.42-1.55.75c-1,.44-1.82.82-2.52,1.11-1.41.54-2.19.82-2.19.82l2-1.17c.64-.39,1.41-.89,2.31-1.45l1.42-.94.77-.51L253,36l3.62-2.47c.65-.45,1.32-.91,2-1.38s1.43-.94,2.19-1.42,1.55-1,2.34-1.43l2.41-1.46,5.06-3.14A109.39,109.39,0,0,1,280.73,19a47.58,47.58,0,0,1,9-3.31,31.56,31.56,0,0,1,6.36-.93l1,0h.74Z"/><path class="cls-1" d="M292.25,6.12l-.6.09-.72.11-1,.18a40.06,40.06,0,0,0-6,1.74,61.05,61.05,0,0,0-8.37,4c-3.06,1.71-6.32,3.78-9.8,5.93-1.74,1.08-3.46,2.12-5.15,3.07-.85.48-1.69.95-2.52,1.38l-2.38,1.27c-3.09,1.69-5.86,3.29-8.26,4.53l-.87.46-.84.42-1.55.75c-1,.44-1.82.82-2.52,1.11l-2.19.83,2-1.18c.64-.39,1.41-.89,2.31-1.45l1.42-.94.77-.51.81-.55,3.62-2.48c.65-.45,1.32-.91,2-1.38s1.43-.94,2.19-1.42,1.55-1,2.34-1.43,1.59-.95,2.41-1.46l5.06-3.13a106.15,106.15,0,0,1,10.13-5.68,46.23,46.23,0,0,1,9-3.31,31,31,0,0,1,6.36-.94l1,0h.74Z"/><path class="cls-1" d="M536.5,25.45s-2.88-15.61-22.5.09C514,25.54,532.5,41.41,536.5,25.45Zm-4.51.09a.75.75,0,0,1-.75.75.75.75,0,1,1,0-1.49A.76.76,0,0,1,532,25.54Zm-13.13,0s1.27-4.7,10.27,0C529.13,25.53,520.74,30.35,518.86,25.57Z"/><path class="cls-1" d="M512.55,27.69a2.07,2.07,0,0,1-2.08-2.06h0a2.08,2.08,0,0,1,2.06-2.08h0a2.08,2.08,0,0,1,2.08,2.06h0a2.08,2.08,0,0,1-2.06,2.08Z"/><path class="cls-1" d="M496.66,27.75a2.06,2.06,0,0,1-2.07-2.06h0a2.05,2.05,0,0,1,2.05-2.07h0a2.06,2.06,0,0,1,2.08,2.06h0a2.07,2.07,0,0,1-2.06,2.07Z"/><path class="cls-1" d="M504.59,31.13s7.08-5.48,7-5.51-7.06-5.45-7.06-5.45c-.82,1.79-7.05,5.5-7,5.51S503.76,29.35,504.59,31.13Z"/><path class="cls-1" d="M320.1,25.59c-12.78-10.22-14.65-.06-14.65-.06C308.05,35.92,320.1,25.59,320.1,25.59Zm-11.22-.48a.49.49,0,0,1,0,1,.48.48,0,0,1-.48-.49A.48.48,0,0,1,308.88,25.11Zm1.36.48c5.87-3,6.69,0,6.69,0C315.71,28.73,310.24,25.59,310.24,25.59Z"/><path class="cls-1" d="M321.05,27a1.36,1.36,0,0,0,1.35-1.34h0a1.34,1.34,0,0,0-1.34-1.35h0a1.34,1.34,0,0,0-1.36,1.34h0A1.35,1.35,0,0,0,321.05,27Z"/><rect class="cls-1" x="322.4" y="24.95" width="174.26" height="1.46"/><path class="cls-1" d="M22.5,25.54C2.87,9.84,0,25.45,0,25.45,4,41.41,22.5,25.54,22.5,25.54ZM5.26,24.8a.75.75,0,1,1-.75.74A.74.74,0,0,1,5.26,24.8Zm2.1.73c9-4.66,10.27,0,10.27,0C15.76,30.35,7.36,25.53,7.36,25.53Z"/><path class="cls-1" d="M24,27.69A2.08,2.08,0,0,0,26,25.63h0A2.08,2.08,0,0,0,24,23.55h0a2.07,2.07,0,0,0-2.08,2.06h0A2.08,2.08,0,0,0,24,27.69Z"/><path class="cls-1" d="M39.84,27.75a2.06,2.06,0,0,0,2.07-2.06h0a2.06,2.06,0,0,0-2.06-2.07h0a2.05,2.05,0,0,0-2.07,2.06h0a2.05,2.05,0,0,0,2.06,2.07Z"/><path class="cls-1" d="M31.9,31.13s-7.07-5.48-7-5.51S32,20.17,32,20.17c.82,1.79,7.05,5.5,7,5.51S32.74,29.35,31.9,31.13Z"/><path class="cls-1" d="M231.05,25.53s-1.87-10.16-14.65.06C216.4,25.59,228.44,35.92,231.05,25.53Zm-2.94.06a.49.49,0,0,1-1,0,.49.49,0,1,1,1,0Zm-8.55,0s.83-3.06,6.69,0C226.25,25.59,220.78,28.73,219.56,25.61Z"/><path class="cls-1" d="M215.45,27a1.35,1.35,0,0,1-1.35-1.34h0a1.34,1.34,0,0,1,1.34-1.35h0a1.34,1.34,0,0,1,1.35,1.34h0A1.35,1.35,0,0,1,215.45,27Z"/><rect class="cls-1" x="39.84" y="24.95" width="174.26" height="1.46"/></g></g></svg>