<svg width="95" height="73" fill="none" xmlns="http://www.w3.org/2000/svg"><g><path d="M2.003 22.93c-.58.32-.834.4-1.189.697l-.1.085-.09.095A2.443 2.443 0 0 0 0 25.501v3.164a3.271 3.271 0 0 0 2.199 3.221l.125.044.126.03c.42.1.855.129 1.284.085l.19-.015.188-.041c.396-.088.77-.206 1.143-.322l.288-.092a13.705 13.705 0 0 0 1.482-.663l.156-.088c.283-.164.576-.354.886-.573.298.152.596.285.897.404l.072.025c.532.195 1.079.345 1.636.448l.313.043c.188.029.393.057.609.078.049.051.095.095.144.138l.167.152.187.126c.57.376 1.24.572 1.921.563.126 0 .257 0 .378-.018l2.633-.232c.356-.029.707-.107 1.043-.23a3.9 3.9 0 0 0 1.073.046l2.635-.23a3.671 3.671 0 0 0 2.055-.814l.15-.123.128-.144c.187-.204.347-.43.477-.674a5.37 5.37 0 0 0 1.742.275c.187 0 .382 0 .583-.026l6.98-.609a5.944 5.944 0 0 0 2.133-.576c.104.128.217.247.339.358l.17.157.192.128c.679.44 1.488.63 2.291.542l2.956-.257a3.656 3.656 0 0 0 2.055-.814l.149-.124.129-.141c.287-.316.512-.684.662-1.085a7.043 7.043 0 0 0 3.632.53c.9-.087 1.795-.22 2.681-.399l.083-.018c.352-.077.706-.164 1.068-.257.092.11.192.213.298.309l.17.156.192.129c.57.372 1.238.567 1.919.558.124 0 .248-.006.372-.018l2.64-.229a3.98 3.98 0 0 0 1.028-.231c.35.064.709.08 1.063.046l2.636-.229a3.68 3.68 0 0 0 2.054-.815l.147-.123.13-.144c.599-.66.92-1.525.9-2.416v-6.31l1.502-.132v.345a2.595 2.595 0 0 0 .835 1.982l.131.12.149.098a2.809 2.809 0 0 0 1.765.419l2.15-.188a2.8 2.8 0 0 0 1.576-.63l.11-.092.101-.108a2.69 2.69 0 0 0 .694-1.86v-.744l2.368-.205a2.55 2.55 0 0 0 .79 1.47l.13.118.143.095c.523.34 1.147.49 1.767.422l7.048-.617.06.056.13.119.149.1c.442.288.96.438 1.487.432.088 0 .18 0 .275-.013l2.152-.188a2.824 2.824 0 0 0 1.575-.63l.113-.095.097-.107a2.672 2.672 0 0 0 .697-1.861V11.25a2.925 2.925 0 0 0-.09-.736c.06-.242.09-.492.09-.742V2.635a2.6 2.6 0 0 0-.838-1.987l-.128-.116-.144-.098a2.713 2.713 0 0 0-1.767-.421L88.94.2c-.576.04-1.124.26-1.57.628l-.115.095-.103.11c-.113.125-.213.26-.3.404a7.152 7.152 0 0 0-1.798-.658l-.157-.031a8.983 8.983 0 0 0-2.255-.075 8.142 8.142 0 0 0-3.051.813l-.023.012c-.304.161-.597.342-.876.543a2.568 2.568 0 0 0-.118-.118l-.129-.116-.144-.098a2.734 2.734 0 0 0-1.77-.424l-1.998.175a2.76 2.76 0 0 0-1.572.63l-.113.092-.1.108a2.605 2.605 0 0 0-.557.962l-2.093.182a2.536 2.536 0 0 0-.547-.72l-.134-.12-.149-.098a2.726 2.726 0 0 0-1.762-.42l-2 .176a2.788 2.788 0 0 0-1.455.537 3.683 3.683 0 0 0-1.818-.283l-2.635.231a3.88 3.88 0 0 0-1.043.23 3.865 3.865 0 0 0-1.053-.047l-3.563.329a2.529 2.529 0 0 0-1.435.573l-.1.085-.088.095a2.43 2.43 0 0 0-.632 1.694v.105a2.858 2.858 0 0 0-.973-1.23l-.288-.258-.347-.18a3.74 3.74 0 0 0-2.036-.38l-2.895.257a3.566 3.566 0 0 0-1.798.64 3.625 3.625 0 0 0-1.883-.319l-2.953.257a3.697 3.697 0 0 0-1.67.54 3.665 3.665 0 0 0-1.726-.242l-10.44.913a3.702 3.702 0 0 0-1.67.545 3.665 3.665 0 0 0-1.726-.257l-2.638.231c-.36.028-.713.107-1.05.234a3.85 3.85 0 0 0-1.064-.049l-2.638.231a3.595 3.595 0 0 0-2.055.818l-.143.12-.129.137v.013l-.182-.121a3.55 3.55 0 0 0-2.296-.548L5.2 7.5a2.513 2.513 0 0 0-1.436.574l-.1.084-.09.098a2.43 2.43 0 0 0-.632 1.691l-.015 11.429a1.8 1.8 0 0 1-.925 1.555Z" fill="#009752"/><path d="M1.996 27.658a.942.942 0 0 1-.337 0c-.146-.052-.21-.193-.21-.445V24.87a.785.785 0 0 1 .084-.409.41.41 0 0 1 .17-.203c.074-.047.151-.089.231-.126a.802.802 0 0 0 .19-.059 3.146 3.146 0 0 0 1.097-.71c.276-.275.504-.595.675-.945.167-.352.287-.725.357-1.108.069-.393.104-.791.106-1.19V9.446a.604.604 0 0 1 .128-.434c.122-.09.27-.14.421-.141l2.931-.258a.667.667 0 0 1 .421.07.514.514 0 0 1 .129.409v10.662c-.01.393.026.786.105 1.172.056.366.177.72.357 1.043.169.324.406.606.696.828.305.267.677.444 1.076.514.068.023.14.03.21.023.069.035.14.064.211.088a.696.696 0 0 1 .19.174c.049.127.07.261.065.396v2.342c0 .257-.064.406-.19.48a1.253 1.253 0 0 1-.36.075c-.336-.013-.673-.067-1.053-.118a7.186 7.186 0 0 1-1.161-.321 6.84 6.84 0 0 1-1.138-.576 5.142 5.142 0 0 1-1.027-.923 8.694 8.694 0 0 1-1.012 1.103c-.365.278-.745.535-1.138.77-.376.196-.764.368-1.16.515a9.83 9.83 0 0 1-1.064.319Zm10.654.164a.665.665 0 0 1-.424-.067.515.515 0 0 1-.126-.41V8.767a.594.594 0 0 1 .126-.432.719.719 0 0 1 .424-.144l2.635-.231a.688.688 0 0 1 .421.069.513.513 0 0 1 .129.411v6.65l1.027-.09v-6.65a.607.607 0 0 1 .126-.432.726.726 0 0 1 .424-.143l2.635-.232a.685.685 0 0 1 .421.07.514.514 0 0 1 .129.41v18.577a.599.599 0 0 1-.129.432.77.77 0 0 1-.421.144l-2.635.229a.651.651 0 0 1-.424-.067.529.529 0 0 1-.126-.411v-8.424l-1.027.09v8.421a.602.602 0 0 1-.129.434.77.77 0 0 1-.421.142l-2.635.231ZM34.423 22.35c0 .887-.19 1.542-.57 1.969a2.519 2.519 0 0 1-1.709.74l-6.98.612c-.771.067-1.329-.095-1.709-.44-.38-.344-.57-.984-.57-1.871V7.824a.617.617 0 0 1 .126-.434.74.74 0 0 1 .424-.141l10.44-.915a.693.693 0 0 1 .422.069.515.515 0 0 1 .126.411V22.35Zm-4.472-.417a.662.662 0 0 0 .485-.19.813.813 0 0 0 .126-.54V9.832l-3.817.334v11.377c0 .275.042.44.126.514.085.074.232.128.486.105l2.594-.229Zm7.32 3.73a.65.65 0 0 1-.424-.07.529.529 0 0 1-.126-.41V6.61a.61.61 0 0 1 .126-.432.744.744 0 0 1 .424-.144l2.951-.257a.68.68 0 0 1 .424.07.515.515 0 0 1 .126.408v18.577a.618.618 0 0 1-.126.442.811.811 0 0 1-.424.141l-2.95.247ZM48.59 20.116c.412-.042.82-.114 1.223-.213.513-.101 1.02-.23 1.52-.386a.529.529 0 0 1 .401.029c.078.132.128.279.146.431l.34 2.208a.444.444 0 0 1-.108.409 4.71 4.71 0 0 1-.463.167c-.845.257-1.646.483-2.427.656-.788.159-1.583.278-2.383.357-1.349.118-2.312-.157-2.89-.823-.578-.665-.883-1.799-.883-3.405 0-1.227 0-2.43.02-3.6.02-1.169.02-2.282.062-3.382 0-1.097.043-2.177.084-3.28.021-1.056.065-2.159.129-3.262a.605.605 0 0 1 .146-.434.611.611 0 0 1 .401-.141l2.89-.257a.811.811 0 0 1 .444.067c.082.077.105.2.105.41l-.128 3.18c-.041 1.06-.085 2.139-.085 3.193-.041 1.082-.041 2.18-.041 3.277 0 1.098-.02 2.28.02 3.46-.033.397.089.79.34 1.1.19.24.567.311 1.137.24Zm.732-8.274a.605.605 0 0 1 .126-.434.737.737 0 0 1 .421-.142l3.206-.28V5.179a.594.594 0 0 1 .128-.431.716.716 0 0 1 .421-.144l2.636-.232a.698.698 0 0 1 .424.07.514.514 0 0 1 .125.411v18.576a.6.6 0 0 1-.125.432.788.788 0 0 1-.424.144l-2.636.229a.626.626 0 0 1-.42-.067.514.514 0 0 1-.13-.411v-9.277l-3.205.28c-.21.018-.336 0-.42-.069-.086-.07-.127-.2-.127-.411v-2.437Zm9.046 11.978a.66.66 0 0 1-.42-.067.514.514 0 0 1-.127-.411V4.766a.594.594 0 0 1 .126-.432.717.717 0 0 1 .421-.136l2.638-.232a.688.688 0 0 1 .422.07.514.514 0 0 1 .125.41v18.567a.602.602 0 0 1-.125.434.77.77 0 0 1-.422.142l-2.638.231ZM63.249 12.775a.44.44 0 0 1 .092-.316.532.532 0 0 1 .308-.103l12.979-1.136a.49.49 0 0 1 .305.049.382.382 0 0 1 .093.3v1.8a.413.413 0 0 1-.093.316.47.47 0 0 1-.305.105l-5.02.432v2.828a.44.44 0 0 1-.092.316.558.558 0 0 1-.308.103l-2.152.19a.47.47 0 0 1-.308-.052.378.378 0 0 1-.093-.298v-2.83l-5.01.44c-.155 0-.258 0-.31-.052-.05-.051-.092-.144-.092-.298l.006-1.794Zm12.793-4.611c0 .645-.139 1.133-.416 1.434a1.77 1.77 0 0 1-1.246.542l-8.506.74c-.555.05-.969-.053-1.246-.32-.278-.268-.416-.718-.416-1.366v-5.32a.44.44 0 0 1 .092-.317.531.531 0 0 1 .308-.102l1.999-.175a.495.495 0 0 1 .308.049.383.383 0 0 1 .092.3v1.2l6.226-.547V3.085a.44.44 0 0 1 .093-.317.529.529 0 0 1 .308-.105l1.998-.175a.493.493 0 0 1 .309.052.371.371 0 0 1 .092.298l.005 5.326Zm-3.244-.301a.485.485 0 0 0 .355-.139.61.61 0 0 0 .09-.393v-.632l-6.227.544v.633c0 .2.031.321.093.375.062.054.17.095.354.077l5.335-.465ZM81.742 1.884a6.783 6.783 0 0 1 1.692.052c.428.094.842.244 1.23.447.318.185.6.426.83.712.209.275.382.575.514.894l1.63-.144V1.83a.44.44 0 0 1 .093-.316.531.531 0 0 1 .308-.103l2.153-.19a.513.513 0 0 1 .308.051.393.393 0 0 1 .09.301v7.138a.425.425 0 0 1-.09.316.472.472 0 0 1-.308.106l-2.153.187c-.154 0-.256 0-.308-.051-.051-.051-.092-.144-.092-.298V6.4l-1.508.13a4.932 4.932 0 0 1-.429 1.1c-.208.38-.485.717-.817.995-.38.329-.815.59-1.284.771a6.358 6.358 0 0 1-1.86.404 5.177 5.177 0 0 1-2.213-.19 3.2 3.2 0 0 1-1.385-.833 2.829 2.829 0 0 1-.706-1.231 4.45 4.45 0 0 1-.2-1.321c.001-.46.069-.917.2-1.358.14-.493.387-.95.722-1.339a4.497 4.497 0 0 1 1.384-1.09 5.904 5.904 0 0 1 2.199-.555Zm-3.26 12.305a.44.44 0 0 1 .093-.316.549.549 0 0 1 .308-.106l8.748-.77v-.615l-8.779.77c-.154.014-.257 0-.308-.05-.052-.052-.093-.145-.093-.299v-1.555a.44.44 0 0 1 .093-.316.531.531 0 0 1 .308-.103l11.332-.992a.513.513 0 0 1 .308.049.394.394 0 0 1 .09.3v5.231a.45.45 0 0 1-.09.317.578.578 0 0 1-.308.105l-2.152.188a.49.49 0 0 1-.308-.05.382.382 0 0 1-.093-.3v-.493l-8.748.77a.457.457 0 0 1-.308-.048.384.384 0 0 1-.093-.301v-1.416Zm3.26-6.907a1.97 1.97 0 0 0 .57-.141c.196-.07.378-.174.537-.309.163-.132.3-.296.4-.48.105-.216.157-.453.154-.692 0-.23-.053-.456-.154-.663a1.422 1.422 0 0 0-.4-.411 2.312 2.312 0 0 0-.537-.216 2.535 2.535 0 0 0-.57-.026c-.194.02-.384.062-.568.126-.194.077-.375.18-.54.308a1.384 1.384 0 0 0-.398.484c-.106.213-.159.45-.154.689-.012.23.041.46.154.663a.961.961 0 0 0 .398.411c.16.114.345.188.54.216.186.044.377.058.568.041ZM88.24 50.9c-1.944-.584-4.261 1.143-5.517 2.65.143-.633.325-1.256.544-1.866.154-.494.56-1.543.285-2.057-.185-.344-.752-.457-1.091-.596l-.07-.036a.316.316 0 0 0 .198-.116.222.222 0 0 0-.138-.326c-2.055-.275-4.18-.311-6.25-.45-2.322-.16-4.643-.312-6.963-.458-2.23-.144-4.472-.231-6.696-.431-2.224-.201-4.312-.92-6.516-.445h-.087a.227.227 0 0 0-.129.266c.01.035.027.067.052.094.77.85 1.14 1.928 1.312 3.069a2.823 2.823 0 0 0-1.96.095c-1.726.686-2.614 5.796 1.87 9.809l.383-.301c.047 1.155.22 2.303.514 3.421 1.284 4.686 4.993 8.724 10.047 9.598 2.444.457 4.97.087 7.18-1.051 2.334-1.257 4.058-3.39 5.509-5.511.709-1.028 1.78-2.928 2.766-3.75.752-.628 1.726-.859 2.602-1.27a6.349 6.349 0 0 0 2.425-1.8c.642-.843.593-1.087.924-2.079a9.1 9.1 0 0 0 .552-3.18c-.061-1.215-.554-2.925-1.746-3.28Z" fill="#fff"/><path d="m81.862 29.755-5.974.42-14.078.39-2.925.203a1.207 1.207 0 0 0-.707 2.118c.242.21.557.316.876.293l2.923-.206 13.996-1.583 5.974-.422c.545 1.8 2.915 3.054 5.65 2.861 3.034-.213 5.374-2.11 5.225-4.233-.149-2.123-2.73-3.676-5.764-3.462-2.748.19-4.908 1.755-5.196 3.621Z" fill="#009752"/><path d="M68.75 26.046c.49-2.904 3.817-5.686 6.727-5.375 2.998.322 4.138 2.229 3.817 5.231-.321 3.002-1.983 5.958-4.98 5.637-2.998-.321-7.377-3.372-7.056-6.375 0-.09 1.477.972 1.492.882Z" fill="#F3C3C5"/><path d="M66.074 32.863c-6.385 2.961-11.044 8.534-11.124 13.459 0 0 6.696.732 13.682 1.159 9.92.203 16.181.848 15.973 4.413a3.208 3.208 0 0 1 2.469-1.616s3.14-10.645-6.496-17.821c-4.125-3.07-9.519-2.635-14.296-.42" fill="#F3C3C5"/><path d="M66.107 32.824a18.744 18.744 0 0 0-8.733 4.427c-2.409 2.14-5.02 5.295-4.643 8.739.097.884 1.494.895 1.397 0-.347-3.141 2.168-5.95 4.366-7.87a17.318 17.318 0 0 1 7.963-3.946c.878-.178.513-1.524-.373-1.347l.023-.003Z" fill="#009752"/><path d="M53.488 46.956c2.637.066 5.272.223 7.904.473.47.044.77-.48.672-.884-.372-1.542-.19-3.383.144-4.932.306-1.414.94-2.81 2.196-3.614.753-.484.054-1.692-.703-1.206-1.505.964-2.394 2.55-2.797 4.262-.432 1.84-.63 4.007-.185 5.86l.673-.881c-2.629-.252-5.263-.41-7.904-.473-.899-.02-.899 1.375 0 1.395Z" fill="#009752"/><path d="M63.731 37.685c-.2 1.71-.598 3.39-.95 5.071-.177.843-.35 1.69-.483 2.54-.105.681-.424 1.663.139 2.218.562.555 1.6.476 2.288.55.897.1 1.798.167 2.692.211 1.798.09 3.596.093 5.41.095.898 0 .898-1.395 0-1.395-1.611 0-3.221 0-4.83-.07a50.78 50.78 0 0 1-2.504-.16c-.385-.035-.77-.074-1.15-.12-.193-.026-.388-.049-.58-.077-.103-.016-.484-.16-.317.036.167.195.09-.147.11-.298.027-.209.057-.414.088-.617.057-.363.12-.723.188-1.082.143-.772.308-1.525.47-2.283.326-1.542.642-3.061.824-4.627a.702.702 0 0 0-.699-.696.711.711 0 0 0-.696.696v.008Z" fill="#009752"/><path d="M72.8 37.415c1.082 1.175 1.005 3.306.97 4.794a17.462 17.462 0 0 1-1.028 5.436c-.3.849 1.045 1.214 1.346.373a18.629 18.629 0 0 0 1.091-6.213c0-1.817-.087-3.97-1.382-5.377-.608-.663-1.595.327-.986.987h-.01Z" fill="#009752"/><path d="M74.979 48.764a9.988 9.988 0 0 1 7.939 1.151c.77.478 1.464-.73.704-1.206a11.41 11.41 0 0 0-9.016-1.285c-.863.242-.495 1.589.373 1.347v-.008Z" fill="#009752"/><path d="M78.847 40.12a9.382 9.382 0 0 1 .66 3.598 8.978 8.978 0 0 1-.208 1.799 9.906 9.906 0 0 1-.375 1.277c-.03.083-.064.168-.098.258-.074.133-.023.12.15-.041l.536.069-.061-.031c-.797-.414-1.503.792-.704 1.206.96.498 1.371-.625 1.61-1.332.26-.776.427-1.58.501-2.396a10.416 10.416 0 0 0-.657-4.78.717.717 0 0 0-.858-.486.704.704 0 0 0-.488.858h-.008Z" fill="#009752"/><path d="M78.287 37.294a12.73 12.73 0 0 1 4.74 11.909c-.145.88 1.199 1.257 1.345.373a14.2 14.2 0 0 0-5.376-13.487c-.714-.545-1.41.666-.704 1.205h-.005Z" fill="#009752"/><path d="M66.223 33.1c1.186-1.358 3.339-2.057 5.096-2.096 1.296-.003 2.59.11 3.865.335 1.144.163 2.26.475 3.324.928 3.96 1.752 6.421 5.516 7.448 9.626.673 2.74.72 5.59.42 8.385-.099.891 1.299.886 1.394 0 .55-5.118-.136-10.704-3.296-14.927a13.57 13.57 0 0 0-4.88-4.113c-2.373-1.154-5.119-1.555-7.738-1.627-2.276-.059-5.07.733-6.617 2.504-.588.676.396 1.668.986.987l-.002-.003Z" fill="#009752"/><path d="M69.73 29.246a11.9 11.9 0 0 1-1.088-.886 2.174 2.174 0 0 1-.472-.941c-.218-.846-.039-1.823.136-2.715a.717.717 0 0 0-.488-.858.704.704 0 0 0-.858.486c-.22 1.138-.431 2.313-.136 3.457.134.524.38 1.012.722 1.432.368.378.77.723 1.202 1.028a.714.714 0 0 0 .986 0 .702.702 0 0 0 0-.987l-.005-.016Z" fill="#009752"/><path d="M69.803 27.095c-.991-1.198-.531-2.925.388-4.01 1.004-1.18 2.492-1.992 4.06-1.94 3.204.102 5.307 3.29 4.624 6.317-.257 1.14-1.179 2.7-2.507 2.71-.899 0-.901 1.4 0 1.395 1.65-.012 3.044-1.473 3.612-2.93a6.877 6.877 0 0 0-.48-5.773 6.345 6.345 0 0 0-4.701-3.085c-2.055-.257-4.11.664-5.486 2.18-1.541 1.704-2.055 4.239-.499 6.11.573.694 1.557-.3.987-.987l.002.013Z" fill="#009752"/><path d="M73.833 30.295a6.873 6.873 0 0 0 3.286-3.53c.77-1.83.793-3.875.316-5.785-.219-.872-1.565-.514-1.346.37.734 2.928-.054 6.351-2.967 7.74-.812.385-.103 1.59.704 1.205h.007ZM65.03 55.034c.135-1.258-.391-2.345-1.176-2.43-.784-.083-1.529.868-1.663 2.126-.135 1.257.392 2.345 1.176 2.43.785.083 1.53-.868 1.664-2.126ZM76.142 56.224c.134-1.258-.392-2.346-1.177-2.43-.784-.084-1.529.868-1.663 2.125-.135 1.258.392 2.346 1.176 2.43.784.084 1.53-.868 1.664-2.125ZM60.593 53.082v-.136c0-.047 0-.036 0 0v-.054c.02-.09.041-.18.07-.257l.038-.103c-.023.059.023-.046.025-.057.041-.085.088-.167.137-.257.174-.284.394-.539.65-.753l.082-.07c.133-.107-.036.024.043-.033a2.67 2.67 0 0 1 .229-.146c.062-.036.175-.095.203-.108l.095-.036.108-.034a1.32 1.32 0 0 1 .935.039.514.514 0 0 0 .602-.75.537.537 0 0 0-.312-.247c-.935-.358-1.942 0-2.674.622-.694.583-1.264 1.457-1.284 2.388a.524.524 0 1 0 1.048 0l.005-.008ZM75.1 52.31a3.62 3.62 0 0 1 .608-.164h.398c.013 0 .144.018.078 0h.072l.14.036.147.046c.018 0 .154.06.067.021.172.075.334.17.485.28-.056-.041 0 0 .036.028.036.029.077.067.113.1a2.4 2.4 0 0 1 .19.206c-.056-.07.039.054.042.057l.069.113c.026.044.051.09.074.139.024.049.05.108.024.04.038.1.069.2.092.304 0 .041.018.085.026.129.007.043 0-.052 0 .043v.314c0 .105.018-.049 0 .067-.013.051-.023.103-.036.154a.525.525 0 0 0 .763.594.524.524 0 0 0 .246-.316 2.677 2.677 0 0 0-.963-2.75 3.025 3.025 0 0 0-1.33-.615 3.196 3.196 0 0 0-1.621.167.524.524 0 0 0 .28 1.01v-.002ZM68.078 55.19l-.067 1.13a4.247 4.247 0 0 0-.036.597c0 .049-.028.113 0 .051-.02.036-.072.06-.106.085-.313.242-.634.476-.95.712a2.414 2.414 0 0 0-.735.717c-.346.627-.128 1.365.257 1.92.385.556.77 1.054 1.385 1.286a.532.532 0 0 0 .645-.365.54.54 0 0 0-.368-.646c-.388-.149-.742-.732-.925-1.082a.676.676 0 0 1-.064-.635c.191-.219.418-.404.67-.547.43-.321 1.097-.648 1.203-1.221.083-.667.128-1.338.133-2.01.041-.674-1.007-.671-1.048 0l.005.008ZM56.299 48.853c-2.181.306-3.301 2.494-3.427 4.496-.126 2.057.514 4.223 1.934 5.73.62.655 1.603-.335.987-.987-1.115-1.178-1.565-2.828-1.542-4.434.029-1.543.722-3.221 2.415-3.458.372-.054.578-.53.485-.86a.714.714 0 0 0-.858-.487h.006ZM84.495 53.246c.591-1.128 1.837-2.056 3.165-1.969 1.397.088 1.107 2.229.883 3.129-.734 2.953-3.323 4.87-6.164 5.544-.876.206-.514 1.542.37 1.347 2.879-.681 5.522-2.501 6.72-5.275.544-1.257.855-2.745.536-4.112a2.735 2.735 0 0 0-.976-1.597c-.617-.46-1.382-.49-2.117-.383a4.981 4.981 0 0 0-3.63 2.612c-.418.794.787 1.501 1.206.704h.007Z" fill="#009752"/><path d="M83.796 56.701c.044-.082.088-.162.14-.242.025-.04.056-.082.084-.123.072-.11-.1.113 0 0 .056-.064.11-.129.172-.19l.095-.088.064-.054-.074.057c.033 0 .095-.067.123-.085l.11-.067c.018 0 .137-.054.14-.07l-.086.037.085-.028c.082-.029.175-.036.257-.065-.113.012-.13.012-.054 0h.198c.026 0 .182.018.059 0s.06 0 .08.02c.02.021.108.047.126.04l-.093-.042.072.036c.046.031.044.029 0 0-.044-.028-.051-.04 0 0 .051.041.036.036-.036-.051l-.038-.1c.035.126 0-.147 0 0 0-.196 0-.041-.019.015-.017.057-.03.087-.046.131-.015.044 0 .031.028-.059l-.04.085c-.042.082-.09.162-.14.242-.107.17-.23.331-.354.493a.701.701 0 0 0 .25.956.7.7 0 0 0 .536.07.823.823 0 0 0 .419-.322c.349-.396.599-.869.73-1.38a1.124 1.124 0 0 0-.358-1.108 1.76 1.76 0 0 0-.909-.373c-1.156-.156-2.183.589-2.7 1.579a.7.7 0 0 0 .498 1.079.7.7 0 0 0 .707-.375l-.026-.018Z" fill="#009752"/><path d="M54.999 48.689c1.985.668 1.268 3.832 1.191 5.352a54.4 54.4 0 0 0 .057 6.878c.285 3.856 1.63 7.66 4.98 9.855 3.236 2.123 7.852 2.812 11.5 1.437 3.397-1.285 6.048-4.141 7.774-7.264 2.291-4.154 3.056-8.902 3.657-13.544.05-.377-.354-.694-.696-.699a.713.713 0 0 0-.698.7c-.92 7.088-2.666 15.679-9.74 19.167-3.398 1.681-7.98 1.044-11.093-1.002-3.285-2.157-4.176-6.062-4.354-9.753a63.19 63.19 0 0 1 .119-7.454c.136-1.971-.175-4.305-2.325-5.028-.853-.288-1.22 1.062-.372 1.347v.008Z" fill="#009752"/><path d="M64.045 67.127a6.765 6.765 0 0 0 9.165-1.748c.398-.548-.514-1.07-.902-.53a5.707 5.707 0 0 1-7.734 1.373c-.565-.368-1.092.537-.53.905Z" fill="#009752"/><path d="M58.864 63.916a3.934 3.934 0 0 0 3.933-3.935 3.934 3.934 0 0 0-3.932-3.936 3.934 3.934 0 0 0-3.933 3.936 3.934 3.934 0 0 0 3.932 3.935ZM78.732 65.587a3.934 3.934 0 0 0 3.932-3.935 3.934 3.934 0 0 0-3.932-3.936 3.934 3.934 0 0 0-3.933 3.936 3.934 3.934 0 0 0 3.933 3.935Z" fill="#F3C3C5"/><path d="m75.12 60.747-.483.753a.35.35 0 0 0-.036.257.35.35 0 0 0 .64.085l.483-.753a.355.355 0 0 0 .036-.27.35.35 0 0 0-.64-.083v.01ZM76.962 61.091c-.11.328-.19.665-.24 1.008a.394.394 0 0 0 .037.27.35.35 0 0 0 .637-.085c.047-.343.127-.68.239-1.008a.352.352 0 0 0-.244-.429.357.357 0 0 0-.43.244ZM78.916 61.518c.124.229.276.44.455.63a.362.362 0 0 0 .257.102.351.351 0 0 0 .36-.36.362.362 0 0 0-.103-.256 2.93 2.93 0 0 1-.16-.188l.054.072a2.7 2.7 0 0 1-.239-.373.362.362 0 0 0-.208-.162.355.355 0 0 0-.27.036.357.357 0 0 0-.159.209.378.378 0 0 0 .013.29ZM58.895 59.081a6.207 6.207 0 0 0-1.066 1.06.388.388 0 0 0-.078.395.354.354 0 0 0 .335.221.332.332 0 0 0 .257-.103c.312-.394.67-.75 1.066-1.059a.352.352 0 0 0 .103-.257.352.352 0 0 0-.35-.35.417.417 0 0 0-.257.103l-.01-.01ZM60.408 59.827c-.12.387-.212.782-.275 1.182a.389.389 0 0 0 .036.257c.047.078.12.136.208.162a.355.355 0 0 0 .37-.124.331.331 0 0 0 .059-.12c.063-.4.155-.796.275-1.183a.353.353 0 0 0-.244-.429.357.357 0 0 0-.43.244v.01ZM90.451 38.096c.007.344-.007.687-.043 1.028a.174.174 0 0 1-.057.103h-.018a.156.156 0 0 1-.085.016.192.192 0 0 1-.133-.103.183.183 0 0 1-.02-.11 9.94 9.94 0 0 0 .04-.998c0-.234 0-.44.016-.612-.229.121-.475.257-.742.406a.143.143 0 0 1-.114 0 .192.192 0 0 1-.107-.087.16.16 0 0 1-.018-.134.16.16 0 0 1 .069-.092c.295-.165.588-.327.878-.483l.121-.065c.396-.21.79-.432 1.184-.666a.154.154 0 0 1 .113 0 .183.183 0 0 1 .106.085c.021.04.029.087.02.131a.15.15 0 0 1-.064.096 31.36 31.36 0 0 1-1.027.586c.261.066.518.147.77.244.257.092.514.175.77.244a.165.165 0 0 1 .116.087.2.2 0 0 1 .023.144.136.136 0 0 1-.066.09.156.156 0 0 1-.093 0 9.055 9.055 0 0 1-.799-.257 8.23 8.23 0 0 0-.811-.257v.548l-.029.056Z" fill="#009752"/><path d="M90.264 39.286h-.018a.207.207 0 0 1-.152-.113.205.205 0 0 1-.023-.123c.032-.33.046-.663.041-.995 0-.224 0-.411.016-.573-.208.11-.44.239-.71.388a.16.16 0 0 1-.128.013.203.203 0 0 1-.12-.095.189.189 0 0 1 .059-.257l.88-.483.121-.065c.393-.208.792-.432 1.182-.663a.165.165 0 0 1 .131-.015.208.208 0 0 1 .141.239.169.169 0 0 1-.077.108c-.354.214-.682.4-.984.56.243.065.482.142.717.231.257.093.514.175.77.242a.189.189 0 0 1 .13.098c.027.049.037.106.027.162a.152.152 0 0 1-.184.115 8.322 8.322 0 0 1-.805-.257 12.269 12.269 0 0 0-.77-.257v.53a8.44 8.44 0 0 1-.044 1.043.193.193 0 0 1-.064.116l-.023.013a.16.16 0 0 1-.113.038Zm-.087-1.884v.041c0 .167-.013.368-.016.61.003.333-.01.667-.041 1a.162.162 0 0 0 .018.097.17.17 0 0 0 .118.09.141.141 0 0 0 .067-.013h.02a.149.149 0 0 0 .044-.085c.036-.341.05-.684.044-1.028v-.018c0-.167 0-.342.013-.547v-.029h.028c.275.071.546.157.812.258.256.095.529.18.798.257.025.007.05.007.075 0a.112.112 0 0 0 .056-.075.19.19 0 0 0-.064-.178.15.15 0 0 0-.059-.028 8.098 8.098 0 0 1-.77-.244 7.858 7.858 0 0 0-.771-.244l-.057-.015.052-.026c.31-.165.657-.363 1.027-.586a.119.119 0 0 0 .054-.08.164.164 0 0 0-.018-.113.17.17 0 0 0-.092-.075.133.133 0 0 0-.095 0c-.39.232-.789.455-1.184.666l-.121.065-.879.48a.133.133 0 0 0-.059.082.147.147 0 0 0 .018.116c.02.036.053.063.093.075a.128.128 0 0 0 .097 0c.283-.16.527-.293.743-.406l.049-.047ZM91.677 39.628c.159-.059.316-.12.472-.185l.278-.115c.167-.076.329-.162.485-.258h.018c.03-.01.064-.01.095 0a.17.17 0 0 1 .098.085v.023a.216.216 0 0 1 0 .126.128.128 0 0 1-.067.088c-.2.12-.41.227-.624.319l-.16.066c-.161.067-.323.131-.485.19-.118.044-.236.09-.352.14-.263.107-.52.228-.77.362a.161.161 0 0 1-.106 0 .185.185 0 0 1-.097-.093v-.015a.188.188 0 0 1 0-.129.162.162 0 0 1 .066-.09 8.286 8.286 0 0 1 1.148-.514Z" fill="#009752"/><path d="M90.618 40.497a.243.243 0 0 1-.056 0 .2.2 0 0 1-.113-.1v-.02a.215.215 0 0 1 0-.145.167.167 0 0 1 .08-.1 7.992 7.992 0 0 1 1.148-.514c.12-.044.32-.123.472-.188l.275-.115c.168-.075.33-.16.485-.257h.018a.175.175 0 0 1 .224.09v.025a.258.258 0 0 1 .015.139.17.17 0 0 1-.077.103c-.201.12-.41.227-.626.319l-.162.066c-.162.067-.326.132-.486.193a8.423 8.423 0 0 0-1.123.499h-.012a.18.18 0 0 1-.062.005Zm2.36-1.419a.105.105 0 0 0-.04 0h-.016c-.157.095-.32.181-.488.257l-.277.116c-.152.062-.31.126-.47.185-.126.046-.257.092-.375.144-.263.11-.52.232-.77.367a.141.141 0 0 0-.057.075.175.175 0 0 0 0 .113v.018a.144.144 0 0 0 .084.077.12.12 0 0 0 .09 0c.257-.133.514-.257.77-.365l.353-.136c.16-.06.32-.126.483-.19l.162-.067a5.23 5.23 0 0 0 .621-.316.115.115 0 0 0 .054-.075.184.184 0 0 0 0-.11v-.026a.136.136 0 0 0-.082-.07l-.041.003ZM93.621 42.358a5.41 5.41 0 0 0-.167-.697l-.026-.08c-.757.246-1.49.503-2.201.772a.146.146 0 0 1-.113 0 .185.185 0 0 1-.087-.103.168.168 0 0 1 .032-.182.138.138 0 0 1 .05-.031 97.918 97.918 0 0 1 2.214-.771 5.236 5.236 0 0 1-.162-.682.163.163 0 0 1 .028-.123.141.141 0 0 1 .075-.056h.015a.15.15 0 0 1 .126.038c.026.022.044.05.054.082a.282.282 0 0 1 0 .041c.045.246.104.49.177.728l.044.136a5.308 5.308 0 0 1 .231.912.157.157 0 0 1-.095.188h-.023a.146.146 0 0 1-.105-.028.177.177 0 0 1-.07-.103l.003-.041Z" fill="#009752"/><path d="M93.788 42.533a.164.164 0 0 1-.103-.034.203.203 0 0 1-.08-.113v-.023a5.055 5.055 0 0 0-.166-.694l-.018-.059c-.745.242-1.477.493-2.176.753a.17.17 0 0 1-.134-.013.206.206 0 0 1-.1-.115v-.013a.184.184 0 0 1 .093-.242 59.307 59.307 0 0 1 2.196-.753 5.127 5.127 0 0 1-.157-.66.188.188 0 0 1 .034-.14.162.162 0 0 1 .084-.066h.018a.184.184 0 0 1 .144.04.19.19 0 0 1 .062.099v.043c.043.245.102.486.177.723l.044.138a5.187 5.187 0 0 1 .231.915.178.178 0 0 1-.113.211h-.02l-.016.003Zm-.144-.18v.02c.01.036.032.068.062.09a.118.118 0 0 0 .092.023h.016a.12.12 0 0 0 .061-.048.143.143 0 0 0 .02-.11 5.99 5.99 0 0 0-.176-.749l-.054-.162-.044-.139a5.812 5.812 0 0 1-.18-.73.099.099 0 0 0 0-.036.159.159 0 0 0-.044-.074.161.161 0 0 0-.107-.034h-.016a.129.129 0 0 0-.061.052.131.131 0 0 0-.024.105c.036.22.087.438.155.65v.024h-.024v.018c-.757.241-1.502.498-2.214.77a.116.116 0 0 0-.07.07.14.14 0 0 0 0 .116c.014.039.042.07.078.09a.12.12 0 0 0 .097 0 118.34 118.34 0 0 1 2.2-.771h.022l.031.103c.076.236.136.477.18.722ZM92.4 46.02a.865.865 0 0 1-.605-.665 1.06 1.06 0 0 1-.013-.288 1.68 1.68 0 0 1 .439-.943c.209-.255.499-.43.822-.496.272-.03.547.029.783.167.25.139.451.352.576.61a.957.957 0 0 1-.231 1.151.125.125 0 0 1-.065.03h-.036c-.023 0-.053-.02-.092-.059a.16.16 0 0 1-.041-.09.252.252 0 0 1 0-.069.135.135 0 0 1 .054-.098c.12-.101.2-.241.226-.396a.762.762 0 0 0 0-.174.569.569 0 0 0-.052-.15 1.052 1.052 0 0 0-.436-.45.976.976 0 0 0-.601-.13c-.26.057-.494.202-.66.41-.188.206-.31.463-.35.739a.58.58 0 0 0 0 .177.494.494 0 0 0 .38.373.172.172 0 0 1 .095.09.255.255 0 0 1 .018.154.174.174 0 0 1-.077.092h-.03a.211.211 0 0 1-.103.016Z" fill="#009752"/><path d="M92.442 46.05h-.046a.894.894 0 0 1-.622-.682c-.018-.1-.023-.2-.015-.3.045-.359.2-.694.444-.96.208-.26.5-.441.825-.514h.015c.277-.03.556.03.796.173.254.14.459.356.586.616.04.082.07.169.09.258a.985.985 0 0 1-.324.915.167.167 0 0 1-.077.038h-.044a.175.175 0 0 1-.107-.064.204.204 0 0 1-.05-.103.32.32 0 0 1 0-.077.167.167 0 0 1 .062-.11c.114-.1.191-.235.219-.384a.718.718 0 0 0 0-.17.541.541 0 0 0-.05-.14 1.028 1.028 0 0 0-.425-.443.97.97 0 0 0-.589-.126c-.255.057-.483.2-.647.404a1.367 1.367 0 0 0-.347.725.61.61 0 0 0 0 .17.469.469 0 0 0 .362.354.195.195 0 0 1 .11.105.18.18 0 0 1 .019.057.21.21 0 0 1 0 .113.2.2 0 0 1-.087.106l-.039.012-.06.026Zm-.033-.052a.145.145 0 0 0 .056 0h.026a.15.15 0 0 0 .067-.08.204.204 0 0 0 0-.087.21.21 0 0 0-.016-.05.15.15 0 0 0-.085-.079.513.513 0 0 1-.393-.39.686.686 0 0 1 0-.18c.041-.281.164-.543.355-.754.17-.211.407-.36.673-.419.214-.025.43.021.616.131.193.105.349.265.447.46.024.05.041.101.052.155.01.06.015.12.012.18a.697.697 0 0 1-.233.411.116.116 0 0 0-.047.082.277.277 0 0 0 0 .067c.007.029.02.055.039.077.044.046.067.052.074.052h.047a.132.132 0 0 0 .056-.029.94.94 0 0 0 .224-1.13 1.39 1.39 0 0 0-.565-.597 1.284 1.284 0 0 0-.771-.167h-.018a1.415 1.415 0 0 0-.796.486c-.238.258-.39.584-.434.933a.997.997 0 0 0 .012.28.846.846 0 0 0 .602.648ZM92.03 47.09a.172.172 0 0 1 .04-.128c.024-.03.059-.051.097-.057h.018l.64-.067c.341-.036.688-.072 1.04-.113l.701-.08a.161.161 0 0 1 .145.088.188.188 0 0 1-.055.235.15.15 0 0 1-.054.022l-.377.046-.599.067v.154c.015.211.033.427.06.65.025.224.038.363.045.502 0 .03 0 .033.029 0h.064c.317-.017.63-.08.927-.19a.104.104 0 0 1 .039 0c.025 0 .05.006.074.017.036.019.064.05.077.088.01.019.015.04.016.062a.218.218 0 0 1-.021.1.135.135 0 0 1-.08.08 2.825 2.825 0 0 1-.77.18 9.378 9.378 0 0 1-.462.043l-.38.018c-.137 0-.258 0-.394.018s-.298.023-.439.039a.154.154 0 0 1-.108-.034.147.147 0 0 1-.056-.095.07.07 0 0 1 0-.038.165.165 0 0 1 .036-.129.144.144 0 0 1 .095-.056c.144-.018.295-.031.452-.041l.403-.021h.17c.02.03.028.03.025 0 0-.126-.023-.285-.046-.476a13.383 13.383 0 0 1-.062-.686v-.126l-.73.077-.395.041a.146.146 0 0 1-.108-.036.2.2 0 0 1-.061-.123l.005-.03Z" fill="#009752"/><path d="M92.429 48.882a.175.175 0 0 1-.11-.039.16.16 0 0 1-.065-.103.089.089 0 0 1 0-.046.196.196 0 0 1 .041-.146.17.17 0 0 1 .11-.065 10.372 10.372 0 0 1 .859-.059H93.436c0-.12-.023-.257-.044-.45a11.445 11.445 0 0 1-.061-.686v-.1l-.257.026-.46.046-.396.044h-.015a.168.168 0 0 1-.113-.042.19.19 0 0 1-.07-.136.2.2 0 0 1 .044-.146.177.177 0 0 1 .113-.065h.02l.64-.066 1.028-.111.701-.082h.018c.038 0 .076.014.105.038.04.034.065.082.07.134v.015a.211.211 0 0 1-.087.188.17.17 0 0 1-.062.026c-.07 0-.195.025-.378.043l-.575.067v.134c.015.213.033.432.056.648.024.216.039.344.05.486h.069c.314-.016.624-.08.92-.188a.142.142 0 0 1 .043-.013c.03-.001.06.006.087.02.04.02.072.056.087.098.01.022.016.046.018.07a.258.258 0 0 1-.02.11.178.178 0 0 1-.093.095 2.893 2.893 0 0 1-.77.18 8.948 8.948 0 0 1-.845.06l-.39.017c-.152 0-.299.026-.44.041v-.043Zm-.139-.172v.012a.116.116 0 0 0 .05.083c.025.02.058.03.092.028a10.71 10.71 0 0 1 .83-.057l.38-.018c.156 0 .31-.025.462-.04.26-.025.515-.085.758-.18a.113.113 0 0 0 .066-.07.168.168 0 0 0 .018-.088.163.163 0 0 0-.013-.056.137.137 0 0 0-.064-.075.15.15 0 0 0-.064-.015h-.033c-.3.11-.614.175-.933.193h-.054c0 .013-.02.026-.036.02-.015-.005-.025-.033-.028-.046 0-.144-.026-.314-.046-.499s-.044-.434-.06-.65v-.177h.021l.599-.067.375-.046a.123.123 0 0 0 .082-.054.175.175 0 0 0 .028-.11.154.154 0 0 0-.054-.104.13.13 0 0 0-.084-.028l-.702.08c-.349.038-.698.077-1.027.11l-.64.07h-.018a.128.128 0 0 0-.084.046.167.167 0 0 0 .023.221.134.134 0 0 0 .092.033c.046 0 .177-.02.398-.043l.46-.05.295-.03v.15c.016.218.036.446.065.685.023.196.038.35.046.476 0 .013 0 .038-.018.046s-.03 0-.041-.02h-.157c-.141 0-.275 0-.403.02-.129.02-.311.023-.452.041a.123.123 0 0 0-.082.047.15.15 0 0 0-.029.115l-.018.047ZM92.393 49.715c.253-.057.511-.084.77-.083.198 0 .396 0 .597.016l.398.018c.213.013.421.015.621.013a.128.128 0 0 1 .11.069.16.16 0 0 1 .065.149l-.067 1.326a.173.173 0 0 1-.105.163.135.135 0 0 1-.157-.042.181.181 0 0 1-.04-.136l.058-1.175c-.185 0-.383 0-.588-.015l-.275-.013v.663c0 .088 0 .175-.018.257a.145.145 0 0 1 0 .036l-.015.322a.162.162 0 0 1-.057.125.137.137 0 0 1-.105.044.157.157 0 0 1-.105-.054.182.182 0 0 1-.041-.13c0-.111.012-.225.02-.338v-.028c0-.103.013-.2.018-.296 0-.228.013-.437 0-.622a4.134 4.134 0 0 0-.92.05c0 .063-.015.148-.028.256-.018.147-.03.293-.038.445v.257a.87.87 0 0 0 .077.38.256.256 0 0 1 .018.098.317.317 0 0 1-.02.072.169.169 0 0 1-.078.085.152.152 0 0 1-.064 0l-.054-.016a.15.15 0 0 1-.07-.077 1.206 1.206 0 0 1-.097-.377 2.62 2.62 0 0 1 0-.427c0-.165.02-.324.041-.483v-.013a4.31 4.31 0 0 0 .033-.368.175.175 0 0 1 .116-.151Z" fill="#009752"/><path d="M92.429 51.666a.178.178 0 0 1-.062-.016.184.184 0 0 1-.082-.087 1.2 1.2 0 0 1-.1-.386 2.66 2.66 0 0 1 0-.432c0-.16.02-.324.041-.485.018-.132.028-.258.033-.37a.198.198 0 0 1 .144-.188c.253-.058.512-.087.77-.085h.03c.19 0 .385 0 .582.015l.398.02c.219 0 .43.016.62 0a.154.154 0 0 1 .128.075.177.177 0 0 1 .067.165l-.08 1.344a.205.205 0 0 1-.064.147.164.164 0 0 1-.113.049.174.174 0 0 1-.118-.062.206.206 0 0 1-.047-.152l.06-1.149c-.183 0-.373 0-.568-.015l-.257-.013v.64c0 .09 0 .177-.016.257a.105.105 0 0 1 0 .041l-.012.316a.204.204 0 0 1-.064.144.165.165 0 0 1-.114.05.17.17 0 0 1-.12-.063.192.192 0 0 1-.05-.146c0-.103.014-.208.022-.337v-.03c0-.1.012-.199.017-.296v-.6a4.256 4.256 0 0 0-.878.05c0 .059-.016.136-.028.236a8.547 8.547 0 0 0-.036.442v.257a.852.852 0 0 0 .074.37c.015.035.022.071.02.108a.36.36 0 0 1-.02.08.208.208 0 0 1-.087.098.19.19 0 0 1-.09.008Zm-.03-1.928a.154.154 0 0 0-.111.146c0 .116-.018.24-.034.37-.02.162-.036.324-.043.484a3.334 3.334 0 0 0 0 .424c.013.128.046.254.097.372a.13.13 0 0 0 .11.078.13.13 0 0 0 .05 0 .166.166 0 0 0 .064-.073.234.234 0 0 0 .018-.066c0-.03-.005-.06-.016-.088a.946.946 0 0 1-.08-.388v-.257c0-.146.021-.298.04-.445.017-.146.022-.192.027-.257v-.018h.018c.307-.051.618-.068.928-.051h.02v.645c0 .098 0 .196-.018.298v.029c0 .128-.015.233-.02.334a.154.154 0 0 0 .036.116.115.115 0 0 0 .087.046.136.136 0 0 0 .12-.087.15.15 0 0 0 .011-.06l.016-.321a.247.247 0 0 0 0-.039c0-.087 0-.172.017-.257v-.686l.298.015c.193 0 .383.016.566.016h.046v.023l-.06 1.175a.164.164 0 0 0 .034.12.125.125 0 0 0 .087.044.128.128 0 0 0 .09-.036.16.16 0 0 0 .047-.116l.066-1.326a.139.139 0 0 0-.054-.128.105.105 0 0 0-.092-.06h-.62l-.4-.017c-.198 0-.393-.016-.58-.016h-.029a3.439 3.439 0 0 0-.737.057ZM94.36 54.806a.19.19 0 0 1-.069.121.138.138 0 0 1-.11.029 13.302 13.302 0 0 1-2.389-.635.16.16 0 0 1-.098-.136.225.225 0 0 1 0-.06.179.179 0 0 1 .083-.128c.216-.133.446-.244.685-.33.237-.081.476-.156.717-.22.282-.068.56-.154.83-.257a12.78 12.78 0 0 0-1.3-.355c-.231-.051-.46-.108-.691-.17a.139.139 0 0 1-.087-.066.167.167 0 0 1-.02-.129v-.018a.186.186 0 0 1 .081-.116.144.144 0 0 1 .093-.015c.223.06.452.113.68.164.288.067.579.142.869.221.29.08.575.176.853.291a.164.164 0 0 1 .095.147.331.331 0 0 1 0 .048.192.192 0 0 1-.085.131 4.442 4.442 0 0 1-.635.278c-.218.075-.434.141-.652.2-.329.077-.65.184-.958.32.64.218 1.299.383 1.967.493a.147.147 0 0 1 .095.064.185.185 0 0 1 .047.129Z" fill="#009752"/><path d="M94.204 54.981h-.026a13.588 13.588 0 0 1-2.394-.637.18.18 0 0 1-.113-.154.216.216 0 0 1 .092-.21c.218-.136.45-.246.692-.33.239-.085.48-.16.719-.224.262-.064.52-.146.77-.244-.354-.116-.77-.229-1.238-.332a16.067 16.067 0 0 1-.69-.17.165.165 0 0 1-.1-.076.195.195 0 0 1-.026-.144v-.018a.212.212 0 0 1 .095-.134.172.172 0 0 1 .108-.018c.218.057.447.113.683.165.293.066.585.141.87.218.292.08.577.177.856.293a.193.193 0 0 1 .11.167.442.442 0 0 1 0 .054.214.214 0 0 1-.097.147 4.31 4.31 0 0 1-.637.277c-.216.075-.437.142-.655.2-.308.076-.61.175-.902.296.623.21 1.263.367 1.911.473.045.01.083.037.108.075a.192.192 0 0 1 .03.154.206.206 0 0 1-.079.134.177.177 0 0 1-.087.038Zm-2.14-2.65a.119.119 0 0 0-.054.013.172.172 0 0 0-.074.103v.018a.144.144 0 0 0 .02.11c.016.029.041.05.072.06.229.059.46.118.691.17.44.092.874.21 1.3.351l.06.02-.057.024c-.272.105-.55.19-.833.257-.236.064-.475.139-.714.221a3.518 3.518 0 0 0-.68.327.162.162 0 0 0-.072.113.13.13 0 0 0 0 .054.134.134 0 0 0 .082.118c.775.282 1.573.495 2.386.635a.133.133 0 0 0 .093-.028.15.15 0 0 0 .059-.103.158.158 0 0 0-.02-.121.126.126 0 0 0-.08-.054c-.67-.112-1.33-.277-1.973-.494l-.054-.018.051-.023a5.39 5.39 0 0 1 .963-.324c.216-.059.437-.126.65-.197.217-.077.427-.169.63-.276a.179.179 0 0 0 .077-.115v-.046a.144.144 0 0 0-.083-.127 7.496 7.496 0 0 0-.847-.29 23.734 23.734 0 0 0-.868-.218c-.237-.054-.465-.11-.684-.167h-.03l-.01.007ZM49.34 47.558h.021c.106.005.21.036.3.09.146.095.254.239.304.406.05.149.076.305.074.463 0 .122-.015.243-.044.362a.947.947 0 0 1-.156.334.68.68 0 0 1-.58.298h-.026a.155.155 0 0 1-.11-.05.198.198 0 0 1-.05-.14.213.213 0 0 1 .05-.141.151.151 0 0 1 .11-.049h.018a.386.386 0 0 0 .331-.162.716.716 0 0 0 .123-.355v-.105a.904.904 0 0 0-.051-.308.335.335 0 0 0-.324-.258.682.682 0 0 0-.395.15.838.838 0 0 0-.278.36l-.043.118a.051.051 0 0 1-.013.036c-.058.178-.133.35-.224.514a.73.73 0 0 1-.403.357.517.517 0 0 1-.157.023.865.865 0 0 1-.485-.185.92.92 0 0 1-.344-.753v-.105a1.047 1.047 0 0 1 .531-.843.168.168 0 0 1 .067-.016.205.205 0 0 1 .062.016.164.164 0 0 1 .077.08c.015.03.023.063.023.097a.256.256 0 0 1-.02.085.173.173 0 0 1-.078.09.659.659 0 0 0-.339.596.536.536 0 0 0 .198.434.541.541 0 0 0 .385.126.478.478 0 0 0 .242-.257c.066-.133.122-.27.17-.411.017-.054.035-.103.056-.152a1.19 1.19 0 0 1 .403-.527.968.968 0 0 1 .575-.218Z" fill="#009752"/><path d="M49.258 49.535h-.025a.17.17 0 0 1-.126-.06.218.218 0 0 1-.057-.154.257.257 0 0 1 .065-.151.187.187 0 0 1 .125-.052h.018a.364.364 0 0 0 .314-.154.69.69 0 0 0 .118-.344v-.103a.902.902 0 0 0-.049-.301.313.313 0 0 0-.303-.257.657.657 0 0 0-.383.144.837.837 0 0 0-.27.352v.013l-.035.1a.11.11 0 0 1-.016.044c-.059.178-.133.35-.223.514a.771.771 0 0 1-.416.37.582.582 0 0 1-.165.023.906.906 0 0 1-.496-.188.955.955 0 0 1-.354-.77v-.108a1.075 1.075 0 0 1 .542-.86.16.16 0 0 1 .146 0c.041.02.074.052.093.093.016.034.024.071.025.108a.333.333 0 0 1-.02.096.22.22 0 0 1-.09.1.648.648 0 0 0-.284.803.514.514 0 0 0 .143.186.426.426 0 0 0 .367.11.452.452 0 0 0 .226-.243c.065-.133.121-.27.17-.409.018-.054.036-.103.054-.152.085-.214.228-.4.413-.537a.993.993 0 0 1 .578-.21h.02c.11.005.217.037.311.092.15.099.261.247.314.419.053.151.079.31.077.47 0 .124-.016.248-.046.368-.032.124-.086.24-.16.344a.71.71 0 0 1-.6.304Zm-.018-.38a.136.136 0 0 0-.095.04.188.188 0 0 0-.049.121.177.177 0 0 0 .044.123.131.131 0 0 0 .093.044h.025a.666.666 0 0 0 .563-.288.923.923 0 0 0 .151-.326c.029-.117.044-.237.044-.357a1.342 1.342 0 0 0-.074-.455.707.707 0 0 0-.29-.394.66.66 0 0 0-.29-.09h-.022a.937.937 0 0 0-.552.206 1.18 1.18 0 0 0-.395.514c-.018.046-.039.095-.057.15-.047.14-.103.277-.17.41a.514.514 0 0 1-.256.27.32.32 0 0 1-.085.013.563.563 0 0 1-.321-.13.556.556 0 0 1-.208-.453.62.62 0 0 1 .106-.386.69.69 0 0 1 .243-.231.141.141 0 0 0 .07-.077.226.226 0 0 0 .017-.077c0-.03-.007-.06-.02-.088a.141.141 0 0 0-.064-.07.2.2 0 0 0-.054-.012.19.19 0 0 0-.06.013 1.028 1.028 0 0 0-.513.825v.103a.9.9 0 0 0 .337.735.832.832 0 0 0 .467.182.512.512 0 0 0 .151-.023.727.727 0 0 0 .388-.347c.09-.164.165-.336.224-.514a.038.038 0 0 0 0-.02l.036-.103v-.016a.892.892 0 0 1 .287-.37.703.703 0 0 1 .409-.154.362.362 0 0 1 .347.28.994.994 0 0 1 .051.316v.108a.772.772 0 0 1-.128.368.408.408 0 0 1-.35.17v-.01ZM49.854 46.694a3.575 3.575 0 0 1-.827 0 13.885 13.885 0 0 1-.63-.092l-.418-.075a12.794 12.794 0 0 0-.655-.092.13.13 0 0 1-.108-.085.176.176 0 0 1-.049-.165l.242-1.398a.192.192 0 0 1 .077-.131.155.155 0 0 1 .116-.03c.04.009.076.033.1.069a.191.191 0 0 1 .028.149l-.216 1.236c.198.023.403.054.622.093l.287.048a9.107 9.107 0 0 1 .144-.976v-.039l.06-.337a.198.198 0 0 1 .074-.128.149.149 0 0 1 .118-.031.163.163 0 0 1 .103.07.18.18 0 0 1 .028.143c-.02.118-.044.237-.067.355v.03l-.056.312c-.041.242-.07.46-.088.658.325.058.655.08.984.064a8.681 8.681 0 0 0 .157-.72c0-.056.023-.146.044-.275a.926.926 0 0 0-.034-.413.287.287 0 0 1 0-.106.2.2 0 0 1 .123-.154.224.224 0 0 1 .07 0c.02.005.038.014.054.026.031.02.055.051.067.087.038.134.057.274.053.414a3.154 3.154 0 0 1-.043.455c-.031.17-.067.34-.108.514a4.625 4.625 0 0 0-.082.386.185.185 0 0 1-.17.138Z" fill="#009752"/><path d="M49.495 46.735c-.157 0-.314-.01-.47-.028a10.92 10.92 0 0 1-.63-.095l-.421-.072c-.223-.038-.444-.07-.655-.093a.154.154 0 0 1-.123-.095.183.183 0 0 1-.052-.182l.242-1.396a.209.209 0 0 1 .148-.178.175.175 0 0 1 .07-.004.17.17 0 0 1 .113.08.198.198 0 0 1 .03.164l-.21 1.213c.193.023.393.054.599.09l.257.046a8.736 8.736 0 0 1 .143-.956.139.139 0 0 1 0-.038l.06-.337a.208.208 0 0 1 .145-.173.175.175 0 0 1 .07-.005.188.188 0 0 1 .121.08.212.212 0 0 1 .03.162c-.02.116-.043.234-.066.355v.03c-.02.106-.041.209-.059.31a7.737 7.737 0 0 0-.082.634c.31.055.623.077.937.064l.06-.257c.035-.151.069-.308.094-.462 0-.054.026-.147.047-.275a.948.948 0 0 0-.034-.401.293.293 0 0 1 0-.116.423.423 0 0 1 .034-.082.2.2 0 0 1 .102-.09.187.187 0 0 1 .083 0 .213.213 0 0 1 .064.025.19.19 0 0 1 .074.1c.04.138.06.281.057.425a2.906 2.906 0 0 1-.046.455c-.03.171-.065.342-.108.514a6.617 6.617 0 0 0-.085.388.205.205 0 0 1-.172.18c-.122.013-.245.02-.367.02Zm-1.927-2.102a.136.136 0 0 0-.08.03.164.164 0 0 0-.066.116l-.242 1.396a.147.147 0 0 0 .041.144.12.12 0 0 0 .093.075c.208.023.429.056.655.095l.421.072c.208.036.419.066.627.092.273.032.549.032.822 0a.162.162 0 0 0 .136-.141c.02-.113.046-.244.085-.388a5.33 5.33 0 0 0 .108-.514c.025-.15.04-.3.043-.45a1.304 1.304 0 0 0-.054-.406.157.157 0 0 0-.054-.078l-.048-.02a.123.123 0 0 0-.06 0 .162.162 0 0 0-.08.067.291.291 0 0 0-.025.067.204.204 0 0 0 0 .097c.041.137.053.28.034.422l-.044.275c-.028.157-.06.313-.098.465l-.061.257v.046h-.018c-.33.014-.661-.007-.987-.064h-.02v-.02a7.44 7.44 0 0 1 .085-.661c.017-.1.038-.203.059-.311v-.03c.023-.12.043-.237.064-.353a.158.158 0 0 0-.023-.128.143.143 0 0 0-.09-.062.14.14 0 0 0-.1.028.172.172 0 0 0-.065.113l-.061.345v.033c-.02.098-.036.188-.052.275a8.525 8.525 0 0 0-.092.7v.022l-.313-.054a12.359 12.359 0 0 0-.62-.09h-.023l.219-1.262a.16.16 0 0 0-.023-.13.126.126 0 0 0-.085-.06l-.008-.01ZM48.909 40.723l.203.02c.421.037.85.09 1.284.158.372.056.738.148 1.092.275l.123.043a.159.159 0 0 1 .085.085c.02.047.02.1 0 .147a.195.195 0 0 1-.098.108.159.159 0 0 1-.118 0l-.097-.036a5.969 5.969 0 0 0-1.061-.257 17.081 17.081 0 0 0-1.028-.134c.199.199.416.377.65.532.182.131.357.257.527.411.163.14.308.3.431.476a.203.203 0 0 1-.113.303c-.2.052-.405.081-.611.087h-.635a4.75 4.75 0 0 0-.79 0l.636.234c.4.144.8.293 1.202.448a.155.155 0 0 1 .083.095.204.204 0 0 1-.103.257.138.138 0 0 1-.118 0 56.573 56.573 0 0 0-1.192-.447 49.305 49.305 0 0 1-1.2-.453.175.175 0 0 1-.1-.157.322.322 0 0 1 .016-.074.197.197 0 0 1 .107-.116c.23-.098.477-.153.727-.164.257-.016.514-.016.77 0 .281.022.563.022.843 0a4.622 4.622 0 0 0-.685-.568 6.771 6.771 0 0 1-.56-.445 2.119 2.119 0 0 1-.442-.514.198.198 0 0 1 .015-.214.178.178 0 0 1 .157-.1Z" fill="#009752"/><path d="M50.494 44.016a.214.214 0 0 1-.057 0c-.39-.154-.793-.306-1.192-.45a52.57 52.57 0 0 1-1.202-.452.199.199 0 0 1-.113-.175.257.257 0 0 1 .018-.085.21.21 0 0 1 .12-.128c.234-.1.483-.156.736-.167a7 7 0 0 1 .77 0c.264.02.53.02.794 0a4.632 4.632 0 0 0-.65-.53 8.603 8.603 0 0 1-.563-.447 2.164 2.164 0 0 1-.444-.53.213.213 0 0 1 .016-.236.193.193 0 0 1 .164-.095h.015l.203.02c.424.036.856.09 1.285.16.373.055.74.147 1.096.275l.121.043a.167.167 0 0 1 .098.098.208.208 0 0 1 0 .162.236.236 0 0 1-.113.12.18.18 0 0 1-.136 0l-.095-.033a5.757 5.757 0 0 0-1.056-.257c-.36-.056-.686-.1-.974-.128.188.179.39.341.606.486.183.13.36.27.514.413.166.14.313.3.437.479a.224.224 0 0 1-.126.336 2.549 2.549 0 0 1-.616.088h-.637a5.729 5.729 0 0 0-.691 0l.547.2c.377.136.77.283 1.202.447a.185.185 0 0 1 .097.106c.02.054.02.113 0 .167a.228.228 0 0 1-.11.118.193.193 0 0 1-.064-.005Zm-1.24-1.434c-.15 0-.301 0-.448.012-.247.012-.49.066-.72.162a.184.184 0 0 0-.097.103.498.498 0 0 0 0 .067.15.15 0 0 0 .085.136c.396.155.799.306 1.2.45.4.144.801.298 1.191.45a.115.115 0 0 0 .1 0 .172.172 0 0 0 .09-.095.193.193 0 0 0 0-.131.136.136 0 0 0-.071-.082l-1.205-.456-.637-.233-.082-.031.087-.013c.264-.023.53-.023.794 0h.634c.204-.005.407-.035.604-.087a.17.17 0 0 0 .118-.108.176.176 0 0 0-.015-.16 2.463 2.463 0 0 0-.43-.47 7.548 7.548 0 0 0-.526-.409 4.527 4.527 0 0 1-.652-.537l-.041-.044h.059c.303.029.652.075 1.027.136.363.052.72.138 1.066.258l.095.033a.131.131 0 0 0 .103 0 .195.195 0 0 0 .087-.098.172.172 0 0 0 0-.128.123.123 0 0 0-.072-.072l-.123-.047a5.87 5.87 0 0 0-1.09-.272c-.428-.067-.86-.12-1.283-.16l-.203-.017a.157.157 0 0 0-.142.074.124.124 0 0 0-.02.041.177.177 0 0 0 0 .15c.118.192.264.365.434.514.18.154.367.303.56.442.248.166.478.358.688.57l.031.034h-.044a5.04 5.04 0 0 1-.847 0l-.306.018ZM50.769 39.72a21.307 21.307 0 0 0-.478-.256l-.285-.147a4.66 4.66 0 0 0-.542-.218h-.018a.164.164 0 0 1-.07-.075.175.175 0 0 1 0-.139v-.023a.214.214 0 0 1 .093-.098.138.138 0 0 1 .118 0c.236.081.467.177.69.288l.165.088c.165.085.33.172.49.257.116.064.235.128.355.19.27.14.547.268.83.38.034.019.06.048.075.083a.187.187 0 0 1 0 .144v.018a.184.184 0 0 1-.098.095.146.146 0 0 1-.118 0 9.103 9.103 0 0 1-.838-.378 13.254 13.254 0 0 1-.37-.208Z" fill="#009752"/><path d="M52.032 40.34a.214.214 0 0 1-.056 0 8.335 8.335 0 0 1-.843-.383 5.788 5.788 0 0 1-.375-.205c-.159-.088-.318-.175-.477-.258l-.286-.146a4.614 4.614 0 0 0-.54-.218h-.02a.19.19 0 0 1-.08-.088.198.198 0 0 1 0-.154l.016-.026a.257.257 0 0 1 .1-.108.168.168 0 0 1 .137 0c.237.082.469.18.693.293l.164.085c.157.08.316.165.491.257.118.067.236.131.354.19.257.14.545.257.828.38h.013a.202.202 0 0 1 .085.255v.02a.208.208 0 0 1-.111.106.169.169 0 0 1-.093 0Zm-2.481-1.578a.11.11 0 0 0-.057.015.187.187 0 0 0-.084.088l-.013.023a.15.15 0 0 0 0 .116.138.138 0 0 0 .059.066h.018c.185.062.366.136.542.221l.285.144c.16.083.321.167.478.258.123.071.257.143.375.208.272.14.552.266.837.377a.13.13 0 0 0 .103 0 .17.17 0 0 0 .085-.084v-.018a.16.16 0 0 0 0-.124.136.136 0 0 0-.065-.072 9.62 9.62 0 0 1-1.184-.573 13.29 13.29 0 0 0-.488-.257l-.164-.085a5.382 5.382 0 0 0-.688-.288.115.115 0 0 0-.04-.015ZM52.548 39.109a3.525 3.525 0 0 1-.755-.337 13.48 13.48 0 0 1-.542-.334l-.354-.234a11.59 11.59 0 0 0-.568-.347.139.139 0 0 1-.067-.123.171.171 0 0 1 .023-.17l.771-1.187a.193.193 0 0 1 .12-.09.144.144 0 0 1 .12.018.148.148 0 0 1 .066.102.2.2 0 0 1-.034.147l-.688 1.059c.17.098.347.208.532.329l.244.16a9.031 9.031 0 0 1 .544-.87l.19-.287a.179.179 0 0 1 .119-.088.149.149 0 0 1 .12.018.162.162 0 0 1 .067.106.18.18 0 0 1-.033.144c-.065.097-.131.197-.2.298l-.016.026-.177.257a7.496 7.496 0 0 0-.34.57c.275.183.569.334.877.45.038-.057.092-.129.161-.218.07-.09.185-.258.273-.389l.149-.236a.965.965 0 0 0 .133-.39.217.217 0 0 1 .036-.101.286.286 0 0 1 .057-.057.19.19 0 0 1 .118-.036.208.208 0 0 1 .064.023.23.23 0 0 1 .041.044c.02.032.028.07.023.108a1.22 1.22 0 0 1-.113.401 2.894 2.894 0 0 1-.218.399 7.515 7.515 0 0 1-.3.424 5.03 5.03 0 0 0-.232.321.183.183 0 0 1-.21.09Z" fill="#009752"/><path d="M52.597 39.137h-.054a3.647 3.647 0 0 1-.77-.342 10.436 10.436 0 0 1-.54-.334l-.357-.234c-.187-.12-.377-.236-.565-.344a.163.163 0 0 1-.077-.136.202.202 0 0 1 .026-.188l.77-1.188a.229.229 0 0 1 .134-.1.192.192 0 0 1 .139.02.182.182 0 0 1 .074.119.221.221 0 0 1-.038.165l-.673 1.028c.164.095.336.203.513.318l.224.147c.1-.185.218-.383.352-.586l.156-.234.029-.033.185-.286a.226.226 0 0 1 .133-.097.182.182 0 0 1 .136.02c.042.029.07.072.08.121a.224.224 0 0 1-.036.162l-.2.298-.018.026-.175.257a7.519 7.519 0 0 0-.329.55c.263.174.544.318.838.43l.151-.206a3.71 3.71 0 0 0 .257-.386c.03-.046.082-.126.15-.234a.905.905 0 0 0 .13-.383.272.272 0 0 1 .039-.108.224.224 0 0 1 .195-.105.211.211 0 0 1 .077.028c.018.014.033.03.046.049a.18.18 0 0 1 .028.12 1.337 1.337 0 0 1-.115.412 3.256 3.256 0 0 1-.221.4 5.809 5.809 0 0 1-.3.425 5.275 5.275 0 0 0-.23.324.202.202 0 0 1-.164.105Zm-.043-.049a.161.161 0 0 0 .182-.077c.065-.1.142-.207.231-.324.105-.138.206-.28.298-.421.084-.126.16-.259.224-.396.057-.125.095-.259.113-.396a.159.159 0 0 0-.02-.09.12.12 0 0 0-.093-.059.151.151 0 0 0-.1.031.309.309 0 0 0-.052.051.198.198 0 0 0-.03.09.993.993 0 0 1-.14.401l-.148.237c-.088.134-.18.257-.273.388l-.162.218v.016h-.015a4.598 4.598 0 0 1-.881-.45l-.015-.013v-.018c.095-.18.21-.373.341-.573l.175-.257.018-.026c.07-.1.136-.2.2-.298a.156.156 0 0 0 .029-.126.144.144 0 0 0-.057-.092.13.13 0 0 0-.105-.013.158.158 0 0 0-.103.077l-.193.293a.125.125 0 0 0-.02.026l-.157.23a9.867 9.867 0 0 0-.362.607v.021l-.257-.172c-.185-.121-.365-.231-.534-.33l-.02-.012.012-.02.686-1.052a.153.153 0 0 0 .03-.128.125.125 0 0 0-.053-.09.124.124 0 0 0-.103-.013.156.156 0 0 0-.105.08l-.771 1.187a.146.146 0 0 0-.02.147.11.11 0 0 0 .056.102c.188.108.38.224.568.347l.354.232c.177.115.357.228.54.334.23.138.476.25.732.331ZM52.46 35.665a.152.152 0 0 1-.125 0 .16.16 0 0 1-.03-.02.113.113 0 0 1-.044-.055.755.755 0 0 0-.234-.355.17.17 0 0 1-.057-.11.19.19 0 0 1 .052-.142.181.181 0 0 1 .126-.077.164.164 0 0 1 .118.029c.15.127.262.295.32.483a.187.187 0 0 1-.035.182.271.271 0 0 1-.09.065Z" fill="#009752"/><path d="M52.404 35.698a.205.205 0 0 1-.11-.041.166.166 0 0 1-.049-.062.73.73 0 0 0-.228-.347.18.18 0 0 1-.062-.126.208.208 0 0 1 .054-.16.218.218 0 0 1 .141-.084.187.187 0 0 1 .134.033c.154.13.269.301.328.494a.212.212 0 0 1-.038.206.27.27 0 0 1-.1.074.166.166 0 0 1-.07.013Zm-.228-.771h-.02a.164.164 0 0 0-.114.067.185.185 0 0 0-.043.126.132.132 0 0 0 .046.095.75.75 0 0 1 .241.365.12.12 0 0 0 .036.044l.026.017a.136.136 0 0 0 .11 0 .213.213 0 0 0 .08-.061.18.18 0 0 0 .033-.165 1.028 1.028 0 0 0-.316-.47.128.128 0 0 0-.08-.023v.005ZM56.162 33.978v.016c.073.077.127.17.157.272a.772.772 0 0 1-.064.514 1.284 1.284 0 0 1-.257.386c-.084.089-.18.166-.283.231a.969.969 0 0 1-.344.134.68.68 0 0 1-.624-.185l-.02-.02a.144.144 0 0 1-.042-.111.182.182 0 0 1 .06-.134.21.21 0 0 1 .133-.056.155.155 0 0 1 .113.04l.013.014a.39.39 0 0 0 .352.113.745.745 0 0 0 .334-.173l.074-.074a.897.897 0 0 0 .177-.257.334.334 0 0 0-.05-.414.652.652 0 0 0-.391-.165.835.835 0 0 0-.45.067l-.113.054a.04.04 0 0 1-.033.018c-.164.09-.336.164-.514.221a.73.73 0 0 1-.537-.02.556.556 0 0 1-.13-.093.86.86 0 0 1-.222-.468.922.922 0 0 1 .273-.783l.074-.075a1.051 1.051 0 0 1 .966-.24.123.123 0 0 1 .059.037.155.155 0 0 1 .036.051.16.16 0 0 1 0 .11.225.225 0 0 1-.051.09.318.318 0 0 1-.072.047.174.174 0 0 1-.121 0 .655.655 0 0 0-.611.152.542.542 0 0 0-.206.49c.013.114.06.22.136.306a.37.37 0 0 0 .064.047c.116.037.242.03.352-.02.14-.05.275-.11.406-.18l.144-.07c.205-.095.433-.13.658-.103a.976.976 0 0 1 .554.231Z" fill="#009752"/><path d="M55.235 35.557a.706.706 0 0 1-.498-.206l-.02-.018a.173.173 0 0 1-.05-.128.22.22 0 0 1 .067-.152.233.233 0 0 1 .15-.064.182.182 0 0 1 .128.046l.013.015a.364.364 0 0 0 .33.106.727.727 0 0 0 .325-.167 1.012 1.012 0 0 0 .246-.33.319.319 0 0 0-.046-.39.667.667 0 0 0-.378-.16.814.814 0 0 0-.436.067l-.11.054a.095.095 0 0 1-.04.02 3.09 3.09 0 0 1-.513.22.742.742 0 0 1-.552-.021.514.514 0 0 1-.14-.095.916.916 0 0 1-.228-.483.95.95 0 0 1 .278-.803l.077-.074a1.065 1.065 0 0 1 .986-.244.15.15 0 0 1 .07.038.26.26 0 0 1 .04.06.183.183 0 0 1 0 .128.256.256 0 0 1-.056.098.28.28 0 0 1-.08.051.192.192 0 0 1-.133 0 .647.647 0 0 0-.593.147l-.044.04a.513.513 0 0 0-.152.433.537.537 0 0 0 .129.29.259.259 0 0 0 .061.044.46.46 0 0 0 .332-.02c.138-.051.273-.111.403-.18l.144-.07c.21-.096.442-.132.67-.103.211.022.41.112.565.257v.013c.075.08.13.177.162.283a.754.754 0 0 1-.064.514 1.319 1.319 0 0 1-.257.393c-.086.09-.182.168-.288.234a.972.972 0 0 1-.351.139.744.744 0 0 1-.147.018Zm-.347-.514a.184.184 0 0 0-.156.105.157.157 0 0 0-.013.064.131.131 0 0 0 .033.095l.02.018a.658.658 0 0 0 .607.183.985.985 0 0 0 .334-.131 1.63 1.63 0 0 0 .28-.229c.108-.11.195-.24.257-.38a.72.72 0 0 0 .064-.497.653.653 0 0 0-.149-.257v-.013a.956.956 0 0 0-.54-.236 1.186 1.186 0 0 0-.644.1l-.144.07a3.2 3.2 0 0 1-.409.18.513.513 0 0 1-.367.02.36.36 0 0 1-.072-.051.576.576 0 0 1 .02-.787l.05-.043a.694.694 0 0 1 .634-.157.14.14 0 0 0 .103 0 .173.173 0 0 0 .064-.044.15.15 0 0 0 .046-.077.133.133 0 0 0 0-.095.156.156 0 0 0-.03-.046.145.145 0 0 0-.052-.031 1.026 1.026 0 0 0-.943.236l-.074.072a.919.919 0 0 0-.257.771c.025.17.1.328.216.455.037.035.08.065.126.088.163.07.346.076.513.018a3.24 3.24 0 0 0 .514-.216.032.032 0 0 0 .018 0l.113-.057a.854.854 0 0 1 .463-.07c.148.013.29.072.403.17a.363.363 0 0 1 .056.443.984.984 0 0 1-.18.257l-.077.074a.726.726 0 0 1-.344.177.408.408 0 0 1-.372-.115l-.016-.016a.126.126 0 0 0-.095-.048Z" fill="#009752"/></g><defs><clipPath id="a"><path fill="#fff" d="M0 0h95v73H0z"/></clipPath></defs></svg>
