<svg xmlns="http://www.w3.org/2000/svg" width="64" height="64" viewBox="0 0 64 64"><defs><style>.a{fill:none;}.b{fill:#fff;}</style></defs><g transform="translate(0.257 -0.088)"><circle class="a" cx="32" cy="32" r="32" transform="translate(-0.257 0.088)"/><path class="b" d="M35.958,39.746c-.315-.1-.638-.2-.962-.3.165-.7.318-1.465.457-2.272.67-.459,1.34-.933,2-1.417.034.418.057.823.078,1.223-.512.992-1.036,1.923-1.571,2.766ZM18.005,8.333c.382-.295.764-.569,1.136-.832.016-.194.034-.377.053-.556.373-.144.741-.286,1.1-.416.437.576.94,1.294,1.486,2.126-.174.181-.347.366-.524.556-.59.2-1.189.411-1.785.624.069-.647.144-1.248.229-1.79-.231.37-.464.764-.7,1.175-.409.014-.818.03-1.223.046q.11-.49.226-.933ZM48.655,24.114c-.583.711-1.269,1.463-2.037,2.247-.014.471-.03.946-.048,1.417-.29.407-.59.816-.905,1.232-.3-1.228-.64-2.5-1.033-3.8q-.655-1.039-1.4-2.117c-1.157-.288-2.41-.581-3.731-.882-.391-.375-.793-.748-1.2-1.125-.2.119-.389.235-.585.352q.463,1.118.9,2.238c.446-.242.889-.487,1.314-.725q.871.748,1.678,1.47c-1.591,1.113-3.347,2.284-5.2,3.466-.88-1.932-1.847-3.946-2.864-5.946-.21.032-.421.066-.631.1,1.047,2.382,2.053,4.785,2.926,7.064.962-.487,1.9-.972,2.81-1.449-.311,1.077-.645,2.149-1,3.2-.96.9-1.952,1.788-2.951,2.654.048,1.221.073,2.384.069,3.461-.556.382-1.109.752-1.667,1.111a31.266,31.266,0,0,1-3.331,3.87c-.9.119-1.788.224-2.672.327-.665-1.042-1.454-2.467-2.314-4.158.2-.775.421-1.6.64-2.478-.542-1.523-1.116-3.185-1.7-4.915-1.945.119-3.87.222-5.752.306-1.088-1.024-2.163-2.069-3.21-3.118.137-1.683.309-3.4.508-5.112,1.022-1.276,2.078-2.551,3.139-3.8,2-.37,4.049-.729,6.081-1.07.128.524.254,1.052.382,1.582.834.533,1.671,1.077,2.51,1.621.32-.446.633-.889.946-1.324,1.271.329,2.531.663,3.77,1l.94-.569c.128-.466.247-.926.368-1.381-.839-.155-1.692-.315-2.551-.471-.29-.473-.583-.946-.873-1.413-.208-.1-.411-.2-.615-.3-.16.578-.322,1.168-.492,1.765-.393-.48-.784-.953-1.177-1.422.021-.389.041-.773.055-1.152q-.772-.58-1.534-1.134c-.3-.142-.606-.281-.908-.418.03.363.053.734.082,1.109.633.4,1.276.812,1.918,1.23q-.487.535-.983,1.1-.706-.895-1.39-1.753c-.331-.359-.656-.713-.983-1.061-.759.35-1.525.713-2.291,1.079-.549.791-1.1,1.6-1.657,2.435q-1.214-.171-2.4-.331c-.011-.985-.014-1.948-.007-2.869q1.5.062,3.034.142c-.306-.485-.608-.96-.905-1.422-.174-.377-.345-.748-.514-1.1.764-.233,1.529-.464,2.291-.684.434-.487.86-.956,1.282-1.4l1-.064c-.064-.249-.13-.494-.194-.729.219-.224.43-.434.64-.647q.24.521.485,1.088c.928.018,1.856.046,2.782.075.238-.526.46-1.024.674-1.491l1.056.277q-.219-.494-.437-.942c.512-.105,1.01-.206,1.509-.3-.181-.135-.361-.263-.54-.389-.444.071-.9.149-1.353.229-.192-.265-.382-.517-.567-.754l-.073,0c.009-.018.018-.034.03-.053-.075-.1-.155-.194-.233-.283.171-.071.343-.142.51-.206.135-.229.245-.4.366-.583l-.5-.043c-.238.144-.482.309-.732.48-.2.261-.411.556-.631.871.274.181.551.363.83.556-.231.466-.469.983-.725,1.536-.414.119-.83.238-1.253.361-.238-.574-.473-1.106-.7-1.6-.473.185-.958.375-1.445.576-.226-.1-.448-.194-.67-.29.05-.487.105-.937.16-1.337.407-.187.8-.359,1.193-.521a8.654,8.654,0,0,1,.951-1.052c.754-.153,1.479-.279,2.169-.382,1.753.08,3.585.208,5.439.363,2.57-.087,5.685-.2,7.059-.265A24.413,24.413,0,0,0,9.1,5.441c.281.039.56.08.844.123.167.418.357.871.581,1.379.073.258.153.535.24.821-.444.423-.88.88-1.305,1.367-.089.24-.176.482-.261.734-.325.183-.64.37-.956.558-.206.684-.4,1.406-.572,2.156-.386-.055-.768-.107-1.136-.158-.258-1.5-.407-2.78-.526-3.982A24.542,24.542,0,0,0,3.02,12.69c.126-.105.242-.208.37-.311.327,1.653.72,3.466,1.255,5.439-1.074.693-2.039,1.381-2.871,2.044A19.186,19.186,0,0,0,.2,21.5,24.947,24.947,0,0,0,0,24.47a24.6,24.6,0,0,0,.78,6.04c.434.158.908.313,1.433.466a34.843,34.843,0,0,0,2.716,2.759q.329.984.7,1.934c1.3.812,2.727,1.6,4.211,2.336-.448,1.39-.793,2.6-1.052,3.644-.578.016-1.138.03-1.692.041A24.446,24.446,0,0,0,48.911,25.145C48.821,24.8,48.751,24.463,48.655,24.114Z" transform="translate(7.743 7.553)"/></g></svg>