<svg xmlns="http://www.w3.org/2000/svg" width="53" height="53" viewBox="0 0 53 53"><g transform="translate(0.131 -0.486)"><circle cx="26.5" cy="26.5" r="26.5" transform="translate(-0.131 0.486)" fill="none"/><g transform="translate(-951.975 -137.828)"><path d="M5.364,20a1,1,0,0,1-1-1V15.679a1,1,0,0,1,1-1H27a1,1,0,0,1,1,1V19a1,1,0,0,1-1,1Zm22.363-7.523a1,1,0,0,1-1-1V8.156a1,1,0,0,1,1-1H31a1,1,0,0,1,1,1v3.321a1,1,0,0,1-1,1Zm-8.909,0a1,1,0,0,1-1-1V8.156a1,1,0,0,1,1-1H22.09a1,1,0,0,1,1,1v3.321a1,1,0,0,1-1,1Zm-8.909,0a1,1,0,0,1-1-1V8.156a1,1,0,0,1,1-1h3.272a1,1,0,0,1,1,1v3.321a1,1,0,0,1-1,1ZM1,12.477a1,1,0,0,1-1-1V8.156a1,1,0,0,1,1-1H4.273a1,1,0,0,1,1,1v3.321a1,1,0,0,1-1,1ZM27.727,5.321a1,1,0,0,1-1-1V1a1,1,0,0,1,1-1H31a1,1,0,0,1,1,1V4.321a1,1,0,0,1-1,1Zm-8.909,0a1,1,0,0,1-1-1V1a1,1,0,0,1,1-1H22.09a1,1,0,0,1,1,1V4.321a1,1,0,0,1-1,1Zm-8.909,0a1,1,0,0,1-1-1V1a1,1,0,0,1,1-1h3.272a1,1,0,0,1,1,1V4.321a1,1,0,0,1-1,1ZM1,5.321a1,1,0,0,1-1-1V1A1,1,0,0,1,1,0H4.273a1,1,0,0,1,1,1V4.321a1,1,0,0,1-1,1Z" transform="translate(962.845 156.314)" fill="#fff"/></g></g></svg>