<svg xmlns="http://www.w3.org/2000/svg" width="50" height="20" viewBox="0 0 50 20"><g transform="translate(-7771 -1511)"><path d="M7.46-1.96c.98-2.32,1.96-4.66,2.94-6.98.12-.26.3-.46.42-.72.52-1.34,1-2.7,1.6-4a1.553,1.553,0,0,0-.12-1.54,1.665,1.665,0,0,0-1.64-1.08,1.044,1.044,0,0,0-.7.2A5.015,5.015,0,0,0,8.4-13.82c-.08.32-.66,2.12-1.08,2.14a.623.623,0,0,1-.42-.3c-.56-.94-1.1-1.92-1.66-2.88-.5-.8-1.06-1.5-2.08-1.5-.38,0-.78.1-1.18.12a.993.993,0,0,0-.9,1.4,7.222,7.222,0,0,0,1.36,2c.92,1.26,1.68,2.64,2.7,3.78a2.107,2.107,0,0,1,.3,2.68C4.76-4.96,4.2-3.5,3.56-2.08c-.36.8-.26,1.26.56,1.84A3.958,3.958,0,0,0,5.36.14c.3-.14.7-.3,1.08-.5C7.08-.7,7.22-1.36,7.46-1.96Zm5.36.06c-.06.28-.1.72.06.84a2.207,2.207,0,0,0,1.16.58c1.48,0,2.42-2.5,2.64-3.66.1-.64.34-.96.82-.96a18.215,18.215,0,0,1,2.72.4,1.058,1.058,0,0,1,.54.56c.38.94.7,1.92,1.08,2.88a1.335,1.335,0,0,0,1.2.58,1.186,1.186,0,0,0,.72-.22c.06-.06.86-.18.86-.28a19.461,19.461,0,0,0-.78-4.6c-.14-.64-.36-1.9-.72-3.12-.5-1.76-1.08-3.5-1.64-5.24a2.7,2.7,0,0,0-1.86-2.1,2.454,2.454,0,0,0-.64-.12c-.32,0-.48.16-.76.6a32.072,32.072,0,0,0-1.74,3.14c-.64,1.4-1.2,2.84-1.76,4.28-.24.64-.5.88-1.16.9a5.024,5.024,0,0,0-.54.08A1.158,1.158,0,0,0,12-5.82c.1.44.24.74.72.74a.39.39,0,0,0,.14-.02h.18c.38,0,.42.16.32.62C13.2-3.62,12.98-2.76,12.82-1.9Zm5.04-6.86a12.423,12.423,0,0,1,.8-2.12h.2c.22.92.42,1.84.7,2.74.12.44-.06.54-.42.58H18.8c-.3,0-.54.02-.7.02C17.44-7.54,17.62-7.68,17.86-8.76ZM32.3-1.96c.98-2.32,1.96-4.66,2.94-6.98.12-.26.3-.46.42-.72.52-1.34,1-2.7,1.6-4a1.553,1.553,0,0,0-.12-1.54,1.665,1.665,0,0,0-1.64-1.08,1.044,1.044,0,0,0-.7.2,5.015,5.015,0,0,0-1.56,2.26c-.08.32-.66,2.12-1.08,2.14a.623.623,0,0,1-.42-.3c-.56-.94-1.1-1.92-1.66-2.88-.5-.8-1.06-1.5-2.08-1.5-.38,0-.78.1-1.18.12a.993.993,0,0,0-.9,1.4,7.222,7.222,0,0,0,1.36,2c.92,1.26,1.68,2.64,2.7,3.78a2.107,2.107,0,0,1,.3,2.68c-.68,1.42-1.24,2.88-1.88,4.3-.36.8-.26,1.26.56,1.84A3.958,3.958,0,0,0,30.2.14c.3-.14.7-.3,1.08-.5C31.92-.7,32.06-1.36,32.3-1.96Zm5.36.06c-.06.28-.1.72.06.84a2.207,2.207,0,0,0,1.16.58c1.48,0,2.42-2.5,2.64-3.66.1-.64.34-.96.82-.96a18.215,18.215,0,0,1,2.72.4,1.058,1.058,0,0,1,.54.56c.38.94.7,1.92,1.08,2.88a1.335,1.335,0,0,0,1.2.58A1.186,1.186,0,0,0,48.6-.9c.06-.06.86-.18.86-.28a19.461,19.461,0,0,0-.78-4.6c-.14-.64-.36-1.9-.72-3.12-.5-1.76-1.08-3.5-1.64-5.24a2.7,2.7,0,0,0-1.86-2.1,2.453,2.453,0,0,0-.64-.12c-.32,0-.48.16-.76.6a32.073,32.073,0,0,0-1.74,3.14c-.64,1.4-1.2,2.84-1.76,4.28-.24.64-.5.88-1.16.9a5.025,5.025,0,0,0-.54.08,1.158,1.158,0,0,0-1.02,1.54c.1.44.24.74.72.74a.39.39,0,0,0,.14-.02h.18c.38,0,.42.16.32.62C38.04-3.62,37.82-2.76,37.66-1.9ZM42.7-8.76a12.423,12.423,0,0,1,.8-2.12h.2c.22.92.42,1.84.7,2.74.12.44-.06.54-.42.58h-.34c-.3,0-.54.02-.7.02C42.28-7.54,42.46-7.68,42.7-8.76Z" transform="translate(7771 1528)" fill="#fff"/><rect width="50" height="20" transform="translate(7771 1511)" fill="none"/></g></svg>