<svg width="50" height="50" viewBox="0 0 50 50" fill="none" xmlns="http://www.w3.org/2000/svg">
<g clip-path="url(#clip0_196_153)">
<path d="M45.45 24.3008C41.84 28.1053 36.76 30.5592 32.92 34.1829C29.7602 37.3108 27.4561 41.1287 26.21 45.3014C25.93 46.4047 25 50.057 25 49.9999C25 49.9428 24.07 46.4047 23.79 45.3014C22.5439 41.1287 20.2398 37.3108 17.08 34.1829C13.24 30.5592 8.15001 28.1338 4.55001 24.3008C5.72205e-06 19.4406 -1.52999 12.6021 1.76001 6.71476C3.91001 2.85324 7.83001 -0.0856998 12.6 -9.96221e-05C25 0.199634 22.11 16.0832 11.77 14.2666C17.92 14.0859 18.85 9.35885 18.85 9.35885C19.59 -0.313967 -0.829994 0.951013 2.00001 13.6579C3.91001 22.0657 11.7 24.5576 17.5 30.0646C21.23 33.6217 23.5 36.4085 25 40.289C26.47 36.4085 28.78 33.6313 32.5 30.0646C38.27 24.5576 46.07 22.0657 48 13.6579C50.83 0.951013 30.39 -0.313967 31.15 9.34934C31.15 9.34934 32.09 14.1049 38.24 14.2571C27.9 16.0832 25 0.199634 37.38 -9.96221e-05C42.17 -0.0856998 46.07 2.85324 48.24 6.71476C51.53 12.6021 50 19.4406 45.45 24.3008Z" fill="#827397"/>
<path d="M40.63 13.1539C41.1986 12.7361 41.6219 12.1653 41.8449 11.5156C42.0678 10.8659 42.08 10.1675 41.88 9.51111C41.8122 9.01671 41.5814 8.55546 41.2207 8.1936C40.8601 7.83173 40.3882 7.58786 39.8728 7.49699C39.3573 7.40613 38.8249 7.47295 38.3519 7.68786C37.8788 7.90276 37.4896 8.25471 37.24 8.69316C37.1087 9.02352 37.0667 9.37991 37.1178 9.72971C37.1688 10.0795 37.3113 10.4115 37.5322 10.6954C37.753 10.9793 38.0452 11.206 38.382 11.3546C38.7188 11.5033 39.0894 11.5693 39.46 11.5465C39.2886 12.014 39.01 12.4393 38.6444 12.7918C38.2788 13.1442 37.8354 13.4149 37.3463 13.5842C36.8572 13.7535 36.3346 13.8173 35.8163 13.7708C35.2981 13.7244 34.7972 13.5689 34.35 13.3156V14.0574C35.3931 14.4161 36.5138 14.5213 37.6105 14.3635C38.7072 14.2058 39.7451 13.7899 40.63 13.1539V13.1539Z" fill="#827397"/>
<path d="M9.48007 13.1539C8.91142 12.7361 8.48811 12.1653 8.26517 11.5156C8.04224 10.8659 8.03001 10.1675 8.23007 9.51112C8.30063 9.01966 8.53229 8.56186 8.89211 8.20282C9.25194 7.84377 9.72161 7.60175 10.2344 7.51117C10.7471 7.42058 11.2768 7.48604 11.7482 7.69824C12.2196 7.91044 12.6087 8.25858 12.8601 8.69316C12.9913 9.02352 13.0333 9.37991 12.9823 9.72971C12.9312 10.0795 12.7887 10.4115 12.5679 10.6954C12.347 10.9793 12.0548 11.206 11.718 11.3546C11.3812 11.5033 11.0106 11.5693 10.6401 11.5465C10.8115 12.014 11.0901 12.4393 11.4556 12.7918C11.8212 13.1442 12.2646 13.4149 12.7537 13.5842C13.2429 13.7536 13.7655 13.8173 14.2837 13.7708C14.8019 13.7244 15.3028 13.5689 15.7501 13.3156V14.0574C14.7087 14.4162 13.5894 14.5214 12.4943 14.3636C11.3992 14.2058 10.363 13.7899 9.48007 13.1539V13.1539Z" fill="#827397"/>
</g>
<defs>
<clipPath id="clip0_196_153">
<rect width="50" height="50" fill="white"/>
</clipPath>
</defs>
</svg>
