<svg width="50" height="50" viewBox="0 0 50 50" fill="none" xmlns="http://www.w3.org/2000/svg">
<g clip-path="url(#clip0_196_147)">
<path d="M4.54999 25.6992C8.15999 21.8947 13.24 19.4408 17.08 15.8171C20.2398 12.6892 22.5439 8.87126 23.79 4.69859C24.07 3.5953 25 -0.0569686 25 9.81507e-05C25 0.0571649 25.93 3.5953 26.21 4.69859C27.4561 8.87126 29.7602 12.6892 32.92 15.8171C36.76 19.4408 41.85 21.8662 45.45 25.6992C50 30.5594 51.53 37.3979 48.24 43.2852C46.09 47.1468 42.17 50.0857 37.4 50.0001C25 49.8004 27.89 33.9168 38.23 35.7334C32.08 35.9141 31.15 40.6411 31.15 40.6411C30.41 50.314 50.83 49.049 48 36.3421C46.09 27.9343 38.3 25.4424 32.5 19.9354C28.77 16.3783 26.5 13.5915 25 9.71096C23.53 13.5915 21.22 16.3687 17.5 19.9354C11.73 25.4424 3.92999 27.9343 1.99999 36.3421C-0.830008 49.049 19.61 50.314 18.85 40.6507C18.85 40.6507 17.91 35.8951 11.76 35.7429C22.1 33.9168 25 49.8004 12.62 50.0001C7.82999 50.0857 3.92999 47.1468 1.75999 43.2852C-1.53001 37.3979 -8.58307e-06 30.5594 4.54999 25.6992Z" fill="#827397"/>
<path d="M9.37002 36.8461C8.80138 37.2639 8.37806 37.8347 8.15513 38.4844C7.9322 39.1341 7.91996 39.8325 8.12002 40.4889C8.18784 40.9833 8.41863 41.4445 8.77925 41.8064C9.13988 42.1683 9.61179 42.4121 10.1272 42.503C10.6427 42.5939 11.1751 42.5271 11.6481 42.3121C12.1212 42.0972 12.5104 41.7453 12.76 41.3068C12.8913 40.9765 12.9333 40.6201 12.8822 40.2703C12.8312 39.9205 12.6887 39.5885 12.4678 39.3046C12.247 39.0207 11.9548 38.794 11.618 38.6454C11.2812 38.4967 10.9106 38.4307 10.54 38.4535C10.7114 37.986 10.99 37.5607 11.3556 37.2082C11.7212 36.8558 12.1646 36.5851 12.6537 36.4158C13.1428 36.2465 13.6654 36.1827 14.1837 36.2292C14.7019 36.2756 15.2028 36.4311 15.65 36.6844V35.9426C14.6069 35.5839 13.4862 35.4787 12.3895 35.6365C11.2928 35.7942 10.2549 36.2101 9.37002 36.8461V36.8461Z" fill="#827397"/>
<path d="M40.5199 36.8461C41.0886 37.2639 41.5119 37.8347 41.7348 38.4844C41.9578 39.1341 41.97 39.8325 41.7699 40.4889C41.6994 40.9803 41.4677 41.4381 41.1079 41.7972C40.7481 42.1562 40.2784 42.3983 39.7656 42.4888C39.2529 42.5794 38.7232 42.514 38.2518 42.3018C37.7804 42.0896 37.3913 41.7414 37.1399 41.3068C37.0087 40.9765 36.9667 40.6201 37.0177 40.2703C37.0688 39.9205 37.2113 39.5885 37.4321 39.3046C37.653 39.0207 37.9452 38.794 38.282 38.6454C38.6188 38.4967 38.9894 38.4307 39.3599 38.4535C39.1885 37.986 38.9099 37.5607 38.5444 37.2082C38.1788 36.8558 37.7354 36.5851 37.2463 36.4158C36.7571 36.2464 36.2345 36.1827 35.7163 36.2292C35.1981 36.2756 34.6972 36.4311 34.2499 36.6844V35.9426C35.2913 35.5838 36.4106 35.4786 37.5057 35.6364C38.6008 35.7942 39.637 36.2101 40.5199 36.8461V36.8461Z" fill="#827397"/>
</g>
<defs>
<clipPath id="clip0_196_147">
<rect width="50" height="50" fill="white" transform="translate(50 50) rotate(-180)"/>
</clipPath>
</defs>
</svg>
