<svg width="18" height="18" viewBox="0 0 18 18" fill="none" xmlns="http://www.w3.org/2000/svg">
<path d="M8.99996 15.6667C7.45286 15.6667 5.96913 15.0521 4.87517 13.9581C3.78121 12.8641 3.16663 11.3804 3.16663 9.83332C3.16663 8.28622 3.78121 6.80249 4.87517 5.70853C5.96913 4.61457 7.45286 3.99999 8.99996 3.99999C10.5471 3.99999 12.0308 4.61457 13.1247 5.70853C14.2187 6.80249 14.8333 8.28622 14.8333 9.83332C14.8333 11.3804 14.2187 12.8641 13.1247 13.9581C12.0308 15.0521 10.5471 15.6667 8.99996 15.6667ZM8.99996 2.33332C7.01084 2.33332 5.10318 3.1235 3.69666 4.53002C2.29014 5.93654 1.49996 7.8442 1.49996 9.83332C1.49996 11.8224 2.29014 13.7301 3.69666 15.1366C5.10318 16.5431 7.01084 17.3333 8.99996 17.3333C10.9891 17.3333 12.8967 16.5431 14.3033 15.1366C15.7098 13.7301 16.5 11.8224 16.5 9.83332C16.5 7.8442 15.7098 5.93654 14.3033 4.53002C12.8967 3.1235 10.9891 2.33332 8.99996 2.33332ZM9.41663 5.66665H8.16663V10.6667L12.125 13.0417L12.75 12.0167L9.41663 10.0417V5.66665ZM5.56663 1.82499L4.49996 0.549988L0.666626 3.75832L1.74163 5.03332L5.56663 1.82499ZM17.3333 3.76665L13.5 0.549988L12.425 1.82499L16.2583 5.04165L17.3333 3.76665Z" fill="#827397"/>
</svg>
