<svg width="18" height="19" viewBox="0 0 18 19" fill="none" xmlns="http://www.w3.org/2000/svg">
<path d="M7.686 11.403L5.769 9.486L4.815 10.44L7.677 13.302L13.077 7.902L12.123 6.948L7.686 11.403ZM9 16.326C7.32914 16.326 5.72671 15.6623 4.54523 14.4808C3.36375 13.2993 2.7 11.6969 2.7 10.026C2.7 8.35514 3.36375 6.75271 4.54523 5.57123C5.72671 4.38975 7.32914 3.726 9 3.726C10.6709 3.726 12.2733 4.38975 13.4548 5.57123C14.6363 6.75271 15.3 8.35514 15.3 10.026C15.3 11.6969 14.6363 13.2993 13.4548 14.4808C12.2733 15.6623 10.6709 16.326 9 16.326ZM9 1.926C6.85175 1.926 4.79148 2.77939 3.27243 4.29843C1.75339 5.81748 0.9 7.87775 0.9 10.026C0.9 12.1743 1.75339 14.2345 3.27243 15.7536C4.79148 17.2726 6.85175 18.126 9 18.126C11.1483 18.126 13.2085 17.2726 14.7276 15.7536C16.2466 14.2345 17.1 12.1743 17.1 10.026C17.1 7.87775 16.2466 5.81748 14.7276 4.29843C13.2085 2.77939 11.1483 1.926 9 1.926ZM5.292 1.377L4.14 0L0 3.465L1.161 4.842L5.292 1.377ZM18 3.474L13.86 0L12.699 1.377L16.839 4.851L18 3.474Z" fill="#827397"/>
</svg>
