<svg xmlns="http://www.w3.org/2000/svg" viewBox="0 0 330.66 122.38"><defs><style>.cls-1{fill:#e9d5da;}</style></defs><g id="Layer_2" data-name="Layer 2"><g id="Layer_1-2" data-name="Layer 1"><path class="cls-1" d="M165.32,94.57l-6.47,13.71,0,0c2.64,3.54,6.19,13.18,6.19,13.18l.24.87.24-.87s3.55-9.64,6.19-13.18l0,0Z"/><path class="cls-1" d="M196.91,28.59a2.35,2.35,0,0,0,1.33-1.66,5,5,0,0,0-.44-3.28A8.43,8.43,0,0,0,194.31,20a10.64,10.64,0,0,0-6-1.34,12.45,12.45,0,0,0-3.87.93,15.58,15.58,0,0,0-4.26,2.62,18.39,18.39,0,0,0-3.47,4.08A20.25,20.25,0,0,0,174.55,31a22.19,22.19,0,0,0-.78,4.58c0,.71,0,1.38,0,2s.08,1.21.16,1.73.17,1,.25,1.42a9.12,9.12,0,0,0,.31,1c.21.58.39.89.55.89s.33-.31.56-.86.53-1.35.86-2.21c.18-.45.4-.92.61-1.43s.49-1,.76-1.54a23.07,23.07,0,0,1,2-3.1A16.38,16.38,0,0,1,182.39,31a12.33,12.33,0,0,1,2.71-1.63,8.9,8.9,0,0,1,2.32-.67,2.64,2.64,0,0,1,.46-.06,3,3,0,0,1,.4,0l.35,0h.3l1.87-.12a11.27,11.27,0,0,1,1.9,0C194.09,28.61,195.64,29.14,196.91,28.59Z"/><path class="cls-1" d="M175.4,17.09c-3.85,8.73-4.88,21-5,22.61,0,.1-.07.17-.14.17l-3.76,4.26a1.25,1.25,0,0,1-1.87,0l-3.76-4.26c-.07,0-.13-.07-.13-.17-.13-1.62-1-12.94-5-22.61,0-.08,7.74-14,9.49-16.87a.39.39,0,0,1,.7,0C167.67,3.12,175.44,17,175.4,17.09Z"/><path class="cls-1" d="M133.72,28.59a2.4,2.4,0,0,1-1.33-1.66,5.06,5.06,0,0,1,.44-3.28,8.46,8.46,0,0,1,3.5-3.68,10.62,10.62,0,0,1,6-1.34,12.51,12.51,0,0,1,3.87.93,15.39,15.39,0,0,1,4.25,2.62A17.88,17.88,0,0,1,154,26.26,19.89,19.89,0,0,1,156.09,31a21.49,21.49,0,0,1,.77,4.58c0,.71,0,1.38,0,2s-.08,1.21-.15,1.73-.17,1-.25,1.42-.22.76-.31,1c-.21.58-.4.89-.55.89s-.33-.31-.56-.86-.53-1.35-.86-2.21c-.18-.45-.4-.92-.61-1.43s-.49-1-.77-1.54a22.06,22.06,0,0,0-2-3.1A16.82,16.82,0,0,0,148.25,31a12.39,12.39,0,0,0-2.72-1.63,8.74,8.74,0,0,0-2.31-.67,2.64,2.64,0,0,0-.46-.06,3.15,3.15,0,0,0-.41,0l-.35,0h-.29l-1.87-.12a11.24,11.24,0,0,0-1.9,0C136.55,28.61,135,29.14,133.72,28.59Z"/><path class="cls-1" d="M165.57,45.68l-4.8,4.55h0c.86,1.16,4.8,7.84,4.8,7.84h0s3.75-6.68,4.61-7.84h0Z"/><path class="cls-1" d="M145.37,40.32l1,.26,3.59,1,2.72.75,2,.47,0,0-1.92-.73-1.54-.61-.28-.22L150.6,41l.39.08a13.05,13.05,0,0,1,3.73,1.57,1,1,0,0,1,0-.1A3.33,3.33,0,0,1,155,42a13.49,13.49,0,0,0-3.83-1.72,23.44,23.44,0,0,0-2.47-.56,38.57,38.57,0,0,0-4.83-2.62l-1-.44-1-.41c-.68-.29-1.41-.55-2.16-.83-1.51-.51-3.14-1-4.9-1.44A40.79,40.79,0,0,0,129.3,33a27.4,27.4,0,0,0-3-.14l-1.54,0c-.51,0-1,.07-1.55.1a63.12,63.12,0,0,0-15,3.3,103.15,103.15,0,0,0-10,4c-1.2.42-2.69.91-4.36,1.58s-3.57,1.45-5.64,2.32-4.22,2-6.54,3.14-4.66,2.5-7.08,3.91c-1.78,1-3.5,2.1-5.16,3.12a56,56,0,0,0-4.62,3.29l-4,3.15c-1.25,1-2.42,1.85-3.51,2.63a30.25,30.25,0,0,1-5.49,3.11l-.93.37-.69.22-.58.19.6-.1.72-.13,1-.25a27.25,27.25,0,0,0,5.9-2.57c1.18-.68,2.45-1.47,3.77-2.37s2.71-1.87,4.17-2.89,3-2.07,4.62-3,3.4-2,5.16-3l7-4c2.25-1.2,4.36-2.37,6.31-3.45s3.8-1.91,5.4-2.73,3-1.47,4.17-2c2.41-.81,5.92-2,10.18-3.11A85.37,85.37,0,0,1,123.34,35c.5,0,1-.08,1.49-.1l1.47-.05c1,0,1.91,0,2.85.07a49.35,49.35,0,0,1,5.4.7c1.72.31,3.34.71,4.85,1.11.74.22,1.48.4,2.16.64l1,.32,1,.34c1.45.5,2.7,1,3.77,1.5-.51-.06-1-.12-1.54-.15a38.63,38.63,0,0,0-8.68-2.15c-.46-.08-.93-.09-1.4-.13s-1-.08-1.45-.1c-1,0-2-.07-3,0a46.64,46.64,0,0,0-6.23.56,77.38,77.38,0,0,0-15.25,4.22c-2.16.8-4.11,1.6-5.83,2.3l-2.4,1-2,.91-2.08.68-2.42.94c-1.75.65-3.68,1.52-5.79,2.45-4.2,1.94-9,4.44-14.05,7.2-3.71,2-7.24,4-10.49,5.57a71.59,71.59,0,0,1-9,3.51c-1.32.39-2.5.82-3.56,1a12.26,12.26,0,0,0-2.73.85,4.42,4.42,0,0,0-.62.36l-.9.08-2.06.13-1,.07-1,0c-.68,0-1.36.06-2,.06a59.37,59.37,0,0,1-7.94-.36l-1-.13c-.32,0-.64-.07-1-.14l-1.89-.35-1.85-.45a9.46,9.46,0,0,1-.91-.26l-.9-.27c-.3-.1-.6-.18-.89-.29l-.88-.33c-.58-.21-1.16-.42-1.72-.68s-1.14-.49-1.69-.76l-1.64-.83c-.27-.13-.53-.29-.8-.44L18,63.17l-.78-.45c-.27-.15-.52-.32-.77-.48l-1.52-1-.7-.5c-.24-.16-.47-.32-.69-.5l-.67-.52-.64-.55c-.44-.36-.83-.75-1.23-1.13A25.81,25.81,0,0,1,7,53a25.39,25.39,0,0,1-1.41-2.74,25.12,25.12,0,0,1-1-2.78c-.12-.46-.26-.92-.35-1.39s-.2-.91-.25-1.37a19.67,19.67,0,0,1-.08-5.24A17.43,17.43,0,0,1,5.13,35a18.44,18.44,0,0,1,2-3.6,19.93,19.93,0,0,1,2.53-2.9l.7-.65.36-.31.36-.28a8.52,8.52,0,0,1,.75-.55l.37-.26.4-.24A17.94,17.94,0,0,1,16,24.57a24.78,24.78,0,0,1,3.55-1A28.66,28.66,0,0,1,26.75,23a29.15,29.15,0,0,1,3.52.4c.58.09,1.14.23,1.7.35.29.06.56.14.84.21s.55.15.82.24A20.7,20.7,0,0,1,44.17,31.1c.14.2.29.4.43.61l.21.29.19.32.37.61c.11.22.22.43.32.64l.16.32.14.33c.09.21.18.43.26.65s.14.44.21.66l.11.33c0,.11,0,.22.08.33l.15.66c0,.23.07.45.1.67l.06.33,0,.33c0,.22,0,.44.05.66s0,.44,0,.66v.32l0,.33c0,.21,0,.42-.05.64s-.07.41-.1.62,0,.21-.05.31l-.07.31-.15.6-.18.59-.09.29c0,.1-.08.19-.11.28s-.15.38-.23.56-.17.36-.25.53a11.09,11.09,0,0,1-.56,1,12,12,0,0,1-2.83,3.2,11.12,11.12,0,0,1-6.38,2.37l-.36,0h-1l-.37,0A5.14,5.14,0,0,0,37,46.3a5,5,0,1,0-5.29,5.63l.34.17,1.07.38c.4.12.83.22,1.3.33l.73.11.38,0c.13,0,.27,0,.4,0a11.63,11.63,0,0,0,3.62-.32,12.31,12.31,0,0,0,4-1.79,13.88,13.88,0,0,0,3.63-3.59c.25-.39.51-.77.73-1.19.12-.21.24-.41.34-.63s.21-.43.31-.66l.15-.33.13-.35c.08-.23.17-.46.26-.7l.21-.72.1-.37c0-.13.05-.25.08-.38s.11-.51.16-.76.07-.52.1-.79l0-.39c0-.14,0-.27,0-.4s0-.54,0-.81,0-.55,0-.82l0-.42,0-.41-.09-.83-.16-.83c0-.14-.05-.28-.09-.42l-.11-.41c-.07-.28-.15-.56-.23-.83L48.8,33l-.15-.41-.18-.4c-.13-.26-.25-.53-.37-.8l-.44-.77-.21-.39-.25-.37-.49-.75a20.5,20.5,0,0,0-2.38-2.74c-.42-.44-.9-.81-1.37-1.22-.24-.2-.49-.38-.73-.57s-.5-.37-.76-.54l-.78-.52-.8-.48-.41-.23-.42-.22-.84-.44-.86-.39-.44-.2-.44-.17-.89-.35-.92-.31c-.3-.11-.61-.2-.92-.28s-.62-.19-.94-.27c-.63-.15-1.26-.31-1.91-.42A29.87,29.87,0,0,0,27,19.28a31.08,31.08,0,0,0-8.18.49,26.87,26.87,0,0,0-4.12,1.14,22.41,22.41,0,0,0-4,1.91l-.48.29-.47.32c-.31.22-.63.43-.93.68l-.45.36a5.12,5.12,0,0,0-.43.36l-.84.76a23.79,23.79,0,0,0-3,3.45,22.4,22.4,0,0,0-2.45,4.4A21.2,21.2,0,0,0,.16,39,24.31,24.31,0,0,0,2.24,51.84,28.36,28.36,0,0,0,6,58a29.73,29.73,0,0,0,2.52,2.77c.46.43.91.87,1.41,1.27l.74.62.77.58c.25.2.52.38.79.57s.53.37.8.54l1.62,1c.27.17.54.34.82.5l.84.47.85.47c.28.16.57.32.86.46l1.78.87c.59.28,1.21.52,1.83.79s1.24.49,1.88.72l1,.34c.31.12.64.2,1,.3l1,.28c.33.1.66.2,1,.27l2,.45,2,.35c.34.07.68.1,1,.14l1,.12a62.91,62.91,0,0,0,8.36.26c.7,0,1.4-.07,2.1-.1l1,0,1.05-.08,2.1-.17,2.11-.22c.7-.06,1.4-.14,2.1-.23L54.51,71l2.13-.32,1.06-.16,1.06-.2,2.12-.41c.71-.14,1.4-.32,2.11-.48,1.4-.31,2.79-.71,4.18-1.09.7-.18,1.38-.41,2.07-.62s1.38-.4,2.06-.64c1.36-.47,2.73-.91,4.07-1.42,2.7-1,5.34-2.05,8-3.14s5.2-2.24,7.75-3.4,5.06-2.31,7.55-3.45,5-2.26,7.39-3.36c4.88-2.22,9.56-4.43,14.14-6.31,2.28-.94,4.54-1.79,6.76-2.55s4.41-1.36,6.56-1.89A46.22,46.22,0,0,1,145.37,40.32Zm4.76.55.74.43.1.06-.85-.34-.69-.29Zm-16.92-.58c-2.19.48-4.45,1.05-6.72,1.76s-4.58,1.53-6.91,2.43c-4.66,1.8-9.41,3.92-14.31,6-2.45,1-5,2.11-7.46,3.21s-5,2.2-7.61,3.3-5.15,2.17-7.76,3.23-5.24,2-7.91,2.94c-1.33.48-2.67.89-4,1.32-.66.22-1.34.39-2,.59s-1.35.41-2,.57c-1.36.34-2.71.71-4.08,1-.68.14-1.36.3-2.05.43l-2,.36c-.34.06-.68.13-1,.17l-1,.14-2,.27-2.08.22c-.7.07-1.39.14-2.08.19l-.48,0,0,0a13.36,13.36,0,0,1,2.72-.53c1.11-.11,2.33-.43,3.7-.7a59.4,59.4,0,0,0,9.37-2.93c3.42-1.48,7-3.32,10.74-5.37,5.07-2.77,9.73-5.45,13.76-7.63,2-1.07,3.88-2.08,5.55-2.88l2.32-1.16,2-.9,2.07-.68c.75-.25,1.58-.49,2.47-.77,1.77-.55,3.77-1.18,6-1.84a113.27,113.27,0,0,1,15.1-3.64c2.05-.29,4.06-.54,6-.62,1-.08,1.93,0,2.87-.07.47,0,.93,0,1.39,0s.92,0,1.36.07a34.38,34.38,0,0,1,3.8.45A52.92,52.92,0,0,0,133.21,40.29Z"/><path class="cls-1" d="M110.26,35.34l-1.3.41c-.38.13-.77.23-1.15.35s-.78.23-1.17.32c-.78.2-1.55.41-2.34.57l-1.17.24-1.18.21-.58.1-.59.08-1.18.15-1.19.13L97.22,38l-.28,0h0a6.87,6.87,0,0,1,1.27-.26c-.44.05-.89.08-1.34.1a2.69,2.69,0,0,0-.35.21l-.52,0-1.18.08-.58,0-.59,0c-.39,0-.77,0-1.16,0A34.1,34.1,0,0,1,88,38.07L87.42,38l-.55-.08-1.08-.2-1.06-.26a4.44,4.44,0,0,1-.52-.15l-.52-.16L83.18,37l-.5-.19c-.34-.12-.67-.24-1-.39s-.65-.28-1-.44l-.94-.47-.45-.25L78.87,35l-.45-.26L78,34.45l-.87-.55-.4-.28c-.14-.09-.27-.19-.4-.29l-.38-.3-.37-.31c-.25-.21-.47-.43-.7-.65a14.9,14.9,0,0,1-1.25-1.4,15,15,0,0,1-1.84-3.07,14.68,14.68,0,0,1-.58-1.6c-.07-.26-.14-.53-.2-.79s-.11-.53-.14-.79a10.82,10.82,0,0,1,0-3,9.84,9.84,0,0,1,.68-2.59,11.29,11.29,0,0,1,1.16-2.07A12.68,12.68,0,0,1,74.1,15.1l.41-.37a1.06,1.06,0,0,1,.2-.17l.21-.17c.13-.11.28-.21.42-.31l.22-.15.23-.14a10.88,10.88,0,0,1,1.91-.93,14.25,14.25,0,0,1,2-.58,16.72,16.72,0,0,1,6.17-.07c.33,0,.66.13,1,.2.16,0,.32.08.48.12a4.19,4.19,0,0,1,.47.14,11.8,11.8,0,0,1,6,3.94l.24.35.13.17.1.18.22.35.18.37.09.18c0,.06,0,.12.08.19l.15.37.12.38.06.18c0,.07,0,.13.05.2l.09.38.05.38,0,.19,0,.19c0,.13,0,.25,0,.38v.56l0,.18,0,.37,0,.36,0,.18,0,.17c0,.12-.06.23-.08.35l-.11.34,0,.16c0,.06,0,.11-.07.16l-.12.32-.15.31a5.39,5.39,0,0,1-.32.58,6.73,6.73,0,0,1-1.62,1.83,6.21,6.21,0,0,1-1.88,1,6,6,0,0,1-1.78.34h-.78l-.22,0a2.93,2.93,0,0,0,1.6-2.94,2.87,2.87,0,0,0-3.14-2.61,2.94,2.94,0,0,0,.11,5.84l.2.09.61.22c.23.07.48.13.74.19l.42.06.22,0,.23,0A6.69,6.69,0,0,0,91.22,29a7.35,7.35,0,0,0,2.29-1A7.9,7.9,0,0,0,96,25.21c.07-.12.14-.23.2-.36s.11-.25.17-.37l.09-.2.07-.19.15-.41.12-.41.06-.22c0-.07,0-.14,0-.21L97,22.4l.06-.45,0-.22c0-.08,0-.16,0-.23l0-.47c0-.15,0-.31,0-.47v-.23l0-.24c0-.16,0-.32,0-.48l-.09-.47c0-.08,0-.17,0-.24l-.06-.24c0-.16-.09-.32-.14-.48s-.11-.31-.17-.46a2.34,2.34,0,0,0-.09-.24l-.1-.23-.21-.46-.25-.44-.12-.22-.14-.22-.29-.42A11.87,11.87,0,0,0,94,13.92c-.24-.25-.52-.47-.78-.7s-.28-.22-.43-.33l-.43-.31-.44-.3L91.41,12l-.23-.14-.24-.12-.48-.25-.5-.23-.25-.11-.25-.1-.51-.2-.52-.18-.53-.16-.54-.15c-.36-.08-.72-.18-1.09-.24A18.88,18.88,0,0,0,84,9.83a18.2,18.2,0,0,0-4.69.29,15.63,15.63,0,0,0-2.36.65,13.29,13.29,0,0,0-2.29,1.09L74.4,12l-.27.19a5.08,5.08,0,0,0-.53.38l-.26.21a2.76,2.76,0,0,0-.25.21l-.48.43a14.27,14.27,0,0,0-1.73,2A12.81,12.81,0,0,0,69.48,18a11.67,11.67,0,0,0-.83,3.19,14,14,0,0,0,1.19,7.36,17.26,17.26,0,0,0,1,1.8A18.14,18.14,0,0,0,72,32a16.65,16.65,0,0,0,1.45,1.59c.26.25.52.5.81.73l.42.35.44.34.45.32.46.31.93.58.47.28.48.27.49.27c.16.09.32.18.49.26l1,.5c.34.16.7.3,1,.45s.71.29,1.08.42l.55.19c.18.07.37.12.55.17l.57.17c.19,0,.37.11.57.15l1.15.26,1.17.2c.19,0,.39,0,.59.08l.59.07a36.4,36.4,0,0,0,4.79.15l1.2-.06.61,0L95,40l1.2-.09,1.21-.13c.4,0,.8-.08,1.2-.13l1.21-.15L101,39.3l.61-.09.61-.11,1.21-.24c.41-.08.81-.18,1.21-.27.81-.18,1.6-.41,2.4-.63.4-.1.79-.23,1.18-.35s.8-.24,1.18-.37c.78-.27,1.57-.52,2.34-.81l1.6-.61c0-.34.08-.68.11-1C112.4,35,111.33,35.19,110.26,35.34Z"/><path class="cls-1" d="M160.31,54.36c-3.88-5.57-11.49-9.54-18.62-10.6s-14.64,1.4-21,4.61c-7.42,3.76-14.11,8.58-21.16,12.88-6.68,4.07-14,7.85-22.2,8.16-.91,0-1.76.5-1.78,1.14-.42.55-.06,1.45.68,2,5.61,4,13.65,3.94,20.3,2.08,6.87-1.93,10.65-8,14-13.44.32,3.18,1.18,6.27,4,8.39,1.24.93,5.24,2.6,2.46-1.64-2.91-4.42,1.2-10.25,4.66-14,4.12-4.54,10.92-6.61,17.09-7.34a1.62,1.62,0,0,0,.47-.12c.61,0,1.22.07,1.84.15C152.91,48,160.26,56.84,161.8,66.86c1.19,7.81-.15,18.72-8.34,23.42-3.61,2.08-8.25,1.68-12,.53a11,11,0,0,1-1.61-.62c.11-.56-.15-.93-.79-1.52-1.73-1.59-2.18-4.58-1.53-7.18,3.18,1.3,7.58.55,10.79-.85,4.29-1.86,7.29-6.65,5.2-10a2.22,2.22,0,0,0-.34-.69,1.58,1.58,0,0,0-.88-1.05c-9.11-4.47-18.21,1.1-20.54,9.69-2.6,9.6,6,16,15.95,16,9.38,0,14.77-7.88,16.67-15.26C166.46,71.08,165.25,61.46,160.31,54.36Zm-11.18,20.8.1,0-.15.15Z"/><path class="cls-1" d="M197.17,41.58c2.14.53,4.34,1.14,6.56,1.89s4.48,1.61,6.76,2.55c4.57,1.88,9.26,4.09,14.13,6.31,2.45,1.1,4.9,2.21,7.39,3.36s5,2.3,7.56,3.45,5.13,2.29,7.75,3.4,5.27,2.17,8,3.14c1.34.51,2.71.95,4.07,1.42.68.24,1.37.43,2.06.64s1.37.44,2.07.62c1.39.38,2.77.78,4.18,1.09.7.16,1.4.34,2.11.48l2.12.41,1.06.2,1.06.16,2.13.32,2.11.25c.7.09,1.4.17,2.1.23l2.1.22,2.11.17,1.05.08,1.05,0c.7,0,1.4.09,2.1.1a62.91,62.91,0,0,0,8.36-.26l1-.12c.35,0,.69-.07,1-.14l2-.35,2-.45c.34-.07.67-.17,1-.27l1-.28c.32-.1.65-.18,1-.3l1-.34c.63-.23,1.27-.45,1.88-.72s1.23-.51,1.83-.79l1.77-.87c.3-.14.58-.3.87-.46s.56-.32.85-.47l.84-.47c.28-.16.55-.33.82-.5l1.62-1,.8-.54c.27-.19.54-.37.79-.57l.77-.58.74-.62c.49-.4.95-.84,1.41-1.27A31.19,31.19,0,0,0,324.66,58a28.36,28.36,0,0,0,3.76-6.14A24.31,24.31,0,0,0,330.5,39a21.2,21.2,0,0,0-1.45-5.56A22.4,22.4,0,0,0,326.6,29a23.85,23.85,0,0,0-3-3.45l-.83-.76a5.12,5.12,0,0,0-.43-.36l-.46-.36c-.29-.25-.61-.46-.92-.68l-.47-.32-.48-.29a22.41,22.41,0,0,0-4-1.91,27.19,27.19,0,0,0-4.12-1.14,31.15,31.15,0,0,0-8.19-.49,30.32,30.32,0,0,0-3.94.51c-.64.11-1.27.27-1.91.42-.31.08-.62.18-.93.27s-.62.17-.93.28l-.91.31-.89.35-.44.17-.44.2-.86.39-.85.44-.41.22-.41.23-.81.48-.77.52c-.26.17-.51.36-.76.54s-.49.37-.73.57c-.47.41-.95.78-1.38,1.22A20.42,20.42,0,0,0,284,29.14c-.17.25-.33.5-.49.75l-.25.37-.22.39-.43.77c-.12.27-.25.54-.37.8l-.18.4c-.06.13-.1.27-.15.41l-.3.82c-.08.27-.16.55-.23.83l-.12.41c0,.14,0,.28-.08.42s-.11.55-.16.83l-.09.83-.05.41V38c0,.27,0,.55,0,.82s0,.54,0,.81,0,.26,0,.4l.05.39c0,.27.06.53.1.79s.1.51.16.76.05.25.08.38l.1.37.21.72c.09.24.17.47.26.7l.13.35.15.33q.15.34.3.66c.11.22.23.42.35.63a13.06,13.06,0,0,0,.73,1.19,13.73,13.73,0,0,0,3.63,3.59,12.36,12.36,0,0,0,4,1.79,11.68,11.68,0,0,0,3.62.32c.14,0,.27,0,.4,0l.39,0,.73-.11c.47-.11.9-.21,1.3-.33l1.07-.38.34-.17a5.1,5.1,0,1,0-5.29-5.63,5.14,5.14,0,0,0,2.79,5.13l-.37,0h-1l-.35,0a11.12,11.12,0,0,1-6.38-2.37,12,12,0,0,1-2.84-3.2c-.18-.33-.39-.66-.55-1-.09-.17-.18-.35-.26-.53s-.14-.37-.22-.56-.07-.18-.11-.28l-.09-.29c-.06-.19-.12-.39-.19-.59l-.14-.6-.07-.31c0-.1,0-.2-.05-.31s-.07-.41-.1-.62l-.05-.64,0-.33V39.5c0-.22,0-.44,0-.66s0-.44.05-.66l0-.33.05-.33c0-.22.07-.44.1-.67l.16-.66c0-.11.05-.22.08-.33l.1-.33.21-.66.27-.65c0-.11.08-.22.13-.33l.16-.32c.11-.21.22-.42.32-.64l.38-.61.19-.32.21-.29c.14-.21.28-.41.43-.61A20.62,20.62,0,0,1,297,24.22c.26-.09.54-.16.82-.24s.55-.15.83-.21c.57-.12,1.13-.26,1.71-.35a29.15,29.15,0,0,1,3.52-.4,28.72,28.72,0,0,1,7.25.52,24.78,24.78,0,0,1,3.55,1A17.94,17.94,0,0,1,318,26.18l.39.24.38.26c.25.18.51.35.75.55l.36.28c.12.1.24.2.35.31l.71.65a20.55,20.55,0,0,1,2.53,2.9,19,19,0,0,1,2,3.6,17,17,0,0,1,1.2,4.52,19.24,19.24,0,0,1-.07,5.24c-.05.46-.16.91-.25,1.37s-.23.93-.35,1.39a23.31,23.31,0,0,1-1,2.78,23.61,23.61,0,0,1-1.4,2.74,25.81,25.81,0,0,1-4,5.07c-.4.38-.8.77-1.23,1.13l-.64.55-.67.52c-.22.18-.45.34-.69.5l-.7.5-1.52,1c-.26.16-.51.33-.77.48l-.78.45-.79.45c-.27.15-.53.31-.81.44l-1.63.83c-.56.27-1.12.5-1.69.76s-1.14.47-1.73.68l-.87.33c-.29.11-.6.19-.89.29l-.9.27c-.31.1-.61.19-.91.26l-1.85.45-1.89.35c-.32.07-.64.1-1,.14l-1,.13a59.44,59.44,0,0,1-7.94.36c-.67,0-1.35,0-2-.06l-1,0-1-.07-2.06-.13-.9-.08a4.42,4.42,0,0,0-.62-.36,12.26,12.26,0,0,0-2.73-.85c-1.06-.23-2.24-.66-3.56-1a72.27,72.27,0,0,1-9-3.51c-3.24-1.6-6.77-3.53-10.48-5.57-5-2.76-9.85-5.26-14-7.2-2.11-.93-4-1.8-5.79-2.45l-2.43-.94-2.08-.68-2-.91-2.4-1c-1.72-.7-3.67-1.5-5.83-2.3a77.29,77.29,0,0,0-15.26-4.22,46.35,46.35,0,0,0-6.23-.56c-1,0-2,0-3,0-.48,0-1,.07-1.44.1s-.94.05-1.41.13a38.67,38.67,0,0,0-8.67,2.15c-.52,0-1,.09-1.54.15,1.07-.48,2.32-1,3.76-1.5l1-.34,1-.32c.68-.24,1.41-.42,2.16-.64,1.51-.4,3.13-.8,4.84-1.11a49.86,49.86,0,0,1,5.41-.7c.94-.06,1.88-.08,2.85-.07l1.47.05c.49,0,1,.07,1.49.1a85.07,85.07,0,0,1,14.75,2.72c4.27,1.16,7.78,2.3,10.19,3.11,1.14.55,2.57,1.19,4.16,2s3.42,1.74,5.41,2.73,4.06,2.25,6.31,3.45l7,4c1.76,1,3.49,2.06,5.16,3s3.16,2,4.62,3,2.84,2,4.17,2.89,2.59,1.69,3.77,2.37a27.42,27.42,0,0,0,5.89,2.57l1,.25.72.13.59.1-.57-.19-.7-.22-.92-.37a30.25,30.25,0,0,1-5.49-3.11c-1.09-.78-2.27-1.65-3.51-2.63l-4-3.15a54.55,54.55,0,0,0-4.63-3.29c-1.65-1-3.38-2.07-5.15-3.12-2.42-1.41-4.82-2.69-7.09-3.91s-4.5-2.19-6.53-3.14-4-1.64-5.64-2.32-3.16-1.16-4.36-1.58a102.45,102.45,0,0,0-10-4,62.92,62.92,0,0,0-15-3.3c-.52,0-1-.08-1.55-.1l-1.54,0a27.29,27.29,0,0,0-3,.14,40.94,40.94,0,0,0-5.59.95c-1.75.41-3.38.93-4.89,1.44-.75.28-1.48.54-2.16.83l-1,.41-1,.44a38.79,38.79,0,0,0-4.84,2.62,24,24,0,0,0-2.47.56A13.55,13.55,0,0,0,175.63,42a3.3,3.3,0,0,1,.26.57.93.93,0,0,1,.05.1,13.05,13.05,0,0,1,3.73-1.57l.39-.08-.32.25-.28.22-1.55.61-1.91.73,0,0,2-.47,2.73-.75,3.59-1,1-.26A46.22,46.22,0,0,1,197.17,41.58Zm-15.94-.85-.69.29-.85.34.09-.06.75-.43Zm8.68-1.43a33.81,33.81,0,0,1,3.8-.45c.44-.06.9-.05,1.36-.07s.92,0,1.39,0c.94,0,1.89,0,2.87.07,1.95.08,4,.33,6,.62a113.27,113.27,0,0,1,15.1,3.64c2.19.66,4.19,1.29,6,1.84.88.28,1.72.52,2.47.77l2.07.68,2,.9,2.32,1.16c1.67.8,3.51,1.81,5.54,2.88,4,2.18,8.7,4.86,13.76,7.63,3.72,2.05,7.33,3.89,10.75,5.37a59.08,59.08,0,0,0,9.37,2.93c1.36.27,2.59.59,3.69.7a13.61,13.61,0,0,1,2.73.53l.05,0-.49,0c-.69,0-1.38-.12-2.07-.19L276.49,68l-2.06-.27-1-.14c-.34,0-.68-.11-1-.17l-2.06-.36c-.68-.13-1.36-.29-2-.43-1.37-.28-2.73-.65-4.09-1-.68-.16-1.35-.38-2-.57s-1.36-.37-2-.59c-1.34-.43-2.68-.84-4-1.32-2.67-.9-5.3-1.92-7.92-2.94S243,58.12,240.46,57s-5.1-2.21-7.61-3.3-5-2.17-7.46-3.21c-4.9-2.11-9.65-4.23-14.31-6-2.33-.9-4.64-1.71-6.91-2.43s-4.53-1.28-6.73-1.76A52.61,52.61,0,0,0,189.91,39.3Z"/><path class="cls-1" d="M220.4,35.34l1.29.41c.39.13.78.23,1.16.35s.77.23,1.16.32c.78.2,1.56.41,2.34.57.39.08.78.17,1.18.24l1.17.21.59.1.59.08,1.18.15,1.19.13,1.19.11.28,0h0a7.06,7.06,0,0,0-1.27-.26c.44.05.89.08,1.34.1l.35.21.52,0,1.17.08.59,0,.58,0c.39,0,.78,0,1.17,0a34,34,0,0,0,4.54-.21l.56-.07.55-.08,1.08-.2,1.06-.26a4.44,4.44,0,0,0,.52-.15l.52-.16.51-.16.5-.19c.33-.12.67-.24,1-.39s.65-.28,1-.44l.93-.47.46-.25.46-.26.45-.26.44-.28c.29-.18.58-.36.86-.55l.41-.28c.13-.09.27-.19.39-.29l.39-.3.37-.31c.24-.21.47-.43.7-.65a14.9,14.9,0,0,0,1.25-1.4,16.13,16.13,0,0,0,1-1.51,14.45,14.45,0,0,0,.81-1.56c.23-.53.41-1.07.58-1.6.06-.26.14-.53.2-.79s.11-.53.14-.79a11.22,11.22,0,0,0,0-3,9.85,9.85,0,0,0-.69-2.59A10.71,10.71,0,0,0,258,16.76a12.68,12.68,0,0,0-1.45-1.66l-.41-.37a1.51,1.51,0,0,0-.2-.17l-.21-.17a4.73,4.73,0,0,0-.43-.31l-.21-.15-.23-.14a10.88,10.88,0,0,0-1.91-.93,14.25,14.25,0,0,0-2-.58,16.69,16.69,0,0,0-6.17-.07c-.33,0-.66.13-1,.2l-.48.12a3.64,3.64,0,0,0-.47.14,11.76,11.76,0,0,0-6,3.94l-.25.35-.12.17-.1.18-.22.35-.18.37-.1.18c0,.06,0,.12-.07.19l-.15.37c0,.12-.08.25-.13.38l-.06.18c0,.07,0,.13,0,.2l-.09.38-.06.38,0,.19v.19l0,.38c0,.12,0,.25,0,.37v.37l0,.37.06.36,0,.18,0,.17.08.35.11.34,0,.16.06.16c.05.11.09.22.13.32l.15.31a5.39,5.39,0,0,0,.32.58,6.73,6.73,0,0,0,1.62,1.83,6.29,6.29,0,0,0,1.87,1,6.06,6.06,0,0,0,1.79.34h.78l.21,0a2.94,2.94,0,0,1-1.59-2.94,2.87,2.87,0,0,1,3.14-2.61,2.94,2.94,0,0,1-.11,5.84l-.2.09-.61.22c-.23.07-.48.13-.74.19l-.42.06-.23,0-.22,0a6.67,6.67,0,0,1-2.08-.18,7.25,7.25,0,0,1-2.29-1,7.67,7.67,0,0,1-2.08-2.06,5.92,5.92,0,0,1-.42-.68c-.07-.12-.14-.23-.2-.36l-.17-.37-.09-.2-.07-.19-.15-.41-.12-.41-.06-.22c0-.07,0-.14,0-.21l-.09-.44-.06-.45,0-.22c0-.08,0-.16,0-.23s0-.31,0-.47,0-.31,0-.47v-.23l0-.24.06-.48.09-.47a1.69,1.69,0,0,1,.05-.24l.06-.24c0-.16.09-.32.14-.48s.11-.31.17-.46a2.25,2.25,0,0,1,.08-.24l.11-.23.21-.46.25-.44.12-.22.14-.22.29-.42a10.56,10.56,0,0,1,1.36-1.57c.24-.25.52-.47.78-.7l.42-.33c.14-.11.29-.21.44-.31l.44-.3.46-.27.24-.14.24-.12.48-.25.49-.23.25-.11.26-.1.51-.2.52-.18.53-.16.54-.15c.36-.08.72-.18,1.09-.24a18.61,18.61,0,0,1,2.26-.3,18.2,18.2,0,0,1,4.69.29,15.63,15.63,0,0,1,2.36.65A13.29,13.29,0,0,1,256,11.86l.27.17.27.19a6.42,6.42,0,0,1,.53.38l.26.21.25.21.48.43a14.27,14.27,0,0,1,1.73,2,13.35,13.35,0,0,1,1.4,2.52,12,12,0,0,1,.83,3.19,14,14,0,0,1-1.19,7.36,17.26,17.26,0,0,1-.95,1.8A16.56,16.56,0,0,1,258.66,32a15.32,15.32,0,0,1-1.44,1.59c-.26.25-.52.5-.81.73l-.42.35-.44.34-.45.32-.47.31-.92.58-.47.28-.49.27-.48.27-.5.26-1,.5-1,.45c-.35.16-.72.29-1.08.42l-.55.19a5.18,5.18,0,0,1-.56.17l-.56.17c-.19,0-.38.11-.57.15l-1.15.26-1.17.2c-.2,0-.39,0-.59.08l-.59.07a36.46,36.46,0,0,1-4.79.15l-1.21-.06-.6,0-.6-.05-1.21-.09-1.2-.13c-.4,0-.81-.08-1.21-.13l-1.2-.15-1.22-.18-.61-.09-.61-.11-1.22-.24-1.2-.27c-.81-.18-1.6-.41-2.4-.63-.4-.1-.79-.23-1.19-.35l-1.18-.37c-.78-.27-1.56-.52-2.33-.81l-1.6-.61-.12-1C218.26,35,219.32,35.19,220.4,35.34Z"/><path class="cls-1" d="M166.32,79.31c1.89,7.38,7.28,15.26,16.67,15.26,9.93,0,18.55-6.43,15.95-16C196.6,70,187.51,64.38,178.4,68.85a1.58,1.58,0,0,0-.88,1.05,2,2,0,0,0-.34.69c-2.09,3.4.91,8.19,5.19,10,3.21,1.4,7.62,2.15,10.8.85.65,2.6.2,5.59-1.54,7.18-.63.59-.89,1-.78,1.52a11.43,11.43,0,0,1-1.61.62c-3.79,1.15-8.43,1.55-12-.53-8.2-4.7-9.53-15.61-8.34-23.42,1.53-10,8.89-18.89,20.65-20.31.61-.08,1.23-.12,1.83-.15a1.8,1.8,0,0,0,.47.12c6.17.73,13,2.8,17.1,7.34,3.46,3.8,7.57,9.63,4.66,14-2.78,4.24,1.21,2.57,2.45,1.64,2.85-2.12,3.71-5.21,4-8.39,3.39,5.45,7.17,11.51,14,13.44,6.64,1.86,14.68,1.87,20.29-2.08.75-.52,1.11-1.42.68-2,0-.64-.86-1.1-1.78-1.14-8.16-.31-15.52-4.09-22.19-8.16C224,57,217.34,52.13,209.92,48.37c-6.32-3.21-13.69-5.7-21-4.61s-14.74,5-18.61,10.6C165.4,61.46,164.2,71.08,166.32,79.31Zm15.26-4a1.06,1.06,0,0,1-.15-.15l.1,0Z"/></g></g></svg>