<svg style="position: absolute;" width="48" height="48" viewBox="0 0 48 48" fill="none" xmlns="http://www.w3.org/2000/svg" foundation="[object Object]" class="InnerIconstyled__Icon-ch-front__sc-197h5bb-0 eqXyZR LauncherIconstyled__Bubble-ch-front__sc-mnslcf-1 dMLQd" color="#86e3da" defaultopacity="1" hoveredopacity="1" margintop="0" marginright="0" marginbottom="0" marginleft="0" withtheme="false"><g filter="url(#filter0_f)"><path fill="white" fill-opacity="0.15" d="M19.8462 20.1538C19.8462 22.448 19.2404 24.3077 17.4231 24.3077C15.6058 24.3077 15 22.448 15 20.1538C15 17.8597 15.6058 16 17.4231 16C19.2404 16 19.8462 17.8597 19.8462 20.1538Z"></path><path fill="white" fill-opacity="0.15" d="M24.0001 29.8462C21.201 29.8462 19.7599 27.5828 19.3109 25.9843C19.1615 25.4526 19.6016 25.0001 20.1539 25.0001H27.8462C28.3985 25.0001 28.8386 25.4526 28.6893 25.9843C28.2402 27.5828 26.7992 29.8462 24.0001 29.8462Z"></path><path fill="white" fill-opacity="0.15" d="M30.5768 24.3077C32.3941 24.3077 32.9999 22.448 32.9999 20.1538C32.9999 17.8597 32.3941 16 30.5768 16C28.7595 16 28.1537 17.8597 28.1537 20.1538C28.1537 22.448 28.7595 24.3077 30.5768 24.3077Z"></path></g><path fill="#86e3da" d="M19.8462 19.1538C19.8462 21.448 19.2404 23.3077 17.4231 23.3077C15.6058 23.3077 15 21.448 15 19.1538C15 16.8597 15.6058 15 17.4231 15C19.2404 15 19.8462 16.8597 19.8462 19.1538Z"></path><path fill="#17113F" fill-opacity="0.7" d="M19.8462 19.1538C19.8462 21.448 19.2404 23.3077 17.4231 23.3077C15.6058 23.3077 15 21.448 15 19.1538C15 16.8597 15.6058 15 17.4231 15C19.2404 15 19.8462 16.8597 19.8462 19.1538Z"></path><path fill="#86e3da" d="M24.0001 28.8462C21.201 28.8462 19.7599 26.5828 19.3109 24.9843C19.1615 24.4526 19.6016 24.0001 20.1539 24.0001H27.8462C28.3985 24.0001 28.8386 24.4526 28.6893 24.9843C28.2402 26.5828 26.7992 28.8462 24.0001 28.8462Z"></path><path fill="#17113F" fill-opacity="0.7" d="M24.0001 28.8462C21.201 28.8462 19.7599 26.5828 19.3109 24.9843C19.1615 24.4526 19.6016 24.0001 20.1539 24.0001H27.8462C28.3985 24.0001 28.8386 24.4526 28.6893 24.9843C28.2402 26.5828 26.7992 28.8462 24.0001 28.8462Z"></path><path fill="#86e3da" d="M30.5768 23.3077C32.3941 23.3077 32.9999 21.448 32.9999 19.1538C32.9999 16.8597 32.3941 15 30.5768 15C28.7595 15 28.1537 16.8597 28.1537 19.1538C28.1537 21.448 28.7595 23.3077 30.5768 23.3077Z"></path><path fill="#17113F" fill-opacity="0.7" d="M30.5768 23.3077C32.3941 23.3077 32.9999 21.448 32.9999 19.1538C32.9999 16.8597 32.3941 15 30.5768 15C28.7595 15 28.1537 16.8597 28.1537 19.1538C28.1537 21.448 28.7595 23.3077 30.5768 23.3077Z"></path><defs><filter id="filter0_f" x="13" y="14" width="21.9999" height="17.8462" filterUnits="userSpaceOnUse" color-interpolation-filters="sRGB"><feFlood flood-opacity="0" result="BackgroundImageFix"></feFlood><feBlend mode="normal" in="SourceGraphic" in2="BackgroundImageFix" result="shape"></feBlend><feGaussianBlur stdDeviation="1" result="effect1_foregroundBlur"></feGaussianBlur></filter></defs></svg>