<svg id="blog" xmlns="http://www.w3.org/2000/svg" width="28.712" height="26.631" viewBox="0 0 28.712 26.631">
  <path id="패스_12" data-name="패스 12" d="M185.633,167.822a.989.989,0,1,0,.989.989A.989.989,0,0,0,185.633,167.822Z" transform="translate(-179.367 -157.995)" fill="gray"/>
  <circle id="타원_26" data-name="타원 26" cx="1.065" cy="1.065" r="1.065" transform="translate(14.966 9.723)" fill="gray"/>
  <path id="패스_13" data-name="패스 13" d="M182.253,117.055h-21.03a3.841,3.841,0,0,0-3.841,3.841v12.481a3.841,3.841,0,0,0,3.841,3.841h7.428l2.526,5.952s.174.516.6.516h0c.421,0,.595-.516.595-.516l2.527-5.952h7.359a3.841,3.841,0,0,0,3.841-3.841V120.9A3.841,3.841,0,0,0,182.253,117.055ZM166.4,128.088a2.378,2.378,0,0,1-2.371,2.347,1.972,1.972,0,0,1-1.428-.6v.411h-1.718v-7.085c-.007,0-.008,0,0,0v0c.106.017,1.718,0,1.718,0v2.71c.4-.689,1.573-.677,1.573-.677C166.72,125.422,166.4,128.088,166.4,128.088Zm3.024-2.686v4.851h-1.682v-4.8c0-.653-.81-.835-.81-.835v-1.694A2.325,2.325,0,0,1,169.427,125.4Zm3.986,5.036a2.6,2.6,0,1,1,2.819-2.595A2.714,2.714,0,0,1,173.413,130.438Zm9.212,0a2.4,2.4,0,0,1-2.48,2.465h-.762v-1.6h.46s1.052.1,1.04-1.524c0,0-.206.656-1.682.656a2.217,2.217,0,0,1-2.093-2.193v-.774a2.391,2.391,0,0,1,2.347-2.286,1.712,1.712,0,0,1,1.464.653v-.52h1.706Z" transform="translate(-157.382 -117.055)" fill="gray"/>
  <circle id="타원_27" data-name="타원 27" cx="1.04" cy="1.04" r="1.04" transform="translate(21.529 9.748)" fill="gray"/>
</svg>
