<svg xmlns="http://www.w3.org/2000/svg" width="55" height="58.168" viewBox="0 0 55 58.168">
  <g id="그룹_2" data-name="그룹 2" transform="translate(-668.979 -44.381)">
    <path id="패스_4" data-name="패스 4" d="M697.04,46.232c-14.531,0-26.311,10.9-26.311,24.337,0,9.927,4.159,14.665,9.853,18.985l.026.013v11.648a.669.669,0,0,0,1.068.537l9.977-7.41.215.092a28.541,28.541,0,0,0,5.171.472c14.532,0,26.311-10.9,26.311-24.337S711.572,46.232,697.04,46.232" transform="translate(-0.561 -0.593)" fill="#fd0"/>
    <path id="패스_5" data-name="패스 5" d="M696.479,44.381c-15.189,0-27.5,11.388-27.5,25.437,0,10.375,4.346,15.328,10.3,19.843l.028.013v12.175a.7.7,0,0,0,1.117.561l10.427-7.745.226.1a29.865,29.865,0,0,0,5.4.493c15.189,0,27.5-11.389,27.5-25.437s-12.311-25.437-27.5-25.437m-9.218,31.882a5.746,5.746,0,0,0,5.7-4.106h3.986a9.541,9.541,0,0,1-9.682,7.942,10.31,10.31,0,1,1,0-20.62,9.552,9.552,0,0,1,9.711,8.089H693a5.671,5.671,0,0,0-5.735-4.307,6.225,6.225,0,0,0-6.471,6.529,6.384,6.384,0,0,0,6.471,6.474m26.272,3.44h-3.654V71.461a2.624,2.624,0,0,0-2.8-2.917c-1.9,0-3.115,1.16-3.115,3.511V79.7H700.3V59.543h3.655v7.583a4.685,4.685,0,0,1,4.22-1.981A5.012,5.012,0,0,1,712,66.7a5.879,5.879,0,0,1,1.531,4.305Z" transform="translate(0 0)" fill="#000100"/>
  </g>
</svg>
