<svg xmlns="http://www.w3.org/2000/svg" viewBox="0 0 79.11 13.77"><defs><style>.cls-1{fill:#fff;}</style></defs><g id="레이어_2" data-name="레이어 2"><g id="Layer_1" data-name="Layer 1"><path class="cls-1" d="M3.46,0a6.93,6.93,0,0,1,5,1.64,6.5,6.5,0,0,1,1.71,4.89c0,2.2-.57,3.82-1.73,4.85a7.6,7.6,0,0,1-5.15,1.54,15.3,15.3,0,0,1-1.68-.07Q.8,12.78,0,12.67L0,.25.66.17,1.53.09,2.5,0ZM3.1,10.19a1.14,1.14,0,0,0,.27,0h.34A4.75,4.75,0,0,0,5,10a2.38,2.38,0,0,0,1-.58A2.92,2.92,0,0,0,6.7,8.33,5.57,5.57,0,0,0,7,6.5a5.63,5.63,0,0,0-.26-1.83A3.2,3.2,0,0,0,6,3.52a2.53,2.53,0,0,0-1-.61,4.06,4.06,0,0,0-1.2-.18H3.08Z"/><path class="cls-1" d="M14.38,9.13a1.61,1.61,0,0,0,.67,1,2.37,2.37,0,0,0,1.27.29,6.13,6.13,0,0,0,1.13-.12,7.19,7.19,0,0,0,1.23-.37A5.52,5.52,0,0,1,19.11,11a5.11,5.11,0,0,1,.2,1.3,8.88,8.88,0,0,1-3.16.58A6,6,0,0,1,14,12.56a3.84,3.84,0,0,1-1.47-1,3.94,3.94,0,0,1-.83-1.47,6.47,6.47,0,0,1-.28-1.86,6.24,6.24,0,0,1,.28-1.86,4.15,4.15,0,0,1,.83-1.52,4,4,0,0,1,1.39-1,4.74,4.74,0,0,1,1.95-.38,4.07,4.07,0,0,1,1.64.31,3.63,3.63,0,0,1,1.23.86A3.79,3.79,0,0,1,19.52,6a5.1,5.1,0,0,1,.27,1.68,7.06,7.06,0,0,1,0,.84c0,.25-.06.46-.08.62ZM15.77,5.7a1.44,1.44,0,0,0-1,.35,1.62,1.62,0,0,0-.47,1.08h2.79a1.71,1.71,0,0,0-.38-1A1.2,1.2,0,0,0,15.77,5.7Z"/><path class="cls-1" d="M25.55,7a6.23,6.23,0,0,1,.95.34,2.52,2.52,0,0,1,.73.51,2.4,2.4,0,0,1,.48.77,3.16,3.16,0,0,1,.17,1.09A2.91,2.91,0,0,1,27.61,11a2.67,2.67,0,0,1-.79,1,4,4,0,0,1-1.31.66,5.67,5.67,0,0,1-1.78.25,9.38,9.38,0,0,1-1.55-.12,9,9,0,0,1-1.51-.41,6.81,6.81,0,0,1,.64-2.4,5.25,5.25,0,0,0,1.16.38,5.69,5.69,0,0,0,1.22.13,3.31,3.31,0,0,0,.44,0,1.59,1.59,0,0,0,.4-.07,1,1,0,0,0,.28-.17.35.35,0,0,0,.12-.28.37.37,0,0,0-.23-.34,4.36,4.36,0,0,0-.52-.2L23,9.06a3.34,3.34,0,0,1-1.53-.88,2.32,2.32,0,0,1-.61-1.7,2.71,2.71,0,0,1,1.06-2.19,3.6,3.6,0,0,1,1.19-.6,5.17,5.17,0,0,1,1.52-.21,7.6,7.6,0,0,1,1.44.14A10.66,10.66,0,0,1,27.61,4a5.67,5.67,0,0,1-.22,1.2A6.88,6.88,0,0,1,27,6.33,6.93,6.93,0,0,0,25.82,6a5.47,5.47,0,0,0-1.21-.15c-.55,0-.82.15-.82.45a.32.32,0,0,0,.19.3,3.12,3.12,0,0,0,.44.17Z"/><path class="cls-1" d="M32.34,12.65c-.3,0-.57.08-.82.1a5.29,5.29,0,0,1-.66,0l-.66,0c-.24,0-.51-.06-.8-.11l0-9a5.21,5.21,0,0,1,.76-.12,6,6,0,0,1,.72,0l.72,0c.25,0,.5.07.74.12Z"/><path class="cls-1" d="M38.48,12.87a5.57,5.57,0,0,1-2.13-.37,3.84,3.84,0,0,1-1.44-1A4,4,0,0,1,34.1,10a7,7,0,0,1-.26-1.86,5.18,5.18,0,0,1,.31-1.81,4.07,4.07,0,0,1,.9-1.48,4.34,4.34,0,0,1,1.48-1,5.69,5.69,0,0,1,2.06-.37,7.54,7.54,0,0,1,1.34.14,8.17,8.17,0,0,1,1.6.49,4.58,4.58,0,0,1-.07.55c0,.18-.08.35-.13.53s-.12.38-.19.58l-.27.68a7.27,7.27,0,0,0-1.1-.35A4.3,4.3,0,0,0,38.9,6a2.55,2.55,0,0,0-1,.17,1.75,1.75,0,0,0-.64.47,1.9,1.9,0,0,0-.36.69,3.1,3.1,0,0,0-.11.81,2.43,2.43,0,0,0,.51,1.71,1.89,1.89,0,0,0,1.48.55h.31V7.8a6.81,6.81,0,0,1,.78-.12c.23,0,.44,0,.65,0A7.43,7.43,0,0,1,42,7.8v4.42q-.5.18-1.41.42A9.23,9.23,0,0,1,38.48,12.87Z"/><path class="cls-1" d="M47.25,3.47a9.87,9.87,0,0,1,1.53.13,3.48,3.48,0,0,1,1.38.55,3,3,0,0,1,1,1.2,4.51,4.51,0,0,1,.4,2.07v5.2c-.3.05-.58.09-.82.11l-.64,0-.66,0a5.31,5.31,0,0,1-.82-.11V7.73a2,2,0,0,0-.35-1.32A1.36,1.36,0,0,0,47.22,6l-.41,0a.78.78,0,0,0-.27.07v6.51c-.3,0-.57.09-.82.11l-.64,0-.66,0a5.48,5.48,0,0,1-.82-.11V4.09a13.3,13.3,0,0,1,1.47-.41A10.11,10.11,0,0,1,47.25,3.47Z"/><path class="cls-1" d="M57.11,3.89A6.1,6.1,0,0,1,57,2.57a5.44,5.44,0,0,1,.16-1.3l7.36,0,.31.49L62.31,6a3.15,3.15,0,0,1,2,1.08A3.49,3.49,0,0,1,65,9.31a4.46,4.46,0,0,1-.39,1.91,3.85,3.85,0,0,1-1.08,1.4,4.7,4.7,0,0,1-1.61.86,6.86,6.86,0,0,1-2,.29q-.48,0-.9,0a5.7,5.7,0,0,1-.83-.1c-.27-.05-.54-.11-.82-.19a6.46,6.46,0,0,1-.87-.3,4.73,4.73,0,0,1,.25-1.31,6.08,6.08,0,0,1,.51-1.18c.44.15.86.27,1.27.37a5.28,5.28,0,0,0,1.28.15,2.79,2.79,0,0,0,1.63-.42A1.45,1.45,0,0,0,62,9.49a1.25,1.25,0,0,0-.16-.65,1.32,1.32,0,0,0-.42-.46,1.88,1.88,0,0,0-.59-.27,2.28,2.28,0,0,0-.7-.1l-.58,0a4.41,4.41,0,0,0-.7.13l-.38-.57,2.13-3.71Z"/><path class="cls-1" d="M67.85,9.49a6,6,0,0,1,.72,0l.76.08c0,.27.08.52.11.77s0,.48,0,.71,0,.47,0,.71-.06.5-.1.77c-.27,0-.53.08-.77.11l-.71,0-.72,0c-.24,0-.49-.06-.76-.11,0-.26-.08-.52-.11-.76s0-.48,0-.71,0-.47,0-.72.06-.49.11-.76l.76-.09C67.38,9.51,67.62,9.49,67.85,9.49Z"/><path class="cls-1" d="M71.25,3.87a6.1,6.1,0,0,1-.16-1.32,5.58,5.58,0,0,1,.16-1.31h7.36l.31.49L76.46,6a3.12,3.12,0,0,1,2,1.09,3.42,3.42,0,0,1,.7,2.21,4.51,4.51,0,0,1-.39,1.92,4,4,0,0,1-1.08,1.4,4.78,4.78,0,0,1-1.61.86,7.14,7.14,0,0,1-2,.29c-.33,0-.63,0-.91,0a7.35,7.35,0,0,1-.82-.1c-.28,0-.55-.12-.82-.19a7.8,7.8,0,0,1-.88-.31,4.74,4.74,0,0,1,.25-1.3,5.82,5.82,0,0,1,.51-1.18c.44.15.86.27,1.27.37a5.37,5.37,0,0,0,1.29.14,2.78,2.78,0,0,0,1.62-.42,1.44,1.44,0,0,0,.6-1.27A1.22,1.22,0,0,0,76,8.82a1.24,1.24,0,0,0-.42-.46A1.89,1.89,0,0,0,75,8.08,2.61,2.61,0,0,0,74.29,8L73.7,8a4.79,4.79,0,0,0-.7.14l-.38-.58,2.13-3.71Z"/></g></g></svg>