<svg xmlns="http://www.w3.org/2000/svg" width="25" height="20" viewBox="0 0 25 20"><g transform="translate(-7584 -1496)"><path d="M5.86-11.18c-.18.02-.34.02-.52.04a1.457,1.457,0,0,1,.1-.6,11.259,11.259,0,0,1,2.68-3.38.865.865,0,0,0,.3-.56,1.162,1.162,0,0,0-1.2-1.3,3.077,3.077,0,0,0-2.12.6c-.72.62-1.66,1.04-2,2.04a8.7,8.7,0,0,1-.5,1.18A12.934,12.934,0,0,0,1.04-6.78a2.944,2.944,0,0,1,0,.42C.82-5.04,1.66-4,1.98-2.84c.04.16.22.26.32.4A7.683,7.683,0,0,0,5.34-.1,3.945,3.945,0,0,0,6.3.02a5.229,5.229,0,0,0,3.32-1.4A6.3,6.3,0,0,0,11.56-5.5a4.652,4.652,0,0,0-1.14-3.88,4.624,4.624,0,0,0-3.66-1.88A7.493,7.493,0,0,0,5.86-11.18ZM5.68-3.5a9.293,9.293,0,0,1-.74-3.82c-.02-.78.64-.96,1.28-.96,1.32,0,1.46,1.2,1.46,2.22.02,0,.04.02.06.02a6.646,6.646,0,0,1-.36,1.66c-.14.32-.86,1.26-1.26,1.26C5.96-3.12,5.8-3.24,5.68-3.5Zm8.1-11.9a9.019,9.019,0,0,0-.14,1.46c-.02,1.82-.02,3.62-.02,5.44h.04c.04,1.92.06,3.86.12,5.78a2.125,2.125,0,0,0,2.34,2.3,7.106,7.106,0,0,0,.92.06,8.89,8.89,0,0,0,5.12-1.62A2.874,2.874,0,0,0,23.4-3.44c.2-.68.36-1.38.52-2.06a2.473,2.473,0,0,0-1.78-2.84c-.76-.24-.8-.32-.32-.98a4.815,4.815,0,0,0,1.08-3.16,2.8,2.8,0,0,0-.3-1.2,5.3,5.3,0,0,0-4.34-2.92,8.683,8.683,0,0,1-1.04-.14,2.227,2.227,0,0,0-.34-.04,2.472,2.472,0,0,0-1,.26,5.192,5.192,0,0,1-1.3.42C14.1-16.04,13.84-15.84,13.78-15.4Zm3.4,5.44c.12-1.04.24-2.06.38-3.1.06-.48.18-.64.52-.64a1.994,1.994,0,0,1,.32.04,1.782,1.782,0,0,1,1.52,1.98,3.229,3.229,0,0,1-1.74,2.42,1.446,1.446,0,0,1-.62.22C17.22-9.04,17.1-9.36,17.18-9.96Zm-.3,5.48c.04-.38.08-.78.12-1.16.08-.84.34-.92,1.1-.92h.42c.76.08,1.68.22,1.76,1.18a1.378,1.378,0,0,1-.94,1.46,6.8,6.8,0,0,1-1.8.32C17-3.6,16.82-3.9,16.88-4.48Z" transform="translate(7584 1513)" fill="#fff"/><rect width="25" height="20" transform="translate(7584 1496)" fill="none"/></g></svg>