<svg xmlns="http://www.w3.org/2000/svg" xmlns:xlink="http://www.w3.org/1999/xlink" width="456" height="204.999" viewBox="0 0 456 204.999">
  <defs>
    <filter id="빼기_24" x="0" y="0" width="456" height="204.999" filterUnits="userSpaceOnUse">
      <feOffset dy="-6" input="SourceAlpha"/>
      <feGaussianBlur stdDeviation="3" result="blur"/>
      <feFlood flood-opacity="0.161"/>
      <feComposite operator="in" in2="blur"/>
      <feComposite in="SourceGraphic"/>
    </filter>
  </defs>
  <g transform="matrix(1, 0, 0, 1, 0, 0)" filter="url(#빼기_24)">
    <path id="빼기_24-2" data-name="빼기 24" d="M-5801.744,237h-408.732a48.239,48.239,0,0,1-4.084-10.726A48.7,48.7,0,0,1-6216,214.5a48.188,48.188,0,0,1,3.812-18.878,48.334,48.334,0,0,1,10.394-15.416,48.34,48.34,0,0,1,15.416-10.394A48.193,48.193,0,0,1-6167.5,166a48.544,48.544,0,0,1,13.87,2.011,70.307,70.307,0,0,1,10.266-18.523,70.812,70.812,0,0,1,15.158-14.557,70.193,70.193,0,0,1,18.978-9.52A70.467,70.467,0,0,1-6087.5,122a70.757,70.757,0,0,1,17.54,2.2,70.112,70.112,0,0,1,15.925,6.234,78.077,78.077,0,0,1,11.439-9.356,77.518,77.518,0,0,1,13.105-7.062A77.031,77.031,0,0,1-5999.5,108c1.393,0,2.795.037,4.167.109A117.169,117.169,0,0,1-5953.5,66.025a115.894,115.894,0,0,1,27.917-11.831A116.792,116.792,0,0,1-5894.5,50a117.359,117.359,0,0,1,23.479,2.367,115.918,115.918,0,0,1,21.868,6.788A116.528,116.528,0,0,1-5829.363,69.9a117.356,117.356,0,0,1,17.241,14.226,117.324,117.324,0,0,1,14.226,17.242,116.509,116.509,0,0,1,10.741,19.789,115.9,115.9,0,0,1,6.789,21.868A117.382,117.382,0,0,1-5778,166.5a116.3,116.3,0,0,1-6.285,37.846A116.027,116.027,0,0,1-5801.744,237Z" transform="translate(6225 -35)" fill="#fff"/>
  </g>
</svg>