<svg xmlns="http://www.w3.org/2000/svg" xmlns:xlink="http://www.w3.org/1999/xlink" width="445" height="204.999" viewBox="0 0 445 204.999">
  <defs>
    <filter id="빼기_23" x="0" y="0" width="445" height="204.999" filterUnits="userSpaceOnUse">
      <feOffset dy="-6" input="SourceAlpha"/>
      <feGaussianBlur stdDeviation="3" result="blur"/>
      <feFlood flood-opacity="0.161"/>
      <feComposite operator="in" in2="blur"/>
      <feComposite in="SourceGraphic"/>
    </filter>
  </defs>
  <g transform="matrix(1, 0, 0, 1, 0, 0)" filter="url(#빼기_23)">
    <path id="빼기_23-2" data-name="빼기 23" d="M-5873.524,237H-6264.5a111.975,111.975,0,0,1-12.748-16.118,110.389,110.389,0,0,1-9.6-18.3,109.39,109.39,0,0,1-6.052-20.091A110.454,110.454,0,0,1-6295,161a110.383,110.383,0,0,1,2.286-22.37,109.387,109.387,0,0,1,6.555-20.836,110.615,110.615,0,0,1,10.373-18.855,112.151,112.151,0,0,1,13.738-16.428A112.973,112.973,0,0,1-6245.4,68.957a113,113,0,0,1,19.11-10.234,113.055,113.055,0,0,1,21.117-6.468A114.813,114.813,0,0,1-6182.5,50a114.145,114.145,0,0,1,30.775,4.2,112.712,112.712,0,0,1,27.519,11.84A112.174,112.174,0,0,1-6083.626,108a76.992,76.992,0,0,1,29.5,6.173,77.527,77.527,0,0,1,12.9,7.015,78.082,78.082,0,0,1,11.27,9.242,70.122,70.122,0,0,1,15.924-6.234,70.765,70.765,0,0,1,17.54-2.2,70.468,70.468,0,0,1,21.728,3.411,70.193,70.193,0,0,1,18.978,9.52,70.807,70.807,0,0,1,15.158,14.557,70.3,70.3,0,0,1,10.266,18.523A48.545,48.545,0,0,1-5916.5,166a48.191,48.191,0,0,1,18.878,3.812,48.336,48.336,0,0,1,15.416,10.394,48.338,48.338,0,0,1,10.394,15.416A48.187,48.187,0,0,1-5868,214.5a48.673,48.673,0,0,1-1.439,11.773A48.216,48.216,0,0,1-5873.523,237Z" transform="translate(6304 -35)" fill="#fff"/>
  </g>
</svg>