<svg xmlns="http://www.w3.org/2000/svg" xmlns:xlink="http://www.w3.org/1999/xlink" width="53" height="57.303" viewBox="0 0 53 57.303"><defs><filter id="a" x="19.042" y="26.434" width="33.862" height="30.869" filterUnits="userSpaceOnUse"><feOffset dy="8" input="SourceAlpha"/><feGaussianBlur stdDeviation="3" result="b"/><feFlood flood-color="#8b2f61" flood-opacity="0.161"/><feComposite operator="in" in2="b"/><feComposite in="SourceGraphic"/></filter></defs><g transform="translate(0.131 0.392)"><circle cx="26.5" cy="26.5" r="26.5" transform="translate(-0.131 -0.392)" fill="none"/><g transform="translate(-147.661 -296.206)"><path d="M168.993,334.455a26.83,26.83,0,0,0,20.035-9.559,10.353,10.353,0,0,0,2.406-6.605,10.225,10.225,0,0,0-17.035-7.63,15.518,15.518,0,0,0-5.406-.92,12.357,12.357,0,0,0,0,24.715Z" fill="#fff"/><g transform="matrix(1, 0, 0, 1, 147.53, 295.81)" filter="url(#a)"><path d="M323.648,432.871a28.443,28.443,0,0,1-14.094,9,10.227,10.227,0,0,0,15.862-8.535,10.308,10.308,0,0,0-.342-2.642A11.474,11.474,0,0,1,323.648,432.871Z" transform="translate(-281.51 -403.26)" fill="#fff"/></g></g></g></svg>