<svg xmlns="http://www.w3.org/2000/svg" width="40" height="20" viewBox="0 0 40 20"><g transform="translate(-7719 -1700)"><path d="M2.96-14.12c-.46.76-.66,1.68-1.1,2.46a6.577,6.577,0,0,0-.8,4.06c.12,1.14.48,3.6,1.18,4.5A6.724,6.724,0,0,0,4.78-.86a6.785,6.785,0,0,0,2.66.62A5.152,5.152,0,0,0,9.68-.76c.52-.24.98-.58,1.48-.86A4.244,4.244,0,0,0,12.8-3.44a8.624,8.624,0,0,0,.72-4,.789.789,0,0,0-.2-.5,2.022,2.022,0,0,0-1.6-.88.554.554,0,0,0-.18.02h-.18c-.34,0-.66-.06-1-.06a3.869,3.869,0,0,0-2.46.54c-.38.28-.54.82-.82,1.24a.692.692,0,0,0,.04.84.523.523,0,0,0,.48.26,1.2,1.2,0,0,0,.24-.04,8.938,8.938,0,0,1,1.64-.16c.38,0,.56.2.54.64-.04.82-.9,2.78-1.92,2.78a1.569,1.569,0,0,1-.76-.26c-1.4-.92-2.58-2-2.44-3.92a12.221,12.221,0,0,1,1.78-6.48c.3-.46.46-.64.72-.64a3.215,3.215,0,0,1,.7.18,4.814,4.814,0,0,0,1.62.4,2.36,2.36,0,0,0,1-.24.958.958,0,0,0,.34-1.58,5.642,5.642,0,0,0-3.52-1.48A5.58,5.58,0,0,0,2.96-14.12Zm15.98-1.6a.539.539,0,0,0-.5-.62c-.4-.08-.8-.2-1.22-.26-.58,0-1.5.22-1.56.94a127.013,127.013,0,0,0,.1,14.34,1.268,1.268,0,0,0,1.3,1.28,1.16,1.16,0,0,0,1.1-.54,3.69,3.69,0,0,0,.48-1.36c.14-1.96.22-3.92.28-5.9C18.92-8.82,18.92-14.74,18.94-15.72Zm3.96,1.6c-.46.76-.66,1.68-1.1,2.46A6.577,6.577,0,0,0,21-7.6c.12,1.14.48,3.6,1.18,4.5A6.724,6.724,0,0,0,24.72-.86a6.785,6.785,0,0,0,2.66.62,5.152,5.152,0,0,0,2.24-.52c.52-.24.98-.58,1.48-.86a4.244,4.244,0,0,0,1.64-1.82,8.624,8.624,0,0,0,.72-4,.789.789,0,0,0-.2-.5,2.022,2.022,0,0,0-1.6-.88.554.554,0,0,0-.18.02H31.3c-.34,0-.66-.06-1-.06a3.869,3.869,0,0,0-2.46.54c-.38.28-.54.82-.82,1.24a.692.692,0,0,0,.04.84.523.523,0,0,0,.48.26,1.2,1.2,0,0,0,.24-.04,8.938,8.938,0,0,1,1.64-.16c.38,0,.56.2.54.64-.04.82-.9,2.78-1.92,2.78a1.569,1.569,0,0,1-.76-.26c-1.4-.92-2.58-2-2.44-3.92a12.221,12.221,0,0,1,1.78-6.48c.3-.46.46-.64.72-.64a3.215,3.215,0,0,1,.7.18,4.814,4.814,0,0,0,1.62.4,2.36,2.36,0,0,0,1-.24A.958.958,0,0,0,31-15.3a5.642,5.642,0,0,0-3.52-1.48A5.58,5.58,0,0,0,22.9-14.12Zm15.98-1.6a.539.539,0,0,0-.5-.62c-.4-.08-.8-.2-1.22-.26-.58,0-1.5.22-1.56.94a127.014,127.014,0,0,0,.1,14.34A1.268,1.268,0,0,0,37-.04a1.16,1.16,0,0,0,1.1-.54,3.69,3.69,0,0,0,.48-1.36c.14-1.96.22-3.92.28-5.9C38.86-8.82,38.86-14.74,38.88-15.72Z" transform="translate(7719 1717)" fill="#fff"/><rect width="40" height="20" transform="translate(7719 1700)" fill="none"/></g></svg>