<svg id="그룹_4427" data-name="그룹 4427" xmlns="http://www.w3.org/2000/svg" width="32" height="32" viewBox="0 0 32 32">
  <rect id="Color" width="32" height="32" rx="5" fill="#4694ff"/>
  <path id="패스_21259" data-name="패스 21259" d="M4164.578-23.807l-.128-.008c-.24-.015-.481-.025-.732-.027a6.47,6.47,0,0,0-.914.056,4.6,4.6,0,0,0-2.216.886,4.183,4.183,0,0,0-1.324,1.8,6.077,6.077,0,0,0-.39,2.048c0,.053,0,.105,0,.158l-.032,1.329-.032,1.328-1.581-.006-1.58-.007q-.017.678-.033,1.356-.028,1.13-.055,2.261l.882,0,.894,0,.687,0,.7,0-.079,3.281q-.067,2.734-.134,5.468a12.362,12.362,0,0,0,1.937.16,12.615,12.615,0,0,0,1.95-.144q.04-1.641.08-3.281.026-1.094.054-2.187.04-1.64.08-3.281l.8,0,.787,0,.634,0,.669,0q.324-1.807.645-3.615l-1.048,0-1.059,0-.657,0-.687,0q.01-.415.02-.83c.007-.276.014-.553.021-.83,0-.184.009-.369.014-.553,0-.029,0-.058,0-.087a2.83,2.83,0,0,1,.073-.6,1.739,1.739,0,0,1,.618-.994,2.11,2.11,0,0,1,1.217-.392l.148,0c.2,0,.39,0,.605,0h.983l.015-.576.032-1.343c.009-.384.019-.768.028-1.152C4165.858-23.681,4165.24-23.758,4164.578-23.807Z" transform="translate(-4145.376 29.661)" fill="#fff"/>
</svg>