<svg xmlns="http://www.w3.org/2000/svg" width="53" height="53" viewBox="0 0 53 53"><g transform="translate(-1089.001 -116)"><circle cx="26.5" cy="26.5" r="26.5" transform="translate(1089.001 116)" fill="none"/><path d="M80.923,78.43V89.384a4.835,4.835,0,0,1-9.67,0,1.209,1.209,0,0,1,2.418,0,2.418,2.418,0,0,0,4.835,0V78.43a3.62,3.62,0,0,1,2.418,0Zm14.505.51a.613.613,0,0,1-.6.6.692.692,0,0,1-.434-.189,8.163,8.163,0,0,0-1.756-1.3,4.1,4.1,0,0,0-1.926-.434,4.528,4.528,0,0,0-2.418.7,6.723,6.723,0,0,0-1.945,1.832q-.132.189-.331.529t-.274.453a.614.614,0,0,1-.529.321.628.628,0,0,1-.548-.321q-.076-.113-.274-.453t-.331-.529a6.771,6.771,0,0,0-1.936-1.832,4.5,4.5,0,0,0-4.816,0,6.771,6.771,0,0,0-1.936,1.832q-.132.189-.331.529t-.274.453a.628.628,0,0,1-.548.321.614.614,0,0,1-.529-.321q-.076-.113-.274-.453t-.331-.529a6.723,6.723,0,0,0-1.945-1.832,4.528,4.528,0,0,0-2.418-.7,4.1,4.1,0,0,0-1.926.434,8.163,8.163,0,0,0-1.756,1.3.692.692,0,0,1-.434.189.613.613,0,0,1-.6-.6.324.324,0,0,1,.019-.132,13.372,13.372,0,0,1,3.258-6.034,15.455,15.455,0,0,1,5.628-3.862A18.462,18.462,0,0,1,84.9,68.382a17.549,17.549,0,0,1,4.656,2.144,14.065,14.065,0,0,1,3.674,3.532,13.232,13.232,0,0,1,2.181,4.75A.324.324,0,0,1,95.428,78.94ZM80.923,65.209V67.06q-.793-.038-1.209-.038t-1.209.038V65.209a1.209,1.209,0,0,1,2.418,0Z" transform="translate(1036.84 62.281)" fill="#fff"/></g></svg>