<svg xmlns="http://www.w3.org/2000/svg" width="64" height="64" viewBox="0 0 64 64"><defs><style>.a{fill:none;}.b{fill:#fff;}</style></defs><g transform="translate(-7556 -1730)"><g transform="translate(7556.406 1729.912)"><circle class="a" cx="32" cy="32" r="32" transform="translate(-0.406 0.088)"/></g><g transform="translate(7569 1743.831)"><g transform="translate(9.091 8.195)"><path class="b" d="M19.987,24.225V22.038s2.036-1.92,2.184-3.229a2.661,2.661,0,0,0,1.062-2.049c0-.912-.406-1.049-.406-1.049A6.826,6.826,0,0,0,23.559,13c0-2.656-1.332-4.7-3.571-4.7A3.447,3.447,0,0,0,17.39,7c-3.5,0-6.331,2.107-6.331,5.875a5.365,5.365,0,0,0,.894,2.835s-.406.2-.406,1.049a2.023,2.023,0,0,0,1.062,2.049c.148,1.309,2.184,3.229,2.184,3.229v2.187C13.7,27.505,7,25.344,7,32.974H27.779C27.779,25.318,21.081,27.505,19.987,24.225Z" transform="translate(-7 -7)"/></g><g transform="translate(24.676 3)"><path class="b" d="M22.571,14.192a8.206,8.206,0,0,1-.465,2.583,4.767,4.767,0,0,1,.14,1.179c0,3.208-3.247,6.408-3.247,6.408.705.308,2.961,1.455,3.883,2.014h10.4c0-6.818-5.536-4.87-6.494-7.792V16.637a5,5,0,0,0,1.587-2.875,1.859,1.859,0,0,0,1.01-1.592c0-.739-.234-1.048-.438-1.168a5.871,5.871,0,0,0,.438-2.157c0-2.365-.639-4.545-2.6-4.545a2.666,2.666,0,0,0-2.6-1.3,5.043,5.043,0,0,0-5.088,4.588A7.216,7.216,0,0,1,22.571,14.192Z" transform="translate(-19 -3)"/></g><g transform="translate(0 3)"><path class="b" d="M14.286,24.289a11.214,11.214,0,0,1-2.094-3.04,3.33,3.33,0,0,1-1.8-1.688V18.251a9.1,9.1,0,0,0,1.231-.114,9.568,9.568,0,0,1-1.069-4.066,8.122,8.122,0,0,1,3.32-6.781C13.247,4.9,11.86,3,8.573,3A3.025,3.025,0,0,0,6.494,4.3c-6.8,0-3.047,10.851-5.044,12.451,0,0,1.223,1.516,5.044,1.516v1.3C5.438,22.312,0,21.295,0,26.377H10.42C11.334,25.824,14.286,24.289,14.286,24.289Z" transform="translate(0 -3)"/></g></g></g></svg>