<?xml version="1.0" encoding="UTF-8" standalone="no"?>
<!-- Created with Inkscape (http://www.inkscape.org/) -->

<svg
   width="110.56461mm"
   height="79.87088mm"
   viewBox="0 0 110.56461 79.87088"
   version="1.1"
   id="svg5"
   xmlns:inkscape="http://www.inkscape.org/namespaces/inkscape"
   xmlns:sodipodi="http://sodipodi.sourceforge.net/DTD/sodipodi-0.dtd"
   xmlns:xlink="http://www.w3.org/1999/xlink"
   xmlns="http://www.w3.org/2000/svg"
   xmlns:svg="http://www.w3.org/2000/svg">
  <sodipodi:namedview
     id="namedview7"
     pagecolor="#ffffff"
     bordercolor="#000000"
     borderopacity="0.25"
     inkscape:showpageshadow="2"
     inkscape:pageopacity="0.0"
     inkscape:pagecheckerboard="0"
     inkscape:deskcolor="#d1d1d1"
     inkscape:document-units="mm"
     showgrid="false" />
  <defs
     id="defs2">
    <clipPath
       clipPathUnits="userSpaceOnUse"
       id="clipPath1443">
      <g
         id="g1447">
        <use
           x="0"
           y="0"
           xlink:href="#g1427"
           id="use1445"
           transform="translate(4.2580645,8.1612903)" />
      </g>
    </clipPath>
  </defs>
  <g
     inkscape:label="Layer 1"
     inkscape:groupmode="layer"
     id="layer1"
     transform="translate(-35.290459,-61.726053)">
    <g
       id="g1422"
       transform="translate(-20.580645,-36.903226)"
       style="stroke-width:0;stroke-dasharray:none"
       inkscape:groupmode="layer">
      <g
         inkscape:label="Clip"
         id="g1427"
         clip-path="url(#clipPath1443)"
         inkscape:groupmode="layer"
         transform="translate(-4.2580645,-8.1612903)">
        <path
           id="path1393"
           style="opacity:1;fill:#ffff67;fill-opacity:1;stroke:#49260b;stroke-width:5;stroke-linejoin:bevel;stroke-dasharray:none;stroke-opacity:1"
           d="m 115.41148,109.29057 a 42.403225,37.435486 0 0 0 -41.456905,29.65039 20.403225,8.6935482 0 0 0 -11.325407,7.78505 20.403225,8.6935482 0 0 0 11.325407,7.78454 42.403225,37.435486 0 0 0 41.456905,29.6509 42.403225,37.435486 0 0 0 41.4569,-29.6509 20.403225,8.6935482 0 0 0 11.3254,-7.78454 20.403225,8.6935482 0 0 0 -11.30835,-7.78144 42.403225,37.435486 0 0 0 -41.47395,-29.654 z"
           inkscape:export-filename="lemon.svg"
           inkscape:export-xdpi="96"
           inkscape:export-ydpi="96" />
      </g>
    </g>
  </g>
</svg>
