<svg xmlns="http://www.w3.org/2000/svg" viewBox="0 0 77.57 97.93"><defs><style>.cls-1{fill:#827397;}</style></defs><g id="Layer_2" data-name="Layer 2"><g id="Layer_1-2" data-name="Layer 1"><path class="cls-1" d="M77.57,6.91S74.7-8.7,55.08,7C55.08,7,73.58,22.86,77.57,6.91ZM73.06,7a.75.75,0,1,1-.75-.75A.75.75,0,0,1,73.06,7ZM59.94,7s1.27-4.7,10.27,0C70.21,7,61.81,11.81,59.94,7Z"/><path class="cls-1" d="M54.33,9.08A2.07,2.07,0,0,1,52.26,7h0A2.06,2.06,0,0,1,54.32,5h0A2.05,2.05,0,0,1,56.39,7h0a2.06,2.06,0,0,1-2.06,2.08Z"/><path class="cls-1" d="M46.36,12.49S53.44,7,53.37,7s-7-5.45-7-5.45c-.83,1.8-7.06,5.5-7,5.51S45.52,10.71,46.36,12.49Z"/><path class="cls-1" d="M14.65,7C1.87-3.22,0,7,0,7,2.6,17.34,14.65,7,14.65,7ZM3.43,6.52A.49.49,0,1,1,2.94,7,.48.48,0,0,1,3.43,6.52ZM4.8,7c5.86-3,6.68,0,6.68,0C10.26,10.14,4.8,7,4.8,7Z"/><path class="cls-1" d="M15.32,9.51A2.5,2.5,0,0,0,17.83,7h0a2.51,2.51,0,0,0-2.49-2.51h0A2.49,2.49,0,0,0,12.83,7h0a2.49,2.49,0,0,0,2.49,2.51Z"/><path class="cls-1" d="M38.32,9.51A2.5,2.5,0,0,0,40.83,7h0a2.51,2.51,0,0,0-2.49-2.51h0A2.49,2.49,0,0,0,35.83,7h0a2.49,2.49,0,0,0,2.49,2.51Z"/><rect class="cls-1" x="17.33" y="5.51" width="20" height="3"/><path class="cls-1" d="M23.19,97.93s14.74-5.9-4.52-22C18.67,75.89,6.76,97.15,23.19,97.93Zm-1-4.41a.75.75,0,1,1,.58-.88A.76.76,0,0,1,22.22,93.52ZM19.6,80.66s4.85.32,2.06,10.06C21.66,90.72,15.28,83.44,19.6,80.66Z"/><path class="cls-1" d="M16.48,75.87a2.06,2.06,0,0,1,1.61-2.44h0A2.07,2.07,0,0,1,20.53,75h0a2.07,2.07,0,0,1-1.61,2.45h0a2.06,2.06,0,0,1-2.44-1.61Z"/><path class="cls-1" d="M11.74,69.73s6.76,5.85,6.78,5.79,3.95-8,3.95-8c-1.92-.46-6.78-5.83-6.79-5.82S13.32,68.56,11.74,69.73Z"/><path class="cls-1" d="M6.54,17.35C14,2.8,3.71,3,3.71,3-6,7.58,6.54,17.35,6.54,17.35ZM4.8,6.25a.48.48,0,0,1-.38.57.49.49,0,0,1-.57-.38.5.5,0,0,1,.38-.58A.48.48,0,0,1,4.8,6.25ZM4.6,7.69c4.13,5.14,1.3,6.56,1.3,6.56C2.6,13.66,4.6,7.69,4.6,7.69Z"/><path class="cls-1" d="M4.25,18.49a2.52,2.52,0,0,0,2.94,2h0a2.51,2.51,0,0,0,2-2.94h0a2.5,2.5,0,0,0-2.94-2h0a2.51,2.51,0,0,0-2,2.94Z"/><path class="cls-1" d="M13.14,61.74a2.49,2.49,0,0,0,2.93,2h0a2.49,2.49,0,0,0,2-2.93h0a2.49,2.49,0,0,0-2.93-2h0a2.49,2.49,0,0,0-2,2.93Z"/><rect class="cls-1" x="9.63" y="19.55" width="3" height="40" transform="translate(-7.73 3.05) rotate(-11.6)"/></g></g></svg>