<?xml version="1.0" encoding="utf-8"?>
<!-- Generator: Adobe Illustrator 25.3.1, SVG Export Plug-In . SVG Version: 6.00 Build 0)  -->
<svg version="1.1" id="Layer_1" xmlns="http://www.w3.org/2000/svg" xmlns:xlink="http://www.w3.org/1999/xlink" x="0px" y="0px"
	 viewBox="0 0 133 120" style="enable-background:new 0 0 133 120;" xml:space="preserve">
<style type="text/css">
	.st0{fill:none;stroke:#4D4C7D;stroke-width:3;}
</style>
<line class="st0" x1="131.5" y1="3" x2="131.5" y2="103"/>
<line class="st0" x1="34.5" y1="3" x2="34.5" y2="103"/>
<line class="st0" x1="33" y1="1.5" x2="133" y2="1.5"/>
<line class="st0" x1="1" y1="104.5" x2="101" y2="104.5"/>
<line class="st0" x1="16" y1="118.5" x2="116" y2="118.5"/>
<path class="st0" d="M100.5,103c0,4.1,1.6,8.1,4.5,11s6.8,4.5,11,4.5"/>
<path class="st0" d="M116,118.5c4.1,0,8.1-1.6,11-4.5c2.9-2.9,4.5-6.8,4.5-11"/>
<path class="st0" d="M2,103c0,4.1,1.6,8.1,4.5,11c2.9,2.9,6.8,4.5,11,4.5"/>
</svg>
