<svg width="133" height="120" viewBox="0 0 133 120" fill="none" xmlns="http://www.w3.org/2000/svg">
<line x1="131.5" y1="3" x2="131.5" y2="103" stroke="#4D4C7D" stroke-width="3"/>
<line x1="34.5" y1="3" x2="34.5" y2="103" stroke="#4D4C7D" stroke-width="3"/>
<line x1="33" y1="1.5" x2="133" y2="1.5" stroke="#4D4C7D" stroke-width="3"/>
<line x1="1" y1="104.5" x2="101" y2="104.5" stroke="#4D4C7D" stroke-width="3"/>
<line x1="16" y1="118.5" x2="116" y2="118.5" stroke="#4D4C7D" stroke-width="3"/>
<path d="M100.5 103C100.5 107.111 102.133 111.053 105.04 113.96C107.947 116.867 111.889 118.5 116 118.5" stroke="#4D4C7D" stroke-width="3"/>
<path d="M116 118.5C120.111 118.5 124.053 116.867 126.96 113.96C129.867 111.053 131.5 107.111 131.5 103" stroke="#4D4C7D" stroke-width="3"/>
<path d="M2 103C2 107.111 3.63303 111.053 6.53985 113.96C9.44666 116.867 13.3891 118.5 17.5 118.5" stroke="#4D4C7D" stroke-width="3"/>
</svg>
