<svg width="343" height="343" viewBox="0 0 343 343" fill="none" xmlns="http://www.w3.org/2000/svg">
<line x1="172.5" y1="92" x2="172.5" y2="112" stroke="#E9D5DA" stroke-width="3"/>
<line x1="132.299" y1="102.25" x2="142.299" y2="119.571" stroke="#E9D5DA" stroke-width="3"/>
<line x1="102.75" y1="131.701" x2="120.071" y2="141.701" stroke="#E9D5DA" stroke-width="3"/>
<line x1="92" y1="171.5" x2="112" y2="171.5" stroke="#E9D5DA" stroke-width="3"/>
<line x1="102.25" y1="211.701" x2="119.571" y2="201.701" stroke="#E9D5DA" stroke-width="3"/>
<line x1="131.701" y1="241.57" x2="141.701" y2="224.25" stroke="#E9D5DA" stroke-width="3"/>
<line x1="172.5" y1="252" x2="172.5" y2="232" stroke="#E9D5DA" stroke-width="3"/>
<line x1="211.701" y1="241.07" x2="201.701" y2="223.75" stroke="#E9D5DA" stroke-width="3"/>
<line x1="241.57" y1="212.299" x2="224.25" y2="202.299" stroke="#E9D5DA" stroke-width="3"/>
<line x1="232" y1="171.5" x2="252" y2="171.5" stroke="#E9D5DA" stroke-width="3"/>
<line x1="224.25" y1="141.701" x2="241.571" y2="131.701" stroke="#E9D5DA" stroke-width="3"/>
<line x1="201.701" y1="119.57" x2="211.701" y2="102.25" stroke="#E9D5DA" stroke-width="3"/>
<circle cx="172" cy="172" r="90" stroke="#E9D5DA" stroke-width="15"/>
<circle cx="172" cy="172" r="80" stroke="#E9D5DA"/>
<circle cx="172" cy="172" r="60" stroke="#E9D5DA"/>
<circle cx="171.5" cy="171.5" r="102.5" stroke="#E9D5DA" stroke-width="3" stroke-dasharray="2 8.5"/>
<g clip-path="url(#clip0_27_372)">
<path d="M224.318 152.01C224.318 152.01 217.924 141.484 208.092 158.28C208.092 158.28 225.85 164.675 224.318 152.01ZM221.084 153.319C221.125 153.427 221.134 153.544 221.108 153.656C221.083 153.769 221.025 153.871 220.942 153.949C220.858 154.028 220.753 154.081 220.64 154.1C220.527 154.119 220.411 154.104 220.306 154.057C220.201 154.01 220.113 153.933 220.051 153.835C219.99 153.738 219.959 153.624 219.962 153.509C219.965 153.394 220.002 153.283 220.069 153.189C220.135 153.095 220.228 153.023 220.335 152.983C220.479 152.928 220.638 152.932 220.779 152.995C220.919 153.059 221.029 153.175 221.084 153.319V153.319ZM211.603 156.939C211.603 156.939 211.22 153.181 219.025 154.106C219.025 154.106 214.286 159.91 211.603 156.939Z" fill="#E9D5DA"/>
<path d="M208.125 159.995C207.928 160.07 207.718 160.105 207.507 160.099C207.296 160.092 207.089 160.044 206.896 159.957C206.704 159.87 206.53 159.746 206.386 159.591C206.241 159.437 206.128 159.256 206.054 159.058V159.058C205.917 158.665 205.938 158.234 206.112 157.857C206.287 157.48 206.601 157.187 206.989 157.039C207.376 156.887 207.809 156.893 208.192 157.058C208.576 157.222 208.88 157.531 209.038 157.918V157.918C209.115 158.115 209.153 158.325 209.149 158.536C209.145 158.747 209.099 158.955 209.014 159.148C208.929 159.341 208.807 159.515 208.654 159.661C208.502 159.806 208.322 159.919 208.125 159.995Z" fill="#E9D5DA"/>
<path d="M203.31 164.666C203.31 164.666 206.906 158.732 206.856 158.751C206.805 158.771 200.289 156.731 200.289 156.731C200.187 158.265 196.71 162.666 196.756 162.657C196.802 162.648 202.21 163.607 203.31 164.666Z" fill="#E9D5DA"/>
<path d="M178.876 169.433C166.812 165.549 168.289 173.475 168.289 173.475C173.03 180.254 178.876 169.433 178.876 169.433ZM170.635 172.18C170.705 172.154 170.782 172.148 170.856 172.165C170.929 172.183 170.996 172.221 171.047 172.276C171.099 172.331 171.133 172.401 171.145 172.475C171.157 172.55 171.147 172.626 171.115 172.695C171.084 172.763 171.033 172.821 170.969 172.86C170.904 172.9 170.83 172.919 170.755 172.915C170.679 172.912 170.607 172.886 170.546 172.841C170.485 172.797 170.439 172.735 170.414 172.664C170.396 172.617 170.388 172.568 170.389 172.518C170.391 172.469 170.402 172.42 170.423 172.375C170.444 172.33 170.473 172.29 170.509 172.256C170.546 172.223 170.589 172.197 170.635 172.18ZM171.758 172.15C175.162 168.359 176.585 170.308 176.585 170.308C176.573 172.921 171.758 172.15 171.758 172.15Z" fill="#E9D5DA"/>
<path d="M180.055 171.068C180.293 170.978 180.512 170.841 180.698 170.666C180.883 170.491 181.033 170.28 181.137 170.047C181.241 169.813 181.298 169.561 181.304 169.305C181.31 169.049 181.266 168.795 181.174 168.556V168.556C180.99 168.076 180.625 167.687 180.158 167.475C179.691 167.263 179.16 167.244 178.68 167.423V167.423C178.44 167.512 178.221 167.648 178.035 167.823C177.848 167.998 177.699 168.209 177.595 168.443C177.49 168.677 177.434 168.929 177.428 169.185C177.422 169.441 177.467 169.696 177.561 169.935V169.935C177.65 170.174 177.785 170.393 177.959 170.58C178.133 170.766 178.342 170.917 178.573 171.022C178.805 171.127 179.056 171.186 179.31 171.193C179.564 171.201 179.817 171.159 180.055 171.068V171.068Z" fill="#E9D5DA"/>
<path d="M196.675 164.723C196.914 164.633 197.132 164.496 197.318 164.321C197.504 164.146 197.653 163.935 197.757 163.702C197.861 163.468 197.918 163.216 197.924 162.96C197.931 162.704 197.886 162.45 197.794 162.211V162.211C197.611 161.731 197.246 161.342 196.779 161.13C196.312 160.918 195.78 160.899 195.3 161.078V161.078C195.061 161.167 194.841 161.303 194.655 161.478C194.469 161.653 194.319 161.864 194.215 162.098C194.111 162.332 194.054 162.584 194.048 162.84C194.043 163.096 194.088 163.351 194.181 163.59V163.59C194.27 163.829 194.405 164.048 194.579 164.235C194.753 164.421 194.962 164.572 195.194 164.677C195.426 164.782 195.676 164.84 195.93 164.848C196.184 164.856 196.438 164.814 196.675 164.723V164.723Z" fill="#E9D5DA"/>
<path d="M194.853 162.096L180.4 167.613L181.23 169.789L195.683 164.271L194.853 162.096Z" fill="#E9D5DA"/>
<path d="M210.215 233.004C210.215 233.004 219.234 224.66 200.86 218.3C200.849 218.271 198.127 236.971 210.215 233.004ZM208.272 230.082C208.176 230.145 208.063 230.177 207.947 230.175C207.832 230.173 207.72 230.137 207.626 230.071C207.531 230.005 207.458 229.912 207.416 229.805C207.374 229.697 207.365 229.579 207.39 229.467C207.415 229.354 207.472 229.252 207.555 229.172C207.639 229.092 207.744 229.04 207.857 229.02C207.97 229 208.087 229.015 208.192 229.062C208.297 229.109 208.386 229.187 208.448 229.284C208.527 229.411 208.555 229.563 208.526 229.71C208.498 229.857 208.415 229.987 208.294 230.074L208.272 230.082ZM202.841 221.473C202.841 221.473 206.434 220.367 207.114 228.198C207.114 228.198 200.489 224.68 202.841 221.473Z" fill="#E9D5DA"/>
<path d="M199.261 218.861C199.147 218.683 199.069 218.485 199.032 218.277C198.995 218.07 199 217.857 199.045 217.651C199.09 217.446 199.176 217.251 199.297 217.079C199.417 216.907 199.571 216.76 199.749 216.648V216.648C200.102 216.421 200.53 216.343 200.941 216.43C201.353 216.517 201.713 216.762 201.946 217.113C202.06 217.291 202.138 217.489 202.176 217.697C202.213 217.905 202.209 218.119 202.164 218.325C202.119 218.531 202.033 218.727 201.913 218.9C201.792 219.073 201.639 219.22 201.461 219.333V219.333C201.284 219.447 201.087 219.524 200.88 219.561C200.673 219.598 200.46 219.593 200.255 219.547C200.05 219.501 199.856 219.415 199.683 219.293C199.511 219.172 199.365 219.017 199.252 218.839L199.261 218.861Z" fill="#E9D5DA"/>
<path d="M194.136 215.717C194.136 215.717 200.64 218.093 200.638 218.044C200.636 217.995 201.278 211.154 201.278 211.154C199.763 211.351 194.765 208.798 194.76 208.808C194.756 208.818 194.954 214.433 194.136 215.717Z" fill="#E9D5DA"/>
<path d="M175.88 179.174C177.244 166.567 169.863 169.551 169.863 169.551C164.114 175.55 175.88 179.174 175.88 179.174ZM171.55 171.607C171.577 171.648 171.595 171.695 171.604 171.744C171.612 171.792 171.611 171.842 171.6 171.891C171.589 171.939 171.569 171.984 171.54 172.025C171.512 172.065 171.475 172.099 171.433 172.125C171.349 172.177 171.248 172.193 171.151 172.171C171.054 172.149 170.97 172.09 170.916 172.007C170.864 171.921 170.847 171.819 170.868 171.721C170.889 171.623 170.947 171.537 171.03 171.481C171.072 171.454 171.119 171.436 171.169 171.428C171.218 171.42 171.268 171.422 171.317 171.433C171.365 171.445 171.411 171.466 171.451 171.496C171.491 171.526 171.525 171.564 171.55 171.607V171.607ZM171.804 172.706C176.211 175.293 174.56 177.103 174.56 177.103C172.012 177.586 171.804 172.706 171.804 172.706Z" fill="#E9D5DA"/>
<path d="M174.541 180.633C174.813 181.072 175.248 181.386 175.749 181.506C176.251 181.626 176.78 181.542 177.219 181.272C177.436 181.138 177.626 180.962 177.775 180.755C177.925 180.547 178.032 180.312 178.091 180.063C178.149 179.813 178.158 179.555 178.117 179.302C178.076 179.049 177.985 178.806 177.85 178.588V178.588C177.717 178.369 177.542 178.178 177.334 178.027C177.127 177.876 176.892 177.768 176.643 177.709C176.394 177.649 176.136 177.64 175.883 177.681C175.631 177.723 175.389 177.814 175.172 177.949V177.949C174.955 178.083 174.766 178.259 174.616 178.467C174.466 178.674 174.359 178.909 174.3 179.158C174.242 179.408 174.233 179.666 174.274 179.919C174.315 180.172 174.406 180.415 174.541 180.633V180.633Z" fill="#E9D5DA"/>
<path d="M192.936 209.538C193.068 209.757 193.243 209.948 193.449 210.099C193.656 210.25 193.89 210.359 194.139 210.419C194.387 210.478 194.645 210.488 194.897 210.447C195.149 210.406 195.39 210.315 195.607 210.179C195.825 210.047 196.015 209.873 196.166 209.666C196.316 209.459 196.424 209.225 196.483 208.976C196.542 208.727 196.551 208.468 196.51 208.215C196.468 207.963 196.377 207.721 196.241 207.503V207.503C196.109 207.284 195.934 207.093 195.728 206.942C195.521 206.791 195.287 206.682 195.038 206.622C194.79 206.563 194.532 206.553 194.28 206.594C194.028 206.635 193.787 206.726 193.57 206.862V206.862C193.352 206.994 193.162 207.168 193.011 207.375C192.861 207.582 192.753 207.816 192.694 208.065C192.635 208.314 192.626 208.573 192.668 208.825C192.709 209.078 192.8 209.32 192.936 209.538V209.538Z" fill="#E9D5DA"/>
<path d="M177.989 180.289L176.032 181.537L192.69 207.727L194.646 206.479L177.989 180.289Z" fill="#E9D5DA"/>
</g>
<path d="M72.7892 64.8625C72.8125 64.7975 72.8204 64.728 72.8125 64.6593C72.8047 64.5907 72.7811 64.5248 72.7437 64.4667C72.627 64.2895 72.4544 64.1563 72.2533 64.0885C71.944 63.984 71.61 63.9779 71.2971 64.0709C70.9169 64.1757 70.5767 64.3916 70.3199 64.6909C70.1576 64.8823 70.0253 65.0972 69.9276 65.3284C69.8095 65.6188 69.7385 65.9262 69.7174 66.2391C69.6972 66.572 69.7267 66.9061 69.805 67.2303C69.8794 67.5485 69.9973 67.8549 70.1553 68.141C70.2969 68.3946 70.4661 68.6319 70.6596 68.8485C70.7431 68.9423 70.832 69.0312 70.9258 69.1147C71.0064 69.1953 71.0834 69.2723 71.1745 69.3214C71.2656 69.3704 71.3286 69.4334 71.3987 69.4755C71.4554 69.5111 71.5138 69.5438 71.5738 69.5735C71.6789 69.6226 71.7454 69.6401 71.7665 69.6191C71.7875 69.5981 71.77 69.5315 71.7279 69.4334L71.5493 69.0236L71.4407 68.7539C71.4057 68.6559 71.3672 68.5543 71.3356 68.4457C71.2703 68.2244 71.2223 67.9984 71.192 67.7697C71.1641 67.537 71.1641 67.3018 71.192 67.0692C71.2134 66.8754 71.2581 66.6848 71.3251 66.5017C71.3822 66.3613 71.4563 66.2284 71.5458 66.106C71.5641 66.0846 71.584 66.0647 71.6053 66.0464C71.6215 66.0276 71.6391 66.01 71.6579 65.9939C71.676 65.9795 71.6925 65.963 71.7069 65.9448L71.7384 65.9133C71.833 65.8187 71.9101 65.7417 71.9871 65.6646C72.063 65.575 72.1461 65.4918 72.2358 65.4159C72.4632 65.2801 72.6534 65.09 72.7892 64.8625V64.8625Z" fill="#E9D5DA"/>
<path d="M68.4215 66.183C69.0189 67.5076 69.8059 68.7382 70.7577 69.8362C70.7634 69.8415 70.7671 69.8484 70.7684 69.856C70.7697 69.8637 70.7684 69.8715 70.7647 69.8783L70.8277 70.936C70.831 70.9695 70.8268 71.0033 70.8154 71.0349C70.804 71.0665 70.7858 71.0953 70.7621 71.119C70.7383 71.1428 70.7096 71.161 70.6779 71.1724C70.6463 71.1837 70.6125 71.188 70.5791 71.1847L69.5213 71.1217C69.5213 71.1217 69.5213 71.1217 69.4757 71.1182C68.3772 70.1663 67.1452 69.3804 65.819 68.7854C65.819 68.7854 64.9924 65.9063 64.8418 65.2933C64.8363 65.2806 64.8348 65.2665 64.8374 65.2529C64.84 65.2393 64.8467 65.2268 64.8565 65.217C64.8663 65.2072 64.8788 65.2005 64.8924 65.1979C64.906 65.1953 64.9201 65.1968 64.9329 65.2023C65.5598 65.3389 68.4144 66.169 68.4215 66.183Z" fill="#E9D5DA"/>
<path d="M64.425 73.2268C64.3596 73.2507 64.2897 73.2594 64.2205 73.2521C64.1512 73.2448 64.0846 73.2218 64.0257 73.1847C63.8494 73.0663 63.7175 72.8925 63.6509 72.6909C63.5446 72.3846 63.5361 72.053 63.6264 71.7416C63.7315 71.3598 63.9487 71.0182 64.2498 70.7609C64.4401 70.5997 64.6539 70.4686 64.8838 70.3721C65.1753 70.2529 65.4839 70.1808 65.798 70.1585C66.1329 70.1331 66.4697 70.1603 66.7962 70.239C67.1154 70.3123 67.423 70.429 67.7104 70.5858C67.964 70.7275 68.2013 70.8966 68.4179 71.0902L68.6841 71.3564L68.8943 71.6015L69.0484 71.8257L69.143 72.0043C69.192 72.1094 69.2095 72.176 69.1885 72.197C69.1675 72.218 69.1045 72.197 69.0029 72.1585L68.5966 71.9763C68.5125 71.9413 68.418 71.9098 68.3269 71.8677L68.0187 71.7627C67.7969 71.6993 67.571 71.6513 67.3427 71.6191C67.1098 71.5949 66.875 71.5949 66.6421 71.6191C66.4484 71.6407 66.2579 71.6853 66.0747 71.7522C65.9355 71.8081 65.8037 71.8811 65.6824 71.9693C65.6597 71.9886 65.6386 72.0097 65.6194 72.0324C65.6002 72.0481 65.5826 72.0657 65.5668 72.0849C65.5536 72.1019 65.5383 72.1172 65.5213 72.1304L65.4828 72.169C65.3882 72.2635 65.3111 72.3406 65.2341 72.4177C65.1432 72.4947 65.0589 72.579 64.9819 72.6698C64.8462 72.8995 64.6546 73.0911 64.425 73.2268V73.2268Z" fill="#E9D5DA"/>
<path d="M66.2253 75.0131C66.2867 75.0278 66.3436 75.0572 66.3912 75.0986C66.4387 75.1401 66.4756 75.1925 66.4985 75.2513C66.5974 75.452 66.676 75.662 66.7332 75.8782L66.8488 76.3161L66.9118 76.5612L66.9784 76.8239C67.0204 77.0061 67.08 77.1917 67.122 77.3809C67.164 77.57 67.2376 77.7767 67.3111 77.9833C67.4551 78.413 67.6367 78.8291 67.854 79.2267C67.9719 79.4245 68.103 79.614 68.2463 79.7942C68.3269 79.8747 68.411 79.9588 68.474 80.0569C68.537 80.1549 68.6386 80.2215 68.7227 80.3055C69.111 80.6422 69.5541 80.9099 70.0327 81.0971C70.6004 81.3142 71.1899 81.4693 71.791 81.5595C72.6588 81.6985 73.5356 81.7746 74.4144 81.7871C75.4967 81.8187 76.7647 81.7836 78.1552 81.7241C79.5457 81.6646 81.0449 81.5945 82.621 81.6295C83.0133 81.6435 83.4126 81.6575 83.8119 81.6926C84.0151 81.7066 84.2147 81.7241 84.4354 81.7696L84.5895 81.7906L84.7506 81.8117L85.0694 81.8642C85.895 82.0287 86.6925 82.3119 87.4371 82.7048C87.7948 82.8886 88.1399 83.0957 88.4704 83.3248C88.7907 83.5491 89.0983 83.7912 89.3916 84.0498C89.9468 84.5354 90.4472 85.0804 90.8837 85.675C91.6342 86.687 92.1597 87.8478 92.4248 89.0796C92.4789 89.3303 92.5175 89.5842 92.5404 89.8396C92.5579 90.0813 92.5755 90.309 92.5649 90.5156C92.5544 90.7223 92.5509 90.929 92.5369 91.1111C92.5229 91.2932 92.4879 91.4543 92.4669 91.6015C92.4262 91.8291 92.3664 92.0529 92.2882 92.2705C92.2322 92.4176 92.1937 92.4911 92.1727 92.4841C92.1516 92.4771 92.1481 92.3965 92.1481 92.2424C92.1481 92.0883 92.1551 91.8641 92.1692 91.5629C92.1551 91.4228 92.1551 91.2617 92.1376 91.0901C92.1201 90.9184 92.1061 90.7363 92.0676 90.5437C92.029 90.351 91.987 90.1409 91.938 89.9237C91.8889 89.7065 91.8154 89.4859 91.7313 89.2547C91.3393 88.1983 90.7376 87.232 89.9625 86.4141C89.5226 85.9436 89.0342 85.5209 88.5054 85.1532C88.228 84.9581 87.9404 84.7781 87.6438 84.6138C87.3472 84.4555 87.042 84.314 86.7296 84.1899C86.1072 83.9414 85.4527 83.7822 84.7857 83.7171L84.537 83.6996L84.4144 83.6961L84.2848 83.6926C84.1096 83.6856 83.931 83.6891 83.7489 83.6891C83.3916 83.6961 83.0273 83.7101 82.6701 83.7381C81.22 83.8362 79.7524 84.0358 78.3584 84.1969C76.9643 84.3581 75.6333 84.5192 74.4459 84.5297C73.4119 84.5728 72.3761 84.5153 71.3531 84.3581C70.5145 84.2292 69.6977 83.9853 68.9258 83.633C68.1601 83.2785 67.4712 82.7775 66.8978 82.1584C66.7614 82.0063 66.6328 81.8473 66.5125 81.6821C66.3974 81.5258 66.291 81.3632 66.1938 81.1952C66.0085 80.8773 65.8526 80.5432 65.728 80.197C65.523 79.6082 65.3992 78.9943 65.3602 78.3721C65.3418 78.1133 65.3371 77.8538 65.3462 77.5945C65.3637 77.3528 65.3742 77.1252 65.4092 76.915L65.4547 76.6103L65.5108 76.3371C65.5452 76.1757 65.5896 76.0166 65.6439 75.8607C65.7101 75.6359 65.8118 75.4231 65.9451 75.2303C66.0362 75.0761 66.1308 75.0166 66.2253 75.0131Z" fill="#E9D5DA"/>
<path d="M76.8067 76.9781C76.7226 76.894 76.8242 76.6663 77.0729 76.3686C77.4484 75.9599 77.8961 75.6239 78.3934 75.3774L78.6421 75.2548C78.7296 75.2162 78.8207 75.1882 78.9153 75.1497C79.4889 74.9387 80.0986 74.8431 80.7093 74.8683C81.32 74.8936 81.9197 75.0392 82.4739 75.2968C82.98 75.5313 83.4486 75.8393 83.8645 76.211C84.384 76.6814 84.8376 77.2198 85.213 77.8117C85.7017 78.5738 86.0935 79.3939 86.3793 80.253C86.6723 81.1992 86.9039 82.1632 87.0729 83.1391C87.2379 84.089 87.472 85.0255 87.7734 85.9412C87.918 86.369 88.0984 86.7838 88.3128 87.1812C88.5174 87.5531 88.7566 87.9049 89.0273 88.2319C89.5294 88.7993 90.0764 89.3252 90.663 89.8046C90.9187 90.0253 91.1464 90.2389 91.3425 90.4281C91.5387 90.6172 91.6928 90.7783 91.8154 90.95C92.0501 91.2617 92.1656 91.4403 92.1411 91.4578C91.9677 91.3602 91.8105 91.2361 91.6753 91.0901L91.1289 90.6768C90.9082 90.5262 90.6665 90.3545 90.3828 90.1759C89.7038 89.7607 89.0648 89.2835 88.4739 88.7503C87.7666 88.0646 87.193 87.2534 86.7821 86.358C86.3682 85.4177 86.0309 84.4455 85.7734 83.4509C85.5374 82.5547 85.2497 81.6729 84.9117 80.8099C84.6131 80.0988 84.236 79.4233 83.7874 78.7959C83.466 78.3468 83.096 77.9345 82.6841 77.5665C82.2952 77.1913 81.8343 76.8988 81.3292 76.7068C80.8241 76.5148 80.2853 76.4271 79.7454 76.4492C79.5905 76.4567 79.4361 76.473 79.2831 76.4982C79.2095 76.5087 79.1359 76.5122 79.0624 76.5297L78.8487 76.5753C78.2778 76.7049 77.8365 76.887 77.4722 76.957C77.1079 77.0271 76.8803 77.0796 76.8067 76.9781Z" fill="#E9D5DA"/>
<path d="M91.938 83.9763C91.9975 83.9167 92.1096 83.9307 92.2532 83.9973C92.3395 84.0364 92.4226 84.082 92.5019 84.1339C92.5993 84.206 92.6928 84.2832 92.7821 84.3651C93.29 84.8441 93.6941 85.4223 93.9695 86.0638C94.2033 86.6323 94.3657 87.2276 94.4529 87.8361C94.5587 88.6328 94.5528 89.4404 94.4353 90.2354C94.4143 90.4316 94.3723 90.6207 94.3233 90.8239C94.3057 90.9184 94.2777 91.0165 94.2567 91.1076C94.2357 91.1986 94.2042 91.2862 94.1761 91.3703C94.0571 91.7065 93.9345 91.9902 93.8329 92.2319C93.7313 92.4736 93.6578 92.6662 93.6087 92.8063C93.5597 92.9464 93.5282 93.027 93.5071 93.027C93.4861 93.027 93.4791 92.9429 93.4756 92.7853C93.4802 92.5715 93.5013 92.3584 93.5387 92.1478C93.5807 91.8817 93.6543 91.5629 93.6858 91.2512L93.7138 91.006C93.7138 90.9219 93.7208 90.8379 93.7243 90.7573C93.7278 90.6768 93.7243 90.393 93.7173 90.2109C93.694 89.483 93.587 88.7602 93.3986 88.0568C93.2507 87.5453 93.0681 87.0444 92.8522 86.5577C92.5649 85.9062 92.2742 85.3283 92.0781 84.8729C92.0303 84.7702 91.9882 84.665 91.952 84.5577C91.9207 84.4754 91.895 84.3912 91.8749 84.3055C91.8644 84.1409 91.8714 84.0288 91.938 83.9763Z" fill="#E9D5DA"/>
<path d="M74.6946 66.5438C74.6999 66.4804 74.7213 66.4194 74.7569 66.3666C74.7924 66.3139 74.841 66.2712 74.8978 66.2426C75.0906 66.1093 75.3034 66.0076 75.5282 65.9413C75.6841 65.8871 75.8432 65.8426 76.0046 65.8082L76.2778 65.7522L76.5825 65.7067C76.7892 65.6751 77.0204 65.6611 77.262 65.6436C77.5213 65.6346 77.7809 65.6392 78.0396 65.6576C78.6615 65.6987 79.2752 65.8224 79.8645 66.0254C80.2107 66.15 80.5448 66.306 80.8627 66.4912C81.0273 66.5858 81.1885 66.6979 81.3496 66.81C81.5152 66.9295 81.6731 67.0594 81.8224 67.1988C82.4444 67.769 82.9468 68.4572 83.3005 69.2233C83.6528 69.9952 83.8968 70.812 84.0256 71.6506C84.1823 72.6724 84.241 73.7069 84.2007 74.7399C84.1692 75.9413 84.0396 77.2758 83.8785 78.6698C83.7173 80.0639 83.5177 81.5314 83.4196 82.9815C83.3986 83.3458 83.3881 83.7136 83.3776 84.0603C83.3741 84.239 83.3741 84.4211 83.3776 84.5927L83.3846 84.7258L83.3881 84.8484L83.4021 85.0936C83.471 85.7592 83.6313 86.4122 83.8785 87.034C84.0016 87.3463 84.1443 87.6504 84.3058 87.9447C84.4679 88.2426 84.6481 88.5304 84.8452 88.8064C85.2116 89.3341 85.6332 89.8213 86.1026 90.2599C86.9186 91.0324 87.8825 91.6317 88.9362 92.0218C89.1639 92.1093 89.3881 92.1724 89.6017 92.2319C89.8154 92.2915 90.022 92.337 90.2147 92.3615C90.4073 92.386 90.5965 92.414 90.7646 92.4351C90.9327 92.4561 91.0938 92.4561 91.2374 92.4666C91.5212 92.4701 91.7488 92.4736 91.9029 92.4666C92.0571 92.4596 92.1411 92.4736 92.1446 92.4981C92.1481 92.5226 92.0816 92.5612 91.9275 92.6102C91.7091 92.6842 91.4855 92.7416 91.2585 92.7818C91.1149 92.7993 90.9502 92.8309 90.7716 92.8484C90.593 92.8659 90.3898 92.8799 90.1762 92.8764C89.9625 92.8729 89.7348 92.8624 89.5002 92.8519C89.2655 92.8414 89.0098 92.7888 88.7471 92.7363C87.5189 92.4671 86.3612 91.9419 85.3496 91.1951C84.7539 90.76 84.2077 90.2608 83.7209 89.7065C83.4636 89.4142 83.2227 89.1078 82.9993 88.7888C82.7722 88.4571 82.5652 88.1121 82.3794 87.7556C81.9864 87.0135 81.7032 86.2183 81.5387 85.3948L81.4862 85.0761L81.4617 84.9115L81.4442 84.7608C81.4161 84.5577 81.3986 84.358 81.3636 84.1409C81.3321 83.7381 81.3146 83.3423 81.304 82.9465C81.2655 81.3738 81.3426 79.8677 81.3916 78.4807C81.4407 77.0936 81.4792 75.8222 81.4512 74.7364C81.4358 73.8587 81.3586 72.9832 81.22 72.1164C81.1309 71.5159 80.9746 70.9273 80.7541 70.3616C80.568 69.8822 80.3015 69.438 79.9661 69.0481C79.8885 68.9601 79.8054 68.877 79.7174 68.7995C79.6409 68.7126 79.559 68.6307 79.4722 68.5543C79.2935 68.409 79.1038 68.2778 78.9048 68.162C78.5092 67.9405 78.0927 67.7586 77.6613 67.6191C77.4582 67.542 77.255 67.486 77.0624 67.4264C76.8697 67.3669 76.6771 67.3214 76.502 67.2863L76.2428 67.2163L75.9976 67.1532L75.5598 67.0376C75.3435 66.9804 75.1335 66.9018 74.9328 66.803C74.8764 66.7801 74.8258 66.745 74.7846 66.7002C74.7434 66.6553 74.7127 66.6019 74.6946 66.5438V66.5438Z" fill="#E9D5DA"/>
<path d="M76.6526 77.1322C76.7402 77.2197 76.7331 77.4369 76.6176 77.7977C76.502 78.1584 76.3549 78.6138 76.2358 79.1742L76.1902 79.3878C76.1727 79.4614 76.1692 79.535 76.1552 79.612C76.1412 79.6891 76.1237 79.9167 76.1097 80.0709C76.0968 80.3987 76.1239 80.7268 76.1902 81.0481C76.3549 81.7826 76.7129 82.4598 77.227 83.0095C77.595 83.4214 78.0073 83.7915 78.4564 84.1129C79.0992 84.5493 79.7889 84.9123 80.5125 85.1952C81.3763 85.533 82.2593 85.8196 83.1569 86.0533C84.1428 86.3176 85.1066 86.6584 86.0396 87.0726C86.9348 87.4869 87.7468 88.0615 88.4354 88.7678C88.966 89.3612 89.4419 90.0013 89.8574 90.6803C90.0361 90.964 90.2112 91.2092 90.3583 91.4263L90.7716 91.9727C90.9184 92.1082 91.0405 92.2682 91.1324 92.4456C90.9471 92.3646 90.7766 92.2534 90.628 92.1163C90.4914 91.9797 90.3058 91.8291 90.1096 91.64C89.9135 91.4508 89.6963 91.2267 89.4897 90.964C89.0091 90.3762 88.482 89.828 87.9135 89.3248C87.5879 89.0521 87.2359 88.8127 86.8627 88.6102C86.4656 88.3917 86.0494 88.21 85.6193 88.0673C84.7041 87.7639 83.7674 87.5298 82.8172 87.3668C81.8409 87.1995 80.8767 86.9678 79.931 86.6733C79.0709 86.3888 78.2496 85.9981 77.4862 85.5104C76.8943 85.1351 76.3559 84.6815 75.8855 84.1619C75.5138 83.746 75.2058 83.2774 74.9713 82.7714C74.5442 81.8477 74.4286 80.8102 74.6421 79.8152C74.6903 79.6108 74.7512 79.4096 74.8242 79.2127C74.8628 79.1181 74.8908 79.0271 74.9293 78.9395L75.0519 78.6908C75.2984 78.1935 75.6344 77.7459 76.0431 77.3703C76.3514 77.1392 76.5685 77.0481 76.6526 77.1322Z" fill="#E9D5DA"/>
<path d="M74.8628 72.6033C75.1184 72.8589 75.2925 73.1846 75.363 73.5392C75.4335 73.8937 75.3973 74.2612 75.259 74.5952C75.1206 74.9292 74.8864 75.2147 74.5858 75.4155C74.2852 75.6164 73.9318 75.7236 73.5703 75.7236C73.2088 75.7236 72.8554 75.6164 72.5548 75.4155C72.2542 75.2147 72.02 74.9292 71.8816 74.5952C71.7433 74.2612 71.7071 73.8937 71.7776 73.5392C71.8481 73.1846 72.0222 72.8589 72.2778 72.6033C72.6206 72.2605 73.0855 72.0679 73.5703 72.0679C74.0551 72.0679 74.52 72.2605 74.8628 72.6033V72.6033Z" fill="#E9D5DA"/>
<path d="M95.8084 93.682C96.0377 93.9113 96.1938 94.2034 96.2571 94.5215C96.3204 94.8395 96.2879 95.1692 96.1638 95.4688C96.0397 95.7684 95.8295 96.0245 95.5599 96.2046C95.2903 96.3848 94.9733 96.4809 94.649 96.4809C94.3247 96.4809 94.0077 96.3848 93.7381 96.2046C93.4685 96.0245 93.2583 95.7684 93.1342 95.4688C93.0101 95.1692 92.9777 94.8395 93.0409 94.5215C93.1042 94.2034 93.2603 93.9113 93.4896 93.682C93.7971 93.3745 94.2142 93.2018 94.649 93.2018C95.0838 93.2018 95.5009 93.3745 95.8084 93.682V93.682Z" fill="#E9D5DA"/>
<path d="M83.7489 92.1654C83.8084 92.1058 83.9135 92.0918 84.0676 92.1198C84.1533 92.1399 84.2376 92.1656 84.3198 92.1969C84.4179 92.2319 84.5265 92.2704 84.6385 92.3195C85.0904 92.5191 85.6683 92.8098 86.3198 93.0971C86.8065 93.313 87.3074 93.4956 87.8189 93.6435C88.5217 93.8278 89.2432 93.9312 89.9695 93.9517C90.1552 93.9622 90.3373 93.9552 90.5159 93.9587C90.6946 93.9622 90.684 93.9517 90.7646 93.9482L91.0098 93.9202C91.332 93.8781 91.6403 93.8151 91.903 93.7766C92.1148 93.7408 92.3291 93.7209 92.5439 93.717C92.7016 93.7275 92.7856 93.7415 92.7856 93.7555C92.7856 93.7696 92.7191 93.8221 92.565 93.8501C92.4108 93.8781 92.2287 93.9762 91.9905 94.0743C91.7523 94.1724 91.4651 94.2984 91.1254 94.414L90.8662 94.4981C90.7751 94.5191 90.677 94.5471 90.5825 94.5647C90.3968 94.5962 90.2042 94.6347 90.0116 94.6592C89.2164 94.7752 88.409 94.7811 87.6123 94.6767C87.0024 94.5927 86.4056 94.4315 85.8364 94.1969C85.1949 93.9215 84.6167 93.5173 84.1377 93.0095C84.0558 92.9202 83.9786 92.8267 83.9065 92.7293C83.8547 92.65 83.809 92.5669 83.7699 92.4806C83.7034 92.337 83.6928 92.2284 83.7489 92.1654Z" fill="#E9D5DA"/>
<path d="M64.7157 116.452C64.9259 116.572 65.2971 116.333 65.6859 115.84C66.1494 115.216 66.5188 114.528 66.7822 113.797C67.2936 112.314 67.7124 110.8 68.0362 109.265C68.2183 108.382 68.3794 107.563 68.4495 106.939C68.5195 106.316 68.502 105.913 68.446 105.906C68.2669 106.194 68.12 106.5 68.0081 106.82C67.763 107.374 67.4057 108.123 67.0344 108.929C66.2884 110.537 65.4302 112.333 65.115 113.16C64.8305 113.867 64.6272 114.604 64.509 115.356C64.446 115.931 64.4915 116.326 64.7157 116.452Z" fill="#E9D5DA"/>
<path d="M24.7404 151.783C24.9436 152.203 25.1964 152.597 25.4935 152.957C25.847 153.393 26.2528 153.785 26.7019 154.123C27.8128 154.93 29.1134 155.437 30.4777 155.594C32.1426 155.785 33.8274 155.711 35.4689 155.373C37.2963 155.018 39.0851 154.486 40.8104 153.787C42.5927 153.063 44.3125 152.194 45.9522 151.188C47.5577 150.195 49.092 149.091 50.5441 147.885C53.0416 145.768 55.3267 143.412 57.3672 140.852C58.1658 139.745 59.038 138.48 59.8891 137.069C60.7402 135.657 61.6229 134.109 62.4635 132.47C64.2121 129.045 65.7037 125.496 66.9258 121.85C67.5423 120.015 68.0852 118.183 68.5476 116.41C68.6561 115.966 68.7647 115.528 68.8768 115.093C68.9889 114.659 69.0659 114.239 69.1605 113.808L69.6684 111.297C70.3304 108.036 70.9819 105.283 71.4757 103.388C72.1057 100.973 72.8824 98.598 73.8015 96.2774C74.5434 94.336 75.5285 92.4965 76.7332 90.8028C77.2227 90.1334 77.7986 89.5316 78.4459 89.013C78.7195 88.7998 79.0114 88.6111 79.3181 88.4491C79.5807 88.3164 79.8566 88.2119 80.1412 88.1374C80.5345 88.044 80.9437 88.0393 81.3391 88.1234C81.6053 88.1864 81.7314 88.2705 81.7244 88.3265C81.7174 88.3825 81.1499 88.4526 80.3759 88.8414C79.6018 89.2302 78.6631 90.1479 77.8085 91.5559C76.8285 93.2486 76.0189 95.0343 75.3917 96.8869C74.6351 98.9884 73.9311 101.36 73.2621 103.864C72.7647 105.713 72.0817 108.421 71.3496 111.64L70.7717 114.144C70.6666 114.579 70.5616 115.02 70.439 115.472L70.0642 116.806C69.5423 118.603 68.9293 120.449 68.2428 122.291C66.8748 125.955 65.2248 129.506 63.3076 132.915C62.39 134.54 61.4338 136.064 60.5126 137.468C59.5914 138.873 58.6141 140.067 57.763 141.156C55.8301 143.852 53.6247 146.342 51.1816 148.585C49.7429 149.886 48.2118 151.08 46.6002 152.158C44.9329 153.272 43.1728 154.24 41.3393 155.051C39.5497 155.849 37.6853 156.467 35.7736 156.897C34.8501 157.097 33.9138 157.233 32.9715 157.303C32.0702 157.379 31.1638 157.371 30.264 157.279C28.5912 157.118 26.9898 156.522 25.6196 155.549C25.0522 155.136 24.5391 154.653 24.0924 154.113C23.7009 153.65 23.368 153.14 23.1012 152.596C22.4641 151.301 22.1882 149.859 22.3026 148.421C22.3453 147.75 22.47 147.086 22.6739 146.445C22.8735 145.834 23.1377 145.246 23.462 144.69C23.7751 144.151 24.1552 143.653 24.5933 143.209C25.0263 142.777 25.5223 142.413 26.0644 142.13C27.0422 141.618 28.1657 141.456 29.2483 141.671C29.7244 141.769 30.1781 141.954 30.5863 142.218C30.9762 142.466 31.2939 142.813 31.5075 143.223C31.705 143.607 31.7596 144.049 31.6616 144.47C31.6174 144.645 31.5503 144.813 31.4619 144.971L31.3288 145.167C31.2901 145.227 31.2456 145.283 31.1957 145.335C31.0365 145.514 30.8553 145.671 30.6563 145.804C30.5123 145.899 30.3612 145.982 30.2045 146.053C29.9523 146.144 29.8087 146.169 29.7737 146.113C29.7386 146.057 29.8227 145.93 29.9908 145.748C30.0784 145.661 30.187 145.552 30.2886 145.409C30.4068 145.259 30.5134 145.101 30.6073 144.936C30.6365 144.891 30.6589 144.843 30.6738 144.792L30.7334 144.648C30.7611 144.549 30.7787 144.447 30.7859 144.344C30.7966 144.13 30.7321 143.919 30.6038 143.748C30.4091 143.518 30.1689 143.33 29.8983 143.197C29.6277 143.064 29.3324 142.988 29.0311 142.974C28.2443 142.895 27.453 143.075 26.7789 143.489C26.4016 143.722 26.0585 144.006 25.7597 144.333C25.4407 144.697 25.1656 145.096 24.9401 145.524C24.6956 145.984 24.4984 146.467 24.3516 146.967C24.201 147.482 24.1082 148.012 24.0749 148.547C24.0154 149.665 24.2445 150.779 24.7404 151.783V151.783Z" fill="#E9D5DA"/>
<path d="M58.2919 140.389C58.2919 140.389 58.9889 139.972 60.2429 139.181C60.5476 138.974 60.8873 138.74 61.2516 138.487C61.6159 138.235 62.0292 137.962 62.4425 137.64C62.8558 137.318 63.3041 136.974 63.7735 136.61C64.2428 136.246 64.7122 135.811 65.2166 135.384C65.2761 135.325 65.3357 135.265 65.3917 135.209C65.4477 135.153 65.5108 135.09 65.5738 135.027L65.9241 134.677C66.1693 134.431 66.4215 134.179 66.6947 133.941C66.9679 133.703 67.2131 133.423 67.4828 133.153C67.7525 132.883 68.0222 132.614 68.2743 132.312C68.4144 132.172 68.537 132.015 68.6666 131.864C68.7962 131.713 68.9258 131.556 69.0589 131.402C69.3146 131.09 69.5878 130.775 69.8505 130.449C70.1132 130.123 70.3549 129.769 70.6141 129.426L70.9994 128.901C71.1325 128.726 71.2446 128.536 71.3706 128.354C71.6123 127.98 71.861 127.605 72.1097 127.223C72.2358 127.034 72.3479 126.831 72.46 126.635C72.572 126.438 72.6876 126.232 72.8067 126.029C72.9258 125.825 73.0379 125.622 73.15 125.419L73.3251 125.111L73.4827 124.792C73.6894 124.361 73.903 123.931 74.0957 123.479L74.2568 123.149L74.3969 122.813C74.4915 122.586 74.5825 122.361 74.6736 122.13L74.9573 121.44L75.0974 121.097L75.22 120.743L75.7034 119.307C75.7454 119.188 75.7874 119.069 75.826 118.946L75.924 118.575L76.1237 117.836L76.3198 117.093C76.3549 116.967 76.3899 116.848 76.4179 116.722L76.495 116.351L76.7927 114.869L76.8662 114.502L76.9188 114.134L77.0204 113.402C77.0869 112.915 77.164 112.431 77.2165 111.959C77.4162 110.057 77.5352 108.242 77.6894 106.526C77.8435 104.81 78.0116 103.199 78.2568 101.699C78.469 100.312 78.7733 98.9411 79.1675 97.5944C79.7487 95.6344 80.6467 93.7828 81.8259 92.1128C82.1523 91.6573 82.5018 91.2189 82.8732 90.7994C83.1464 90.5262 83.269 90.3615 83.269 90.3615L82.8102 90.7363C82.3744 91.1018 81.9604 91.4924 81.5702 91.9062C80.9571 92.5745 80.4006 93.2927 79.9065 94.0533C79.6158 94.4981 79.3321 94.992 79.0484 95.5279C78.7647 96.0638 78.495 96.6417 78.2463 97.2617C77.696 98.6219 77.2511 100.022 76.9153 101.451C76.537 102.978 76.2463 104.628 75.9941 106.358C75.7419 108.088 75.5388 109.903 75.2901 111.748C75.2235 112.207 75.1395 112.663 75.0659 113.128L74.9538 113.822L74.8978 114.172L74.8172 114.519L74.5195 115.924L74.4424 116.274C74.4179 116.396 74.3829 116.509 74.3514 116.624L74.1587 117.328L73.9731 118.032L73.882 118.382L73.7699 118.726L73.3286 120.085L73.22 120.424L73.0939 120.754L72.8382 121.409L72.5896 122.064L72.467 122.382L72.3269 122.698L71.7734 123.952L71.6298 124.249L71.4757 124.55L71.171 125.142C71.0729 125.339 70.9713 125.531 70.8733 125.727C70.7752 125.924 70.6771 126.12 70.5615 126.305C70.3479 126.68 70.1307 127.051 69.9206 127.416C68.3685 130.008 66.5451 132.428 64.481 134.635C64.0222 135.093 63.6089 135.556 63.2026 135.976C62.7963 136.396 62.397 136.782 62.0292 137.149C61.6614 137.517 61.3006 137.822 60.9679 138.127C60.6352 138.431 60.3304 138.694 60.0607 138.943C58.9224 139.864 58.2919 140.389 58.2919 140.389Z" fill="#E9D5DA"/>
<path d="M80.2288 112.372C80.579 112.673 81.2725 112.519 82.0956 111.969C83.1339 111.235 84.0042 110.288 84.649 109.192C84.894 108.778 85.1151 108.352 85.311 107.913C85.5782 107.32 85.8063 106.711 85.9941 106.088C86.2134 105.368 86.3739 104.631 86.4739 103.885C86.5811 103.114 86.6081 102.333 86.5545 101.556C86.4769 100.235 86.1136 98.9468 85.4897 97.78C84.9853 96.8834 84.5475 96.4385 84.4634 96.4876C84.3794 96.5366 84.53 97.1216 84.6701 98.0533C84.8342 99.1863 84.8022 100.339 84.5755 101.461C84.3103 102.698 83.8654 103.888 83.255 104.995C82.9783 105.517 82.6911 105.994 82.4284 106.41C82.1657 106.827 81.9415 107.178 81.7734 107.458C81.1602 108.419 80.6429 109.439 80.2288 110.502C79.924 111.374 79.875 112.067 80.2288 112.372Z" fill="#E9D5DA"/>
<path d="M36.9085 152.014C36.9202 152.139 36.9588 152.259 37.0218 152.366C37.0847 152.474 37.1703 152.567 37.2728 152.638C37.3817 152.711 37.5041 152.761 37.6328 152.787C37.7615 152.812 37.8939 152.811 38.0223 152.785C38.1505 152.755 38.2714 152.699 38.3778 152.622C38.4843 152.544 38.5742 152.446 38.6423 152.333C38.7045 152.226 38.7438 152.106 38.7576 151.983C38.7715 151.859 38.7597 151.734 38.7228 151.615C38.6522 151.381 38.4975 151.182 38.2885 151.055C38.0926 150.928 37.8547 150.884 37.6265 150.932C37.4 150.982 37.2008 151.116 37.0696 151.307C36.9284 151.514 36.8708 151.767 36.9085 152.014V152.014Z" fill="#E9D5DA"/>
<path d="M34.87 152.077C34.8644 152.181 34.8802 152.285 34.9164 152.383C34.9525 152.481 35.0082 152.57 35.0801 152.645C35.2359 152.796 35.4443 152.882 35.6616 152.883C35.8793 152.879 36.0868 152.79 36.2395 152.634C36.3098 152.557 36.3634 152.466 36.3972 152.368C36.4309 152.269 36.444 152.164 36.4356 152.06C36.4174 151.857 36.3252 151.667 36.1764 151.528C36.0353 151.389 35.8451 151.312 35.6475 151.314C35.5495 151.315 35.4525 151.335 35.3623 151.373C35.2721 151.412 35.1904 151.468 35.1222 151.538C34.9752 151.681 34.8855 151.873 34.87 152.077V152.077Z" fill="#E9D5DA"/>
<path d="M33.1082 151.85C33.0907 151.936 33.091 152.024 33.1091 152.109C33.1272 152.195 33.1626 152.276 33.2132 152.347C33.3211 152.487 33.4774 152.58 33.6511 152.61C33.7409 152.623 33.8324 152.618 33.9202 152.595C34.0081 152.572 34.0904 152.532 34.1624 152.477C34.2332 152.424 34.2922 152.356 34.3356 152.279C34.3791 152.202 34.4059 152.117 34.4146 152.028C34.4323 151.857 34.3839 151.685 34.2791 151.547C34.1743 151.41 34.0211 151.318 33.8507 151.289C33.7674 151.276 33.6823 151.28 33.6004 151.301C33.5186 151.321 33.4417 151.358 33.3744 151.408C33.2306 151.515 33.1349 151.673 33.1082 151.85Z" fill="#E9D5DA"/>
<path d="M31.7036 151.482C31.6669 151.612 31.6832 151.75 31.7489 151.868C31.8146 151.986 31.9243 152.072 32.0539 152.109C32.1835 152.146 32.3223 152.129 32.4399 152.064C32.5575 151.998 32.6442 151.888 32.6808 151.759C32.699 151.695 32.7044 151.627 32.6966 151.561C32.6888 151.495 32.6681 151.431 32.6356 151.373C32.603 151.315 32.5594 151.263 32.507 151.222C32.4547 151.181 32.3947 151.15 32.3306 151.132C32.2664 151.114 32.1993 151.108 32.1331 151.116C32.0668 151.124 32.0028 151.145 31.9446 151.177C31.8863 151.21 31.8351 151.253 31.7938 151.306C31.7524 151.358 31.7218 151.418 31.7036 151.482V151.482Z" fill="#E9D5DA"/>
<path d="M30.5407 151.055C30.5036 151.152 30.5067 151.261 30.5494 151.356C30.5921 151.451 30.6709 151.525 30.7684 151.563C30.866 151.6 30.9743 151.597 31.0695 151.554C31.1648 151.511 31.2391 151.432 31.2763 151.335C31.2947 151.287 31.3034 151.235 31.3019 151.184C31.3004 151.132 31.2888 151.081 31.2676 151.034C31.2465 150.987 31.2163 150.944 31.1787 150.909C31.1411 150.873 31.0969 150.845 31.0486 150.827C31.0003 150.809 30.9489 150.8 30.8972 150.801C30.8456 150.803 30.7947 150.815 30.7475 150.836C30.7004 150.857 30.6578 150.887 30.6224 150.925C30.5869 150.962 30.5591 151.006 30.5407 151.055Z" fill="#E9D5DA"/>
<path d="M40.6598 150.925C40.7318 151.119 40.7244 151.334 40.6392 151.523C40.5539 151.712 40.3978 151.859 40.2044 151.934C40.1108 151.971 40.0106 151.987 39.9102 151.983C39.8053 151.98 39.7019 151.958 39.6055 151.916C39.5087 151.88 39.4207 151.824 39.3476 151.75C39.2745 151.677 39.2179 151.589 39.1817 151.493C39.1125 151.299 39.12 151.086 39.2027 150.897C39.2363 150.806 39.2916 150.724 39.3638 150.659C39.4408 150.584 39.5326 150.525 39.6335 150.487C39.7296 150.448 39.8325 150.428 39.9363 150.428C40.0402 150.429 40.1429 150.45 40.2384 150.491C40.3339 150.532 40.4203 150.591 40.4927 150.666C40.565 150.74 40.6218 150.828 40.6598 150.925V150.925Z" fill="#E9D5DA"/>
<path d="M42.299 150.232C42.3335 150.312 42.3518 150.399 42.3529 150.486C42.3539 150.574 42.3378 150.661 42.3052 150.742C42.2727 150.823 42.2245 150.897 42.1633 150.96C42.1022 151.023 42.0292 151.073 41.9487 151.107C41.8683 151.142 41.7818 151.16 41.6942 151.161C41.6066 151.162 41.5197 151.146 41.4384 151.113C41.2742 151.048 41.1428 150.92 41.0731 150.757C41.0034 150.594 41.0012 150.411 41.0669 150.247C41.1326 150.082 41.2608 149.951 41.4234 149.881C41.5859 149.812 41.7695 149.809 41.9337 149.875C42.0979 149.941 42.2293 150.069 42.299 150.232Z" fill="#E9D5DA"/>
<path d="M43.5634 149.514C43.6052 149.567 43.6347 149.629 43.6498 149.695C43.665 149.761 43.6654 149.829 43.651 149.895C43.6363 149.965 43.6076 150.03 43.5666 150.088C43.5257 150.146 43.4733 150.195 43.4128 150.232C43.355 150.27 43.2897 150.296 43.2212 150.308C43.1526 150.32 43.0823 150.317 43.0149 150.3C42.9475 150.283 42.8845 150.252 42.8299 150.208C42.7754 150.165 42.7305 150.111 42.6983 150.049C42.6376 149.934 42.622 149.799 42.6543 149.673C42.6866 149.546 42.7647 149.436 42.8734 149.363C42.9817 149.298 43.1108 149.277 43.2342 149.303C43.3656 149.332 43.4825 149.406 43.5634 149.514V149.514Z" fill="#E9D5DA"/>
<path d="M44.3831 148.596C44.4288 148.62 44.4686 148.655 44.4995 148.697C44.5304 148.738 44.5516 148.787 44.5617 148.838C44.5713 148.896 44.5682 148.955 44.5524 149.012C44.5367 149.069 44.5088 149.122 44.4706 149.167C44.4384 149.211 44.3969 149.248 44.349 149.275C44.3011 149.302 44.2479 149.317 44.1932 149.321C44.1385 149.325 44.0835 149.317 44.0322 149.298C43.9809 149.279 43.9345 149.248 43.8962 149.209C43.8309 149.138 43.7916 149.047 43.7846 148.951C43.7776 148.855 43.8034 148.76 43.8577 148.68C43.9144 148.612 43.9942 148.567 44.0818 148.554C44.1842 148.538 44.2889 148.553 44.3831 148.596V148.596Z" fill="#E9D5DA"/>
<path d="M116.467 64.7645C116.586 64.9816 116.351 65.3494 115.854 65.7417C115.228 66.2009 114.54 66.5699 113.812 66.838C112.328 67.3455 110.814 67.762 109.279 68.0849C108.393 68.2706 107.574 68.4317 106.954 68.5052C106.334 68.5788 105.924 68.5543 105.92 68.5017C106.198 68.3205 106.495 68.1713 106.807 68.0569C107.36 67.8117 108.113 67.451 108.919 67.0867C110.526 66.3406 112.323 65.4825 113.146 65.1638C113.853 64.8769 114.591 64.6746 115.346 64.5613C115.955 64.5123 116.344 64.5508 116.467 64.7645Z" fill="#E9D5DA"/>
<path d="M151.808 24.7927C152.227 24.9967 152.62 25.2508 152.978 25.5492C153.414 25.9016 153.804 26.3063 154.141 26.7541C154.946 27.8644 155.452 29.1637 155.608 30.5265C155.803 32.1913 155.729 33.8766 155.388 35.5177C155.032 37.3451 154.501 39.1339 153.801 40.8591C153.088 42.6383 152.226 44.3537 151.223 45.987C150.234 47.5951 149.13 49.1297 147.92 50.5789C145.802 53.0755 143.448 55.3617 140.89 57.4055C139.78 58.2006 138.523 59.0727 137.104 59.9239C135.686 60.775 134.148 61.6611 132.509 62.5018C129.078 64.2635 125.521 65.769 121.868 67.0061C120.036 67.6261 118.208 68.1655 116.432 68.6243C115.987 68.7399 115.549 68.8485 115.111 68.9571C114.673 69.0657 114.239 69.1287 113.829 69.2373L111.297 69.7452C108.046 70.4037 105.286 71.0481 103.406 71.556C100.99 72.1849 98.6154 72.9616 96.2952 73.8818C94.3547 74.6248 92.5163 75.6111 90.8241 76.8169C90.1537 77.3052 89.5507 77.8799 89.0308 78.5262C88.8238 78.7944 88.641 79.0804 88.4844 79.3808C88.3506 79.6454 88.2461 79.9237 88.1727 80.211C88.0649 80.6012 88.0481 81.0111 88.1236 81.4089C88.1867 81.6821 88.2672 81.8047 88.3303 81.7976C88.3933 81.7906 88.4564 81.2232 88.8417 80.4526C89.227 79.6821 90.1481 78.7329 91.5527 77.8817C93.2482 76.9026 95.0362 76.0931 96.8907 75.4649C98.9887 74.7119 101.356 74.0043 103.868 73.3353C105.714 72.8345 108.428 72.1515 111.644 71.4159C112.452 71.2338 113.286 71.0411 114.148 70.838C114.579 70.7364 115.038 70.6488 115.472 70.5087C115.906 70.3686 116.362 70.2636 116.81 70.1375C118.603 69.6121 120.453 69.0026 122.292 68.3126C125.962 66.9419 129.52 65.2859 132.933 63.3599C134.558 62.4352 136.085 61.4895 137.472 60.5508C138.859 59.6121 140.099 58.6804 141.178 57.8188C143.872 55.8844 146.36 53.6778 148.603 51.2339C149.907 49.7958 151.102 48.2633 152.179 46.649C153.298 44.9794 154.27 43.2156 155.083 41.3775C155.882 39.5883 156.5 37.7239 156.929 35.8119C157.136 34.8928 157.275 33.9598 157.346 33.0203C157.422 32.1153 157.41 31.205 157.311 30.3023C157.153 28.637 156.563 27.0419 155.598 25.6753C155.183 25.101 154.697 24.5819 154.151 24.1307C153.685 23.7405 153.173 23.4077 152.628 23.1395C151.333 22.5061 149.893 22.2293 148.456 22.3374C147.782 22.3881 147.115 22.5162 146.47 22.7191C145.858 22.9207 145.269 23.1861 144.712 23.5107C144.172 23.8233 143.674 24.2035 143.23 24.6421C142.806 25.0709 142.448 25.5609 142.169 26.0957C141.659 27.0739 141.497 28.1969 141.71 29.2795C141.8 29.7605 141.979 30.2203 142.239 30.635C142.487 31.025 142.834 31.3427 143.244 31.5562C143.628 31.755 144.07 31.8097 144.491 31.7103C144.667 31.6673 144.837 31.6014 144.995 31.5142L145.192 31.3811C145.252 31.3422 145.308 31.2976 145.36 31.248C145.537 31.0871 145.694 30.9061 145.829 30.7086C145.923 30.5634 146.005 30.4112 146.074 30.2533C146.172 30.0011 146.19 29.8575 146.137 29.8259C146.085 29.7944 145.955 29.875 145.773 30.0431C145.686 30.1307 145.577 30.2392 145.433 30.3338C145.271 30.4549 145.097 30.5605 144.915 30.649C144.872 30.6761 144.826 30.6984 144.778 30.7156C144.743 30.7506 144.68 30.7576 144.628 30.7751C144.529 30.8068 144.427 30.8245 144.323 30.8277C144.11 30.8359 143.9 30.7717 143.728 30.6455C143.503 30.4511 143.32 30.213 143.19 29.9456C143.06 29.6783 142.985 29.3873 142.971 29.0904C142.895 28.3044 143.077 27.5152 143.489 26.8417C143.72 26.4629 144.004 26.1196 144.333 25.8225C144.694 25.5005 145.093 25.224 145.521 24.9993C145.981 24.7548 146.464 24.5577 146.964 24.4109C147.482 24.2631 148.016 24.1738 148.554 24.1447C149.676 24.0785 150.797 24.3016 151.808 24.7927V24.7927Z" fill="#E9D5DA"/>
<path d="M140.407 58.3512C140.407 58.3512 139.99 59.0482 139.181 60.2776C138.973 60.5835 138.742 60.9198 138.488 61.2864C138.249 61.6716 137.98 62.1025 137.661 62.4843L136.628 63.8328C136.239 64.2846 135.829 64.7715 135.402 65.2758L135.227 65.451C135.167 65.5105 135.108 65.5701 135.048 65.6296L134.698 65.9799C134.453 66.225 134.2 66.4772 133.966 66.7539C133.731 67.0306 133.447 67.2723 133.178 67.542C132.908 67.8117 132.638 68.0814 132.337 68.3336C132.197 68.4737 132.057 68.6138 131.889 68.7259C131.721 68.838 131.584 68.9886 131.43 69.1147C131.118 69.3774 130.806 69.6471 130.474 69.9098C130.141 70.1725 129.798 70.4177 129.451 70.6734C129.279 70.803 129.104 70.929 128.929 71.0621C128.754 71.1952 128.565 71.3073 128.379 71.4299C128.008 71.6751 127.63 71.9203 127.248 72.169C127.062 72.2986 126.863 72.4071 126.663 72.5227C126.463 72.6383 126.26 72.7504 126.053 72.866C125.847 72.9816 125.651 73.0937 125.447 73.2127L125.136 73.3844L124.817 73.542C124.39 73.7521 123.955 73.9623 123.504 74.1549L123.174 74.3161L122.838 74.4562L122.159 74.7364L121.518 75.0621L121.171 75.2057L120.813 75.3248L119.356 75.8222C119.234 75.8607 119.115 75.9028 118.996 75.9378L118.628 76.0394L117.882 76.239C117.633 76.3055 117.388 76.3756 117.143 76.4387C117.02 76.4702 116.894 76.5052 116.768 76.5332L116.397 76.6103L114.919 76.9115L114.551 76.9851L114.183 77.0376L113.451 77.1392C112.964 77.2057 112.477 77.2793 112.004 77.3318C110.103 77.5315 108.292 77.6541 106.572 77.8047C104.852 77.9553 103.244 78.1269 101.749 78.3686C100.361 78.5823 98.99 78.8888 97.6437 79.2863C95.6801 79.8406 93.8219 80.7164 92.1446 81.8782C91.6909 82.1991 91.2537 82.5428 90.8347 82.908C90.565 83.1777 90.3968 83.3038 90.3968 83.3038L90.7716 82.8449C91.1387 82.4106 91.5305 81.9978 91.945 81.6085C92.6118 80.9935 93.3301 80.4369 94.0921 79.9448C94.5369 79.654 95.0308 79.3703 95.5632 79.0831C96.0956 78.7959 96.6805 78.5332 97.3005 78.2845C98.648 77.7267 100.037 77.2747 101.455 76.9325C102.982 76.5612 104.628 76.267 106.358 76.0148C108.089 75.7626 109.903 75.5595 111.752 75.3073C112.211 75.2408 112.663 75.1602 113.129 75.0866L113.822 74.9746L114.176 74.915L114.523 74.8415C114.985 74.7434 115.44 74.6243 115.924 74.5402L116.278 74.4667C116.397 74.4387 116.509 74.4036 116.628 74.3756L117.332 74.183L118.032 73.9938L118.383 73.9028C118.502 73.8677 118.614 73.8257 118.726 73.7907C119.185 73.6401 119.637 73.4965 120.088 73.3458L120.425 73.2408L120.757 73.1112C120.975 73.0271 121.192 72.943 121.412 72.8625L122.064 72.6103L122.386 72.4842L122.701 72.3441L123.952 71.7942L124.257 71.6576L124.558 71.5035C124.757 71.4019 124.954 71.3038 125.15 71.1987C125.346 71.0937 125.546 70.9991 125.738 70.8975C125.931 70.7959 126.127 70.7049 126.316 70.5928C126.687 70.3756 127.059 70.1585 127.423 69.9483C130.016 68.3968 132.438 66.5759 134.649 64.5158C135.108 64.0569 135.566 63.6401 135.99 63.2373C136.414 62.8345 136.796 62.4317 137.143 62.0429C137.489 61.6541 137.815 61.3144 138.12 60.9816C138.425 60.6489 138.691 60.3477 138.936 60.0745C139.882 58.9816 140.407 58.3512 140.407 58.3512Z" fill="#E9D5DA"/>
<path d="M112.386 80.2845C112.687 80.6348 112.537 81.3248 111.987 82.1549C111.249 83.1903 110.301 84.0591 109.206 84.7048C108.794 84.9519 108.367 85.173 107.927 85.3668C107.333 85.6343 106.722 85.8636 106.099 86.0533C105.38 86.2718 104.644 86.4334 103.899 86.5367C103.122 86.6441 102.336 86.6723 101.553 86.6207C100.233 86.5427 98.9453 86.1781 97.7803 85.5524C96.8837 85.0481 96.4423 84.6137 96.4879 84.5262C96.5334 84.4386 97.1218 84.5927 98.057 84.7363C99.1892 84.8974 100.341 84.8642 101.462 84.6383C102.698 84.3731 103.888 83.9282 104.996 83.3178C105.518 83.0411 105.994 82.7539 106.411 82.4912C106.828 82.2285 107.181 82.0008 107.458 81.8362C108.421 81.2239 109.442 80.7077 110.505 80.295C111.391 79.9833 112.081 79.9308 112.386 80.2845Z" fill="#E9D5DA"/>
<path d="M152.029 36.9642C152.153 36.9768 152.272 37.0163 152.379 37.0798C152.486 37.1433 152.578 37.2294 152.649 37.332C152.724 37.44 152.775 37.5624 152.801 37.6914C152.826 37.8204 152.824 37.9533 152.796 38.0816C152.769 38.2093 152.717 38.3305 152.643 38.4381C152.569 38.5457 152.475 38.6376 152.365 38.7085C152.259 38.7737 152.139 38.8152 152.015 38.8303C151.892 38.8454 151.766 38.8338 151.647 38.7961C151.412 38.7237 151.212 38.5664 151.087 38.3548C151.023 38.259 150.978 38.1514 150.957 38.0383C150.935 37.9252 150.936 37.8089 150.96 37.6963C151.009 37.4694 151.145 37.2707 151.339 37.1429C151.539 36.9998 151.785 36.9361 152.029 36.9642Z" fill="#E9D5DA"/>
<path d="M152.095 34.9292C152.198 34.9237 152.302 34.9392 152.398 34.9747C152.495 35.0102 152.584 35.0651 152.659 35.1359C152.811 35.2917 152.896 35.5 152.897 35.7173C152.893 35.9351 152.804 36.1426 152.649 36.2952C152.572 36.3657 152.482 36.4197 152.384 36.4541C152.286 36.4884 152.182 36.5023 152.078 36.4949C151.873 36.4748 151.683 36.3815 151.542 36.2322C151.473 36.1629 151.419 36.0802 151.384 35.9892C151.348 35.8982 151.332 35.8009 151.335 35.7033C151.335 35.5063 151.413 35.3173 151.552 35.1779C151.697 35.0319 151.89 34.9435 152.095 34.9292V34.9292Z" fill="#E9D5DA"/>
<path d="M151.864 33.1639C151.95 33.1466 152.039 33.1467 152.125 33.1641C152.211 33.1816 152.292 33.216 152.365 33.2655C152.504 33.3748 152.596 33.5324 152.624 33.7068C152.638 33.7969 152.634 33.8889 152.611 33.9773C152.589 34.0658 152.549 34.1489 152.495 34.2217C152.44 34.292 152.372 34.3505 152.295 34.3932C152.217 34.436 152.131 34.4623 152.043 34.4704C151.871 34.4869 151.7 34.438 151.563 34.3334C151.426 34.2288 151.333 34.0763 151.304 33.9065C151.279 33.7382 151.322 33.5672 151.423 33.4301C151.53 33.2876 151.688 33.1922 151.864 33.1639V33.1639Z" fill="#E9D5DA"/>
<path d="M151.503 31.7664C151.568 31.7482 151.635 31.7429 151.701 31.7506C151.767 31.7584 151.831 31.7791 151.889 31.8117C151.948 31.8442 151.999 31.8879 152.04 31.9402C152.082 31.9925 152.112 32.0525 152.13 32.1166C152.148 32.1808 152.154 32.2479 152.146 32.3141C152.138 32.3804 152.118 32.4444 152.085 32.5027C152.053 32.5609 152.009 32.6121 151.957 32.6535C151.904 32.6948 151.844 32.7254 151.78 32.7436C151.65 32.7803 151.512 32.764 151.394 32.6983C151.276 32.6326 151.19 32.5229 151.153 32.3933C151.116 32.2638 151.133 32.1249 151.198 32.0073C151.264 31.8897 151.374 31.8031 151.503 31.7664Z" fill="#E9D5DA"/>
<path d="M151.073 30.6C151.121 30.5812 151.172 30.5721 151.224 30.5733C151.276 30.5745 151.327 30.5859 151.374 30.607C151.421 30.628 151.464 30.6582 151.499 30.6958C151.535 30.7334 151.563 30.7777 151.581 30.8262C151.599 30.8746 151.608 30.9261 151.606 30.9778C151.604 31.0296 151.592 31.0804 151.571 31.1275C151.549 31.1745 151.518 31.2168 151.48 31.2519C151.442 31.2871 151.398 31.3143 151.349 31.332C151.256 31.362 151.155 31.3568 151.065 31.3174C150.976 31.2781 150.903 31.2073 150.862 31.1184C150.842 31.0706 150.83 31.0192 150.83 30.9671C150.829 30.915 150.839 30.8633 150.858 30.815C150.878 30.7667 150.907 30.7228 150.944 30.6859C150.981 30.649 151.024 30.6198 151.073 30.6V30.6Z" fill="#E9D5DA"/>
<path d="M150.939 40.7366C151.134 40.8098 151.349 40.8035 151.539 40.7189C151.728 40.6343 151.877 40.4782 151.952 40.2847C151.989 40.1901 152.004 40.0884 151.997 39.987C151.997 39.8833 151.976 39.7807 151.934 39.6858C151.897 39.5884 151.84 39.5 151.766 39.4264C151.693 39.3527 151.604 39.2955 151.507 39.2584C151.313 39.1913 151.1 39.1987 150.911 39.2795C150.822 39.3174 150.742 39.3721 150.673 39.4406C150.6 39.519 150.541 39.6105 150.502 39.7103C150.462 39.8063 150.442 39.9093 150.443 40.0131C150.443 40.117 150.465 40.2196 150.506 40.3151C150.546 40.4107 150.606 40.4971 150.68 40.5695C150.755 40.6418 150.843 40.6986 150.939 40.7366V40.7366Z" fill="#E9D5DA"/>
<path d="M150.249 42.3582C150.33 42.3927 150.416 42.4111 150.504 42.4121C150.592 42.4132 150.678 42.397 150.76 42.3645C150.841 42.3319 150.915 42.2837 150.978 42.2226C151.041 42.1614 151.091 42.0885 151.125 42.008C151.16 41.9275 151.178 41.841 151.179 41.7534C151.18 41.6659 151.164 41.5789 151.131 41.4976C151.099 41.4163 151.051 41.3422 150.989 41.2795C150.928 41.2168 150.855 41.1668 150.775 41.1323C150.614 41.0688 150.434 41.0697 150.274 41.1349C150.113 41.2001 149.984 41.3246 149.913 41.4826C149.847 41.6439 149.845 41.8244 149.907 41.9872C149.97 42.15 150.092 42.2827 150.249 42.3582V42.3582Z" fill="#E9D5DA"/>
<path d="M149.517 43.6087C149.57 43.65 149.632 43.6789 149.697 43.6935C149.762 43.708 149.83 43.7078 149.896 43.6928C149.966 43.6795 150.032 43.6514 150.09 43.6103C150.148 43.5692 150.196 43.5161 150.232 43.4546C150.27 43.3971 150.296 43.3323 150.308 43.2643C150.319 43.1962 150.317 43.1265 150.3 43.0596C150.283 42.9926 150.252 42.9299 150.21 42.8755C150.168 42.8211 150.114 42.7761 150.053 42.7436C149.997 42.7092 149.934 42.6865 149.869 42.6767C149.804 42.6669 149.737 42.6703 149.673 42.6866C149.609 42.703 149.549 42.7319 149.497 42.7717C149.444 42.8116 149.4 42.8615 149.367 42.9187C149.302 43.0269 149.28 43.156 149.307 43.2795C149.335 43.4109 149.41 43.5277 149.517 43.6087V43.6087Z" fill="#E9D5DA"/>
<path d="M148.624 44.4528C148.648 44.498 148.682 44.5372 148.723 44.5675C148.765 44.5978 148.812 44.6185 148.862 44.628C148.921 44.6369 148.98 44.6335 149.037 44.6178C149.094 44.6021 149.146 44.5745 149.192 44.5369C149.237 44.5053 149.274 44.464 149.302 44.416C149.329 44.3681 149.345 44.3147 149.349 44.2597C149.353 44.2047 149.345 44.1494 149.325 44.098C149.305 44.0466 149.274 44.0003 149.234 43.9625C149.163 43.8964 149.072 43.8565 148.976 43.8495C148.88 43.8425 148.784 43.8687 148.705 43.9239C148.638 43.9824 148.594 44.0633 148.582 44.1516C148.564 44.2539 148.579 44.3593 148.624 44.4528V44.4528Z" fill="#E9D5DA"/>
<path d="M269.617 277.543C269.593 277.608 269.585 277.678 269.593 277.747C269.601 277.815 269.625 277.881 269.662 277.939C269.779 278.116 269.952 278.25 270.153 278.317C270.462 278.422 270.796 278.428 271.109 278.335C271.489 278.23 271.829 278.014 272.086 277.715C272.248 277.524 272.381 277.309 272.478 277.078C272.596 276.787 272.667 276.48 272.689 276.167C272.709 275.834 272.679 275.5 272.601 275.176C272.527 274.857 272.409 274.551 272.251 274.265C272.109 274.011 271.94 273.774 271.746 273.557C271.663 273.464 271.574 273.375 271.48 273.291C271.4 273.211 271.322 273.134 271.231 273.085C271.14 273.036 271.077 272.973 271.007 272.93C270.951 272.895 270.892 272.862 270.832 272.832C270.727 272.783 270.66 272.766 270.639 272.787C270.618 272.808 270.636 272.874 270.678 272.973L270.857 273.382L270.965 273.652C271 273.75 271.039 273.852 271.07 273.96C271.136 274.182 271.184 274.408 271.214 274.636C271.242 274.869 271.242 275.104 271.214 275.337C271.193 275.531 271.148 275.721 271.081 275.904C271.024 276.045 270.95 276.178 270.86 276.3C270.842 276.321 270.822 276.341 270.801 276.36C270.784 276.378 270.767 276.396 270.748 276.412C270.73 276.426 270.713 276.443 270.699 276.461L270.668 276.493C270.573 276.587 270.496 276.664 270.419 276.741C270.343 276.831 270.26 276.914 270.17 276.99C269.943 277.126 269.753 277.316 269.617 277.543V277.543Z" fill="#E9D5DA"/>
<path d="M273.984 276.223C273.387 274.898 272.6 273.668 271.648 272.57C271.643 272.564 271.639 272.558 271.638 272.55C271.636 272.542 271.638 272.534 271.641 272.528L271.578 271.47C271.575 271.436 271.579 271.403 271.591 271.371C271.602 271.339 271.62 271.311 271.644 271.287C271.668 271.263 271.696 271.245 271.728 271.234C271.76 271.222 271.793 271.218 271.827 271.221L272.885 271.284C272.885 271.284 272.885 271.284 272.93 271.288C274.029 272.24 275.261 273.026 276.587 273.62C276.587 273.62 277.414 276.5 277.564 277.113C277.57 277.125 277.571 277.139 277.569 277.153C277.566 277.167 277.559 277.179 277.549 277.189C277.54 277.199 277.527 277.205 277.514 277.208C277.5 277.211 277.486 277.209 277.473 277.204C276.846 277.067 273.991 276.237 273.984 276.223Z" fill="#E9D5DA"/>
<path d="M277.981 269.179C278.046 269.155 278.116 269.147 278.185 269.154C278.255 269.161 278.321 269.184 278.38 269.221C278.557 269.34 278.688 269.513 278.755 269.715C278.861 270.021 278.87 270.353 278.78 270.664C278.674 271.046 278.457 271.388 278.156 271.645C277.966 271.806 277.752 271.937 277.522 272.034C277.231 272.153 276.922 272.225 276.608 272.247C276.273 272.273 275.936 272.246 275.61 272.167C275.291 272.094 274.983 271.977 274.695 271.82C274.442 271.678 274.205 271.509 273.988 271.316L273.722 271.05L273.512 270.804L273.358 270.58L273.263 270.402C273.214 270.297 273.196 270.23 273.217 270.209C273.238 270.188 273.301 270.209 273.403 270.247L273.809 270.43C273.893 270.465 273.988 270.496 274.079 270.538L274.387 270.643C274.609 270.707 274.835 270.755 275.063 270.787C275.296 270.811 275.531 270.811 275.764 270.787C275.958 270.765 276.148 270.721 276.331 270.654C276.47 270.598 276.602 270.525 276.724 270.437C276.746 270.417 276.767 270.396 276.787 270.374C276.806 270.358 276.823 270.34 276.839 270.321C276.852 270.304 276.868 270.289 276.885 270.276L276.923 270.237C277.018 270.142 277.095 270.065 277.172 269.988C277.263 269.911 277.347 269.827 277.424 269.736C277.56 269.506 277.751 269.315 277.981 269.179V269.179Z" fill="#E9D5DA"/>
<path d="M276.181 267.393C276.119 267.378 276.062 267.349 276.015 267.307C275.967 267.266 275.93 267.213 275.907 267.155C275.809 266.954 275.73 266.744 275.673 266.528L275.557 266.09L275.494 265.845L275.428 265.582C275.386 265.4 275.326 265.214 275.284 265.025C275.242 264.836 275.168 264.629 275.095 264.423C274.951 263.993 274.769 263.577 274.552 263.179C274.434 262.981 274.303 262.792 274.16 262.612C274.079 262.531 273.995 262.447 273.932 262.349C273.869 262.251 273.767 262.184 273.683 262.1C273.295 261.764 272.852 261.496 272.373 261.309C271.806 261.092 271.216 260.937 270.615 260.846C269.747 260.707 268.87 260.631 267.992 260.619C266.909 260.587 265.641 260.622 264.251 260.682C262.86 260.741 261.361 260.811 259.785 260.776C259.393 260.762 258.993 260.748 258.594 260.713C258.391 260.699 258.191 260.682 257.971 260.636L257.816 260.615L257.655 260.594L257.337 260.542C256.511 260.377 255.713 260.094 254.969 259.701C254.611 259.517 254.266 259.31 253.936 259.081C253.615 258.857 253.308 258.615 253.014 258.356C252.459 257.871 251.959 257.326 251.522 256.731C250.772 255.719 250.246 254.558 249.981 253.326C249.927 253.076 249.888 252.822 249.866 252.566C249.848 252.325 249.83 252.097 249.841 251.89C249.851 251.684 249.855 251.477 249.869 251.295C249.883 251.113 249.918 250.952 249.939 250.804C249.98 250.577 250.039 250.353 250.118 250.135C250.174 249.988 250.212 249.915 250.233 249.922C250.254 249.929 250.258 250.009 250.258 250.164C250.258 250.318 250.251 250.542 250.237 250.843C250.251 250.983 250.251 251.144 250.268 251.316C250.286 251.488 250.3 251.67 250.338 251.862C250.377 252.055 250.419 252.265 250.468 252.482C250.517 252.699 250.591 252.92 250.675 253.151C251.067 254.208 251.668 255.174 252.443 255.992C252.883 256.462 253.372 256.885 253.901 257.253C254.178 257.448 254.466 257.628 254.762 257.792C255.059 257.95 255.364 258.092 255.676 258.216C256.299 258.465 256.953 258.624 257.62 258.689L257.869 258.706L257.992 258.71L258.121 258.713C258.296 258.72 258.475 258.717 258.657 258.717C259.014 258.71 259.379 258.696 259.736 258.668C261.186 258.57 262.654 258.37 264.048 258.209C265.442 258.048 266.773 257.887 267.96 257.876C268.994 257.833 270.03 257.891 271.053 258.048C271.891 258.177 272.708 258.421 273.48 258.773C274.246 259.127 274.935 259.628 275.508 260.248C275.645 260.4 275.773 260.559 275.893 260.724C276.009 260.88 276.115 261.043 276.212 261.211C276.397 261.529 276.553 261.863 276.678 262.209C276.883 262.798 277.007 263.412 277.046 264.034C277.064 264.293 277.069 264.552 277.06 264.811C277.042 265.053 277.032 265.281 276.997 265.491L276.951 265.796L276.895 266.069C276.861 266.23 276.816 266.389 276.762 266.545C276.696 266.77 276.594 266.983 276.461 267.176C276.37 267.33 276.275 267.389 276.181 267.393Z" fill="#E9D5DA"/>
<path d="M265.599 265.428C265.683 265.512 265.582 265.74 265.333 266.037C264.957 266.446 264.51 266.782 264.013 267.029L263.764 267.151C263.676 267.19 263.585 267.218 263.491 267.256C262.917 267.467 262.307 267.563 261.697 267.538C261.086 267.512 260.486 267.367 259.932 267.109C259.426 266.875 258.957 266.567 258.541 266.195C258.022 265.725 257.568 265.186 257.193 264.594C256.704 263.832 256.312 263.012 256.027 262.153C255.734 261.207 255.502 260.243 255.333 259.267C255.168 258.317 254.934 257.38 254.633 256.465C254.488 256.037 254.308 255.622 254.093 255.225C253.889 254.853 253.649 254.501 253.379 254.174C252.877 253.607 252.33 253.081 251.743 252.601C251.487 252.381 251.26 252.167 251.063 251.978C250.867 251.789 250.713 251.628 250.591 251.456C250.356 251.144 250.24 250.966 250.265 250.948C250.438 251.046 250.595 251.17 250.731 251.316L251.277 251.729C251.498 251.88 251.739 252.051 252.023 252.23C252.702 252.645 253.341 253.122 253.932 253.656C254.639 254.341 255.213 255.153 255.624 256.048C256.038 256.988 256.375 257.96 256.633 258.955C256.869 259.851 257.156 260.733 257.494 261.596C257.793 262.307 258.17 262.983 258.619 263.61C258.94 264.059 259.31 264.471 259.722 264.839C260.111 265.215 260.572 265.507 261.077 265.699C261.582 265.891 262.121 265.979 262.661 265.957C262.815 265.949 262.97 265.933 263.123 265.908C263.196 265.897 263.27 265.894 263.344 265.876L263.557 265.831C264.128 265.701 264.569 265.519 264.934 265.449C265.298 265.379 265.526 265.326 265.599 265.428Z" fill="#E9D5DA"/>
<path d="M250.468 258.43C250.408 258.489 250.296 258.475 250.153 258.409C250.066 258.37 249.983 258.324 249.904 258.272C249.807 258.2 249.713 258.123 249.624 258.041C249.116 257.562 248.712 256.984 248.436 256.342C248.203 255.774 248.04 255.178 247.953 254.57C247.847 253.773 247.853 252.966 247.971 252.171C247.992 251.974 248.034 251.785 248.083 251.582C248.1 251.488 248.128 251.389 248.149 251.298C248.17 251.207 248.202 251.12 248.23 251.036C248.349 250.699 248.471 250.416 248.573 250.174C248.675 249.932 248.748 249.74 248.797 249.6C248.846 249.459 248.878 249.379 248.899 249.379C248.92 249.379 248.927 249.463 248.93 249.621C248.926 249.834 248.905 250.048 248.867 250.258C248.825 250.524 248.752 250.843 248.72 251.155L248.692 251.4C248.692 251.484 248.685 251.568 248.682 251.649C248.678 251.729 248.682 252.013 248.689 252.195C248.712 252.923 248.819 253.646 249.007 254.349C249.155 254.861 249.338 255.362 249.554 255.848C249.841 256.5 250.132 257.078 250.328 257.533C250.376 257.636 250.418 257.741 250.454 257.848C250.485 257.931 250.511 258.015 250.531 258.1C250.542 258.265 250.534 258.377 250.468 258.43Z" fill="#E9D5DA"/>
<path d="M267.711 275.862C267.706 275.926 267.685 275.987 267.649 276.039C267.613 276.092 267.565 276.135 267.508 276.163C267.315 276.297 267.103 276.398 266.878 276.465C266.722 276.519 266.563 276.563 266.401 276.598L266.128 276.654L265.823 276.699C265.617 276.731 265.386 276.745 265.144 276.762C264.885 276.771 264.625 276.767 264.366 276.748C263.744 276.707 263.131 276.584 262.541 276.381C262.195 276.256 261.861 276.1 261.543 275.915C261.379 275.82 261.217 275.708 261.056 275.596C260.891 275.476 260.733 275.347 260.583 275.207C259.962 274.637 259.459 273.949 259.105 273.183C258.753 272.411 258.509 271.594 258.38 270.755C258.224 269.734 258.165 268.699 258.205 267.666C258.237 266.465 258.366 265.13 258.527 263.736C258.689 262.342 258.888 260.875 258.986 259.424C259.007 259.06 259.018 258.692 259.028 258.346C259.032 258.167 259.032 257.985 259.028 257.813L259.021 257.68L259.018 257.558L259.004 257.312C258.935 256.647 258.775 255.994 258.527 255.372C258.404 255.06 258.262 254.755 258.1 254.461C257.938 254.163 257.758 253.876 257.561 253.6C257.194 253.072 256.773 252.585 256.303 252.146C255.487 251.374 254.523 250.774 253.47 250.384C253.242 250.297 253.018 250.234 252.804 250.174C252.591 250.114 252.384 250.069 252.191 250.044C251.999 250.02 251.809 249.992 251.641 249.971C251.473 249.95 251.312 249.95 251.168 249.939C250.885 249.936 250.657 249.932 250.503 249.939C250.349 249.946 250.265 249.932 250.261 249.908C250.258 249.883 250.324 249.845 250.478 249.796C250.697 249.722 250.92 249.664 251.147 249.624C251.291 249.607 251.456 249.575 251.634 249.558C251.813 249.54 252.016 249.526 252.23 249.53C252.443 249.533 252.671 249.544 252.906 249.554C253.14 249.565 253.396 249.617 253.659 249.67C254.887 249.939 256.045 250.464 257.056 251.211C257.652 251.646 258.198 252.145 258.685 252.699C258.942 252.992 259.183 253.298 259.407 253.617C259.634 253.949 259.841 254.294 260.027 254.65C260.42 255.392 260.703 256.188 260.867 257.011L260.92 257.33L260.944 257.494L260.962 257.645C260.99 257.848 261.007 258.048 261.042 258.265C261.074 258.668 261.091 259.064 261.102 259.459C261.14 261.032 261.063 262.538 261.014 263.925C260.965 265.312 260.927 266.584 260.955 267.67C260.97 268.547 261.047 269.423 261.186 270.29C261.275 270.89 261.431 271.479 261.652 272.044C261.838 272.524 262.104 272.968 262.44 273.358C262.517 273.446 262.6 273.529 262.689 273.606C262.765 273.693 262.847 273.775 262.934 273.852C263.112 273.997 263.302 274.128 263.501 274.244C263.897 274.465 264.313 274.647 264.745 274.787C264.948 274.864 265.151 274.92 265.344 274.98C265.536 275.039 265.729 275.085 265.904 275.12L266.163 275.19L266.408 275.253L266.846 275.368C267.062 275.426 267.272 275.504 267.473 275.603C267.53 275.626 267.58 275.661 267.621 275.706C267.663 275.751 267.693 275.804 267.711 275.862V275.862Z" fill="#E9D5DA"/>
<path d="M265.753 265.274C265.666 265.186 265.673 264.969 265.788 264.608C265.904 264.248 266.051 263.792 266.17 263.232L266.216 263.018C266.233 262.945 266.237 262.871 266.251 262.794C266.265 262.717 266.282 262.489 266.296 262.335C266.309 262.007 266.282 261.679 266.216 261.358C266.051 260.623 265.693 259.946 265.179 259.396C264.811 258.985 264.399 258.614 263.949 258.293C263.307 257.857 262.617 257.494 261.893 257.211C261.03 256.873 260.147 256.586 259.249 256.353C258.263 256.088 257.299 255.748 256.366 255.333C255.471 254.919 254.659 254.344 253.971 253.638C253.44 253.045 252.964 252.405 252.549 251.726C252.37 251.442 252.195 251.197 252.048 250.98L251.634 250.433C251.487 250.298 251.365 250.138 251.274 249.96C251.459 250.041 251.629 250.153 251.778 250.29C251.915 250.426 252.1 250.577 252.296 250.766C252.492 250.955 252.71 251.179 252.916 251.442C253.397 252.03 253.924 252.578 254.492 253.081C254.818 253.354 255.17 253.593 255.543 253.796C255.94 254.014 256.356 254.196 256.787 254.339C257.702 254.642 258.638 254.876 259.589 255.039C260.565 255.206 261.529 255.438 262.475 255.733C263.335 256.017 264.156 256.408 264.92 256.896C265.512 257.271 266.05 257.724 266.52 258.244C266.892 258.66 267.2 259.128 267.435 259.635C267.862 260.558 267.977 261.596 267.764 262.591C267.716 262.795 267.655 262.996 267.582 263.193C267.543 263.288 267.515 263.379 267.477 263.466L267.354 263.715C267.108 264.212 266.772 264.66 266.363 265.036C266.055 265.267 265.837 265.358 265.753 265.274Z" fill="#E9D5DA"/>
<path d="M267.543 269.803C267.288 269.547 267.113 269.221 267.043 268.867C266.972 268.512 267.009 268.145 267.147 267.811C267.285 267.477 267.52 267.191 267.82 266.99C268.121 266.79 268.474 266.682 268.836 266.682C269.197 266.682 269.551 266.79 269.851 266.99C270.152 267.191 270.386 267.477 270.524 267.811C270.663 268.145 270.699 268.512 270.628 268.867C270.558 269.221 270.384 269.547 270.128 269.803C269.785 270.145 269.32 270.338 268.836 270.338C268.351 270.338 267.886 270.145 267.543 269.803V269.803Z" fill="#E9D5DA"/>
<path d="M246.598 248.724C246.368 248.495 246.212 248.203 246.149 247.884C246.086 247.566 246.118 247.237 246.242 246.937C246.366 246.638 246.576 246.381 246.846 246.201C247.116 246.021 247.433 245.925 247.757 245.925C248.081 245.925 248.398 246.021 248.668 246.201C248.937 246.381 249.148 246.638 249.272 246.937C249.396 247.237 249.428 247.566 249.365 247.884C249.302 248.203 249.146 248.495 248.916 248.724C248.609 249.031 248.192 249.204 247.757 249.204C247.322 249.204 246.905 249.031 246.598 248.724V248.724Z" fill="#E9D5DA"/>
<path d="M258.657 250.241C258.598 250.3 258.492 250.314 258.338 250.286C258.253 250.266 258.168 250.24 258.086 250.209C257.988 250.174 257.879 250.135 257.767 250.086C257.316 249.887 256.738 249.596 256.086 249.309C255.599 249.093 255.099 248.91 254.587 248.762C253.884 248.578 253.163 248.475 252.436 248.454C252.251 248.444 252.069 248.451 251.89 248.447C251.711 248.444 251.722 248.454 251.641 248.458L251.396 248.486C251.074 248.528 250.766 248.591 250.503 248.629C250.291 248.665 250.077 248.685 249.862 248.689C249.704 248.678 249.62 248.664 249.62 248.65C249.62 248.636 249.687 248.584 249.841 248.556C249.995 248.528 250.177 248.43 250.415 248.332C250.654 248.234 250.941 248.107 251.281 247.992L251.54 247.908C251.631 247.887 251.729 247.859 251.823 247.841C252.009 247.81 252.202 247.771 252.394 247.747C253.19 247.631 253.997 247.625 254.794 247.729C255.404 247.813 256 247.974 256.569 248.209C257.211 248.484 257.789 248.889 258.268 249.396C258.35 249.486 258.427 249.579 258.499 249.677C258.551 249.756 258.597 249.839 258.636 249.925C258.703 250.069 258.713 250.178 258.657 250.241Z" fill="#E9D5DA"/>
<path d="M277.69 225.953C277.48 225.834 277.109 226.073 276.72 226.566C276.256 227.19 275.887 227.878 275.624 228.608C275.112 230.092 274.694 231.606 274.37 233.141C274.188 234.023 274.026 234.843 273.956 235.467C273.886 236.09 273.904 236.493 273.96 236.5C274.139 236.212 274.286 235.906 274.398 235.586C274.643 235.032 275 234.283 275.372 233.477C276.118 231.869 276.976 230.073 277.291 229.246C277.575 228.539 277.779 227.802 277.897 227.05C277.96 226.475 277.914 226.08 277.69 225.953Z" fill="#E9D5DA"/>
<path d="M317.666 190.623C317.462 190.203 317.21 189.809 316.912 189.449C316.559 189.012 316.153 188.621 315.704 188.283C314.593 187.476 313.293 186.969 311.928 186.812C310.263 186.621 308.579 186.695 306.937 187.032C305.11 187.388 303.321 187.92 301.596 188.619C299.813 189.343 298.093 190.212 296.454 191.218C294.848 192.211 293.314 193.315 291.862 194.521C289.364 196.638 287.079 198.994 285.039 201.554C284.24 202.661 283.368 203.926 282.517 205.337C281.666 206.749 280.783 208.297 279.942 209.936C278.194 213.361 276.702 216.91 275.48 220.556C274.864 222.391 274.321 224.223 273.858 225.996C273.75 226.44 273.641 226.878 273.529 227.313C273.417 227.747 273.34 228.167 273.245 228.598L272.738 231.109C272.076 234.37 271.424 237.123 270.93 239.018C270.3 241.433 269.524 243.808 268.604 246.129C267.862 248.07 266.877 249.909 265.673 251.603C265.183 252.273 264.607 252.874 263.96 253.393C263.686 253.606 263.395 253.795 263.088 253.957C262.825 254.09 262.549 254.194 262.265 254.269C261.871 254.362 261.462 254.367 261.067 254.283C260.801 254.22 260.675 254.135 260.682 254.079C260.689 254.023 261.256 253.953 262.03 253.565C262.804 253.176 263.743 252.258 264.597 250.85C265.577 249.157 266.387 247.372 267.014 245.519C267.771 243.417 268.475 241.046 269.144 238.542C269.641 236.692 270.324 233.985 271.056 230.766L271.634 228.262C271.739 227.827 271.844 227.386 271.967 226.934L272.342 225.6C272.864 223.803 273.477 221.957 274.163 220.115C275.531 216.451 277.181 212.9 279.098 209.491C280.016 207.866 280.972 206.342 281.893 204.938C282.815 203.533 283.792 202.339 284.643 201.25C286.576 198.554 288.781 196.064 291.224 193.821C292.663 192.52 294.194 191.326 295.806 190.248C297.473 189.134 299.233 188.166 301.067 187.355C302.856 186.557 304.721 185.939 306.632 185.509C307.556 185.309 308.492 185.173 309.434 185.103C310.336 185.027 311.242 185.035 312.142 185.127C313.815 185.288 315.416 185.884 316.786 186.857C317.354 187.27 317.867 187.753 318.313 188.293C318.705 188.756 319.038 189.266 319.305 189.81C319.942 191.105 320.218 192.547 320.103 193.985C320.061 194.656 319.936 195.32 319.732 195.961C319.532 196.572 319.268 197.16 318.944 197.715C318.631 198.255 318.251 198.753 317.813 199.197C317.38 199.629 316.884 199.993 316.342 200.276C315.364 200.788 314.24 200.95 313.158 200.735C312.682 200.637 312.228 200.452 311.82 200.188C311.43 199.94 311.112 199.593 310.898 199.183C310.701 198.799 310.646 198.357 310.744 197.936C310.789 197.761 310.856 197.593 310.944 197.435L311.077 197.239C311.116 197.179 311.16 197.122 311.21 197.071C311.369 196.892 311.551 196.735 311.75 196.602C311.894 196.507 312.045 196.424 312.201 196.353C312.454 196.262 312.597 196.237 312.632 196.293C312.667 196.349 312.583 196.476 312.415 196.658C312.328 196.745 312.219 196.854 312.117 196.997C311.999 197.147 311.893 197.305 311.799 197.47C311.769 197.515 311.747 197.563 311.732 197.614L311.673 197.757C311.645 197.857 311.627 197.959 311.62 198.062C311.609 198.276 311.674 198.487 311.802 198.658C311.997 198.888 312.237 199.076 312.508 199.209C312.778 199.342 313.073 199.418 313.375 199.432C314.162 199.511 314.953 199.33 315.627 198.917C316.004 198.684 316.347 198.4 316.646 198.073C316.965 197.709 317.24 197.31 317.466 196.882C317.71 196.422 317.908 195.938 318.054 195.439C318.205 194.924 318.298 194.394 318.331 193.859C318.391 192.741 318.161 191.626 317.666 190.623V190.623Z" fill="#E9D5DA"/>
<path d="M284.114 202.017C284.114 202.017 283.417 202.433 282.163 203.225C281.858 203.432 281.519 203.666 281.154 203.919C280.79 204.171 280.377 204.444 279.963 204.766C279.55 205.088 279.102 205.432 278.632 205.796C278.163 206.16 277.694 206.595 277.189 207.022C277.13 207.081 277.07 207.141 277.014 207.197C276.958 207.253 276.895 207.316 276.832 207.379L276.482 207.729C276.237 207.975 275.984 208.227 275.711 208.465C275.438 208.703 275.193 208.983 274.923 209.253C274.653 209.523 274.384 209.792 274.132 210.094C273.991 210.234 273.869 210.391 273.739 210.542C273.61 210.693 273.48 210.85 273.347 211.004C273.091 211.316 272.818 211.631 272.555 211.957C272.293 212.283 272.051 212.637 271.792 212.98L271.407 213.505C271.273 213.68 271.161 213.869 271.035 214.052C270.794 214.426 270.545 214.801 270.296 215.183C270.17 215.372 270.058 215.575 269.946 215.771C269.834 215.968 269.718 216.174 269.599 216.377C269.48 216.581 269.368 216.784 269.256 216.987L269.081 217.295L268.923 217.614C268.717 218.045 268.503 218.475 268.31 218.927L268.149 219.256L268.009 219.593C267.914 219.82 267.823 220.045 267.732 220.276L267.449 220.966L267.308 221.309L267.186 221.663L266.703 223.099C266.661 223.218 266.618 223.337 266.58 223.46L266.482 223.831L266.282 224.57L266.086 225.313C266.051 225.439 266.016 225.558 265.988 225.684L265.911 226.055L265.613 227.537L265.54 227.904L265.487 228.272L265.386 229.004C265.319 229.491 265.242 229.974 265.189 230.447C264.99 232.349 264.871 234.164 264.717 235.88C264.562 237.596 264.394 239.207 264.149 240.706C263.937 242.093 263.633 243.465 263.238 244.812C262.657 246.772 261.759 248.623 260.58 250.293C260.254 250.749 259.904 251.187 259.533 251.607C259.26 251.88 259.137 252.044 259.137 252.044L259.596 251.67C260.032 251.304 260.446 250.914 260.836 250.5C261.449 249.831 262.005 249.113 262.499 248.353C262.79 247.908 263.074 247.414 263.358 246.878C263.641 246.342 263.911 245.764 264.16 245.144C264.71 243.784 265.155 242.384 265.491 240.955C265.869 239.428 266.16 237.778 266.412 236.048C266.664 234.318 266.867 232.503 267.116 230.657C267.182 230.199 267.266 229.743 267.34 229.277L267.452 228.584L267.508 228.234L267.589 227.887L267.886 226.482L267.963 226.132C267.988 226.01 268.023 225.897 268.055 225.782L268.247 225.078L268.433 224.374L268.524 224.024L268.636 223.68L269.077 222.321L269.186 221.982L269.312 221.652L269.568 220.997L269.816 220.342L269.939 220.024L270.079 219.708L270.632 218.454L270.776 218.157L270.93 217.855L271.235 217.264C271.333 217.067 271.435 216.875 271.533 216.679C271.631 216.482 271.729 216.286 271.844 216.101C272.058 215.726 272.275 215.355 272.485 214.99C274.037 212.398 275.861 209.978 277.925 207.771C278.384 207.313 278.797 206.85 279.203 206.43C279.61 206.01 280.009 205.624 280.377 205.257C280.745 204.889 281.105 204.584 281.438 204.279C281.771 203.975 282.075 203.712 282.345 203.463C283.484 202.542 284.114 202.017 284.114 202.017Z" fill="#E9D5DA"/>
<path d="M262.177 230.034C261.827 229.733 261.133 229.887 260.31 230.437C259.272 231.171 258.402 232.118 257.757 233.214C257.512 233.627 257.291 234.054 257.095 234.493C256.828 235.086 256.6 235.695 256.412 236.318C256.193 237.038 256.032 237.775 255.932 238.521C255.825 239.292 255.798 240.073 255.851 240.85C255.929 242.171 256.292 243.459 256.916 244.626C257.421 245.523 257.858 245.967 257.943 245.918C258.027 245.869 257.876 245.284 257.736 244.353C257.572 243.22 257.604 242.067 257.83 240.945C258.096 239.708 258.541 238.518 259.151 237.411C259.428 236.889 259.715 236.412 259.978 235.995C260.24 235.579 260.464 235.228 260.633 234.948C261.246 233.987 261.763 232.967 262.177 231.904C262.482 231.032 262.531 230.339 262.177 230.034Z" fill="#E9D5DA"/>
<path d="M305.497 190.391C305.486 190.267 305.447 190.147 305.384 190.04C305.321 189.932 305.236 189.839 305.133 189.768C305.024 189.695 304.902 189.645 304.773 189.619C304.644 189.594 304.512 189.595 304.384 189.621C304.255 189.651 304.135 189.707 304.028 189.784C303.922 189.862 303.832 189.96 303.764 190.073C303.701 190.18 303.662 190.3 303.648 190.423C303.634 190.547 303.646 190.672 303.683 190.791C303.754 191.025 303.908 191.224 304.117 191.351C304.313 191.478 304.551 191.522 304.779 191.474C305.006 191.424 305.205 191.29 305.336 191.099C305.478 190.892 305.535 190.639 305.497 190.391V190.391Z" fill="#E9D5DA"/>
<path d="M307.536 190.328C307.541 190.225 307.526 190.121 307.49 190.023C307.453 189.925 307.398 189.836 307.326 189.761C307.17 189.61 306.962 189.524 306.744 189.523C306.527 189.527 306.319 189.616 306.166 189.772C306.096 189.849 306.043 189.94 306.009 190.038C305.975 190.137 305.962 190.242 305.97 190.346C305.989 190.549 306.081 190.739 306.229 190.878C306.371 191.017 306.561 191.093 306.758 191.092C306.856 191.091 306.953 191.071 307.044 191.033C307.134 190.994 307.215 190.938 307.284 190.868C307.431 190.725 307.52 190.533 307.536 190.328V190.328Z" fill="#E9D5DA"/>
<path d="M309.298 190.556C309.315 190.47 309.315 190.382 309.297 190.297C309.279 190.211 309.243 190.13 309.193 190.059C309.085 189.919 308.929 189.826 308.755 189.796C308.665 189.783 308.574 189.788 308.486 189.811C308.398 189.834 308.315 189.874 308.243 189.929C308.173 189.982 308.114 190.05 308.07 190.127C308.027 190.204 308 190.289 307.991 190.377C307.974 190.549 308.022 190.721 308.127 190.859C308.232 190.996 308.385 191.088 308.555 191.117C308.639 191.13 308.724 191.126 308.806 191.105C308.887 191.085 308.964 191.048 309.032 190.997C309.175 190.891 309.271 190.733 309.298 190.556Z" fill="#E9D5DA"/>
<path d="M310.702 190.924C310.739 190.794 310.723 190.655 310.657 190.538C310.591 190.42 310.482 190.334 310.352 190.297C310.222 190.26 310.084 190.277 309.966 190.342C309.848 190.408 309.762 190.518 309.725 190.647C309.707 190.711 309.702 190.778 309.709 190.845C309.717 190.911 309.738 190.975 309.77 191.033C309.803 191.091 309.847 191.143 309.899 191.184C309.951 191.225 310.011 191.256 310.075 191.274C310.14 191.292 310.207 191.298 310.273 191.29C310.339 191.282 310.403 191.261 310.461 191.229C310.52 191.196 310.571 191.153 310.612 191.1C310.654 191.048 310.684 190.988 310.702 190.924V190.924Z" fill="#E9D5DA"/>
<path d="M311.865 191.351C311.902 191.254 311.899 191.145 311.857 191.05C311.814 190.955 311.735 190.88 311.638 190.843C311.54 190.806 311.432 190.809 311.336 190.852C311.241 190.895 311.167 190.973 311.13 191.071C311.111 191.119 311.103 191.171 311.104 191.222C311.106 191.274 311.117 191.325 311.138 191.372C311.159 191.419 311.19 191.462 311.227 191.497C311.265 191.533 311.309 191.56 311.357 191.579C311.406 191.597 311.457 191.606 311.509 191.605C311.56 191.603 311.611 191.591 311.658 191.57C311.706 191.549 311.748 191.519 311.784 191.481C311.819 191.444 311.847 191.4 311.865 191.351Z" fill="#E9D5DA"/>
<path d="M301.746 191.481C301.674 191.287 301.682 191.072 301.767 190.883C301.852 190.694 302.008 190.547 302.201 190.472C302.295 190.435 302.395 190.419 302.496 190.423C302.601 190.426 302.704 190.448 302.8 190.49C302.897 190.526 302.985 190.582 303.058 190.656C303.131 190.729 303.188 190.817 303.224 190.913C303.293 191.107 303.286 191.32 303.203 191.509C303.17 191.6 303.114 191.682 303.042 191.747C302.965 191.822 302.873 191.881 302.772 191.919C302.676 191.958 302.573 191.978 302.47 191.977C302.366 191.977 302.263 191.955 302.168 191.915C302.072 191.874 301.986 191.815 301.913 191.74C301.841 191.666 301.784 191.577 301.746 191.481V191.481Z" fill="#E9D5DA"/>
<path d="M300.107 192.174C300.072 192.094 300.054 192.007 300.053 191.92C300.052 191.832 300.068 191.745 300.101 191.664C300.133 191.583 300.181 191.509 300.243 191.446C300.304 191.383 300.377 191.333 300.457 191.299C300.538 191.264 300.624 191.246 300.712 191.245C300.799 191.244 300.886 191.26 300.968 191.292C301.132 191.358 301.263 191.486 301.333 191.649C301.403 191.811 301.405 191.995 301.339 192.159C301.273 192.324 301.145 192.455 300.983 192.525C300.82 192.594 300.636 192.596 300.472 192.531C300.308 192.465 300.177 192.337 300.107 192.174Z" fill="#E9D5DA"/>
<path d="M298.842 192.892C298.801 192.839 298.771 192.777 298.756 192.711C298.741 192.645 298.741 192.577 298.755 192.511C298.77 192.441 298.798 192.376 298.839 192.318C298.88 192.26 298.933 192.211 298.993 192.174C299.051 192.136 299.116 192.11 299.185 192.098C299.253 192.086 299.324 192.089 299.391 192.106C299.458 192.123 299.521 192.154 299.576 192.197C299.631 192.241 299.675 192.295 299.708 192.356C299.768 192.472 299.784 192.607 299.752 192.733C299.719 192.86 299.641 192.97 299.533 193.043C299.424 193.108 299.295 193.129 299.172 193.103C299.04 193.074 298.923 193 298.842 192.892V192.892Z" fill="#E9D5DA"/>
<path d="M298.023 193.81C297.977 193.785 297.937 193.751 297.906 193.709C297.876 193.667 297.854 193.619 297.844 193.568C297.835 193.51 297.838 193.451 297.853 193.394C297.869 193.337 297.897 193.284 297.935 193.239C297.967 193.195 298.009 193.158 298.057 193.131C298.105 193.104 298.158 193.088 298.213 193.084C298.267 193.08 298.322 193.088 298.374 193.108C298.425 193.127 298.471 193.158 298.51 193.197C298.575 193.268 298.614 193.359 298.621 193.455C298.628 193.551 298.603 193.646 298.548 193.726C298.492 193.794 298.412 193.839 298.324 193.852C298.222 193.868 298.117 193.853 298.023 193.81V193.81Z" fill="#E9D5DA"/>
<path d="M225.939 277.641C225.82 277.424 226.055 277.057 226.552 276.664C227.178 276.205 227.866 275.836 228.594 275.568C230.078 275.06 231.592 274.644 233.127 274.321C234.013 274.135 234.832 273.974 235.452 273.901C236.072 273.827 236.482 273.852 236.486 273.904C236.208 274.085 235.911 274.235 235.599 274.349C235.046 274.594 234.293 274.955 233.487 275.319C231.88 276.065 230.083 276.923 229.26 277.242C228.553 277.529 227.814 277.731 227.06 277.845C226.451 277.894 226.062 277.855 225.939 277.641Z" fill="#E9D5DA"/>
<path d="M190.598 317.613C190.179 317.409 189.786 317.155 189.428 316.857C188.992 316.504 188.602 316.1 188.265 315.652C187.46 314.542 186.954 313.242 186.798 311.879C186.603 310.215 186.677 308.529 187.018 306.888C187.374 305.061 187.905 303.272 188.605 301.547C189.318 299.768 190.18 298.052 191.183 296.419C192.172 294.811 193.276 293.276 194.486 291.827C196.604 289.33 198.958 287.044 201.515 285C202.626 284.205 203.883 283.333 205.302 282.482C206.72 281.631 208.258 280.745 209.897 279.904C213.328 278.142 216.885 276.637 220.538 275.4C222.37 274.78 224.198 274.24 225.974 273.782C226.419 273.666 226.857 273.557 227.295 273.449C227.733 273.34 228.167 273.277 228.577 273.169L231.109 272.661C234.359 272.002 237.12 271.358 239 270.85C241.416 270.221 243.79 269.444 246.111 268.524C248.051 267.781 249.89 266.795 251.582 265.589C252.252 265.101 252.855 264.526 253.375 263.88C253.582 263.612 253.765 263.326 253.922 263.025C254.055 262.761 254.16 262.482 254.233 262.195C254.341 261.805 254.358 261.395 254.282 260.997C254.219 260.724 254.139 260.601 254.076 260.608C254.013 260.615 253.95 261.183 253.564 261.953C253.179 262.724 252.258 263.673 250.853 264.524C249.158 265.503 247.37 266.313 245.515 266.941C243.417 267.694 241.049 268.402 238.538 269.071C236.692 269.571 233.978 270.254 230.762 270.99C229.954 271.172 229.12 271.365 228.258 271.568C227.827 271.67 227.368 271.757 226.934 271.897C226.5 272.037 226.044 272.142 225.596 272.268C223.803 272.794 221.953 273.403 220.114 274.093C216.444 275.464 212.886 277.12 209.473 279.046C207.848 279.971 206.321 280.916 204.934 281.855C203.547 282.794 202.307 283.726 201.228 284.587C198.534 286.522 196.045 288.728 193.803 291.172C192.499 292.61 191.304 294.143 190.227 295.757C189.108 297.427 188.136 299.19 187.323 301.028C186.524 302.818 185.906 304.682 185.477 306.594C185.27 307.513 185.131 308.446 185.06 309.386C184.984 310.291 184.996 311.201 185.095 312.104C185.253 313.769 185.843 315.364 186.808 316.731C187.222 317.305 187.709 317.824 188.255 318.275C188.721 318.665 189.233 318.998 189.778 319.266C191.073 319.9 192.513 320.177 193.95 320.069C194.624 320.018 195.291 319.89 195.936 319.687C196.548 319.485 197.137 319.22 197.694 318.895C198.234 318.583 198.732 318.202 199.176 317.764C199.6 317.335 199.958 316.845 200.237 316.31C200.747 315.332 200.909 314.209 200.696 313.126C200.606 312.645 200.427 312.186 200.167 311.771C199.919 311.381 199.572 311.063 199.162 310.85C198.778 310.651 198.336 310.596 197.915 310.696C197.739 310.739 197.569 310.805 197.41 310.892L197.214 311.025C197.154 311.064 197.098 311.108 197.046 311.158C196.869 311.319 196.712 311.5 196.577 311.697C196.483 311.843 196.401 311.995 196.332 312.153C196.234 312.405 196.216 312.548 196.269 312.58C196.321 312.612 196.451 312.531 196.633 312.363C196.72 312.275 196.829 312.167 196.973 312.072C197.135 311.951 197.309 311.845 197.491 311.757C197.534 311.73 197.58 311.708 197.628 311.69C197.663 311.655 197.726 311.648 197.778 311.631C197.877 311.599 197.979 311.581 198.083 311.578C198.296 311.57 198.506 311.634 198.678 311.76C198.903 311.955 199.086 312.193 199.216 312.46C199.346 312.728 199.421 313.019 199.435 313.316C199.511 314.102 199.329 314.891 198.917 315.564C198.686 315.943 198.402 316.286 198.072 316.583C197.712 316.905 197.313 317.182 196.885 317.407C196.425 317.651 195.942 317.848 195.442 317.995C194.923 318.143 194.39 318.232 193.852 318.261C192.73 318.327 191.609 318.104 190.598 317.613V317.613Z" fill="#E9D5DA"/>
<path d="M201.999 284.055C201.999 284.055 202.416 283.358 203.225 282.128C203.433 281.822 203.664 281.486 203.918 281.12C204.156 280.734 204.426 280.303 204.745 279.922L205.778 278.573C206.167 278.121 206.577 277.634 207.004 277.13L207.179 276.955C207.239 276.895 207.298 276.836 207.358 276.776L207.708 276.426C207.953 276.181 208.205 275.929 208.44 275.652C208.675 275.375 208.959 275.134 209.228 274.864C209.498 274.594 209.768 274.325 210.069 274.072C210.209 273.932 210.349 273.792 210.517 273.68C210.685 273.568 210.822 273.417 210.976 273.291C211.288 273.029 211.599 272.759 211.932 272.496C212.265 272.233 212.608 271.988 212.955 271.733C213.127 271.603 213.302 271.477 213.477 271.344C213.652 271.211 213.841 271.099 214.027 270.976C214.398 270.731 214.776 270.486 215.158 270.237C215.344 270.107 215.543 269.999 215.743 269.883C215.943 269.768 216.146 269.656 216.353 269.54C216.559 269.424 216.755 269.312 216.958 269.193L217.27 269.022L217.589 268.864C218.016 268.654 218.451 268.444 218.902 268.251L219.232 268.09L219.568 267.95L220.247 267.67L220.888 267.344L221.235 267.2L221.592 267.081L223.05 266.584C223.172 266.545 223.291 266.503 223.41 266.468L223.778 266.367L224.524 266.167C224.773 266.1 225.018 266.03 225.263 265.967C225.386 265.936 225.512 265.901 225.638 265.873L226.009 265.796L227.487 265.494L227.855 265.421L228.223 265.368L228.955 265.267C229.442 265.2 229.929 265.127 230.402 265.074C232.303 264.874 234.114 264.752 235.834 264.601C237.554 264.451 239.162 264.279 240.657 264.037C242.044 263.824 243.416 263.517 244.762 263.12C246.726 262.565 248.584 261.69 250.261 260.528C250.715 260.207 251.152 259.863 251.571 259.498C251.841 259.228 252.009 259.102 252.009 259.102L251.634 259.561C251.267 259.995 250.875 260.408 250.461 260.797C249.794 261.412 249.076 261.969 248.314 262.461C247.869 262.752 247.375 263.036 246.843 263.323C246.31 263.61 245.725 263.873 245.105 264.121C243.758 264.679 242.369 265.131 240.951 265.473C239.424 265.845 237.778 266.139 236.048 266.391C234.317 266.643 232.503 266.846 230.654 267.099C230.195 267.165 229.743 267.246 229.277 267.319L228.584 267.431L228.23 267.491L227.883 267.564C227.421 267.663 226.965 267.782 226.482 267.866L226.128 267.939C226.009 267.967 225.897 268.002 225.778 268.03L225.074 268.223L224.374 268.412L224.023 268.503C223.904 268.538 223.792 268.58 223.68 268.615C223.221 268.766 222.769 268.909 222.317 269.06L221.981 269.165L221.648 269.295C221.431 269.379 221.214 269.463 220.993 269.543L220.342 269.796L220.02 269.922L219.705 270.062L218.454 270.612L218.149 270.748L217.848 270.902C217.648 271.004 217.452 271.102 217.256 271.207C217.06 271.312 216.86 271.407 216.668 271.508C216.475 271.61 216.279 271.701 216.09 271.813C215.719 272.03 215.347 272.247 214.983 272.458C212.39 274.009 209.968 275.83 207.757 277.89C207.298 278.349 206.839 278.766 206.416 279.169C205.992 279.571 205.61 279.974 205.263 280.363C204.917 280.752 204.591 281.092 204.286 281.424C203.981 281.757 203.715 282.058 203.47 282.331C202.524 283.424 201.999 284.055 201.999 284.055Z" fill="#E9D5DA"/>
<path d="M230.02 262.121C229.718 261.771 229.869 261.081 230.419 260.251C231.157 259.216 232.105 258.347 233.2 257.701C233.612 257.454 234.039 257.233 234.479 257.039C235.073 256.772 235.683 256.542 236.307 256.353C237.026 256.134 237.762 255.973 238.507 255.869C239.284 255.762 240.07 255.734 240.853 255.785C242.173 255.863 243.461 256.228 244.626 256.854C245.522 257.358 245.964 257.792 245.918 257.88C245.873 257.967 245.284 257.813 244.349 257.67C243.217 257.509 242.065 257.542 240.944 257.768C239.708 258.033 238.517 258.478 237.41 259.088C236.888 259.365 236.412 259.652 235.995 259.915C235.578 260.177 235.225 260.405 234.948 260.57C233.985 261.182 232.964 261.698 231.901 262.111C231.014 262.423 230.324 262.475 230.02 262.121Z" fill="#E9D5DA"/>
<path d="M190.377 305.442C190.253 305.429 190.134 305.39 190.027 305.326C189.92 305.263 189.828 305.177 189.757 305.074C189.682 304.966 189.63 304.844 189.605 304.715C189.58 304.586 189.581 304.453 189.61 304.324C189.637 304.197 189.689 304.075 189.763 303.968C189.837 303.86 189.931 303.768 190.041 303.697C190.147 303.632 190.267 303.591 190.39 303.576C190.514 303.561 190.64 303.572 190.759 303.61C190.994 303.682 191.194 303.84 191.319 304.051C191.383 304.147 191.427 304.255 191.449 304.368C191.471 304.481 191.47 304.597 191.445 304.71C191.397 304.937 191.261 305.135 191.067 305.263C190.867 305.406 190.621 305.47 190.377 305.442Z" fill="#E9D5DA"/>
<path d="M190.311 307.477C190.208 307.482 190.104 307.467 190.007 307.431C189.911 307.396 189.822 307.341 189.747 307.27C189.595 307.114 189.51 306.906 189.509 306.689C189.513 306.471 189.602 306.263 189.757 306.111C189.834 306.04 189.924 305.986 190.022 305.952C190.12 305.918 190.224 305.904 190.328 305.911C190.533 305.931 190.723 306.024 190.864 306.174C190.933 306.243 190.987 306.326 191.022 306.417C191.058 306.508 191.074 306.605 191.071 306.703C191.071 306.9 190.993 307.089 190.854 307.228C190.709 307.374 190.516 307.462 190.311 307.477V307.477Z" fill="#E9D5DA"/>
<path d="M190.542 309.242C190.456 309.259 190.367 309.259 190.281 309.242C190.195 309.224 190.113 309.19 190.041 309.14C189.902 309.031 189.81 308.874 189.782 308.699C189.768 308.609 189.772 308.517 189.795 308.429C189.817 308.34 189.856 308.257 189.911 308.184C189.965 308.114 190.034 308.055 190.111 308.013C190.189 307.97 190.275 307.944 190.363 307.936C190.535 307.919 190.706 307.968 190.843 308.073C190.98 308.177 191.073 308.33 191.102 308.499C191.126 308.668 191.084 308.839 190.983 308.976C190.876 309.118 190.718 309.214 190.542 309.242V309.242Z" fill="#E9D5DA"/>
<path d="M190.903 310.64C190.838 310.658 190.771 310.663 190.705 310.655C190.639 310.648 190.575 310.627 190.517 310.594C190.458 310.562 190.407 310.518 190.366 310.466C190.324 310.413 190.294 310.353 190.276 310.289C190.257 310.225 190.252 310.158 190.26 310.092C190.268 310.026 190.288 309.962 190.321 309.903C190.353 309.845 190.397 309.794 190.449 309.752C190.502 309.711 190.562 309.681 190.626 309.662C190.755 309.626 190.894 309.642 191.012 309.708C191.129 309.773 191.216 309.883 191.253 310.013C191.29 310.142 191.273 310.281 191.208 310.399C191.142 310.516 191.032 310.603 190.903 310.64Z" fill="#E9D5DA"/>
<path d="M191.333 311.806C191.285 311.825 191.234 311.834 191.182 311.833C191.13 311.831 191.079 311.82 191.032 311.799C190.985 311.778 190.942 311.748 190.907 311.71C190.871 311.673 190.843 311.628 190.825 311.58C190.807 311.531 190.798 311.48 190.8 311.428C190.802 311.376 190.814 311.326 190.835 311.278C190.857 311.231 190.887 311.189 190.925 311.154C190.963 311.119 191.008 311.092 191.057 311.074C191.15 311.044 191.251 311.049 191.341 311.089C191.43 311.128 191.502 311.199 191.544 311.288C191.564 311.335 191.575 311.387 191.576 311.439C191.577 311.491 191.567 311.543 191.547 311.591C191.528 311.639 191.499 311.683 191.462 311.72C191.425 311.757 191.382 311.786 191.333 311.806V311.806Z" fill="#E9D5DA"/>
<path d="M191.467 301.669C191.272 301.596 191.057 301.602 190.867 301.687C190.678 301.772 190.529 301.928 190.454 302.121C190.417 302.216 190.402 302.318 190.409 302.419C190.409 302.523 190.43 302.625 190.472 302.72C190.509 302.818 190.566 302.906 190.64 302.98C190.713 303.053 190.802 303.11 190.899 303.147C191.093 303.215 191.306 303.207 191.495 303.126C191.584 303.089 191.664 303.034 191.733 302.965C191.806 302.887 191.864 302.795 191.904 302.696C191.944 302.6 191.964 302.497 191.963 302.393C191.962 302.289 191.941 302.186 191.9 302.091C191.86 301.995 191.8 301.909 191.726 301.836C191.651 301.764 191.563 301.707 191.467 301.669V301.669Z" fill="#E9D5DA"/>
<path d="M192.157 300.048C192.076 300.013 191.99 299.995 191.902 299.994C191.814 299.993 191.727 300.009 191.646 300.041C191.565 300.074 191.491 300.122 191.428 300.183C191.365 300.245 191.315 300.317 191.281 300.398C191.246 300.478 191.228 300.565 191.227 300.653C191.226 300.74 191.242 300.827 191.275 300.908C191.307 300.99 191.355 301.064 191.417 301.126C191.478 301.189 191.551 301.239 191.631 301.274C191.792 301.337 191.972 301.336 192.132 301.271C192.293 301.206 192.422 301.081 192.493 300.923C192.559 300.762 192.561 300.582 192.499 300.419C192.436 300.256 192.314 300.123 192.157 300.048V300.048Z" fill="#E9D5DA"/>
<path d="M192.889 298.797C192.836 298.756 192.774 298.727 192.709 298.712C192.643 298.698 192.576 298.698 192.51 298.713C192.44 298.726 192.374 298.755 192.316 298.796C192.258 298.837 192.21 298.89 192.174 298.951C192.136 299.009 192.11 299.074 192.098 299.142C192.087 299.21 192.089 299.279 192.106 299.346C192.123 299.413 192.153 299.476 192.196 299.53C192.238 299.585 192.292 299.63 192.353 299.662C192.409 299.697 192.472 299.719 192.537 299.729C192.602 299.739 192.669 299.736 192.733 299.719C192.797 299.703 192.857 299.674 192.909 299.634C192.962 299.594 193.006 299.544 193.039 299.487C193.104 299.379 193.126 299.25 193.099 299.127C193.07 298.995 192.996 298.878 192.889 298.797V298.797Z" fill="#E9D5DA"/>
<path d="M193.782 297.953C193.758 297.908 193.724 297.869 193.683 297.838C193.641 297.808 193.594 297.788 193.544 297.778C193.485 297.769 193.426 297.772 193.369 297.788C193.312 297.804 193.26 297.831 193.214 297.869C193.169 297.901 193.132 297.942 193.104 297.99C193.077 298.038 193.061 298.091 193.057 298.146C193.053 298.201 193.061 298.257 193.081 298.308C193.101 298.359 193.132 298.406 193.172 298.443C193.243 298.51 193.334 298.549 193.43 298.556C193.526 298.563 193.622 298.537 193.701 298.482C193.768 298.424 193.812 298.343 193.824 298.254C193.842 298.152 193.827 298.047 193.782 297.953V297.953Z" fill="#E9D5DA"/>
<defs>
<clipPath id="clip0_27_372">
<rect width="60" height="76" fill="white" transform="translate(166.352 168.399) rotate(-20.8951)"/>
</clipPath>
</defs>
</svg>
